<?xml version="1.0" encoding="utf-8"?>
<!-- Generator: Adobe Illustrator 23.0.3, SVG Export Plug-In . SVG Version: 6.00 Build 0)  -->
<svg version="1.1" id="Layer_1" xmlns="http://www.w3.org/2000/svg" xmlns:xlink="http://www.w3.org/1999/xlink" x="0px" y="0px"
	 viewBox="0 0 256 256" style="enable-background:new 0 0 256 256;" xml:space="preserve">
<style type="text/css">
	.st0{fill:#FFFFFF;}
</style>
<g>
	<rect x="14.29" y="90.38" class="st0" width="52.7" height="152.24"/>
	<path class="st0" d="M40.35,66.95c-14.93,0-26.93-12-26.93-26.93c0-14.93,12-26.93,26.93-26.93c14.93,0,26.93,12,26.93,26.93
		C66.99,54.95,54.99,66.95,40.35,66.95z"/>
	<path class="st0" d="M242.94,242.61h-0.29h-43.91v-73.78c0-17.86-2.34-40.69-26.64-40.69c-24.89,0-28.98,19.32-28.98,39.52v74.95
		H99.2V90.38h40.99v20.49h1.17c6.44-11.71,21.37-20.79,44.79-20.79c48.3,0,56.8,27.81,56.8,69.09V242.61L242.94,242.61z"/>
</g>
</svg>
