<?xml version="1.0" encoding="utf-8"?>
<!-- Generator: Adobe Illustrator 23.0.3, SVG Export Plug-In . SVG Version: 6.00 Build 0)  -->
<svg version="1.1" id="Layer_1" xmlns="http://www.w3.org/2000/svg" xmlns:xlink="http://www.w3.org/1999/xlink" x="0px" y="0px"
	 viewBox="0 0 256 256" style="enable-background:new 0 0 256 256;" xml:space="preserve">
<style type="text/css">
	.st0{fill:#FFFFFF;}
</style>
<g>
	<path class="st0" d="M179.12,14.19H77.49c-34.51,0-62.59,28.08-62.59,62.6v101.63c0,34.51,28.08,62.59,62.59,62.59h101.63
		c34.52,0,62.6-28.08,62.6-62.59V76.79C241.72,42.27,213.64,14.19,179.12,14.19z M221.59,178.42c0,23.42-19.05,42.47-42.47,42.47
		H77.49c-23.41,0-42.47-19.05-42.47-42.47V76.79c0-23.42,19.05-42.47,42.47-42.47h101.63c23.42,0,42.47,19.05,42.47,42.47V178.42
		L221.59,178.42z"/>
	<path class="st0" d="M128.31,69.16c-32.23,0-58.45,26.22-58.45,58.45c0,32.22,26.22,58.44,58.45,58.44
		c32.23,0,58.45-26.22,58.45-58.44C186.75,95.38,160.53,69.16,128.31,69.16z M128.31,165.92c-21.13,0-38.32-17.19-38.32-38.32
		c0-21.13,17.19-38.32,38.32-38.32c21.13,0,38.32,17.19,38.32,38.32C166.63,148.74,149.44,165.92,128.31,165.92z"/>
	<path class="st0" d="M189.2,52.1c-3.88,0-7.69,1.57-10.43,4.32c-2.75,2.74-4.33,6.55-4.33,10.44c0,3.88,1.58,7.69,4.33,10.44
		c2.74,2.74,6.55,4.32,10.43,4.32c3.89,0,7.69-1.58,10.44-4.32c2.75-2.75,4.32-6.56,4.32-10.44c0-3.89-1.57-7.7-4.32-10.44
		C196.91,53.67,193.09,52.1,189.2,52.1z"/>
</g>
</svg>
