<?xml version="1.0" encoding="utf-8"?>
<!-- Generator: Adobe Illustrator 23.0.3, SVG Export Plug-In . SVG Version: 6.00 Build 0)  -->
<svg version="1.1" id="Layer_1" xmlns="http://www.w3.org/2000/svg" xmlns:xlink="http://www.w3.org/1999/xlink" x="0px" y="0px"
	 viewBox="0 0 256 256" style="enable-background:new 0 0 256 256;" xml:space="preserve">
<style type="text/css">
	.st0{fill:#FFFFFF;}
</style>
<path class="st0" d="M140.3,181.59c-13.85-1.07-19.66-7.93-30.51-14.54c-5.97,31.31-13.26,61.35-34.86,77
	c-6.68-47.3,9.78-82.83,17.43-120.56c-13.03-21.96,1.56-66.08,29.04-55.21c33.8,13.38-29.3,81.55,13.07,90.07
	c44.22,8.88,62.29-76.76,34.86-104.62C129.69,13.52,53.99,52.81,63.3,110.39c2.27,14.07,16.79,18.33,5.8,37.78
	c-25.37-5.59-32.95-25.63-31.97-52.3c1.56-43.65,39.22-74.21,77-78.45c47.77-5.35,92.58,17.53,98.77,62.46
	C219.88,130.6,191.34,185.54,140.3,181.59z"/>
</svg>
