<?xml version="1.0" encoding="utf-8"?>
<!-- Generator: Adobe Illustrator 23.0.3, SVG Export Plug-In . SVG Version: 6.00 Build 0)  -->
<svg version="1.1" id="Layer_1" xmlns="http://www.w3.org/2000/svg" xmlns:xlink="http://www.w3.org/1999/xlink" x="0px" y="0px"
	 viewBox="0 0 256 256" style="enable-background:new 0 0 256 256;" xml:space="preserve">
<style type="text/css">
	.st0{fill:#FFFFFF;}
</style>
<path class="st0" d="M219.03,80.94c0.15,1.34,0.23,3.35,0.23,6.03c0,12.5-1.82,25.04-5.47,37.61c-3.64,12.58-9.23,24.63-16.75,36.17
	c-7.51,11.53-16.48,21.73-26.89,30.58c-10.42,8.85-22.92,15.92-37.51,21.2c-14.58,5.29-30.21,7.93-46.88,7.93
	c-25.89,0-49.85-7-71.88-20.98c3.57,0.44,7.29,0.67,11.16,0.67c21.58,0,41-6.7,58.27-20.09c-10.12-0.15-19.16-3.27-27.12-9.38
	c-7.96-6.1-13.51-13.84-16.63-23.22c3.87,0.6,6.77,0.89,8.7,0.89c3.27,0,7.07-0.6,11.38-1.78c-10.86-2.09-20.01-7.48-27.46-16.18
	c-7.44-8.71-11.16-18.64-11.16-29.8v-0.45c7.89,3.72,15.33,5.65,22.32,5.8c-13.54-9.08-20.31-22.1-20.31-39.07
	c0-8.33,2.16-16.22,6.47-23.66c11.76,14.44,26.05,25.97,42.86,34.6c16.82,8.63,34.83,13.47,54.02,14.51
	c-0.74-2.83-1.12-6.4-1.12-10.72c0-12.95,4.58-24,13.73-33.15c9.15-9.15,20.2-13.73,33.15-13.73c13.7,0,25.08,4.91,34.16,14.73
	c10.27-1.93,20.24-5.73,29.92-11.38c-3.72,11.46-10.64,20.16-20.76,26.12c9.67-1.34,18.67-3.87,27-7.59
	C236.22,66.13,228.41,74.24,219.03,80.94z"/>
</svg>
