<?xml version="1.0" encoding="utf-8"?>
<!-- Generator: Adobe Illustrator 23.0.3, SVG Export Plug-In . SVG Version: 6.00 Build 0)  -->
<svg version="1.1" id="Layer_1" xmlns="http://www.w3.org/2000/svg" xmlns:xlink="http://www.w3.org/1999/xlink" x="0px" y="0px"
	 viewBox="0 0 256 256" style="enable-background:new 0 0 256 256;" xml:space="preserve">
<style type="text/css">
	.st0{fill:#FFFFFF;}
</style>
<path class="st0" d="M241.58,193.7c0.48,3.67-0.64,6.87-3.35,9.59l-31.87,31.63c-1.44,1.6-3.31,2.96-5.63,4.07
	c-2.32,1.12-4.6,1.84-6.83,2.16c-0.16,0-0.64,0.04-1.44,0.12c-0.8,0.08-1.83,0.12-3.12,0.12c-3.04,0-7.95-0.52-14.74-1.56
	c-6.79-1.04-15.1-3.59-24.92-7.67c-9.83-4.07-20.97-10.19-33.43-18.33c-12.46-8.15-25.72-19.33-39.78-33.55
	c-11.18-11.02-20.45-21.57-27.8-31.63c-7.35-10.07-13.26-19.37-17.74-27.92c-4.47-8.55-7.83-16.3-10.07-23.25
	c-2.24-6.95-3.75-12.94-4.55-17.97c-0.8-5.03-1.12-8.99-0.96-11.86c0.16-2.88,0.24-4.47,0.24-4.79c0.32-2.24,1.04-4.51,2.16-6.83
	c1.12-2.32,2.48-4.19,4.08-5.63l31.87-31.87c2.24-2.24,4.79-3.36,7.67-3.36c2.08,0,3.92,0.6,5.51,1.8c1.6,1.2,2.96,2.68,4.08,4.43
	l25.64,48.65c1.44,2.56,1.84,5.35,1.2,8.39c-0.64,3.04-2,5.59-4.07,7.67L81.97,97.84c-0.32,0.32-0.6,0.84-0.84,1.56
	c-0.24,0.72-0.36,1.32-0.36,1.8c0.64,3.35,2.08,7.19,4.31,11.5c1.92,3.83,4.87,8.51,8.87,14.02c3.99,5.51,9.67,11.86,17.02,19.05
	c7.19,7.35,13.58,13.06,19.17,17.14c5.59,4.07,10.27,7.07,14.02,8.98c3.76,1.92,6.63,3.08,8.63,3.47l2.99,0.6
	c0.32,0,0.84-0.12,1.56-0.36c0.72-0.24,1.24-0.52,1.56-0.84l13.66-13.9c2.88-2.56,6.23-3.83,10.07-3.83c2.72,0,4.87,0.48,6.47,1.44
	h0.24l46.25,27.32C238.94,187.87,240.94,190.51,241.58,193.7z"/>
</svg>
