<?xml version="1.0" encoding="utf-8"?>
<!-- Generator: Adobe Illustrator 23.0.3, SVG Export Plug-In . SVG Version: 6.00 Build 0)  -->
<svg version="1.1" id="Layer_1" xmlns="http://www.w3.org/2000/svg" xmlns:xlink="http://www.w3.org/1999/xlink" x="0px" y="0px"
	 viewBox="0 0 256 256" style="enable-background:new 0 0 256 256;" xml:space="preserve">
<style type="text/css">
	.st0{fill:#FFFFFF;}
</style>
<g>
	<path class="st0" d="M121.64,14.79C61.28,17.67,13.66,67.93,13.84,128.35c0.06,18.4,4.5,35.78,12.34,51.12l-12.03,58.41
		c-0.65,3.16,2.2,5.93,5.34,5.18l57.23-13.56c14.7,7.33,31.22,11.56,48.7,11.82c61.69,0.94,113.12-48.04,115.05-109.7
		C242.52,65.53,187.97,11.63,121.64,14.79z M189.93,190.75c-16.76,16.76-39.05,25.99-62.75,25.99c-13.88,0-27.17-3.12-39.5-9.26
		l-7.97-3.97l-35.09,8.31l7.39-35.86l-3.93-7.69c-6.4-12.54-9.65-26.09-9.65-40.29c0-23.71,9.23-45.99,25.99-62.75
		c16.61-16.61,39.26-25.99,62.75-25.99c23.71,0,45.99,9.23,62.75,25.99c16.76,16.76,25.99,39.05,25.99,62.75
		C215.93,151.49,206.54,174.14,189.93,190.75z"/>
	<path class="st0" d="M182.19,152.58l-21.96-6.3c-2.89-0.83-5.99-0.01-8.1,2.13l-5.37,5.47c-2.26,2.31-5.7,3.05-8.69,1.83
		c-10.39-4.2-32.23-23.63-37.81-33.34c-1.61-2.8-1.34-6.31,0.63-8.86l4.69-6.06c1.84-2.38,2.22-5.57,1.01-8.31l-9.24-20.89
		c-2.21-5-8.61-6.46-12.78-2.93c-6.13,5.18-13.4,13.06-14.28,21.78c-1.56,15.38,5.04,34.77,29.98,58.05
		c28.82,26.9,51.9,30.45,66.92,26.81c8.52-2.06,15.33-10.34,19.63-17.11C189.76,160.23,187.44,154.09,182.19,152.58z"/>
</g>
</svg>
