<?xml version="1.0" encoding="utf-8"?>
<!-- Generator: Adobe Illustrator 23.0.3, SVG Export Plug-In . SVG Version: 6.00 Build 0)  -->
<svg version="1.1" id="Layer_1" xmlns="http://www.w3.org/2000/svg" xmlns:xlink="http://www.w3.org/1999/xlink" x="0px" y="0px"
	 viewBox="0 0 256 256" style="enable-background:new 0 0 256 256;" xml:space="preserve">
<style type="text/css">
	.st0{fill:#FFFFFF;}
</style>
<g>
	<path class="st0" d="M36.01,93.74c2.89,2.04,11.6,8.09,26.13,18.17c14.53,10.07,25.67,17.82,33.4,23.26
		c0.85,0.6,2.66,1.89,5.42,3.89c2.76,2,5.06,3.61,6.88,4.84c1.83,1.23,4.04,2.61,6.63,4.14c2.59,1.53,5.04,2.68,7.33,3.44
		c2.3,0.77,4.42,1.15,6.38,1.15h0.13h0.13c1.95,0,4.08-0.38,6.37-1.15c2.29-0.76,4.74-1.91,7.33-3.44c2.59-1.53,4.8-2.91,6.63-4.14
		c1.83-1.23,4.12-2.85,6.88-4.84c2.76-2,4.57-3.29,5.42-3.89c7.82-5.44,27.71-19.25,59.66-41.43c6.2-4.33,11.39-9.56,15.55-15.68
		c4.17-6.12,6.25-12.53,6.25-19.25c0-5.61-2.02-10.41-6.06-14.41c-4.04-4-8.82-5.99-14.34-5.99H34.48c-6.54,0-11.58,2.21-15.11,6.63
		c-3.53,4.42-5.29,9.94-5.29,16.57c0,5.35,2.34,11.16,7.01,17.4C25.77,85.26,30.74,90.17,36.01,93.74z"/>
	<path class="st0" d="M229.78,107.38c-27.87,18.87-49.04,33.53-63.49,43.98c-4.84,3.57-8.77,6.35-11.79,8.35
		c-3.02,2-7.03,4.04-12.05,6.12c-5.01,2.08-9.69,3.12-14.02,3.12h-0.13h-0.13c-4.33,0-9.01-1.04-14.02-3.12
		c-5.01-2.08-9.03-4.12-12.05-6.12c-3.02-2-6.95-4.78-11.79-8.35c-11.47-8.41-32.59-23.08-63.36-43.98
		c-4.85-3.23-9.14-6.93-12.88-11.09V197.5c0,5.61,2,10.41,5.99,14.41c3.99,4,8.8,5.99,14.41,5.99h187.66c5.61,0,10.41-2,14.41-5.99
		c4-4,5.99-8.79,5.99-14.41V96.29C238.88,100.36,234.63,104.06,229.78,107.38z"/>
</g>
</svg>
