<?xml version="1.0" encoding="utf-8"?>
<!-- Generator: Adobe Illustrator 23.0.3, SVG Export Plug-In . SVG Version: 6.00 Build 0)  -->
<svg version="1.1" id="Layer_1" xmlns="http://www.w3.org/2000/svg" xmlns:xlink="http://www.w3.org/1999/xlink" x="0px" y="0px"
	 viewBox="0 0 500 500" style="enable-background:new 0 0 500 500;" xml:space="preserve">
<style type="text/css">
	.st0{fill-rule:evenodd;clip-rule:evenodd;fill:#F4F4F5;}
	.st1{fill-rule:evenodd;clip-rule:evenodd;fill:#FFFFFF;}
	.st2{fill:#0DABBA;}
	.st3{fill:#18BAA9;}
	.st4{fill-rule:evenodd;clip-rule:evenodd;fill:#333333;}
	.st5{fill-rule:evenodd;clip-rule:evenodd;fill:none;stroke:#FFFFFF;stroke-width:3.4517;stroke-miterlimit:10;}
	.st6{fill:#FFFFFF;}
	.st7{fill:#D6D5D5;}
	.st8{fill:#EAEAEA;}
	.st9{fill:#BFBFBE;}
	.st10{fill:#ACACAC;}
	.st11{fill:#FAA62A;}
	.st12{fill:#333333;}
	.st13{fill:#212121;}
	.st14{fill:#1C1D1D;}
	.st15{fill:#375580;}
	.st16{fill:#F6B69D;}
	.st17{fill:#E6C1AD;}
	.st18{fill:#0D8D93;}
	.st19{fill:#010101;}
	.st20{fill:#EFA78F;}
	.st21{fill:#B0B0AF;}
	.st22{fill:#CAC9C9;}
	.st23{fill:#A3A2A2;}
	.st24{fill:#674C3D;}
	.st25{fill:#856556;}
	.st26{opacity:0.8;fill:#ACACAC;}
</style>
<ellipse class="st0" cx="247.68" cy="443.62" rx="219.56" ry="27.08"/>
<g>
	<g>
		<g>
			<g>
				<path class="st1" d="M208.66,112.31h5.55c16.11,0,29.16-13.06,29.16-29.16l0,0c0-16.11-13.06-29.16-29.16-29.16h-5.55
					c-16.11,0-29.16,13.06-29.16,29.16l0,0C179.49,99.25,192.55,112.31,208.66,112.31z"/>
				<polygon class="st1" points="221.07,107.54 211.02,123.85 200.13,107.54 				"/>
			</g>
		</g>
	</g>
</g>
<g>
	<polygon class="st2" points="226.2,71.84 199.35,71.84 212.58,81.44 	"/>
	<path class="st2" d="M212.56,85.04c-0.33,0-0.67-0.1-0.95-0.31l-14.65-10.63v17.82h31.2V74.41l-14.67,10.34
		C213.21,84.94,212.89,85.04,212.56,85.04z"/>
</g>
<g>
	<g>
		<g>
			<g>
				<path class="st1" d="M323.8,122.04h3.76c10.92,0,19.77-8.85,19.77-19.77l0,0c0-10.92-8.85-19.77-19.77-19.77h-3.76
					c-10.92,0-19.77,8.85-19.77,19.77l0,0C304.03,113.19,312.88,122.04,323.8,122.04z"/>
				<polygon class="st1" points="332.22,118.8 325.4,129.86 318.02,118.8 				"/>
			</g>
		</g>
	</g>
</g>
<polygon class="st3" points="338.67,97.63 333.73,92.68 323.79,102.62 319.1,97.93 314.16,102.87 318.85,107.56 318.83,107.58 
	323.77,112.52 323.79,112.51 323.81,112.52 328.75,107.58 328.73,107.56 "/>
<g>
	<g>
		<path class="st4" d="M308.2,187.92h100.99c6.72,0,12.17-5.45,12.17-12.17v-5.67c0-6.72-5.45-12.17-12.17-12.17H308.2
			c-6.72,0-12.17,5.45-12.17,12.17v5.67C296.02,182.47,301.47,187.92,308.2,187.92z"/>
		<polygon class="st4" points="396.06,185.11 388.16,198.31 379.6,185.11 		"/>
	</g>
</g>
<g>
	<line class="st5" x1="312.71" y1="168.6" x2="398.37" y2="168.6"/>
	<line class="st5" x1="312.71" y1="178.23" x2="334.34" y2="178.23"/>
</g>
<g>
	<g>
		<g>
			<g>
				<g>
					<path class="st4" d="M118.22,170.46h4.12c11.96,0,21.66-9.7,21.66-21.66l0,0c0-11.96-9.7-21.66-21.66-21.66h-4.12
						c-11.96,0-21.66,9.7-21.66,21.66l0,0C96.55,160.77,106.25,170.46,118.22,170.46z"/>
					<polygon class="st4" points="127.44,166.92 119.97,179.03 111.88,166.92 					"/>
				</g>
			</g>
		</g>
	</g>
</g>
<g>
	<rect x="126.68" y="149.45" class="st6" width="6.88" height="8.91"/>
	<rect x="116.88" y="136.24" class="st6" width="6.88" height="22.11"/>
	<rect x="107.08" y="141.49" class="st6" width="6.88" height="16.86"/>
</g>
<g>
	<polygon class="st7" points="148.91,264.59 124.61,264.59 128.21,290.69 145.13,290.69 	"/>
	<path class="st7" d="M145.71,284.7c1.53,0,5.06-0.23,7.48-2.13c1.59-1.26,2.4-2.96,2.4-5.07c0-2.33-0.83-4.16-2.47-5.44
		c-2.65-2.07-6.39-1.8-6.55-1.79l0.3,2.84c0.03,0,2.48-0.16,4.03,1.07c0.91,0.72,1.37,1.84,1.37,3.33c0,1.3-0.43,2.27-1.33,2.98
		c-1.99,1.58-5.66,1.37-5.7,1.37l-0.27,2.84C145.01,284.68,145.28,284.7,145.71,284.7z"/>
</g>
<path class="st8" d="M137.17,259.65c1.85-1.58,3.32-3.2,4.71-5.16c1.32-1.96,2.47-4.2,2.99-6.87c0.52-2.63,0.24-5.75-1.04-8.36
	c-1.22-2.66-3.15-4.69-5.11-6.32c-0.55-0.45-0.88-0.75-1.25-1.08l-1.1-1c-0.71-0.67-1.4-1.34-2.03-2.01
	c-1.25-1.32-2.37-2.77-2.68-3.72c-0.15-0.45-0.06-0.69,0.14-0.43c0.19,0.24,0.18,0.74,0.33,0.68c0.24-0.1,1.45-1.29,2.91-2.38
	c3.35-2.51,4.04-7.26,1.53-10.61c-2.51-3.35-7.26-4.04-10.61-1.53c-0.5,0.37-0.93,0.79-1.31,1.25l-0.23,0.29
	c-0.74,0.91-1.52,1.88-2.34,3.05c-0.8,1.18-1.68,2.51-2.41,4.41c-0.72,1.82-1.13,4.47-0.6,6.78c0.48,2.34,1.56,4.01,2.56,5.29
	c2.06,2.5,4.1,3.87,6.08,5.18c0.99,0.64,1.98,1.21,2.97,1.76l2.8,1.5c1.41,0.78,2.63,1.69,3.39,2.73c0.81,1.03,1.21,2.24,1.24,3.74
	c0.03,2.99-1.77,6.78-3.99,9.67l-0.12,0.16c-0.74,0.97-0.55,2.35,0.41,3.08C135.24,260.37,136.4,260.31,137.17,259.65z"/>
<g>
	<g>
		<g>
			<g>
				<path class="st9" d="M246.32,445.22c0,0-16.74-0.6-35.36-0.6c-17.26,0-34.5,0.6-34.5,0.6l1.35-3.01
					c5.95-13.21,28.46-8.07,33.58-21.7h0c4.26,13.63,27.63,8.49,33.58,21.7L246.32,445.22z"/>
			</g>
			<g>
				<rect x="206.28" y="337.99" class="st9" width="9.37" height="91.22"/>
			</g>
			<g>
				<rect x="194.35" y="336.96" class="st10" width="33.23" height="13.48"/>
			</g>
			<g>
				<path class="st11" d="M251.48,341.61H167.7v-2.27c0-7.69,6.23-13.92,13.92-13.92h55.93c7.69,0,13.92,6.23,13.92,13.92V341.61z"
					/>
			</g>
		</g>
	</g>
</g>
<path class="st12" d="M184.74,325.24c0,0-7.43-7.6-2.65-33.69h61c0,0,0.86,13.84-0.54,33.69H184.74z"/>
<path class="st13" d="M222.21,300.87c30.58,1.9,87.5,9.2,97.89,28.28c3.12,5.72,4.9,13.42,0.11,17.99
	c-18.57,17.72-23.91,25.1-56.42,56.78c-0.23,0.23,0.3,0.11,0,0l-12.78-7.6c-0.51-0.18-0.29,0.46,0,0
	c26.78-42.38,32.75-48.32,42.77-54.26c-9.64-4.68-37.64-11.83-68.18-14.75c-6.68-0.64-11.58-6.61-10.94-13.29
	C215.32,307.31,215.55,300.45,222.21,300.87z"/>
<g>
	<path class="st12" d="M185.69,303.82c0.9-6.22,10.23-7.31,16.5-6.92c69.01,4.36,78.77,14.13,81.97,17.94
		c2.61,3.11,2.73,6.97,3.16,10.9c2.36,21.28,5.62,58.55,10.58,89.12c-5.08,0.89-14.73,2.3-21.66,3.51c0,0-10.53-50.09-13.6-80.46
		c-12.57-2.65-46.92-5.79-74.47-11.22C178.77,324.83,184.4,312.75,185.69,303.82z"/>
</g>
<g>
	<path class="st14" d="M283.45,443.93l-3.3-24.79l16.27,0.33l2.29,9.55l19.82,4.8c3.3,0.86,5.55,3.58,5.8,6.98v3.13H283.45
		L283.45,443.93z"/>
	
		<rect x="273.43" y="411.54" transform="matrix(0.9865 -0.1639 0.1639 0.9865 -64.3908 52.7961)" class="st15" width="28.84" height="10.36"/>
</g>
<g>
	<path class="st14" d="M236.35,412.83l12.92-15.65l13.11,8.1l-7.11,7.64l14.86,13.03c2.63,1.75,3.88,4.71,3.36,7.75
		c-0.08,0.5-0.3,0.96-0.58,1.38l-2.21,3.42c0,0-33.57-20.81-33.73-21.21C236.97,417.29,234.89,414.76,236.35,412.83z"/>
	
		<rect x="253.28" y="386.44" transform="matrix(0.5619 -0.8272 0.8272 0.5619 -216.9397 388.6795)" class="st15" width="10.36" height="25.39"/>
</g>
<path class="st2" d="M252.3,283.51c0.23,0.03,0.47,0.05,0.7,0.06l54.85,2.66l0.87-17.93l-49.14-2.38
	c-6.63-16.3-17.24-36.04-17.24-36.04c0.06,0.24-0.55,0-0.55,0l-17.14-1.6c-1.59,4.09,2.1,4.86,20.48,49.73
	C246.36,281.02,249.11,283.1,252.3,283.51z"/>
<path class="st3" d="M206.12,220.08l-1.74,0.41c-7.65,1.81-13.49,8.01-14.82,15.76l-10.22,63.5c44.99,11.46,66.16,1.03,66.16,1.03
	l-1.86-63.34c0.4-7.32-3.88-14.1-10.66-16.88l0,0L206.12,220.08z"/>
<polygon class="st16" points="212.5,225.95 227.27,223.69 227.82,191.92 213.06,194.18 "/>
<path class="st16" d="M230.71,220.52l-22.82-0.42c0,0,1.08,13.24,14.75,12.1C235.13,231.16,230.71,220.52,230.71,220.52z"/>
<g>
	<path class="st17" d="M271.72,283.84c0.03,4.78,4.08,8.63,9.05,8.6c4.97-0.03,8.97-3.93,8.94-8.71c-0.03-4.78-4.08-8.63-9.05-8.6
		C275.69,275.16,271.69,279.06,271.72,283.84z"/>
	<path class="st17" d="M265.98,288.2l9.36-0.06c2.44-0.01,4.43-1.95,4.42-4.3l0,0c-0.02-2.35-2.03-4.26-4.47-4.25l-9.36,0.06
		c-2.44,0.01-4.43,1.95-4.42,4.3l0,0C261.52,286.3,263.54,288.21,265.98,288.2z"/>
</g>
<path class="st2" d="M266.14,293.77l1.1-17.24l-49.37-2.91l-9.25-42.12c-1.77-4.45-6.96-6.68-11.59-4.98l0,0
	c-4.63,1.7-6.95,6.7-5.18,11.15l11.31,47.31c1.26,3.16,4.32,5.33,7.83,5.53L266.14,293.77z"/>
<path class="st18" d="M250.96,292.87l-37.92-2.23c-4.46-0.55-8.25-3.39-9.88-7.42l-10.41-40.83l8.68,46.22
	c0.91,2.99,3.73,5.07,6.97,5.16l37.97,2.42L250.96,292.87z"/>
<g>
	<g>
		<path class="st16" d="M229.7,215.13l2-0.1c9.1-0.45,16.11-8.19,15.66-17.3l-1.32-26.6l-34.96,1.73l1.32,26.6
			C212.86,208.56,220.6,215.58,229.7,215.13z"/>
		<path class="st19" d="M213.8,192.09c0,0,7.46-6.27,8.22-17.39c0,0,29.12,7.33,30.04-4.82c0.85-11.2-11.48-14.6-20.74-10.77
			c-4.88,2.02-14,6.84-20.19,8.37c-2.51,0.62-4.76,2.1-6.17,4.28c-2.35,3.65-4.01,9.65,3.87,15.76L213.8,192.09z"/>
		<g>
			<path class="st14" d="M241.83,189.5c-0.02,1.04,0.82,1.9,1.88,1.92s1.95-0.79,1.97-1.83c0.02-1.04-0.82-1.9-1.88-1.92
				C242.73,187.64,241.85,188.46,241.83,189.5z"/>
			<path class="st14" d="M228.85,189.19c-0.02,1.04,0.82,1.9,1.88,1.92c1.06,0.03,1.95-0.79,1.97-1.83c0.02-1.04-0.82-1.9-1.88-1.92
				C229.76,187.34,228.87,188.16,228.85,189.19z"/>
			<path class="st19" d="M226.11,184.51c-1.02-0.09-1.81-0.97-1.79-2.01c0.02-1.09,0.93-1.95,2.01-1.92l7.57,0.18
				c1.09,0.01,1.95,0.93,1.92,2.01c-0.02,1.09-0.93,1.95-2.01,1.92l-7.57-0.18C226.2,184.52,226.16,184.52,226.11,184.51z"/>
			<path class="st19" d="M241.88,184.89c-1.02-0.09-1.81-0.97-1.79-2.01c0.02-1.09,0.93-1.95,2.01-1.92l4.9,0.12
				c1.08,0.03,1.95,0.93,1.92,2.01c-0.02,1.09-0.93,1.95-2.01,1.92l-4.9-0.12C241.96,184.89,241.92,184.89,241.88,184.89z"/>
			<path class="st20" d="M238.09,190.66l4.43,4.25c0.53,0.51,0.22,1.39-0.52,1.49l-5.09,0.67L238.09,190.66L238.09,190.66z"/>
		</g>
	</g>
	<path class="st19" d="M217.42,186.5c0,0,0.24,16.3,10.45,13.43c18.62-5.24,19.37,0.89,19.37,0.89s-1.07,15.39-15.64,15.44
		c0,0-11.43,1.56-16.27-6.83c0,0-5.82-7.47-2.99-23.4L217.42,186.5z"/>
	<path class="st16" d="M202.59,192.78c0.17,3.33,3,5.9,6.33,5.74c3.33-0.17,5.9-3,5.74-6.33c-0.17-3.33-3-5.9-6.33-5.74
		C204.99,186.61,202.42,189.44,202.59,192.78z"/>
</g>
<g>
	<path class="st21" d="M316.37,228.14l-21.09,56.67h68.53l18.4-50.36c1.12-3.06-1.15-6.31-4.41-6.31H316.37z"/>
	<path class="st22" d="M316.37,228.14h-3.28c-1.76,0-3.34,1.1-3.95,2.75l-19.88,53.91h6.02L316.37,228.14z"/>
	<path class="st23" d="M358.68,290.27h-63.39v-5.46h68.34v0.51C363.63,288.05,361.41,290.27,358.68,290.27z"/>
	<path class="st22" d="M295.29,290.27H253c-1.51,0-2.73-1.22-2.73-2.73l0,0c0-1.51,1.22-2.73,2.73-2.73h42.29V290.27z"/>
	<path class="st6" d="M334.83,256.31c-1.3,3.92,0.27,7.96,3.49,9.02c3.23,1.07,6.89-1.24,8.19-5.16c1.3-3.92-0.27-7.96-3.49-9.02
		C339.79,250.09,336.13,252.39,334.83,256.31z"/>
</g>
<g>
	
		<rect x="168.45" y="290.27" transform="matrix(-1 -4.489488e-11 4.489488e-11 -1 584.2087 589.8953)" class="st24" width="247.31" height="9.36"/>
	
		<rect x="97.09" y="290.27" transform="matrix(-1 -4.489177e-11 4.489177e-11 -1 265.5388 589.8953)" class="st25" width="71.35" height="9.36"/>
	
		<rect x="389.52" y="299.63" transform="matrix(-1 -4.504409e-11 4.504409e-11 -1 786.1444 744.5226)" class="st7" width="7.11" height="145.27"/>
	
		<rect x="342.34" y="299.63" transform="matrix(-1 -4.504409e-11 4.504409e-11 -1 691.7922 744.5226)" class="st9" width="7.11" height="145.27"/>
	
		<rect x="161.34" y="299.63" transform="matrix(-1 -4.478785e-11 4.478785e-11 -1 329.7863 744.5226)" class="st7" width="7.11" height="145.27"/>
	
		<rect x="114.16" y="299.63" transform="matrix(-1 -4.504320e-11 4.504320e-11 -1 235.434 744.5226)" class="st9" width="7.11" height="145.27"/>
	
		<rect x="114.16" y="299.63" transform="matrix(-1 -4.504320e-11 4.504320e-11 -1 235.434 604.2237)" class="st26" width="7.11" height="4.97"/>
	
		<rect x="161.34" y="299.63" transform="matrix(-1 -4.478785e-11 4.478785e-11 -1 329.7863 604.2237)" class="st26" width="7.11" height="4.97"/>
	
		<rect x="342.34" y="299.63" transform="matrix(-1 -4.504409e-11 4.504409e-11 -1 691.7922 604.2237)" class="st26" width="7.11" height="4.97"/>
	
		<rect x="389.52" y="299.63" transform="matrix(-1 -4.504409e-11 4.504409e-11 -1 786.1444 604.2237)" class="st26" width="7.11" height="4.97"/>
</g>
<rect x="206.28" y="350.45" transform="matrix(-1 -4.483581e-11 4.483581e-11 -1 421.9342 708.0541)" class="st26" width="9.37" height="7.16"/>
</svg>
