<?xml version="1.0" encoding="utf-8"?>
<!-- Generator: Adobe Illustrator 23.0.3, SVG Export Plug-In . SVG Version: 6.00 Build 0)  -->
<svg version="1.1" id="Layer_1" xmlns="http://www.w3.org/2000/svg" xmlns:xlink="http://www.w3.org/1999/xlink" x="0px" y="0px"
	 viewBox="0 0 5000 5000" style="enable-background:new 0 0 5000 5000;" xml:space="preserve">
<style type="text/css">
	.st0{display:none;}
	.st1{display:inline;fill:#BCBCBC;}
	.st2{display:inline;fill:#10AABB;}
	.st3{display:inline;fill:#D1D1D1;}
	.st4{display:inline;fill:#FAC67B;}
	.st5{display:inline;fill:#E5A46E;}
	.st6{display:inline;}
	.st7{fill:#10BBAA;}
	.st8{display:inline;fill:#FFFFFF;}
	.st9{display:inline;fill:#232323;}
	.st10{display:inline;fill:#DBB89C;}
	.st11{display:inline;fill:#EDD2B6;}
	.st12{display:inline;fill:#F9B370;}
	.st13{display:inline;fill:#353535;}
	.st14{display:inline;fill:#F4F4F4;}
	.st15{display:inline;fill:#3D4D5C;}
	.st16{fill:#D6D4D4;}
	.st17{fill:#F4B98C;}
	.st18{fill:#10AABB;}
	.st19{fill:#E5A46E;}
	.st20{fill:#DBB89C;}
	.st21{fill:#EDD2B6;}
	.st22{fill:#FFC99C;}
	.st23{fill:#3D4D5C;}
	.st24{fill-rule:evenodd;clip-rule:evenodd;fill:#241B14;}
	.st25{fill-rule:evenodd;clip-rule:evenodd;fill:#473120;}
	.st26{fill-rule:evenodd;clip-rule:evenodd;fill:#6B4325;}
	.st27{fill-rule:evenodd;clip-rule:evenodd;fill:#3D2817;}
	.st28{fill-rule:evenodd;clip-rule:evenodd;fill:#5E3415;}
	.st29{fill-rule:evenodd;clip-rule:evenodd;fill:#120D09;}
	.st30{fill:#FCFCFC;}
</style>
<g id="Layer_5">
</g>
<g id="Layer_4">
</g>
<g id="experience" class="st0">
	<path class="st1" d="M4246.2,2500c0,511.7-220.1,972-570.8,1291.3c-310.3,282.6-722.7,454.8-1175.4,454.8h-0.7c-1.5,0-3,0-4.5,0
		c-456.1-1.3-871-177.5-1181.3-465C969.3,3462.3,753.8,3006.3,753.8,2500c0-964.4,781.8-1746.2,1746.2-1746.2
		C3464.4,753.8,4246.2,1535.6,4246.2,2500z"/>
	<path class="st2" d="M2499.3,4246.2c-1.5,0-3,0-4.5,0c-456.1-1.3-871-177.5-1181.3-465c7.5-196.7,36.4-317.5,36.4-317.5
		c20.1-113.5,54-192.7,85.6-245.7c32.4-54.4,81.9-96.5,140.5-120.5c122.5-50,251.6-85.4,251.6-85.4c266.1-84.9,397-178.1,397-178.1
		l265.4,139.1l6,831.6L2499.3,4246.2z"/>
	<polygon class="st3" points="2566.3,3893.3 2494.5,4054.6 2220.6,2973.4 2796.8,2973.4 	"/>
	<path class="st4" d="M2747.6,2624c-2.1,9.4,7.8,278.2,7.8,278.2L2571,3092.9l-332-200.2l14.1-268.7H2747.6z"/>
	<path class="st5" d="M2753.5,2847.3L2301,2681l-47.9-57h6.2c254.4,8,350.1,10.4,482.9,0h5.4
		C2746.1,2630.7,2750.7,2768.2,2753.5,2847.3z"/>
	<path class="st2" d="M3675.4,3791.3c-310.3,282.6-722.7,454.8-1175.4,454.8h-0.7c-1.5,0-3,0-4.5,0l1.3-441.4l2.4-831.6l265.4-139.1
		c0,0,130.8,93.2,397,178.1c0,0,129.2,35.4,251.6,85.4c58.6,23.9,108.1,66.1,140.5,120.5c31.6,53,65.5,132.2,85.6,245.7
		C3638.7,3463.7,3668.6,3588.6,3675.4,3791.3z"/>
	<polygon class="st3" points="2422.3,3893.3 2494.1,4054.6 2768,2973.4 2191.8,2973.4 	"/>
	<g class="st6">
		<g>
			<path class="st7" d="M2558.4,3084.5c-2.6,5-13.5,8.7-24.6,8.7H2460c-11.1,0-22.1-3.7-24.6-8.7l-42.2-82.1
				c-8.2-16,3-30.9,26.3-30.9h154.8c23.3,0,34.5,14.9,26.3,30.9L2558.4,3084.5z"/>
		</g>
		<g>
			<polygon class="st7" points="2614.7,3858.5 2497.7,4054.6 2377.5,3876.3 2392.8,3665.1 2435,3082.8 2558.4,3082.8 2602.1,3685.1 
							"/>
		</g>
	</g>
	<polygon class="st8" points="2752.6,2827.3 2684.7,3134.8 2492.7,2971.5 	"/>
	<polygon class="st8" points="2236,2827.3 2303.9,3134.8 2495.8,2971.5 	"/>
	<polygon class="st9" points="2752.6,2827.3 2903.6,2911.6 2953.5,3193.8 2835.6,3269.3 2931.7,3321.2 2494.6,4195 2494.6,3997 	"/>
	<polygon class="st9" points="2236,2827.3 2085,2911.6 2035.1,3193.8 2153,3269.3 2056.8,3321.2 2494,4195 2494,3997 	"/>
	<path class="st10" d="M2017.7,2044.8c2.4,69.6-11.8,130.4-47.8,131.6c-36,1.2-62.1-54.4-64.5-124c-2.4-69.6,25.2-127.1,61.2-128.4
		C2002.6,1922.8,2015.3,1975.2,2017.7,2044.8z"/>
	<path class="st11" d="M2954.6,2030.9c-2.4,69.6,11.8,130.4,47.8,131.6s62.1-54.4,64.5-124c2.4-69.6-25.2-127.1-61.2-128.4
		C2969.7,1908.8,2957,1961.2,2954.6,2030.9z"/>
	<ellipse class="st4" cx="2494" cy="2059.9" rx="489" ry="694.6"/>
	<path class="st12" d="M2498.4,1365.4v1389.2c-270.9,2.5-493.4-303.4-493.4-685.4C2005,1679,2210.9,1372.1,2498.4,1365.4z"/>
	<path class="st13" d="M2030.6,2282.2c0,0-111.9-416.6,127.7-625.3c0,0,178.6,143.8,395.9,93.3c0,0,71.8-15.4,158.4-69.7
		c0,0,169.7-72,225.4,94.3c59.4,177.1,29.2,357.2,32.8,464.8c0,0,79.4-179.4,81.9-452.4c0,0,12.8,48.3,17.9,107.9
		c0,0,29.9-208.3-24.2-330.9c0,0-39.7-131.4-191.1-198.8c0,0-89.6-143.2-447.2-114.5c0,0-5.9-24.5,49.4-46.9
		c0,0-275.6-17.6-338,169.8c0,0-223.2,48.9-202.4,437.1l23.6-72.5C1940.6,1738.3,1897.1,2103.7,2030.6,2282.2z"/>
	<path class="st14" d="M1607.1,4141.7l2.2-40.5c0.2-3.5-2.5-6.4-6-6.5l-22.2-0.8c0,0-17.6,0.4-21.6,22.5c0,0-2.7,18.6,13.2,27.8
		c0,0,6.6,3.2,20.7,2.9l7.1,0.4C1604,4147.8,1606.9,4145.1,1607.1,4141.7z"/>
	<path class="st15" d="M2495.8,3812.9c1.4,0,2.7,0.1,4.1,0.1c-1.4,0-2.7,0.1-4.1,0.1V3812.9z"/>
</g>
<path class="st16" d="M5000,2500c0,732.6-315.1,1391.5-817.1,1848.8C3738.7,4753.4,3148.1,5000,2500,5000h-1c-2.1,0-4.3,0-6.4,0
	c-653-1.9-1247-254.1-1691.3-665.7C308.5,3877.6,0,3224.9,0,2500C0,1119.3,1119.3,0,2500,0C3880.7,0,5000,1119.3,5000,2500z"/>
<path class="st17" d="M2854.5,2677.5c-3,13.5,11.2,398.2,11.2,398.2l-369.5,1249.8l-370-1263.3l20.2-384.7H2854.5z"/>
<path class="st18" d="M2499,5000c-2.1,0-4.3,0-6.4,0c-653-1.9-1247-254.1-1691.3-665.7c10.8-281.7,52.2-454.5,52.2-454.5
	c28.8-162.5,77.3-275.9,122.5-351.8c46.4-77.9,117.2-138.2,201.2-172.5c175.4-71.6,360.3-122.2,360.3-122.2
	c381-121.5,550.7-196.6,550.7-196.6l313.6,404.3l92.7,927.1L2499,5000z"/>
<path class="st19" d="M2862.9,2997.3L2215,2759.1l-68.5-81.6h8.9c364.2,11.4,501.2,14.8,691.3,0h7.8
	C2852.4,2687.1,2859,2884,2862.9,2997.3z"/>
<path class="st18" d="M4182.9,4348.8C3738.7,4753.4,3148.1,5000,2500,5000h-1c-2.1,0-4.3,0-6.4,0l1.8-631.9l79.1-927.1l333-361.5
	c0,0,158.7,32.3,539.7,153.8c0,0,184.9,50.6,360.3,122.2c83.9,34.2,154.8,94.6,201.2,172.5c45.2,75.9,93.8,189.3,122.5,351.8
	C4130.2,3879.7,4173,4058.6,4182.9,4348.8z"/>
<path class="st20" d="M1809.5,1848.4c3.4,99.7-16.9,186.6-68.4,188.4c-51.5,1.8-88.8-77.9-92.3-177.6c-3.4-99.7,36.1-182,87.6-183.8
	C1787.9,1673.6,1806.1,1748.7,1809.5,1848.4z"/>
<path class="st21" d="M3150.8,1828.3c-3.4,99.7,16.9,186.6,68.4,188.4c51.5,1.8,88.8-77.9,92.3-177.6c3.4-99.7-36.1-182-87.6-183.8
	C3172.4,1653.6,3154.3,1728.6,3150.8,1828.3z"/>
<path class="st22" d="M3218.6,1843c0,549.2-340.5,1021.4-727.1,1021.4s-743.6-446.6-743.6-995.8S2104.8,562,2491.5,562
	S3218.6,1293.8,3218.6,1843z"/>
<path class="st17" d="M2497.7,549.1v2315.3c-387.8,3.6-706.4-434.4-706.4-981.2C1791.3,1324.6,2086.1,558.7,2497.7,549.1z"/>
<path class="st23" d="M2494,4379.6c2,0.1,3.9,0.1,5.9,0.1c-2,0.1-3.9,0.1-5.9,0.1V4379.6z"/>
<g>
	<path class="st24" d="M1646.9,1966.2c139.4-162.7,116.6,82,284,161.3c-69.5-119.8-84.6-183-57.5-408
		c10.4-86.3,9.5-268.1,10.1-365.3c122.8,172.2,349.4,216.4,557.6,221c-156.7-44.8-428.3-193.7-458.5-363.1
		c36.1,96,81.6,133,142.5,181c118.3,93.4,281.3,179.1,500.1,185.6c-186.7-25.5-441.2-227.2-545.3-398.1
		c146.9,167,314.7,369.1,680.3,370c-189-56.6-338.6-164.6-438.3-268.3c234.5,182.5,335.8,187.3,489.5,238.4
		c149.2,49.6,265,129.4,287.1,240.2c13,64.9-68.7,152.5-49,270.2c35.2-80.4,48-115,140.3-91.2c0,0,35.1-68.4,35.1-78.9
		c0-10.5,26.5-44.2,26.5-44.2l124.6-347.9l-103.1-356.5L2955.1,773L2417,550l-544.4,175.7l-287.8,416.7
		c-25.6,149.1-54.8,239.3-47.3,412.4C1543.3,1685.2,1668.3,1890.4,1646.9,1966.2z"/>
	<path class="st25" d="M2316.9,605.4c-147.9,94.1-335,141.3-489.9,244.7c-160.1,106.9-285.7,273.8-297.3,614.6
		c63.5-334.8,172.5-460.7,311.7-551.7C1972,827.5,2142.3,772.8,2316.9,605.4z"/>
	<path class="st25" d="M2167.9,752.7c-114.9,243.5-76.3,438.5,140.8,614.2c105.9,85.7,231.7,148.4,387.6,177.1
		c-151.8-56.3-282.2-140.3-368.4-228.8C2191.8,1175.4,2105.2,1038.5,2167.9,752.7z"/>
	<path class="st26" d="M2155.6,808.9c-49.2,175.9-47.4,363.8,169.7,539.6c105.8,85.7,193.9,144.8,370.9,195.5
		c-171.1-54.5-290.1-131.6-376.3-220C2183.9,1184.2,2105.2,1065.7,2155.6,808.9z"/>
	<path class="st25" d="M2106.6,796.5c-169.3,222.4-195.5,399.9,21.6,575.6c105.9,85.7,263.7,170.7,419.6,199.5
		c-151.8-56.3-314.3-162.7-400.4-251.2C2011.2,1180.7,1975.5,1071.8,2106.6,796.5z"/>
	<path class="st26" d="M2066.2,858c-105.3,195.1-147.3,334.9,69.8,510.6c105.8,85.7,232.1,149.2,409.1,199.9
		c-171.1-54.5-328.3-136-414.4-224.4c-13.7-14.1-26.5-27.7-38.2-41C1987.6,1184,1964.1,1085.9,2066.2,858z"/>
	<path class="st25" d="M2015.4,849.2c-218.4,162.8-270.9,394.6-53.8,570.3c105.9,85.7,274.2,132.2,442.4,153.9
		c-164.9-50.2-324.8-132.9-410.9-221.4C1856.9,1212.3,1887.8,1064.8,2015.4,849.2z"/>
	<path class="st26" d="M1980.3,889.6c-117.5,133.7-224.4,347.2-7.4,522.9c105.9,85.7,210.2,118.5,386.3,152.6
		c-170.2-37-305.5-88.6-391.7-177.1C1831.4,1248.3,1865,1093.8,1980.3,889.6z"/>
	<path class="st25" d="M3160.3,1776.8c-21.1-429.7-297.8-426.6-593.9-591c-198.7-110.3-356.8-272.9-275.7-541.8
		c-144.7,226.4-89.3,475.1,87.4,623.5C2696.7,1535,3052,1399,3160.3,1776.8z"/>
	<path class="st26" d="M3146.3,1727.7c-67.4-501.4-515-325.8-862.9-757.5c193.2,378.7,663.8,326.4,785.8,576.7
		c-132.3-113.8-390.3-158.9-602.8-266.4c-168.3-85.1-238.8-235.9-252.9-401.5c-6.1,147.6,65.5,284.6,180.3,383.3
		C2714.3,1537.8,3043.7,1374.5,3146.3,1727.7z"/>
	<path class="st24" d="M2238,847.4c-1.7,483,429.1,438.3,794.3,662.8C2681.7,1257.8,2263.5,1273.1,2238,847.4z"/>
	<path class="st27" d="M2276.6,677.3c-270.2,351.9-29.7,532.8,292.8,761C2261.9,1202,2076.2,974.8,2276.6,677.3z"/>
	<path class="st28" d="M3065.6,1899.5c143.5-460.8-287.7-300.6-621.5-499.3c-106.1-63.2-208.3-180.2-263.9-363.4
		c46.4,133.9,135.6,237.1,240.4,317.1C2701.3,1567.8,3261.4,1424.1,3065.6,1899.5z"/>
	<path class="st26" d="M2052.5,1053.6c-34.3,251.4,344.7,456.6,529.6,512.3C2317.5,1452.6,2060.6,1254,2052.5,1053.6z"/>
	<path class="st26" d="M1961.3,1099.3c-70.3,283.9,276.3,416.2,461.2,472C2165.8,1479.8,1946.6,1350.6,1961.3,1099.3z"/>
	<path class="st25" d="M2313.4,621.2c-171.3,672.7,783.1,443.6,855.6,1067.9C3239.4,943.8,2420.3,1036.5,2313.4,621.2z"/>
	<path class="st26" d="M2311.7,707.1c-61.2,501.3,761.8,416.3,841.6,873.3c-0.3-562.1-590.6-517.9-815.3-864.5
		c136.3,301.4,512.3,374.6,690.8,590.9C2790.9,1094.6,2337.2,1107.1,2311.7,707.1z"/>
	<path class="st25" d="M3499,1645.2c-141.6,56-189.8-58.9-213.2-231.7c-16.7-123.2-22.3-213.5-319.2-304
		c236.8,145.8,207.7,255.5,234.5,374C3248.1,1691.8,3389.9,1725.5,3499,1645.2z"/>
	<path class="st29" d="M3509.4,1648.8c-262.2,224-298.8-71.4-354.9-242.8c-43.7-133.4-91.3-213.4-233.4-312.7
		c192.3,85.9,249.2,228.3,279.9,338.4C3238.9,1567.7,3255.9,1799,3509.4,1648.8z"/>
	<path class="st26" d="M3499,1645.2c-141.6,56-200.3-40.9-223.8-213.8c-16.7-123.1-11.7-231.5-308.6-322
		c279,120.4,253.2,216.5,279.9,334.9C3293.5,1652.7,3366.7,1716,3499,1645.2z"/>
	<path class="st25" d="M3131.7,1319.1c135.6,173.2,49.9,554.6,259.8,659.2C3113.2,1913.5,3232.5,1522.9,3131.7,1319.1z"/>
	<path class="st29" d="M3236.3,1912.8c36.6,65.5,11.4,160.8-21.3,241.4c-33.1,81.5-60.9,141.9,53,192.8
		c-152.3-57.2-97.8-120-61.3-246.5c19-65.8,23-128.7,2.1-172.9L3236.3,1912.8z"/>
	<path class="st29" d="M3048.8,2017.4c-12.5-84.5,34.8-138.5,54.7-206.6c20-68.6,21.9-137.1-44.1-211.2
		c67.5,59.2,81.1,132.4,62.4,213C3106.2,1879.1,3052,1943.5,3048.8,2017.4z"/>
	<path class="st25" d="M2333.2,624.1c202.7-67,410.3-12.3,574.6,67.7c199.2,97,364.4,439.5,445.7,449.9
		c-162.9,0.8-283.8-280.7-489.7-385.2C2747.9,697.7,2614.6,586,2333.2,624.1z"/>
	<path class="st29" d="M2316.3,660c83,257.9,194.7,320.7,521.8,511.3C2629,1061.7,2302,945.2,2316.3,660z"/>
	<path class="st29" d="M2255,956.8c83,257.9,279.2,274.2,606.3,464.8C2652.3,1312.1,2308.4,1237.8,2255,956.8z"/>
	<path class="st26" d="M3131.7,1319.1c117.7,185.2,25.5,570.9,259.8,659.2C3134.9,1910.4,3250.3,1520.3,3131.7,1319.1z"/>
	<path class="st25" d="M3246.8,1669.9c36.2,85.2,127.7,53.9,146.4,103c15.6,40.8-4.8,51.6-24.3,57.3c-40.9,11.9-29.8,24.7-39.7,71
		c-34.7-67.8,13.9-93,13.7-100.4C3341.9,1762.7,3258.7,1775.4,3246.8,1669.9z"/>
	<path class="st25" d="M3141,1757.3c12.3,66.2,59,85.6,68.8,128.6c10.8,47.3-34.1,46.7-60.3,49.1c-26.4,2.4-54-3.9-86.7,69.5
		c19.7-118,52.6-96.3,79.2-126.7C3150.7,1867.8,3133,1830.9,3141,1757.3z"/>
	<path class="st26" d="M3246.8,1669.9c44.7,98.9,118.2,62.6,139,111c8.7,20.2-18.5,29.4-33.3,44.1c-30.2,30-23.5,33.2-23.4,76.3
		c-31.5-67.8,48.3-103.6,48.1-110.9C3376.2,1752.1,3269.2,1768,3246.8,1669.9z"/>
	<path class="st26" d="M3141,1757.3c0.2,68.8,29.5,72.8,43.3,114.6c10.3,30.9-12.4,45.9-38.5,48.3c-26.4,2.4-57.2,17.7-83,84.3
		c21.3-99.5,81.2-85.1,103.5-118.8C3177.1,1869.4,3133,1830.9,3141,1757.3z"/>
	<path class="st29" d="M3176.9,1567.7c-14.7,289,45.1,406.1,217.1,408.8C3236,1957.2,3182.6,1800.4,3176.9,1567.7z"/>
	<path class="st29" d="M3238.1,1654.3c11.1,39.6,15,61.4,22.1,78.3c20,47.2,43,31.2,46.5,67.5c8.3,85.5,14.3,132.2,83.5,172.2
		c-72.1-43.6-92.3-70-112.3-170.2c-4.8-23.9-16.4-30.3-26.3-67C3245.1,1711.2,3242.6,1687,3238.1,1654.3z"/>
	<path class="st25" d="M3251.9,1935.3c18.9,73.7,4.6,124.7-14.2,181.4c-36,108.5-104.7,171.4,61.7,233.8
		c-99.7-60.9-79.8-85.8-52.3-159.1C3277.4,2111,3299.4,2013.2,3251.9,1935.3z"/>
	<path class="st25" d="M2342.7,639.9c487.4-49.7,243.2,164.7,595.7,361.3C2485.5,832.5,2698.7,677.9,2342.7,639.9z"/>
	<path class="st26" d="M2342.7,639.9c451.7-22.9,247.2,228.8,595.7,361.3C2508.2,838.2,2754.1,658.8,2342.7,639.9z"/>
	<path class="st25" d="M3002.9,1026.6C2858.7,1014.4,2717,970,2610.3,909c-57-32.5-124.9-115.2-169-155.4
		c-56.3-51.3-50.4-66.3-111.2-123.1c51.2,34.4,103.6,34.6,155.5,76.8c44.7,36.2,94.5,131.4,142.7,161
		C2745.7,940.2,2872.5,1000.2,3002.9,1026.6z"/>
	<path class="st25" d="M3367.3,1512.5c-20.4-404.4-296-336.6-644.3-532.4C3174.6,1076.7,3426,1129.1,3367.3,1512.5z"/>
	<path class="st26" d="M3367.3,1512.5c21.7-432.3-308.6-392.3-644.3-532.4C3160.9,1104,3412.2,1135.5,3367.3,1512.5z"/>
	<path class="st29" d="M3359.9,1509.4c-20.4-404.4-224.2-300.7-572.5-496.5c229.5,142.6,351.6,127.8,463.4,233.7
		C3316.2,1308.5,3349.3,1400.5,3359.9,1509.4z"/>
	<path class="st25" d="M3137.7,2274.8c-0.3,12,6.2,17.3-0.8,35.9c-13.6,36.4-33.4,54.1-43.6,77.7c-8.6,19.8-11.5,29.7-13.9,75.2
		c3.9-21.5,8.9-51,23.5-77c33.3-58.9,73-44.2,129.1-58.7C3175.9,2327,3159.6,2324.2,3137.7,2274.8z"/>
	<path class="st25" d="M2672,670.7c118.7,66.6,230.8,113,320.8,217c46.4,53.6,90.6,113.3,166.2,168.2
		c64.2,46.6,131.3,95.6,200.1,91.3c-39.5,19.1-138.6-21.5-231.8-67.6c-44.6-22.1-82.3-47.9-144.8-86.4
		C2815.8,890.4,2843.3,814.5,2672,670.7z"/>
	<path class="st26" d="M2672,670.7c111.3,76.5,200.8,129.6,279.6,208.5c85.1,85.3,212.2,245.5,407.5,267.9
		c-181.1-18.8-365.2-160.5-436.9-237.4C2785.5,763,2788.4,747.9,2672,670.7z"/>
	<path class="st29" d="M2591.7,639c125.6,32.3,158.1,132.6,235.6,231.3c58.3,74.2,151.6,145.3,275.6,198.7
		c-153.9-60.7-251-121.5-300.2-188.9C2741.1,795.6,2737,705,2591.7,639z"/>
	<path class="st29" d="M2311.8,614.7c61.6,145.3,108.5,175.3,263,285.2c-121.4-101.2-176.3-161.6-241.4-267.3
		c73.5,32,128.3,46.9,165.8,74.2c99.1,72.2,78.2,161.3,295.3,237.4c-194.6-79-182.9-181.8-281.3-247.7
		c-43.4-29.1-102.6-52.6-161.3-66c77.9,4.9,117.7-5.8,184.8-4.2c-79.3-13.8-141.5-2.2-198.6-5.3c191.2-61.6,412.7-34.4,638,105.6
		c-201.1-136.1-330.3-196-615.8-127.8c112.5-53.3,106.6-128.7,200.7-141.6c-88.6-3.4-134.4,99.1-203.3,123.6
		c-191.3-7.4-299,26.2-452.6,142.6c98.4-70.1,292.6-146,400.3-124.1c-126.5,70.9-372.9,130.1-508,264.6
		c122.2-91.2,387.2-183.2,507-251.9c-82.5,83.8-135.4,121.5-145.8,301.6C2191.1,740.4,2225.4,736.1,2311.8,614.7z"/>
	<path class="st25" d="M1935.8,897.3c-183.8,152.9-245.5,630.1-35.9,1195.8C1590.2,1561.1,1627.5,1095.2,1935.8,897.3z"/>
	<path class="st25" d="M1790,983.9c-73.5,125.3-114.8,237-136.2,358.6c-41.3,235.1-2.9,390.9-199.7,518.1
		c157.7-162.6,72.7-279.7,141.2-545.2C1626.9,1192.8,1673.7,1102.9,1790,983.9z"/>
	<path class="st25" d="M1795.4,2212.1c18.6,48.9,47.6,92.5,56.4,139.2c10.9,57.9,5.6,116,29.4,157.3
		c-52.6-74.6-46.5-228.4-80.5-255.4c-31.8-25.2-28.7,60.5-152.4,61.6C1703.9,2309.3,1773.5,2248.9,1795.4,2212.1z"/>
	<path class="st25" d="M1672.3,1415.5c-42.6,262,11.8,351.5-22.2,492.5c-20.2,83.7-117.5,166.5-94,316.7
		c7.5-200.9,127.6-189,147.3-332.3C1721.2,1763.1,1655.7,1682,1672.3,1415.5z"/>
	<path class="st25" d="M1658.5,2213c38.1-100.9,12.2-130.5,25.6-211.4c13-78.4,46.8-118.4,52.5-217.5
		c34.9,97.2,75,181.2,128.9,269.4c-36-42.5-64.9-80.3-97.2-125.7c-37,185,52.7,236.9-65.5,367.6c68.4-128.1,15.1-159.3,9.5-272.5
		C1699.5,2129.3,1689.9,2169.4,1658.5,2213z"/>
	<path class="st26" d="M1935.8,897.3c-212.8,157.7-284.1,636.6-35.9,1195.8C1635.5,1570.2,1666.7,1103.1,1935.8,897.3z"/>
	<path class="st26" d="M1790,983.9c-73.5,125.3-123.2,239.1-144.6,360.7c-41.4,235.1-32.5,397.2-191.3,516
		c174.6-164.7,102.3-256.5,170.7-522C1656.5,1216.1,1677.9,1115.6,1790,983.9z"/>
	<path class="st26" d="M2316.9,605.4c-234.5,184.9-332.9,162.4-487.8,265.8c-160.1,106.9-287.8,252.6-299.4,593.4
		c25.5-355.9,161.9-481.9,301.2-572.9C1961.5,806.4,2142.3,772.8,2316.9,605.4z"/>
	<path class="st26" d="M1672.3,1415.5c-33.2,304.5,54.8,359.5,18,487.8c-23.8,82.8-157.7,171.3-134.1,321.4
		c-7.3-206.2,127.6-189,147.3-332.3C1721.2,1763.1,1655.7,1682,1672.3,1415.5z"/>
	<path class="st25" d="M1945.2,1707c-117-97.4-156.4-401.3-22.9-761.5C1725.1,1284.2,1748.9,1580.9,1945.2,1707z"/>
	<path class="st26" d="M1945.2,1707c-135.5-100.4-180.9-405.4-22.9-761.5C1754,1278.5,1773.9,1575.9,1945.2,1707z"/>
	<path class="st25" d="M2286.5,596.8c-224.2,42.6-336.5,60.8-552.4,308.5C1939.3,712.5,2048.2,707.1,2286.5,596.8z"/>
	<path class="st25" d="M2268.7,556.6c-236.7-30.7-386.8,22.8-557.8,319c75.6-110.2,165-209.4,264.2-229
		c120.5-23.8,173.7-53.9,292.4-60C2372.6,581.2,2392.2,572.6,2268.7,556.6z"/>
	<path class="st25" d="M2384,600.9c37.3-32,79.8-81.6,121.5-98.3c78.6-31.3,322.8,75.7,422.5,104.6
		C2760.8,574.4,2550,542.2,2384,600.9z"/>
	<path class="st25" d="M2509.3,560.9c402.8-4.2,507.5,5.8,706.6,241.9C2969.2,607,2858.6,594.2,2509.3,560.9z"/>
	<path class="st25" d="M2735.3,572.4c92.2,12.5,239.1,94.4,353.8,171.7c139.5,93.9,165,116.8,177.7,181.9
		c9.7,49.7,4.5,106.9,24.1,158.7c-54.8-65.2-72.7-101.6-115.2-173.6c-21.3-36.1-46-68.5-107.3-125.6
		C2979.5,702.8,2858.6,615.1,2735.3,572.4z"/>
	<path class="st26" d="M2333.2,624.1c202.7-67,395.5,5.7,559.8,85.7c199.2,97,283.1,381.4,460.5,431.9
		c-162.9,0.8-264.8-305-470.7-409.5C2766.9,673.4,2600.8,564.8,2333.2,624.1z"/>
	<path class="st26" d="M3034.2,712.4c139.5,94,209.3,139,222,204.1c9.7,49.7,10.9,116.4,34.7,168.2c-45.3-65.2-23.3-93.9-63.5-167.2
		C3178.4,828.1,3178.8,824.7,3034.2,712.4z"/>
	<path class="st26" d="M2509.3,560.9c402.8,7,507.5,20,706.6,241.9C2986.3,583,2869.7,578.7,2509.3,560.9z"/>
	<path class="st26" d="M2384,600.9c37.3-32,85.1-45.7,126.8-62.3c78.6-31.3,317.5,39.8,417.2,68.7
		C2760.8,555.8,2550,512.8,2384,600.9z"/>
	<path class="st26" d="M2268.7,567.8c-247.7-13.4-395.5,23.8-557.8,306.4c70.3-123.9,189.4-243.2,288.5-262.8
		c118.6-23.4,124.7-25.5,241.7-31.5C2346.1,574.5,2393.1,574.5,2268.7,567.8z"/>
	<path class="st29" d="M1577.8,1122.4c-56.7,145.5-103.8,261.5-84.7,448.8c9.5,93.3,47.7,95,16.1,215.7
		c54.3-124,34.8-205.1,50.9-335.1c16.6-133.6,47.8-241.4,116-348.3c-124.4,195.3-113.6,245.6-154.2,472.2
		C1492.2,1383.9,1519.5,1301.8,1577.8,1122.4z"/>
	<path class="st29" d="M1711.9,1148.5c-52.2,131.1-60.2,252.8-77.6,382.5c-22.1,165-27,222.3-102,293.6
		c38.3-12.4,61.4-41.1,96.1-127.8c9.6,63.7-88.3,119.4-1.1,261c-9.6-46.7-17.2-71-12.7-106.7c9.5-75.3,36.8-71,33.1-175.3
		c-2-57.4-1-110.6,2.5-161.6C1658.9,1387.3,1682.6,1274.8,1711.9,1148.5z"/>
	<path class="st26" d="M1658.5,2213c38.1-100.9,23.8-132.6,37.2-213.5c13-78.5,37.3-65.6,43-164.7c34.9,97.2,67.6,130.5,126.7,218.7
		c-36-42.5-79.7-118.3-112-163.7c-35.9,168.1,45.3,309.8-50.7,405.7c80-107,24.6-233.3,19-346.5
		C1694.2,2031.1,1696.3,2150.4,1658.5,2213z"/>
	<path class="st29" d="M2152.3,757.1c-154.8,296.7-84.6,455.8,146.8,631.7C2069.5,1157.3,2054,1005.4,2152.3,757.1z"/>
	<path class="st29" d="M2111.2,787.8c-266.8,228-254.7,497,1,664.4C1855.1,1255.6,1916.6,992.7,2111.2,787.8z"/>
	<path class="st29" d="M2240,690.6c-193.1,183.6-340,160.2-504.9,408.8l78.1-141.6c-80.5,60.8-118.8,111.8-169,181.7
		c60-116.1,120.5-170.7,211.9-227.7C1992.7,826.7,2114.7,791.5,2240,690.6z"/>
</g>
<path class="st30" d="M2064.6,3023.6c-7.8,22.2-3.4,2.9-18.6,33.4c101.6,119.3,290.9,349.6,357.4,400c12-37.8,17.6-139.5,20.2-190.3
	c-46.2-58.6-78.4-98.4-137.1-147.3c-78.1-65.1-109.2-94-165.1-152.4L2064.6,3023.6z"/>
<path class="st30" d="M2891.8,3035c7.8,22.2,6.8,5.7,22,36.2c-101.6,119.3-278.5,345.4-345,395.8c-12-37.8-24.8-139.5-27.3-190.3
	c46.2-58.6,78.4-98.4,137.1-147.3c78.1-65.1,127.8-97.1,183.7-155.5L2891.8,3035z"/>
</svg>
