<?xml version="1.0" encoding="utf-8"?>
<!-- Generator: Adobe Illustrator 23.0.3, SVG Export Plug-In . SVG Version: 6.00 Build 0)  -->
<svg version="1.1" id="Layer_1" xmlns="http://www.w3.org/2000/svg" xmlns:xlink="http://www.w3.org/1999/xlink" x="0px" y="0px"
	 viewBox="0 0 5000 5000" style="enable-background:new 0 0 5000 5000;" xml:space="preserve">
<style type="text/css">
	.st0{fill:#E8E8E8;}
	.st1{fill:#10AABB;}
	.st2{fill:#D1D1D1;}
	.st3{fill:#F7C29A;}
	.st4{fill:#F2B481;}
	.st5{fill:#10BBAA;}
	.st6{fill:#FFFFFF;}
	.st7{fill:#232323;}
	.st8{fill:#DBB89C;}
	.st9{fill:#EDD2B6;}
	.st10{fill:#353535;}
	.st11{fill:#F4F4F4;}
	.st12{fill:#3D4D5C;}
	.st13{display:none;}
	.st14{display:inline;fill:#BCBCBC;}
	.st15{display:inline;fill:#DDBB8E;}
	.st16{display:inline;fill:#10AABB;}
	.st17{display:inline;fill:#E5A46E;}
	.st18{display:inline;fill:#BA7B47;}
	.st19{display:inline;fill:#353535;}
	.st20{display:inline;fill:#3D4D5C;}
	.st21{display:inline;fill:#FCFCFC;}
	.st22{fill-rule:evenodd;clip-rule:evenodd;}
</style>
<g id="Layer_5">
</g>
<g id="Layer_4">
</g>
<g>
	<path class="st0" d="M5000,2500c0,732.6-315.1,1391.5-817.1,1848.8C3738.7,4753.4,3148.1,5000,2500,5000h-1c-2.1,0-4.3,0-6.4,0
		c-653-1.9-1247-254.1-1691.3-665.7C308.5,3877.6,0,3224.9,0,2500C0,1119.3,1119.3,0,2500,0S5000,1119.3,5000,2500z"/>
	<path class="st1" d="M2499,5000c-2.1,0-4.3,0-6.4,0c-653-1.9-1247-254.1-1691.3-665.7c10.8-281.7,52.2-454.5,52.2-454.5
		c28.8-162.5,77.3-275.9,122.5-351.8c46.4-77.9,117.2-138.2,201.2-172.5c175.4-71.6,360.3-122.2,360.3-122.2
		c381-121.5,568.3-255,568.3-255l380,199.1l8.7,1190.7L2499,5000z"/>
	<polygon class="st2" points="2594.9,4494.7 2492.2,4725.7 2099.9,3177.8 2924.9,3177.8 	"/>
	<path class="st3" d="M2854.5,2677.5c-3,13.5,11.2,398.2,11.2,398.2l-264,273l-475.5-286.5l20.2-384.7H2854.5z"/>
	<path class="st4" d="M2862.9,2997.3L2215,2759.1l-68.5-81.6h8.9c364.2,11.4,501.2,14.8,691.3,0h7.8
		C2852.4,2687.1,2859,2884,2862.9,2997.3z"/>
	<path class="st1" d="M4182.9,4348.8C3738.7,4753.4,3148.1,5000,2500,5000h-1c-2.1,0-4.3,0-6.4,0l1.8-631.9l3.4-1190.7l380-199.1
		c0,0,187.3,133.5,568.3,255c0,0,184.9,50.6,360.3,122.2c83.9,34.2,154.8,94.6,201.2,172.5c45.2,75.9,93.8,189.3,122.5,351.8
		C4130.2,3879.7,4173,4058.6,4182.9,4348.8z"/>
	<polygon class="st2" points="2388.8,4494.7 2491.5,4725.7 2883.7,3177.8 2058.8,3177.8 	"/>
	<g>
		<g>
			<path class="st5" d="M2583.7,3336.9c-3.7,7.1-19.3,12.5-35.2,12.5h-105.6c-15.9,0-31.6-5.4-35.2-12.5l-60.5-117.6
				c-11.8-22.9,4.3-44.3,37.7-44.3h221.7c33.4,0,49.5,21.4,37.7,44.3L2583.7,3336.9z"/>
		</g>
		<g>
			<polygon class="st5" points="2664.2,4444.9 2496.7,4725.7 2324.6,4470.4 2346.5,4168.1 2406.9,3334.4 2583.7,3334.4 
				2646.2,4196.7 			"/>
		</g>
	</g>
	<polygon class="st6" points="2861.6,2968.5 2764.5,3408.9 2489.5,3175.1 	"/>
	<polygon class="st6" points="2122.1,2968.5 2219.2,3408.9 2494.1,3175.1 	"/>
	<polygon class="st7" points="2861.6,2968.5 3077.9,3089.3 3149.3,3493.3 2980.5,3601.4 3118.1,3675.7 2492.3,4926.7 2492.3,4643.2 
			"/>
	<polygon class="st7" points="2122.1,2968.5 1905.8,3089.3 1834.4,3493.3 2003.1,3601.4 1865.5,3675.7 2491.4,4926.7 2491.4,4643.2 
			"/>
	<path class="st8" d="M1809.5,1848.4c3.4,99.7-16.9,186.6-68.4,188.4s-88.8-77.9-92.3-177.6c-3.4-99.7,36.1-182,87.6-183.8
		C1787.9,1673.6,1806.1,1748.7,1809.5,1848.4z"/>
	<path class="st9" d="M3150.8,1828.3c-3.4,99.7,16.9,186.6,68.4,188.4s88.8-77.9,92.3-177.6c3.4-99.7-36.1-182-87.6-183.8
		C3172.4,1653.6,3154.3,1728.6,3150.8,1828.3z"/>
	<ellipse class="st3" cx="2491.5" cy="1870" rx="700.1" ry="994.4"/>
	<path class="st4" d="M2497.7,875.6v1988.8c-387.8,3.6-706.4-434.4-706.4-981.2C1791.3,1324.6,2086.1,885.2,2497.7,875.6z"/>
	<path class="st10" d="M1827.9,2188.2c0,0-160.2-596.5,182.9-895.3c0,0,255.7,205.9,566.7,133.6c0,0,102.8-22,226.7-99.8
		c0,0,242.9-103,322.7,135c85,253.5,41.8,511.4,47,665.5c0,0,113.6-256.9,117.3-647.7c0,0,18.4,69.1,25.6,154.4
		c0,0,42.8-298.2-34.7-473.7c0,0-56.8-188.1-273.6-284.6c0,0-128.3-205-640.3-163.9c0,0-8.4-35,70.7-67.2c0,0-394.6-25.2-484,243.1
		c0,0-319.5,70.1-289.7,625.7l33.7-103.8C1699.1,1409.5,1636.9,1932.6,1827.9,2188.2z"/>
	<path class="st11" d="M1221.7,4850.4l3.2-58c0.3-5-3.6-9.2-8.5-9.3l-31.7-1.1c0,0-25.2,0.6-31,32.2c0,0-3.8,26.6,18.9,39.9
		c0,0,9.5,4.6,29.6,4.1l10.2,0.6C1217.2,4859.1,1221.4,4855.3,1221.7,4850.4z"/>
	<path class="st12" d="M2494,4379.6c2,0.1,3.9,0.1,5.9,0.1c-2,0-3.9,0.1-5.9,0.1V4379.6z"/>
</g>
<g id="fresher" class="st13">
	<path class="st14" d="M4246.2,2500c0,511.7-220.1,972-570.8,1291.3c-310.3,282.6-722.7,454.8-1175.4,454.8h-0.7c-1.5,0-3,0-4.5,0
		c-456.1-1.3-871-177.5-1181.3-465C969.3,3462.3,753.8,3006.3,753.8,2500c0-964.4,781.8-1746.2,1746.2-1746.2
		C3464.4,753.8,4246.2,1535.6,4246.2,2500z"/>
	<path class="st14" d="M4272.6,2495.4c0,511.7-220.1,972-570.8,1291.3c-310.3,282.6-722.7,454.8-1175.4,454.8h-0.7c-1.5,0-3,0-4.5,0
		c-456.1-1.3-871-177.5-1181.3-465c-344.2-318.9-559.7-774.9-559.7-1281.2c0-964.4,781.8-1746.2,1746.2-1746.2
		C3490.8,749.2,4272.6,1531,4272.6,2495.4z"/>
	<path class="st15" d="M2747.6,2624c-2.1,9.4,7.8,278.2,7.8,278.2l-258.1,872.9L2239,2892.7l14.1-268.7H2747.6L2747.6,2624z"/>
	<path class="st16" d="M2499.3,4246.2c-1.5,0-3,0-4.5,0c-456.1-1.3-871-177.5-1181.3-465c7.5-196.7,36.4-317.5,36.4-317.5
		c20.1-113.5,54-192.7,85.6-245.7c32.4-54.4,81.9-96.5,140.5-120.5c122.5-50,251.6-85.4,251.6-85.4
		c266.1-84.9,384.7-137.3,384.7-137.3l219,282.4l64.7,647.6L2499.3,4246.2z"/>
	<path class="st17" d="M2753.5,2847.3L2301,2681l-47.9-57h6.2c254.4,8,350.1,10.4,482.9,0h5.4
		C2746.1,2630.7,2750.7,2768.2,2753.5,2847.3z"/>
	<path class="st16" d="M3675.4,3791.3c-310.3,282.6-722.7,454.8-1175.4,454.8h-0.7c-1.5,0-3,0-4.5,0l1.3-441.4l55.2-647.6
		l232.6-252.5c0,0,110.9,22.6,377,107.4c0,0,129.2,35.4,251.6,85.4c58.6,23.9,108.1,66.1,140.5,120.5c31.6,53,65.5,132.2,85.6,245.7
		C3638.7,3463.7,3668.6,3588.6,3675.4,3791.3z"/>
	<path class="st18" d="M2017.7,2044.8c2.4,69.6-11.8,130.4-47.8,131.6c-36,1.2-62.1-54.4-64.5-124c-2.4-69.6,25.2-127.1,61.2-128.4
		C2002.6,1922.8,2015.3,1975.2,2017.7,2044.8z"/>
	<path class="st15" d="M2954.6,2030.9c-2.4,69.6,11.8,130.4,47.8,131.6s62.1-54.4,64.5-124c2.4-69.6-25.2-127.1-61.2-128.4
		C2969.7,1908.8,2957,1961.2,2954.6,2030.9z"/>
	<ellipse class="st15" cx="2494" cy="2059.9" rx="489" ry="694.6"/>
	<path class="st18" d="M2498.4,1365.4v1389.2c-270.9,2.5-493.4-303.4-493.4-685.4C2005,1679,2210.9,1372.1,2498.4,1365.4z"/>
	<path class="st19" d="M2030.6,2282.2c0,0-111.9-416.6,127.7-625.3c0,0,178.6,143.8,395.9,93.3c0,0,71.8-15.4,158.4-69.7
		c0,0,169.7-72,225.4,94.3c59.4,177.1,29.2,357.2,32.8,464.8c0,0,76.2-276.6,81.9-452.4c0,0,12.8,48.3,17.9,107.9
		c0,0,29.9-208.3-24.2-330.9c0,0-39.4-245.1-191.1-198.8c0,0-89.6-143.2-447.2-114.5c0,0-5.9-24.5,49.4-46.9
		c0,0-228.8,80.2-326.4,215c0,0-220-74-214,391.8l23.6-72.5C1940.6,1738.3,1943,2083,2030.6,2282.2z"/>
	<path class="st20" d="M2495.8,3812.9c1.4,0,2.7,0.1,4.1,0.1c-1.4,0-2.7,0.1-4.1,0.1V3812.9z"/>
	<path class="st21" d="M2195.9,2865.7c-5.5,15.5-2.4,2.1-13,23.3c70.9,83.4,203.2,244.2,249.6,279.4c8.4-26.4,12.3-97.5,14.1-132.9
		c-32.3-40.9-54.8-68.7-95.8-102.9c-54.5-45.5-76.3-65.6-115.3-106.4L2195.9,2865.7z"/>
	<path class="st21" d="M2773.6,2873.7c5.5,15.5,4.7,4,15.4,25.3c-70.9,83.4-194.5,241.2-241,276.4c-8.4-26.4-17.3-97.5-19.1-132.9
		c32.3-40.9,54.8-68.7,95.8-102.9c54.5-45.5,89.3-67.8,128.3-108.6L2773.6,2873.7z"/>
</g>
<path class="st22" d="M1777.7,1901.4c-4.4-9.2-4.9-23.8-1.1-33.4c2.3-5.7,15.6-6.2,25.3-9.6c0,8.3,0,13.4,0,17.8
	c-7.6,2.4-14,4.4-22.5,7c8.9,9.6,27.4-0.6,23.6,25C1793.9,1906.1,1780.4,1906.9,1777.7,1901.4z M3198.3,1901.4
	c4.4-9.2,4.9-23.8,1.1-33.4c-2.3-5.7-15.6-6.2-25.3-9.6c0,8.3,0,13.4,0,17.8c7.6,2.4,14,4.4,22.5,7c-9,9.6-27.4-0.6-23.6,25
	C3182.1,1906.1,3195.6,1906.9,3198.3,1901.4z M3141,1908.9c-0.5,0-1,0.1-1.5,0.1c-38.6,3.5-38.6,3.5-44.3,45.3
	c-19.8,145.2-120.3,240.4-253.7,240.1c-125.4-0.3-220.3-84.9-251-226c-6.5-30-8.1-61.4-10.4-92.3c-1.7-22.8-4.3-29.3-24.1-35
	c-43.9-12.5-92.1-12.5-136.1,0c-19.8,5.7-22.4,12.2-24.1,35c-2.3,30.9-3.9,62.3-10.4,92.3c-30.7,141.1-125.6,225.7-251,226
	c-133.3,0.3-233.9-94.9-253.7-240.1c-5.7-41.8-5.7-41.8-44.3-45.3c-0.5,0-1-0.1-1.5-0.1c-18.3-1.9-24.1-10.2-23.1-33.1
	c0.8-18.6,13.1-17.1,24.5-17.1c2.5,0,5,0,7.4,0.2c16,1.6,27.9-5.5,36-20.6c4.1-7.5,8.1-15,12.2-22.5
	c59.6-112.3,158.4-149.9,261.1-138.5c77.3,8.6,143,46,197.2,107.1c14.3,16.1,29.8,20.5,48.5,13.5c31.3-11.8,62.7-16.7,94.1-15.6
	c28.2,0.1,56.3,5,84.4,15.6c18.7,7,34.2,2.6,48.5-13.5c54.2-61,119.9-98.5,197.2-107.1c102.7-11.4,201.4,26.1,261.1,138.5
	c4,7.5,8.1,15.1,12.2,22.5c8.2,15,20,22.1,36,20.6c2.5-0.2,5-0.2,7.4-0.2c11.4,0,23.7-1.5,24.5,17.1
	C3165.1,1898.6,3159.3,1907,3141,1908.9z M2344.9,1846.4c-18.9-50-51.1-87-95.2-110.3c-69.8-36.9-142.1-46.3-216.2-17.1
	c-100.2,39.4-149.2,137.7-126.9,252.3c18.5,95.4,69.3,159.6,153.8,188.4c85.4,29.2,163.6,12.4,231.5-53.4
	c32.7-31.7,57.7-83.7,62.5-128.5c-3.1,2.2-5.3,3.8-9.4,6.6c-1.5,5.5-3.2,11-4.9,16.5c-0.8,2.6-1.6,5.2-2.5,7.9
	c-1.4,3.8-7.3,2.3-6.4-1.9c5-25,12.6-49,14.9-74.6c0.3-3.4,5.3-3.5,5.5,0c0.5,9.7-0.1,19-1.4,28.1c2-0.2,4.8-0.3,7.4-0.6
	C2365.5,1921.3,2358.8,1883.2,2344.9,1846.4z M2942.4,1719c-74.1-29.2-146.4-19.7-216.2,17.1c-44.1,23.3-76.3,60.3-95.2,110.3
	c-13.9,36.8-20.5,74.8-12.7,113.2c2.6,0.4,5.4,0.4,7.4,0.6c-1.3-9.1-1.9-18.4-1.4-28.1c0.2-3.5,5.2-3.4,5.5,0
	c2.3,25.6,9.9,49.7,14.9,74.6c0.8,4.2-5,5.7-6.4,1.9c-1-2.6-1.8-5.2-2.5-7.9c-1.8-5.5-3.4-11-4.9-16.5c-4.1-2.9-6.3-4.4-9.4-6.6
	c4.8,44.8,29.8,96.8,62.5,128.5c67.9,65.8,146.1,82.5,231.5,53.4c84.5-28.8,135.3-93.1,153.8-188.4
	C3091.6,1856.6,3042.6,1758.4,2942.4,1719z"/>
</svg>
