<?xml version="1.0" encoding="utf-8"?>
<!-- Generator: Adobe Illustrator 23.0.3, SVG Export Plug-In . SVG Version: 6.00 Build 0)  -->
<svg version="1.1" id="Layer_1" xmlns="http://www.w3.org/2000/svg" xmlns:xlink="http://www.w3.org/1999/xlink" x="0px" y="0px"
	 viewBox="0 0 1920 501" style="enable-background:new 0 0 1920 501;" xml:space="preserve">
<style type="text/css">
	.st0{fill:#0DABBA;}
	.st1{clip-path:url(#SVGID_2_);fill:url(#SVGID_3_);}
	.st2{clip-path:url(#SVGID_5_);fill:url(#SVGID_6_);}
</style>
<path class="st0" d="M960,288.62"/>
<g>
	<defs>
		<rect id="SVGID_1_" width="1920" height="586.45"/>
	</defs>
	<clipPath id="SVGID_2_">
		<use xlink:href="#SVGID_1_"  style="overflow:visible;"/>
	</clipPath>
	
		<linearGradient id="SVGID_3_" gradientUnits="userSpaceOnUse" x1="960.1279" y1="657.0856" x2="984.2448" y2="-1982.0332" gradientTransform="matrix(1 0 0 -1 0 704)">
		<stop  offset="0" style="stop-color:#0FABBA"/>
		<stop  offset="0.6157" style="stop-color:#1FBAA9"/>
	</linearGradient>
	<path class="st1" d="M-354-523.55h2628.04V627.21c0,0-136.79-155.54-284.96-279.96s-319.42-207.66-571.04-194.21
		C1166.42,166.5,858.88,519.6,481.45,401.9s-718.52,73.99-780.02,124.44S-354,576.35-354,576.35V-523.55z"/>
</g>
<g>
	<defs>
		<rect id="SVGID_4_" x="0" y="-451.32" width="1920" height="1095.23"/>
	</defs>
	<clipPath id="SVGID_5_">
		<use xlink:href="#SVGID_4_"  style="overflow:visible;"/>
	</clipPath>
	
		<linearGradient id="SVGID_6_" gradientUnits="userSpaceOnUse" x1="-353.6676" y1="348.942" x2="2274.0444" y2="348.942" gradientTransform="matrix(1 0 0 -1 0 704)">
		<stop  offset="0.2092" style="stop-color:#1FBAA9"/>
		<stop  offset="1" style="stop-color:#0DABBA"/>
	</linearGradient>
	<path class="st2" d="M2274.04,669.44c-53.86-134.48-401.58-596.87-782.27-627.18C1119.02,12.59,825.58,412.14,330.73,351.6
		c-465.55-56.93-663.03,231.44-684.4,265.75c4.37-4.89,20.46-17.39,56.75-47.14c61.51-50.45,402.6-242.12,780.02-124.42
		s684.97-235.4,936.6-248.85c251.62-13.45,422.87,69.77,571.04,194.21C2138.91,515.56,2274.04,669.44,2274.04,669.44z"/>
</g>
</svg>
