<?xml version="1.0" encoding="utf-8"?>
<!-- Generator: Adobe Illustrator 23.0.3, SVG Export Plug-In . SVG Version: 6.00 Build 0)  -->
<svg version="1.1" id="Layer_1" xmlns="http://www.w3.org/2000/svg" xmlns:xlink="http://www.w3.org/1999/xlink" x="0px" y="0px"
	 viewBox="0 0 5000 5000" style="enable-background:new 0 0 5000 5000;" xml:space="preserve">
<style type="text/css">
	.st0{display:none;}
	.st1{display:inline;fill:#BCBCBC;}
	.st2{display:inline;fill:#10AABB;}
	.st3{display:inline;fill:#D1D1D1;}
	.st4{display:inline;fill:#FAC67B;}
	.st5{display:inline;fill:#E5A46E;}
	.st6{display:inline;}
	.st7{fill:#10BBAA;}
	.st8{display:inline;fill:#FFFFFF;}
	.st9{display:inline;fill:#232323;}
	.st10{display:inline;fill:#DBB89C;}
	.st11{display:inline;fill:#EDD2B6;}
	.st12{display:inline;fill:#F9B370;}
	.st13{display:inline;fill:#353535;}
	.st14{display:inline;fill:#F4F4F4;}
	.st15{display:inline;fill:#3D4D5C;}
	.st16{fill:#E8E8E8;}
	.st17{fill:#DDBB8E;}
	.st18{fill:#10AABB;}
	.st19{fill:#CEAA7E;}
	.st20{fill:#BA7B47;}
	.st21{fill:#353535;}
	.st22{fill:#3D4D5C;}
	.st23{fill:#FCFCFC;}
</style>
<g id="Layer_5">
</g>
<g id="Layer_4">
</g>
<g id="experience" class="st0">
	<path class="st1" d="M4246.2,2500c0,511.7-220.1,972-570.8,1291.3c-310.3,282.6-722.7,454.8-1175.4,454.8h-0.7c-1.5,0-3,0-4.5,0
		c-456.1-1.3-871-177.5-1181.3-465C969.3,3462.3,753.8,3006.3,753.8,2500c0-964.4,781.8-1746.2,1746.2-1746.2
		C3464.4,753.8,4246.2,1535.6,4246.2,2500z"/>
	<path class="st2" d="M2499.3,4246.2c-1.5,0-3,0-4.5,0c-456.1-1.3-871-177.5-1181.3-465c7.5-196.7,36.4-317.5,36.4-317.5
		c20.1-113.5,54-192.7,85.6-245.7c32.4-54.4,81.9-96.5,140.5-120.5c122.5-50,251.6-85.4,251.6-85.4c266.1-84.9,397-178.1,397-178.1
		l265.4,139.1l6,831.6L2499.3,4246.2z"/>
	<polygon class="st3" points="2566.3,3893.3 2494.5,4054.6 2220.6,2973.4 2796.8,2973.4 	"/>
	<path class="st4" d="M2747.6,2624c-2.1,9.4,7.8,278.2,7.8,278.2l-184.4,190.7L2239,2892.7l14.1-268.7H2747.6z"/>
	<path class="st5" d="M2753.5,2847.3L2301,2681l-47.9-57h6.2c254.4,8,350.1,10.4,482.9,0h5.4
		C2746.1,2630.7,2750.7,2768.2,2753.5,2847.3z"/>
	<path class="st2" d="M3675.4,3791.3c-310.3,282.6-722.7,454.8-1175.4,454.8h-0.7c-1.5,0-3,0-4.5,0l1.3-441.4l2.4-831.6l265.4-139.1
		c0,0,130.8,93.2,397,178.1c0,0,129.2,35.4,251.6,85.4c58.6,23.9,108.1,66.1,140.5,120.5c31.6,53,65.5,132.2,85.6,245.7
		C3638.7,3463.7,3668.6,3588.6,3675.4,3791.3z"/>
	<polygon class="st3" points="2422.3,3893.3 2494.1,4054.6 2768,2973.4 2191.8,2973.4 	"/>
	<g class="st6">
		<g>
			<path class="st7" d="M2558.4,3084.5c-2.6,5-13.5,8.7-24.6,8.7H2460c-11.1,0-22.1-3.7-24.6-8.7l-42.2-82.1
				c-8.2-16,3-30.9,26.3-30.9h154.8c23.3,0,34.5,14.9,26.3,30.9L2558.4,3084.5z"/>
		</g>
		<g>
			<polygon class="st7" points="2614.7,3858.5 2497.7,4054.6 2377.5,3876.3 2392.8,3665.1 2435,3082.8 2558.4,3082.8 2602.1,3685.1 
							"/>
		</g>
	</g>
	<polygon class="st8" points="2752.6,2827.3 2684.7,3134.8 2492.7,2971.5 	"/>
	<polygon class="st8" points="2236,2827.3 2303.9,3134.8 2495.8,2971.5 	"/>
	<polygon class="st9" points="2752.6,2827.3 2903.6,2911.6 2953.5,3193.8 2835.6,3269.3 2931.7,3321.2 2494.6,4195 2494.6,3997 	"/>
	<polygon class="st9" points="2236,2827.3 2085,2911.6 2035.1,3193.8 2153,3269.3 2056.8,3321.2 2494,4195 2494,3997 	"/>
	<path class="st10" d="M2017.7,2044.8c2.4,69.6-11.8,130.4-47.8,131.6c-36,1.2-62.1-54.4-64.5-124c-2.4-69.6,25.2-127.1,61.2-128.4
		C2002.6,1922.8,2015.3,1975.2,2017.7,2044.8z"/>
	<path class="st11" d="M2954.6,2030.9c-2.4,69.6,11.8,130.4,47.8,131.6c36,1.2,62.1-54.4,64.5-124c2.4-69.6-25.2-127.1-61.2-128.4
		C2969.7,1908.8,2957,1961.2,2954.6,2030.9z"/>
	<ellipse class="st4" cx="2494" cy="2059.9" rx="489" ry="694.6"/>
	<path class="st12" d="M2498.4,1365.4v1389.2c-270.9,2.5-493.4-303.4-493.4-685.4C2005,1679,2210.9,1372.1,2498.4,1365.4z"/>
	<path class="st13" d="M2030.6,2282.2c0,0-111.9-416.6,127.7-625.3c0,0,178.6,143.8,395.9,93.3c0,0,71.8-15.4,158.4-69.7
		c0,0,169.7-72,225.4,94.3c59.4,177.1,29.2,357.2,32.8,464.8c0,0,79.4-179.4,81.9-452.4c0,0,12.8,48.3,17.9,107.9
		c0,0,29.9-208.3-24.2-330.9c0,0-39.7-131.4-191.1-198.8c0,0-89.6-143.2-447.2-114.5c0,0-5.9-24.5,49.4-46.9
		c0,0-275.6-17.6-338,169.8c0,0-223.2,48.9-202.4,437.1l23.6-72.5C1940.6,1738.3,1897.1,2103.7,2030.6,2282.2z"/>
	<path class="st14" d="M1607.1,4141.7l2.2-40.5c0.2-3.5-2.5-6.4-6-6.5l-22.2-0.8c0,0-17.6,0.4-21.6,22.5c0,0-2.7,18.6,13.2,27.8
		c0,0,6.6,3.2,20.7,2.9l7.1,0.4C1604,4147.8,1606.9,4145.1,1607.1,4141.7z"/>
	<path class="st15" d="M2495.8,3812.9c1.4,0,2.7,0.1,4.1,0.1c-1.4,0-2.7,0.1-4.1,0.1V3812.9z"/>
</g>
<g>
	<path class="st16" d="M5000,2500c0,732.6-315.1,1391.5-817.1,1848.8C3738.7,4753.4,3148.1,5000,2500,5000h-1c-2.1,0-4.3,0-6.4,0
		c-653-1.9-1247-254.1-1691.3-665.7C308.5,3877.6,0,3224.9,0,2500C0,1119.3,1119.3,0,2500,0C3880.7,0,5000,1119.3,5000,2500z"/>
	<path class="st17" d="M2854.5,2677.5c-3,13.5,11.2,398.2,11.2,398.2l-369.5,1249.8l-370-1263.3l20.2-384.7L2854.5,2677.5
		L2854.5,2677.5z"/>
	<path class="st18" d="M2499,5000c-2.1,0-4.3,0-6.4,0c-653-1.9-1247-254.1-1691.3-665.7c10.8-281.7,52.2-454.5,52.2-454.5
		c28.8-162.5,77.3-275.9,122.5-351.8c46.4-77.9,117.2-138.2,201.2-172.5c175.4-71.6,360.3-122.2,360.3-122.2
		c381-121.5,550.7-196.6,550.7-196.6l313.6,404.3l92.7,927.1L2499,5000z"/>
	<path class="st19" d="M2862.9,2997.3L2215,2759.1l-68.5-81.6h8.9c364.2,11.4,501.2,14.8,691.3,0h7.8
		C2852.4,2687.1,2859,2884,2862.9,2997.3z"/>
	<path class="st18" d="M4182.9,4348.8C3738.7,4753.4,3148.1,5000,2500,5000h-1c-2.1,0-4.3,0-6.4,0l1.8-631.9l79.1-927.1l333-361.5
		c0,0,158.7,32.3,539.7,153.8c0,0,184.9,50.6,360.3,122.2c83.9,34.2,154.8,94.6,201.2,172.5c45.2,75.9,93.8,189.3,122.5,351.8
		C4130.2,3879.7,4173,4058.6,4182.9,4348.8z"/>
	<path class="st20" d="M1809.5,1848.4c3.4,99.7-16.9,186.6-68.4,188.4c-51.5,1.8-88.8-77.9-92.3-177.6
		c-3.4-99.7,36.1-182,87.6-183.8C1787.9,1673.6,1806.1,1748.7,1809.5,1848.4z"/>
	<path class="st17" d="M3150.8,1828.3c-3.4,99.7,16.9,186.6,68.4,188.4c51.5,1.8,88.8-77.9,92.3-177.6c3.4-99.7-36.1-182-87.6-183.8
		C3172.4,1653.6,3154.3,1728.6,3150.8,1828.3z"/>
	<ellipse class="st17" cx="2491.5" cy="1870" rx="700.1" ry="994.4"/>
	<path class="st19" d="M2497.7,875.6v1988.8c-387.8,3.6-706.4-434.4-706.4-981.2C1791.3,1324.6,2086.1,885.2,2497.7,875.6z"/>
	<path class="st21" d="M1827.9,2188.2c0,0-160.2-596.5,182.9-895.3c0,0,255.7,205.9,566.7,133.6c0,0,102.8-22,226.7-99.8
		c0,0,242.9-103,322.7,135c85,253.5,41.8,511.4,47,665.5c0,0,109.1-396,117.3-647.7c0,0,18.4,69.1,25.6,154.4
		c0,0,42.8-298.2-34.7-473.7c0,0-56.4-351-273.6-284.6c0,0-128.3-205-640.3-163.9c0,0-8.4-35,70.7-67.2c0,0-327.6,114.9-467.3,307.8
		c0,0-315-105.9-306.3,561l33.7-103.8C1699.1,1409.5,1702.6,1903,1827.9,2188.2z"/>
	<path class="st22" d="M2494,4379.6c2,0.1,3.9,0.1,5.9,0.1c-2,0-3.9,0.1-5.9,0.1V4379.6z"/>
	<path class="st23" d="M2064.6,3023.6c-7.8,22.2-3.4,2.9-18.6,33.4c101.6,119.3,290.9,349.6,357.4,400
		c12-37.8,17.6-139.5,20.2-190.3c-46.2-58.6-78.4-98.3-137.1-147.3c-78.1-65.1-109.2-94-165.1-152.4L2064.6,3023.6z"/>
	<path class="st23" d="M2891.8,3035c7.8,22.2,6.8,5.7,22,36.2c-101.6,119.3-278.5,345.4-345,395.8c-12-37.8-24.8-139.5-27.3-190.3
		c46.2-58.6,78.4-98.3,137.1-147.3c78.1-65.1,127.8-97.1,183.7-155.5L2891.8,3035z"/>
</g>
</svg>
