<?xml version="1.0" encoding="utf-8"?>
<!-- Generator: Adobe Illustrator 23.0.3, SVG Export Plug-In . SVG Version: 6.00 Build 0)  -->
<svg version="1.1" id="Layer_1" xmlns="http://www.w3.org/2000/svg" xmlns:xlink="http://www.w3.org/1999/xlink" x="0px" y="0px"
	 viewBox="0 0 1374.8 467.72" style="enable-background:new 0 0 1374.8 467.72;" xml:space="preserve">
<style type="text/css">
	.st0{fill:#333333;}
	.st1{fill:#F29D1F;}
	.st2{fill-rule:evenodd;clip-rule:evenodd;fill:#F29D1F;}
	.st3{fill-rule:evenodd;clip-rule:evenodd;fill:#333333;}
</style>
<g>
	<g>
		<path class="st0" d="M661.72,407.45c-0.42-0.27-0.89-0.55-1.42-0.83c-0.53-0.29-1.13-0.54-1.77-0.77
			c-0.64-0.23-1.35-0.41-2.12-0.55s-1.58-0.21-2.46-0.21c-2.14,0-4.08,0.38-5.8,1.13c-1.72,0.76-3.18,1.8-4.38,3.12
			c-1.2,1.32-2.13,2.88-2.78,4.67c-0.65,1.79-0.97,3.72-0.97,5.8c0,1.7,0.24,3.2,0.71,4.5s1.14,2.4,2.01,3.29
			c0.87,0.89,1.92,1.56,3.13,2.02c1.22,0.46,2.56,0.68,4.03,0.68c0.94,0,1.8-0.06,2.57-0.16c0.77-0.11,1.49-0.26,2.14-0.45
			c0.66-0.19,1.28-0.42,1.85-0.68c0.58-0.27,1.14-0.55,1.69-0.85l-0.84,3.76c-1.16,0.53-2.4,0.93-3.72,1.21
			c-1.32,0.28-2.8,0.42-4.45,0.42c-1.95,0-3.71-0.32-5.31-0.96c-1.59-0.64-2.95-1.55-4.07-2.73s-1.99-2.59-2.61-4.24
			c-0.62-1.65-0.92-3.49-0.92-5.52c0-2.68,0.43-5.14,1.27-7.38c0.85-2.24,2.06-4.16,3.62-5.77c1.57-1.61,3.45-2.86,5.64-3.76
			c2.19-0.9,4.63-1.35,7.3-1.35c1.83,0,3.45,0.2,4.85,0.59c1.41,0.39,2.6,0.84,3.57,1.34L661.72,407.45z"/>
		<path class="st0" d="M670.3,432.94c-0.36,0.11-0.76,0.2-1.21,0.28c-0.45,0.07-0.9,0.11-1.34,0.11c-1.44,0-2.52-0.36-3.24-1.08
			c-0.71-0.72-1.07-1.68-1.07-2.9c0-0.36,0.04-0.78,0.11-1.26c0.07-0.48,0.18-1.08,0.34-1.79l5.49-25.7h3.56l-5.51,25.78
			c-0.13,0.6-0.22,1.06-0.27,1.39c-0.05,0.33-0.08,0.61-0.08,0.83c0,0.58,0.16,1.03,0.48,1.34c0.32,0.3,0.83,0.46,1.53,0.46
			c0.37,0,0.69-0.02,0.97-0.06s0.54-0.11,0.78-0.19L670.3,432.94z"/>
		<path class="st0" d="M694.56,419.23c0,1.94-0.28,3.78-0.83,5.52c-0.55,1.74-1.34,3.26-2.38,4.56c-1.04,1.3-2.29,2.34-3.77,3.1
			c-1.48,0.76-3.15,1.15-5.01,1.15c-1.26,0-2.39-0.2-3.4-0.6s-1.87-0.97-2.57-1.72c-0.71-0.75-1.25-1.65-1.63-2.72
			c-0.38-1.06-0.57-2.26-0.57-3.6c0-2.01,0.29-3.89,0.87-5.64c0.58-1.74,1.39-3.26,2.44-4.55c1.05-1.29,2.31-2.3,3.78-3.04
			c1.46-0.73,3.08-1.1,4.85-1.1c1.24,0,2.37,0.2,3.38,0.6c1.01,0.4,1.87,0.97,2.58,1.72c0.71,0.75,1.27,1.65,1.66,2.72
			S694.56,417.89,694.56,419.23z M690.96,419.4c0-0.93-0.12-1.75-0.34-2.47c-0.23-0.72-0.55-1.32-0.96-1.82
			c-0.42-0.49-0.91-0.87-1.5-1.13c-0.59-0.26-1.24-0.4-1.97-0.4c-1.26,0-2.4,0.32-3.41,0.96c-1.02,0.64-1.87,1.49-2.57,2.53
			c-0.7,1.05-1.24,2.24-1.62,3.57c-0.38,1.33-0.57,2.7-0.57,4.09c0,0.88,0.11,1.68,0.33,2.4c0.22,0.72,0.54,1.33,0.94,1.84
			c0.41,0.51,0.91,0.9,1.5,1.16s1.26,0.41,2.01,0.41c1.27,0,2.42-0.32,3.43-0.95c1.02-0.64,1.87-1.48,2.57-2.52
			c0.7-1.05,1.24-2.24,1.61-3.59C690.77,422.17,690.96,420.8,690.96,419.4z"/>
		<path class="st0" d="M716.17,426.8c-0.13,0.55-0.25,1.13-0.36,1.73c-0.11,0.6-0.21,1.18-0.31,1.73s-0.18,1.08-0.26,1.56
			c-0.07,0.48-0.13,0.88-0.17,1.2h-3.43c0.07-0.55,0.15-1.14,0.25-1.74c0.09-0.6,0.18-1.16,0.27-1.68c0.1-0.6,0.19-1.18,0.28-1.75
			h-0.08c-0.5,0.78-1.05,1.52-1.66,2.21c-0.61,0.69-1.27,1.3-1.97,1.82c-0.71,0.52-1.46,0.93-2.25,1.23
			c-0.79,0.3-1.62,0.45-2.48,0.45c-0.94,0-1.77-0.15-2.48-0.44c-0.71-0.29-1.3-0.7-1.77-1.23c-0.47-0.53-0.83-1.16-1.06-1.9
			c-0.24-0.74-0.36-1.57-0.36-2.48c0-0.18,0.03-0.46,0.08-0.83c0.06-0.37,0.12-0.77,0.19-1.2c0.07-0.43,0.15-0.85,0.25-1.27
			c0.09-0.42,0.17-0.78,0.22-1.08l2.55-11.99h3.56l-2.72,12.83c-0.06,0.23-0.12,0.49-0.18,0.79c-0.06,0.3-0.11,0.6-0.16,0.9
			c-0.05,0.3-0.09,0.57-0.12,0.82c-0.03,0.25-0.04,0.44-0.04,0.59c0,1.07,0.26,1.92,0.78,2.56c0.52,0.64,1.3,0.95,2.35,0.95
			c0.63,0,1.26-0.13,1.88-0.39c0.63-0.26,1.24-0.6,1.84-1.04c0.59-0.43,1.16-0.94,1.68-1.52c0.53-0.58,1.01-1.19,1.44-1.84
			c0.43-0.65,0.79-1.32,1.09-2c0.3-0.69,0.52-1.34,0.67-1.97l2.29-10.69h3.54L716.17,426.8z"/>
		<path class="st0" d="M740.05,426.29c-0.1,0.46-0.2,1.01-0.29,1.65c-0.09,0.64-0.18,1.28-0.25,1.93c-0.07,0.65-0.13,1.26-0.18,1.83
			c-0.05,0.57-0.07,1.01-0.07,1.32h-3.64c0-0.24,0.02-0.57,0.06-0.97c0.03-0.41,0.08-0.83,0.13-1.27c0.05-0.44,0.1-0.87,0.16-1.27
			c0.06-0.41,0.11-0.74,0.15-0.99h-0.08c-0.52,0.83-1.03,1.55-1.54,2.19c-0.52,0.63-1.06,1.16-1.63,1.58
			c-0.57,0.42-1.18,0.74-1.82,0.95c-0.64,0.21-1.35,0.32-2.12,0.32c-1,0-1.9-0.18-2.7-0.54s-1.48-0.88-2.05-1.57
			c-0.56-0.69-1-1.54-1.3-2.56c-0.3-1.02-0.45-2.19-0.45-3.52c0-1.05,0.11-2.15,0.33-3.29c0.22-1.14,0.56-2.26,1.03-3.36
			c0.46-1.1,1.05-2.14,1.77-3.12c0.71-0.98,1.57-1.85,2.55-2.59c0.99-0.74,2.12-1.33,3.39-1.76c1.27-0.43,2.69-0.65,4.27-0.65
			c0.8,0,1.54,0.06,2.23,0.16c0.68,0.11,1.28,0.22,1.78,0.33l2.23-10.48h3.47L740.05,426.29z M739.13,414.1
			c-0.55-0.16-1.11-0.28-1.7-0.38c-0.6-0.09-1.23-0.14-1.9-0.14c-1.25,0-2.34,0.19-3.29,0.58c-0.95,0.39-1.78,0.9-2.49,1.54
			c-0.71,0.64-1.3,1.37-1.78,2.19c-0.48,0.82-0.86,1.66-1.16,2.52c-0.29,0.86-0.5,1.71-0.62,2.54c-0.12,0.83-0.18,1.59-0.18,2.26
			c0,0.8,0.07,1.52,0.2,2.18c0.14,0.66,0.36,1.22,0.67,1.69s0.7,0.83,1.19,1.09c0.49,0.26,1.07,0.39,1.76,0.39
			c0.71,0,1.39-0.15,2.01-0.45c0.62-0.3,1.2-0.7,1.75-1.22c0.55-0.51,1.04-1.11,1.48-1.77c0.44-0.67,0.84-1.38,1.2-2.14
			c0.36-0.76,0.66-1.52,0.91-2.3c0.25-0.78,0.46-1.52,0.61-2.24L739.13,414.1z"/>
		<path class="st0" d="M777.85,406.96c-0.36-0.26-0.78-0.5-1.28-0.73c-0.49-0.23-1.02-0.43-1.59-0.6s-1.16-0.31-1.77-0.41
			c-0.61-0.1-1.22-0.15-1.82-0.15c-1.15,0-2.11,0.16-2.88,0.48c-0.78,0.32-1.4,0.73-1.88,1.22c-0.47,0.49-0.81,1.03-1.02,1.62
			c-0.21,0.58-0.31,1.13-0.31,1.65c0,0.67,0.09,1.27,0.28,1.82c0.18,0.54,0.46,1.06,0.83,1.56c0.37,0.5,0.85,1,1.44,1.5
			c0.59,0.5,1.27,1.03,2.06,1.6c0.89,0.64,1.67,1.27,2.37,1.9c0.69,0.63,1.28,1.27,1.77,1.94c0.48,0.66,0.85,1.36,1.1,2.09
			c0.25,0.74,0.38,1.53,0.38,2.38c0,0.53-0.06,1.11-0.16,1.74c-0.11,0.64-0.3,1.27-0.58,1.91c-0.28,0.64-0.66,1.27-1.15,1.88
			c-0.49,0.62-1.11,1.16-1.86,1.63c-0.75,0.47-1.65,0.85-2.71,1.13c-1.06,0.29-2.3,0.43-3.73,0.43c-0.8,0-1.59-0.06-2.36-0.17
			c-0.77-0.12-1.51-0.27-2.2-0.45c-0.69-0.18-1.33-0.4-1.91-0.63c-0.58-0.24-1.07-0.47-1.49-0.69l0.62-3.72
			c0.46,0.33,0.98,0.64,1.56,0.93c0.58,0.29,1.21,0.55,1.86,0.77c0.66,0.22,1.34,0.39,2.04,0.52s1.39,0.19,2.08,0.19
			c1.09,0,2.02-0.13,2.8-0.39c0.78-0.26,1.42-0.61,1.93-1.06c0.51-0.45,0.88-0.98,1.12-1.59c0.23-0.61,0.35-1.27,0.35-1.99
			c0-0.64-0.1-1.22-0.3-1.73c-0.2-0.52-0.51-1.02-0.92-1.51c-0.42-0.49-0.94-0.99-1.58-1.5c-0.64-0.5-1.39-1.06-2.26-1.68
			c-0.7-0.5-1.37-1.04-2.01-1.62c-0.64-0.57-1.19-1.21-1.67-1.89c-0.48-0.68-0.86-1.43-1.14-2.23c-0.28-0.81-0.42-1.68-0.42-2.62
			c0-1.17,0.22-2.28,0.66-3.33c0.43-1.05,1.08-1.97,1.94-2.76c0.86-0.79,1.92-1.42,3.19-1.88c1.27-0.46,2.73-0.69,4.41-0.69
			c0.64,0,1.28,0.04,1.92,0.12c0.64,0.08,1.26,0.18,1.86,0.32c0.6,0.14,1.17,0.29,1.7,0.45c0.54,0.16,1.01,0.33,1.43,0.5
			L777.85,406.96z"/>
		<path class="st0" d="M793.26,414.1h-5.53l-2.47,11.61c-0.08,0.44-0.17,0.92-0.26,1.43c-0.08,0.51-0.13,0.93-0.13,1.24
			c0,0.73,0.16,1.25,0.48,1.57c0.32,0.32,0.83,0.48,1.53,0.48c0.17,0,0.39-0.03,0.67-0.08c0.27-0.06,0.55-0.13,0.84-0.21
			c0.29-0.08,0.57-0.18,0.85-0.29c0.28-0.11,0.53-0.2,0.74-0.29l-0.67,3.08c-0.5,0.21-1.07,0.4-1.7,0.55
			c-0.64,0.15-1.24,0.22-1.81,0.22c-0.81,0-1.51-0.1-2.08-0.31c-0.57-0.2-1.04-0.5-1.4-0.89s-0.63-0.85-0.79-1.4
			c-0.17-0.55-0.25-1.16-0.25-1.85c0-0.41,0.04-0.9,0.12-1.44c0.08-0.55,0.18-1.05,0.29-1.51l2.53-11.91h-3.65l0.67-2.98h3.6
			l1.13-5.34c0.06-0.03,0.28-0.1,0.66-0.2c0.38-0.11,0.79-0.23,1.24-0.36c0.45-0.13,0.87-0.26,1.25-0.37
			c0.38-0.11,0.59-0.18,0.63-0.19l-1.35,6.48h5.53L793.26,414.1z"/>
		<path class="st0" d="M814.52,419.23c0,1.94-0.28,3.78-0.83,5.52c-0.55,1.74-1.34,3.26-2.38,4.56c-1.04,1.3-2.29,2.34-3.77,3.1
			c-1.48,0.76-3.15,1.15-5.01,1.15c-1.26,0-2.39-0.2-3.4-0.6s-1.87-0.97-2.57-1.72c-0.71-0.75-1.25-1.65-1.63-2.72
			c-0.38-1.06-0.57-2.26-0.57-3.6c0-2.01,0.29-3.89,0.87-5.64c0.58-1.74,1.39-3.26,2.44-4.55c1.05-1.29,2.31-2.3,3.78-3.04
			c1.46-0.73,3.08-1.1,4.85-1.1c1.24,0,2.37,0.2,3.38,0.6c1.01,0.4,1.87,0.97,2.58,1.72c0.71,0.75,1.27,1.65,1.66,2.72
			S814.52,417.89,814.52,419.23z M810.92,419.4c0-0.93-0.12-1.75-0.34-2.47c-0.23-0.72-0.55-1.32-0.96-1.82
			c-0.42-0.49-0.91-0.87-1.5-1.13c-0.59-0.26-1.24-0.4-1.97-0.4c-1.26,0-2.4,0.32-3.41,0.96s-1.87,1.49-2.57,2.53
			c-0.7,1.05-1.24,2.24-1.62,3.57c-0.38,1.33-0.57,2.7-0.57,4.09c0,0.88,0.11,1.68,0.33,2.4c0.22,0.72,0.54,1.33,0.94,1.84
			c0.41,0.51,0.91,0.9,1.5,1.16s1.26,0.41,2.01,0.41c1.27,0,2.42-0.32,3.43-0.95c1.02-0.64,1.87-1.48,2.57-2.52
			c0.7-1.05,1.24-2.24,1.61-3.59C810.73,422.17,810.92,420.8,810.92,419.4z"/>
		<path class="st0" d="M832.61,414.85h-0.09c-0.29-0.17-0.66-0.34-1.13-0.5c-0.46-0.17-0.92-0.25-1.38-0.25
			c-0.83,0-1.62,0.27-2.38,0.8c-0.76,0.53-1.45,1.24-2.07,2.12c-0.62,0.88-1.16,1.88-1.63,3c-0.46,1.13-0.83,2.28-1.08,3.47
			l-2.06,9.54h-3.52l3.09-14.54c0.13-0.6,0.26-1.23,0.39-1.88c0.13-0.66,0.25-1.31,0.35-1.97c0.11-0.66,0.2-1.28,0.29-1.88
			s0.15-1.14,0.19-1.63h3.47c-0.04,0.43-0.09,0.88-0.15,1.36c-0.06,0.48-0.11,0.94-0.17,1.39c-0.06,0.45-0.11,0.85-0.17,1.22
			c-0.06,0.36-0.1,0.65-0.13,0.85h0.08c0.46-0.81,0.92-1.55,1.39-2.2s0.97-1.22,1.49-1.68c0.52-0.46,1.07-0.82,1.66-1.08
			c0.59-0.26,1.22-0.39,1.91-0.39c0.4,0,0.79,0.04,1.19,0.12c0.39,0.08,0.75,0.16,1.06,0.25L832.61,414.85z"/>
		<path class="st0" d="M850.88,426.01c-0.11,0.54-0.22,1.15-0.33,1.83c-0.11,0.68-0.2,1.35-0.28,2.01
			c-0.08,0.66-0.14,1.28-0.19,1.85c-0.05,0.57-0.07,1.01-0.07,1.32h-3.64c0.01-0.29,0.04-0.63,0.06-1.03s0.07-0.81,0.12-1.24
			c0.05-0.43,0.1-0.85,0.15-1.26c0.05-0.41,0.11-0.77,0.16-1.07h-0.08c-0.44,0.7-0.9,1.36-1.35,1.98c-0.46,0.62-0.97,1.16-1.52,1.64
			c-0.56,0.47-1.18,0.84-1.87,1.11c-0.69,0.27-1.49,0.41-2.42,0.41c-0.96,0-1.84-0.17-2.63-0.51c-0.79-0.34-1.48-0.85-2.05-1.53
			c-0.57-0.68-1.01-1.52-1.32-2.54c-0.31-1.02-0.46-2.21-0.46-3.56c0-0.83,0.08-1.77,0.26-2.82s0.46-2.13,0.87-3.23
			c0.41-1.1,0.95-2.17,1.63-3.22c0.68-1.05,1.52-1.98,2.53-2.81c1.01-0.83,2.2-1.49,3.57-1.99c1.37-0.5,2.96-0.75,4.76-0.75
			c1.14,0,2.32,0.08,3.54,0.26c1.22,0.17,2.42,0.38,3.62,0.62L850.88,426.01z M849.87,414.01c-0.5-0.11-1.09-0.21-1.76-0.3
			c-0.67-0.09-1.3-0.13-1.88-0.13c-1.25,0-2.34,0.2-3.29,0.59c-0.95,0.39-1.78,0.91-2.48,1.54c-0.7,0.64-1.29,1.37-1.77,2.19
			c-0.48,0.83-0.86,1.67-1.15,2.54c-0.29,0.86-0.49,1.71-0.61,2.55c-0.12,0.84-0.18,1.6-0.18,2.29c0,0.81,0.07,1.54,0.21,2.19
			c0.14,0.65,0.37,1.2,0.67,1.65c0.31,0.46,0.7,0.81,1.18,1.06c0.48,0.25,1.04,0.37,1.7,0.37c0.71,0,1.39-0.15,2.01-0.44
			c0.62-0.29,1.2-0.69,1.75-1.18s1.04-1.08,1.48-1.73c0.44-0.66,0.84-1.35,1.2-2.09c0.36-0.74,0.66-1.48,0.91-2.25
			c0.25-0.76,0.45-1.5,0.61-2.21L849.87,414.01z"/>
		<path class="st0" d="M873.5,431.44c-0.36,1.71-0.83,3.29-1.41,4.73s-1.36,2.7-2.33,3.76c-0.97,1.06-2.16,1.89-3.57,2.48
			c-1.41,0.59-3.14,0.89-5.17,0.89c-1.4,0-2.62-0.17-3.66-0.49c-1.04-0.33-1.98-0.72-2.84-1.18l0.67-3.27c0.9,0.54,1.86,1,2.87,1.37
			c1.01,0.37,2.11,0.56,3.28,0.56c1.27,0,2.37-0.19,3.31-0.56c0.93-0.37,1.74-0.91,2.42-1.64c0.68-0.72,1.25-1.6,1.7-2.64
			c0.45-1.04,0.82-2.23,1.13-3.57l0.75-3.42h-0.08c-0.55,0.87-1.08,1.62-1.6,2.25c-0.52,0.64-1.07,1.16-1.64,1.58
			c-0.57,0.42-1.17,0.73-1.8,0.94c-0.63,0.2-1.32,0.31-2.08,0.31c-0.99,0-1.88-0.18-2.68-0.53c-0.8-0.35-1.48-0.87-2.05-1.55
			c-0.57-0.68-1-1.54-1.31-2.57c-0.31-1.03-0.46-2.21-0.46-3.55c0-1.27,0.14-2.51,0.42-3.74c0.28-1.23,0.68-2.39,1.21-3.48
			c0.53-1.1,1.17-2.11,1.94-3.03c0.76-0.92,1.63-1.72,2.61-2.38s2.04-1.19,3.21-1.57c1.16-0.38,2.41-0.57,3.74-0.57
			c1.33,0,2.66,0.08,3.99,0.26c1.33,0.17,2.55,0.36,3.67,0.57L873.5,431.44z M873.67,414.01c-0.49-0.11-1.08-0.21-1.77-0.3
			c-0.69-0.09-1.43-0.13-2.22-0.13c-1.34,0-2.57,0.31-3.69,0.93c-1.11,0.62-2.08,1.46-2.88,2.52c-0.81,1.06-1.44,2.3-1.88,3.71
			c-0.45,1.41-0.67,2.9-0.67,4.47c0,0.77,0.07,1.48,0.2,2.14c0.14,0.66,0.35,1.22,0.64,1.69c0.29,0.47,0.67,0.84,1.14,1.11
			c0.47,0.27,1.03,0.41,1.7,0.41c0.79,0,1.51-0.16,2.18-0.49c0.67-0.33,1.28-0.76,1.83-1.3c0.56-0.54,1.05-1.16,1.49-1.85
			c0.43-0.69,0.82-1.4,1.16-2.13c0.34-0.73,0.62-1.44,0.85-2.15c0.23-0.71,0.41-1.34,0.54-1.91L873.67,414.01z"/>
		<path class="st0" d="M899.6,416.26c0,1.16-0.26,2.21-0.77,3.15c-0.51,0.95-1.37,1.76-2.55,2.44c-1.18,0.68-2.75,1.2-4.69,1.57
			c-1.94,0.37-4.34,0.56-7.2,0.58c-0.03,0.16-0.04,0.32-0.04,0.49c0,0.16,0,0.3,0,0.43c0,0.77,0.11,1.5,0.32,2.18
			c0.21,0.68,0.55,1.28,1,1.8c0.45,0.51,1.03,0.92,1.74,1.22s1.55,0.45,2.52,0.45c0.99,0,2.07-0.19,3.25-0.57
			c1.18-0.38,2.3-0.91,3.38-1.61l-0.67,3.46c-0.79,0.46-1.72,0.85-2.81,1.2c-1.09,0.34-2.3,0.51-3.64,0.51
			c-1.62,0-2.98-0.25-4.08-0.75c-1.11-0.5-2-1.16-2.68-2c-0.68-0.83-1.17-1.79-1.47-2.89c-0.3-1.09-0.45-2.23-0.45-3.43
			c0-1.28,0.14-2.52,0.43-3.71c0.29-1.19,0.69-2.3,1.21-3.33c0.52-1.03,1.15-1.96,1.88-2.81c0.73-0.85,1.53-1.57,2.42-2.17
			s1.84-1.06,2.85-1.39c1.02-0.33,2.07-0.49,3.15-0.49c1.13,0,2.13,0.15,2.99,0.45c0.86,0.3,1.58,0.71,2.16,1.23
			c0.58,0.52,1.02,1.12,1.32,1.81C899.45,414.76,899.6,415.49,899.6,416.26z M896.03,416.43c0-0.9-0.33-1.6-1-2.1
			c-0.67-0.5-1.55-0.75-2.65-0.75c-0.87,0-1.72,0.19-2.53,0.57c-0.81,0.38-1.57,0.9-2.25,1.56c-0.69,0.67-1.28,1.45-1.78,2.37
			c-0.5,0.92-0.86,1.91-1.09,2.98c2.05,0,3.78-0.1,5.21-0.31c1.43-0.2,2.59-0.51,3.49-0.91s1.56-0.89,1.97-1.46
			C895.82,417.81,896.03,417.16,896.03,416.43z"/>
		<path class="st0" d="M933.75,406.96c-0.36-0.26-0.78-0.5-1.28-0.73c-0.49-0.23-1.02-0.43-1.59-0.6s-1.16-0.31-1.77-0.41
			c-0.61-0.1-1.22-0.15-1.82-0.15c-1.15,0-2.11,0.16-2.88,0.48c-0.78,0.32-1.4,0.73-1.88,1.22c-0.47,0.49-0.81,1.03-1.02,1.62
			c-0.21,0.58-0.31,1.13-0.31,1.65c0,0.67,0.09,1.27,0.28,1.82c0.18,0.54,0.46,1.06,0.83,1.56c0.37,0.5,0.85,1,1.44,1.5
			c0.59,0.5,1.27,1.03,2.06,1.6c0.89,0.64,1.67,1.27,2.37,1.9c0.69,0.63,1.28,1.27,1.77,1.94c0.48,0.66,0.85,1.36,1.1,2.09
			c0.25,0.74,0.38,1.53,0.38,2.38c0,0.53-0.06,1.11-0.16,1.74c-0.11,0.64-0.3,1.27-0.58,1.91c-0.28,0.64-0.66,1.27-1.15,1.88
			c-0.49,0.62-1.11,1.16-1.86,1.63c-0.75,0.47-1.65,0.85-2.71,1.13c-1.06,0.29-2.3,0.43-3.73,0.43c-0.8,0-1.59-0.06-2.36-0.17
			c-0.77-0.12-1.51-0.27-2.2-0.45c-0.69-0.18-1.33-0.4-1.91-0.63c-0.58-0.24-1.07-0.47-1.49-0.69l0.62-3.72
			c0.46,0.33,0.98,0.64,1.56,0.93c0.58,0.29,1.21,0.55,1.86,0.77c0.66,0.22,1.34,0.39,2.04,0.52c0.7,0.13,1.39,0.19,2.08,0.19
			c1.09,0,2.02-0.13,2.8-0.39c0.78-0.26,1.42-0.61,1.93-1.06c0.51-0.45,0.88-0.98,1.12-1.59c0.23-0.61,0.35-1.27,0.35-1.99
			c0-0.64-0.1-1.22-0.3-1.73c-0.2-0.52-0.51-1.02-0.92-1.51c-0.42-0.49-0.94-0.99-1.58-1.5c-0.64-0.5-1.39-1.06-2.26-1.68
			c-0.7-0.5-1.37-1.04-2.01-1.62c-0.64-0.57-1.19-1.21-1.67-1.89c-0.48-0.68-0.86-1.43-1.14-2.23c-0.28-0.81-0.42-1.68-0.42-2.62
			c0-1.17,0.22-2.28,0.66-3.33c0.43-1.05,1.08-1.97,1.94-2.76c0.86-0.79,1.92-1.42,3.19-1.88c1.27-0.46,2.73-0.69,4.41-0.69
			c0.64,0,1.28,0.04,1.92,0.12c0.64,0.08,1.26,0.18,1.86,0.32c0.6,0.14,1.17,0.29,1.7,0.45c0.54,0.16,1.01,0.33,1.43,0.5
			L933.75,406.96z"/>
		<path class="st0" d="M956.15,419.23c0,1.94-0.28,3.78-0.83,5.52c-0.55,1.74-1.34,3.26-2.38,4.56c-1.04,1.3-2.29,2.34-3.77,3.1
			c-1.48,0.76-3.15,1.15-5.01,1.15c-1.26,0-2.39-0.2-3.4-0.6c-1.01-0.4-1.87-0.97-2.57-1.72c-0.71-0.75-1.25-1.65-1.63-2.72
			c-0.38-1.06-0.57-2.26-0.57-3.6c0-2.01,0.29-3.89,0.87-5.64c0.58-1.74,1.39-3.26,2.44-4.55c1.05-1.29,2.31-2.3,3.78-3.04
			c1.46-0.73,3.08-1.1,4.85-1.1c1.24,0,2.37,0.2,3.38,0.6s1.87,0.97,2.58,1.72c0.71,0.75,1.27,1.65,1.66,2.72
			C955.95,416.69,956.15,417.89,956.15,419.23z M952.55,419.4c0-0.93-0.12-1.75-0.34-2.47c-0.23-0.72-0.55-1.32-0.96-1.82
			c-0.42-0.49-0.91-0.87-1.5-1.13c-0.59-0.26-1.24-0.4-1.97-0.4c-1.26,0-2.4,0.32-3.41,0.96s-1.87,1.49-2.57,2.53
			c-0.7,1.05-1.24,2.24-1.62,3.57c-0.38,1.33-0.57,2.7-0.57,4.09c0,0.88,0.11,1.68,0.33,2.4c0.22,0.72,0.54,1.33,0.94,1.84
			c0.41,0.51,0.91,0.9,1.5,1.16s1.26,0.41,2.01,0.41c1.27,0,2.42-0.32,3.43-0.95s1.87-1.48,2.57-2.52c0.7-1.05,1.24-2.24,1.61-3.59
			C952.36,422.17,952.55,420.8,952.55,419.4z"/>
		<path class="st0" d="M966.74,432.94c-0.36,0.11-0.76,0.2-1.21,0.28c-0.45,0.07-0.9,0.11-1.34,0.11c-1.44,0-2.52-0.36-3.24-1.08
			c-0.71-0.72-1.07-1.68-1.07-2.9c0-0.36,0.04-0.78,0.11-1.26c0.07-0.48,0.18-1.08,0.34-1.79l5.49-25.7h3.56l-5.51,25.78
			c-0.13,0.6-0.22,1.06-0.27,1.39c-0.05,0.33-0.08,0.61-0.08,0.83c0,0.58,0.16,1.03,0.48,1.34c0.32,0.3,0.83,0.46,1.53,0.46
			c0.37,0,0.69-0.02,0.97-0.06s0.54-0.11,0.78-0.19L966.74,432.94z"/>
		<path class="st0" d="M989.13,426.8c-0.13,0.55-0.25,1.13-0.36,1.73c-0.11,0.6-0.21,1.18-0.31,1.73s-0.18,1.08-0.26,1.56
			c-0.07,0.48-0.13,0.88-0.17,1.2h-3.43c0.07-0.55,0.15-1.14,0.24-1.74c0.09-0.6,0.18-1.16,0.27-1.68c0.1-0.6,0.19-1.18,0.28-1.75
			h-0.08c-0.5,0.78-1.05,1.52-1.66,2.21c-0.61,0.69-1.27,1.3-1.97,1.82c-0.71,0.52-1.46,0.93-2.25,1.23
			c-0.79,0.3-1.62,0.45-2.48,0.45c-0.94,0-1.77-0.15-2.48-0.44c-0.71-0.29-1.3-0.7-1.77-1.23c-0.47-0.53-0.83-1.16-1.06-1.9
			c-0.24-0.74-0.36-1.57-0.36-2.48c0-0.18,0.03-0.46,0.08-0.83s0.12-0.77,0.19-1.2c0.07-0.43,0.15-0.85,0.25-1.27
			c0.09-0.42,0.17-0.78,0.22-1.08l2.55-11.99h3.56l-2.72,12.83c-0.06,0.23-0.12,0.49-0.18,0.79c-0.06,0.3-0.11,0.6-0.16,0.9
			c-0.05,0.3-0.09,0.57-0.12,0.82c-0.03,0.25-0.04,0.44-0.04,0.59c0,1.07,0.26,1.92,0.78,2.56c0.52,0.64,1.3,0.95,2.35,0.95
			c0.63,0,1.26-0.13,1.88-0.39s1.24-0.6,1.84-1.04c0.59-0.43,1.16-0.94,1.68-1.52c0.53-0.58,1.01-1.19,1.44-1.84
			c0.43-0.65,0.79-1.32,1.09-2c0.3-0.69,0.52-1.34,0.67-1.97l2.29-10.69h3.54L989.13,426.8z"/>
		<path class="st0" d="M1008.48,414.1h-5.53l-2.47,11.61c-0.08,0.44-0.17,0.92-0.26,1.43c-0.08,0.51-0.13,0.93-0.13,1.24
			c0,0.73,0.16,1.25,0.48,1.57c0.32,0.32,0.83,0.48,1.53,0.48c0.17,0,0.39-0.03,0.67-0.08c0.27-0.06,0.55-0.13,0.84-0.21
			c0.29-0.08,0.57-0.18,0.85-0.29c0.28-0.11,0.53-0.2,0.74-0.29l-0.67,3.08c-0.5,0.21-1.07,0.4-1.7,0.55
			c-0.64,0.15-1.24,0.22-1.81,0.22c-0.81,0-1.51-0.1-2.08-0.31c-0.57-0.2-1.04-0.5-1.4-0.89s-0.63-0.85-0.79-1.4
			c-0.17-0.55-0.24-1.16-0.24-1.85c0-0.41,0.04-0.9,0.12-1.44c0.08-0.55,0.17-1.05,0.29-1.51l2.53-11.91h-3.65l0.67-2.98h3.6
			l1.13-5.34c0.06-0.03,0.28-0.1,0.66-0.2c0.38-0.11,0.79-0.23,1.24-0.36c0.45-0.13,0.87-0.26,1.25-0.37
			c0.38-0.11,0.59-0.18,0.63-0.19l-1.35,6.48h5.53L1008.48,414.1z"/>
		<path class="st0" d="M1016.8,432.94c-0.36,0.11-0.76,0.2-1.21,0.28c-0.45,0.07-0.9,0.11-1.34,0.11c-1.44,0-2.52-0.36-3.24-1.08
			c-0.71-0.72-1.07-1.68-1.07-2.9c0-0.36,0.04-0.78,0.11-1.26c0.07-0.48,0.18-1.08,0.34-1.79l3.19-15.16h3.56l-3.21,15.25
			c-0.13,0.6-0.22,1.06-0.27,1.39c-0.05,0.33-0.08,0.61-0.08,0.83c0,0.58,0.16,1.03,0.48,1.34c0.32,0.3,0.83,0.46,1.53,0.46
			c0.37,0,0.69-0.02,0.97-0.06c0.28-0.04,0.54-0.11,0.78-0.19L1016.8,432.94z M1019.31,403.32c0,0.64-0.22,1.19-0.65,1.65
			c-0.44,0.46-0.97,0.68-1.62,0.68c-0.63,0-1.18-0.22-1.64-0.67c-0.46-0.45-0.69-1-0.69-1.66c0-0.65,0.23-1.19,0.69-1.6
			c0.46-0.41,1.01-0.62,1.64-0.62c0.63,0,1.16,0.21,1.61,0.63C1019.08,402.15,1019.31,402.68,1019.31,403.32z"/>
		<path class="st0" d="M1041.06,419.23c0,1.94-0.28,3.78-0.83,5.52c-0.55,1.74-1.34,3.26-2.38,4.56c-1.04,1.3-2.29,2.34-3.77,3.1
			c-1.48,0.76-3.15,1.15-5.01,1.15c-1.26,0-2.39-0.2-3.4-0.6s-1.87-0.97-2.57-1.72c-0.71-0.75-1.25-1.65-1.63-2.72
			c-0.38-1.06-0.57-2.26-0.57-3.6c0-2.01,0.29-3.89,0.87-5.64c0.58-1.74,1.39-3.26,2.44-4.55c1.05-1.29,2.31-2.3,3.78-3.04
			c1.46-0.73,3.08-1.1,4.85-1.1c1.24,0,2.37,0.2,3.38,0.6c1.01,0.4,1.87,0.97,2.58,1.72c0.71,0.75,1.27,1.65,1.66,2.72
			S1041.06,417.89,1041.06,419.23z M1037.46,419.4c0-0.93-0.12-1.75-0.34-2.47c-0.23-0.72-0.55-1.32-0.96-1.82
			c-0.42-0.49-0.91-0.87-1.5-1.13c-0.59-0.26-1.24-0.4-1.97-0.4c-1.26,0-2.4,0.32-3.41,0.96c-1.02,0.64-1.87,1.49-2.57,2.53
			c-0.7,1.05-1.24,2.24-1.62,3.57c-0.38,1.33-0.57,2.7-0.57,4.09c0,0.88,0.11,1.68,0.33,2.4c0.22,0.72,0.54,1.33,0.94,1.84
			c0.41,0.51,0.91,0.9,1.5,1.16c0.59,0.27,1.26,0.41,2.01,0.41c1.27,0,2.42-0.32,3.43-0.95c1.02-0.64,1.87-1.48,2.57-2.52
			c0.7-1.05,1.24-2.24,1.61-3.59C1037.28,422.17,1037.46,420.8,1037.46,419.4z"/>
		<path class="st0" d="M1065.16,416.6c0,0.21-0.02,0.5-0.07,0.88c-0.05,0.37-0.11,0.77-0.19,1.2c-0.08,0.43-0.16,0.85-0.23,1.27
			c-0.08,0.42-0.15,0.78-0.22,1.08l-2.55,11.99h-3.56l2.68-12.83c0.06-0.23,0.11-0.49,0.17-0.79c0.06-0.3,0.11-0.6,0.15-0.9
			c0.04-0.3,0.08-0.57,0.11-0.82c0.03-0.25,0.04-0.45,0.04-0.59c0-1.08-0.26-1.94-0.78-2.56c-0.53-0.63-1.3-0.94-2.33-0.94
			c-0.94,0-1.88,0.28-2.81,0.83c-0.93,0.55-1.79,1.26-2.57,2.12c-0.79,0.85-1.46,1.79-2.02,2.82c-0.57,1.03-0.95,2.02-1.15,2.97
			l-2.29,10.69h-3.56l3.39-15.63c0.11-0.55,0.23-1.14,0.34-1.74c0.11-0.61,0.22-1.19,0.32-1.76c0.1-0.56,0.18-1.09,0.26-1.57
			c0.07-0.48,0.13-0.89,0.17-1.2h3.43c-0.07,0.56-0.16,1.14-0.26,1.74c-0.1,0.61-0.18,1.16-0.26,1.68c-0.08,0.6-0.18,1.18-0.28,1.75
			h0.08c0.5-0.78,1.05-1.52,1.66-2.21c0.61-0.69,1.27-1.3,1.97-1.82c0.71-0.52,1.46-0.93,2.25-1.23c0.79-0.3,1.63-0.45,2.5-0.45
			c0.97,0,1.81,0.15,2.51,0.44c0.7,0.29,1.28,0.7,1.75,1.23s0.81,1.16,1.03,1.9C1065.04,414.91,1065.16,415.72,1065.16,416.6z"/>
		<path class="st0" d="M1082.95,414.98c-0.64-0.41-1.37-0.75-2.16-1.01c-0.8-0.26-1.6-0.39-2.4-0.39c-1.34,0-2.38,0.31-3.12,0.92
			c-0.74,0.61-1.11,1.42-1.11,2.44c0,0.41,0.07,0.79,0.2,1.13c0.13,0.34,0.33,0.67,0.6,0.97c0.27,0.3,0.6,0.6,1.01,0.89
			c0.41,0.29,0.88,0.59,1.4,0.92c1.6,0.92,2.75,1.88,3.46,2.86c0.71,0.98,1.06,2.08,1.06,3.3c0,0.83-0.15,1.64-0.46,2.43
			c-0.31,0.79-0.8,1.49-1.47,2.09c-0.67,0.61-1.54,1.09-2.61,1.46c-1.06,0.37-2.36,0.56-3.89,0.56c-0.43,0-0.9-0.03-1.41-0.08
			c-0.52-0.06-1.03-0.14-1.56-0.26c-0.52-0.12-1.02-0.25-1.5-0.42c-0.48-0.16-0.9-0.35-1.26-0.57l0.71-3.33
			c0.29,0.2,0.64,0.4,1.06,0.6c0.42,0.2,0.88,0.38,1.37,0.53c0.49,0.16,1.01,0.29,1.54,0.39c0.54,0.1,1.07,0.15,1.6,0.15
			c1.43,0,2.5-0.29,3.21-0.85s1.06-1.36,1.06-2.37c0-0.37-0.05-0.71-0.16-1.03c-0.11-0.32-0.3-0.63-0.57-0.94
			c-0.27-0.31-0.63-0.63-1.07-0.95c-0.44-0.32-1-0.68-1.67-1.08c-1.46-0.88-2.53-1.81-3.22-2.77c-0.69-0.96-1.04-2.05-1.04-3.26
			c0-0.88,0.17-1.73,0.49-2.53c0.33-0.81,0.82-1.52,1.47-2.14c0.65-0.62,1.47-1.11,2.45-1.48s2.14-0.55,3.45-0.55
			c1.03,0,2.01,0.1,2.93,0.3c0.92,0.2,1.7,0.46,2.35,0.77L1082.95,414.98z"/>
		<path class="st0" d="M1114.46,403.65c-0.14-0.07-0.31-0.14-0.51-0.2c-0.2-0.06-0.42-0.13-0.64-0.18
			c-0.23-0.06-0.47-0.11-0.72-0.14c-0.25-0.04-0.49-0.06-0.72-0.06c-1.17,0-2.08,0.38-2.71,1.15c-0.64,0.76-1.12,1.9-1.45,3.41
			l-0.79,3.5h5.19l-0.71,2.98h-5.19l-5.62,26.19h-3.56l5.66-26.19h-3.78l0.67-2.98h3.77l0.88-4.06c0.27-1.26,0.65-2.33,1.14-3.21
			c0.49-0.88,1.06-1.6,1.74-2.16c0.67-0.55,1.43-0.96,2.28-1.22c0.85-0.26,1.78-0.39,2.8-0.39c0.53,0,1.04,0.04,1.55,0.13
			c0.51,0.08,0.94,0.18,1.3,0.3L1114.46,403.65z"/>
		<path class="st0" d="M1131.59,419.23c0,1.94-0.28,3.78-0.83,5.52c-0.55,1.74-1.34,3.26-2.38,4.56c-1.04,1.3-2.29,2.34-3.77,3.1
			c-1.48,0.76-3.15,1.15-5.01,1.15c-1.26,0-2.39-0.2-3.4-0.6s-1.87-0.97-2.57-1.72c-0.71-0.75-1.25-1.65-1.63-2.72
			c-0.38-1.06-0.57-2.26-0.57-3.6c0-2.01,0.29-3.89,0.87-5.64c0.58-1.74,1.39-3.26,2.44-4.55c1.05-1.29,2.31-2.3,3.78-3.04
			c1.46-0.73,3.08-1.1,4.85-1.1c1.24,0,2.37,0.2,3.38,0.6c1.01,0.4,1.87,0.97,2.58,1.72c0.71,0.75,1.27,1.65,1.66,2.72
			S1131.59,417.89,1131.59,419.23z M1127.99,419.4c0-0.93-0.12-1.75-0.34-2.47c-0.23-0.72-0.55-1.32-0.96-1.82
			c-0.42-0.49-0.91-0.87-1.5-1.13c-0.59-0.26-1.24-0.4-1.97-0.4c-1.26,0-2.4,0.32-3.41,0.96c-1.02,0.64-1.87,1.49-2.57,2.53
			c-0.7,1.05-1.24,2.24-1.62,3.57c-0.38,1.33-0.57,2.7-0.57,4.09c0,0.88,0.11,1.68,0.33,2.4c0.22,0.72,0.54,1.33,0.94,1.84
			c0.41,0.51,0.91,0.9,1.5,1.16s1.26,0.41,2.01,0.41c1.27,0,2.42-0.32,3.43-0.95c1.02-0.64,1.87-1.48,2.57-2.52
			c0.7-1.05,1.24-2.24,1.61-3.59C1127.8,422.17,1127.99,420.8,1127.99,419.4z"/>
		<path class="st0" d="M1149.68,414.85h-0.09c-0.29-0.17-0.66-0.34-1.13-0.5c-0.46-0.17-0.92-0.25-1.38-0.25
			c-0.83,0-1.62,0.27-2.38,0.8c-0.76,0.53-1.45,1.24-2.07,2.12s-1.16,1.88-1.63,3c-0.46,1.13-0.83,2.28-1.08,3.47l-2.06,9.54h-3.52
			l3.09-14.54c0.13-0.6,0.26-1.23,0.39-1.88c0.13-0.66,0.24-1.31,0.35-1.97c0.11-0.66,0.2-1.28,0.29-1.88
			c0.09-0.6,0.15-1.14,0.19-1.63h3.47c-0.04,0.43-0.09,0.88-0.15,1.36c-0.06,0.48-0.11,0.94-0.17,1.39
			c-0.06,0.45-0.11,0.85-0.17,1.22c-0.06,0.36-0.1,0.65-0.13,0.85h0.08c0.46-0.81,0.92-1.55,1.39-2.2s0.97-1.22,1.49-1.68
			c0.52-0.46,1.07-0.82,1.66-1.08c0.59-0.26,1.22-0.39,1.91-0.39c0.4,0,0.79,0.04,1.19,0.12c0.39,0.08,0.75,0.16,1.06,0.25
			L1149.68,414.85z"/>
		<path class="st0" d="M1183.88,405.61h-11.85l-2.23,10.46h10.98l-0.71,3.25h-10.98l-2.25,10.45h12.6l-0.64,3.25h-16.29l6.5-30.66
			h15.58L1183.88,405.61z"/>
		<path class="st0" d="M1192.22,433.02h-2.98l-3.47-21.89h3.56l1.93,13.79c0.04,0.27,0.08,0.57,0.12,0.92
			c0.04,0.34,0.07,0.69,0.11,1.05c0.04,0.36,0.06,0.71,0.07,1.05c0.01,0.34,0.02,0.65,0.02,0.92h0.08c0.11-0.26,0.25-0.55,0.4-0.88
			c0.15-0.33,0.32-0.67,0.5-1.02c0.18-0.35,0.38-0.7,0.57-1.06c0.19-0.36,0.38-0.68,0.55-0.98l7.84-13.79h4.01L1192.22,433.02z"/>
		<path class="st0" d="M1224,416.26c0,1.16-0.26,2.21-0.77,3.15c-0.51,0.95-1.37,1.76-2.55,2.44s-2.75,1.2-4.69,1.57
			c-1.94,0.37-4.34,0.56-7.2,0.58c-0.03,0.16-0.04,0.32-0.04,0.49c0,0.16,0,0.3,0,0.43c0,0.77,0.11,1.5,0.32,2.18
			c0.21,0.68,0.55,1.28,1,1.8c0.45,0.51,1.03,0.92,1.74,1.22s1.55,0.45,2.52,0.45c0.99,0,2.07-0.19,3.25-0.57
			c1.18-0.38,2.3-0.91,3.38-1.61l-0.67,3.46c-0.79,0.46-1.72,0.85-2.81,1.2c-1.09,0.34-2.3,0.51-3.64,0.51
			c-1.62,0-2.98-0.25-4.08-0.75s-2-1.16-2.68-2c-0.68-0.83-1.17-1.79-1.47-2.89c-0.3-1.09-0.45-2.23-0.45-3.43
			c0-1.28,0.14-2.52,0.43-3.71c0.29-1.19,0.69-2.3,1.21-3.33c0.52-1.03,1.15-1.96,1.88-2.81c0.73-0.85,1.53-1.57,2.42-2.17
			s1.84-1.06,2.85-1.39c1.02-0.33,2.07-0.49,3.15-0.49c1.13,0,2.13,0.15,2.99,0.45c0.86,0.3,1.58,0.71,2.16,1.23
			c0.58,0.52,1.02,1.12,1.32,1.81C1223.86,414.76,1224,415.49,1224,416.26z M1220.42,416.43c0-0.9-0.33-1.6-1-2.1
			s-1.55-0.75-2.65-0.75c-0.87,0-1.72,0.19-2.53,0.57c-0.81,0.38-1.57,0.9-2.25,1.56c-0.69,0.67-1.28,1.45-1.78,2.37
			c-0.5,0.92-0.86,1.91-1.09,2.98c2.05,0,3.78-0.1,5.21-0.31c1.43-0.2,2.59-0.51,3.49-0.91s1.56-0.89,1.97-1.46
			C1220.22,417.81,1220.42,417.16,1220.42,416.43z"/>
		<path class="st0" d="M1241.26,414.85h-0.09c-0.29-0.17-0.66-0.34-1.13-0.5c-0.46-0.17-0.92-0.25-1.38-0.25
			c-0.83,0-1.62,0.27-2.38,0.8c-0.76,0.53-1.45,1.24-2.07,2.12c-0.62,0.88-1.16,1.88-1.63,3c-0.46,1.13-0.83,2.28-1.08,3.47
			l-2.06,9.54h-3.52l3.09-14.54c0.13-0.6,0.26-1.23,0.39-1.88c0.13-0.66,0.24-1.31,0.35-1.97c0.1-0.66,0.2-1.28,0.29-1.88
			c0.09-0.6,0.15-1.14,0.19-1.63h3.47c-0.04,0.43-0.09,0.88-0.15,1.36c-0.06,0.48-0.11,0.94-0.17,1.39
			c-0.06,0.45-0.11,0.85-0.17,1.22c-0.06,0.36-0.1,0.65-0.13,0.85h0.08c0.46-0.81,0.92-1.55,1.39-2.2c0.48-0.66,0.97-1.22,1.49-1.68
			c0.52-0.46,1.07-0.82,1.66-1.08c0.59-0.26,1.22-0.39,1.91-0.39c0.4,0,0.79,0.04,1.19,0.12c0.39,0.08,0.75,0.16,1.06,0.25
			L1241.26,414.85z"/>
		<path class="st0" d="M1249.17,436.66c-0.66,1.07-1.32,2.01-1.99,2.83c-0.67,0.82-1.38,1.52-2.11,2.09c-0.74,0.57-1.52,1-2.36,1.29
			c-0.84,0.29-1.76,0.44-2.75,0.44c-0.33,0-0.7-0.03-1.11-0.1c-0.41-0.06-0.73-0.13-0.97-0.2l0.67-3.1
			c0.22,0.11,0.49,0.21,0.84,0.28c0.34,0.07,0.68,0.11,1.01,0.11c0.99,0,1.88-0.27,2.67-0.81c0.79-0.54,1.54-1.37,2.24-2.48
			l2.63-4.06l-3.99-21.81h3.65l2.55,16.81c0.04,0.31,0.07,0.62,0.07,0.91c0.01,0.29,0,0.55-0.03,0.76h0.13
			c0.07-0.17,0.18-0.41,0.33-0.73c0.15-0.31,0.31-0.61,0.5-0.9l9.73-16.85h3.88L1249.17,436.66z"/>
		<path class="st0" d="M1301.35,420.99c-0.43,2-0.97,3.78-1.62,5.33c-0.65,1.56-1.49,2.88-2.51,3.95c-1.02,1.07-2.27,1.88-3.74,2.45
			c-1.47,0.56-3.24,0.85-5.29,0.85c-1.59,0-3-0.25-4.24-0.75c-1.24-0.5-2.29-1.18-3.13-2.05c-0.85-0.87-1.49-1.9-1.93-3.08
			c-0.44-1.18-0.67-2.47-0.67-3.85c0-0.61,0.04-1.3,0.12-2.07c0.08-0.77,0.18-1.5,0.31-2.18l3.73-17.21h3.71l-3.71,17
			c-0.06,0.33-0.12,0.68-0.18,1.07c-0.06,0.39-0.12,0.77-0.17,1.16c-0.05,0.39-0.09,0.75-0.12,1.09c-0.03,0.34-0.04,0.64-0.04,0.9
			c0,1.14,0.17,2.13,0.52,2.97c0.34,0.84,0.82,1.54,1.42,2.1c0.61,0.55,1.32,0.97,2.14,1.25c0.82,0.28,1.71,0.42,2.67,0.42
			c1.22,0,2.3-0.17,3.26-0.51c0.96-0.34,1.8-0.88,2.53-1.6c0.73-0.73,1.35-1.65,1.88-2.78c0.52-1.13,0.95-2.47,1.3-4.04l4.09-19.01
			h3.69L1301.35,420.99z"/>
		<path class="st0" d="M1320.4,414.98c-0.64-0.41-1.37-0.75-2.16-1.01c-0.8-0.26-1.6-0.39-2.4-0.39c-1.34,0-2.38,0.31-3.12,0.92
			c-0.74,0.61-1.11,1.42-1.11,2.44c0,0.41,0.07,0.79,0.2,1.13c0.13,0.34,0.33,0.67,0.6,0.97c0.27,0.3,0.6,0.6,1.01,0.89
			c0.41,0.29,0.88,0.59,1.4,0.92c1.6,0.92,2.75,1.88,3.46,2.86c0.71,0.98,1.06,2.08,1.06,3.3c0,0.83-0.15,1.64-0.46,2.43
			c-0.31,0.79-0.8,1.49-1.47,2.09c-0.67,0.61-1.54,1.09-2.61,1.46c-1.06,0.37-2.36,0.56-3.89,0.56c-0.43,0-0.9-0.03-1.41-0.08
			c-0.52-0.06-1.03-0.14-1.56-0.26c-0.52-0.12-1.02-0.25-1.5-0.42c-0.48-0.16-0.9-0.35-1.26-0.57l0.71-3.33
			c0.29,0.2,0.64,0.4,1.06,0.6c0.42,0.2,0.88,0.38,1.37,0.53c0.49,0.16,1.01,0.29,1.54,0.39c0.54,0.1,1.07,0.15,1.6,0.15
			c1.43,0,2.5-0.29,3.21-0.85s1.06-1.36,1.06-2.37c0-0.37-0.05-0.71-0.16-1.03c-0.11-0.32-0.3-0.63-0.57-0.94
			c-0.27-0.31-0.63-0.63-1.07-0.95c-0.44-0.32-1-0.68-1.67-1.08c-1.46-0.88-2.53-1.81-3.22-2.77c-0.69-0.96-1.04-2.05-1.04-3.26
			c0-0.88,0.17-1.73,0.49-2.53c0.33-0.81,0.82-1.52,1.47-2.14c0.65-0.62,1.47-1.11,2.45-1.48c0.99-0.37,2.14-0.55,3.45-0.55
			c1.03,0,2.01,0.1,2.93,0.3c0.92,0.2,1.7,0.46,2.35,0.77L1320.4,414.98z"/>
		<path class="st0" d="M1342.31,416.26c0,1.16-0.26,2.21-0.77,3.15c-0.51,0.95-1.37,1.76-2.55,2.44s-2.75,1.2-4.69,1.57
			c-1.94,0.37-4.34,0.56-7.2,0.58c-0.03,0.16-0.04,0.32-0.04,0.49c0,0.16,0,0.3,0,0.43c0,0.77,0.11,1.5,0.32,2.18
			c0.21,0.68,0.55,1.28,1,1.8c0.45,0.51,1.03,0.92,1.74,1.22s1.55,0.45,2.52,0.45c0.99,0,2.07-0.19,3.25-0.57
			c1.18-0.38,2.3-0.91,3.38-1.61l-0.67,3.46c-0.79,0.46-1.72,0.85-2.81,1.2c-1.09,0.34-2.3,0.51-3.64,0.51
			c-1.62,0-2.98-0.25-4.08-0.75s-2-1.16-2.68-2c-0.68-0.83-1.17-1.79-1.47-2.89c-0.3-1.09-0.45-2.23-0.45-3.43
			c0-1.28,0.14-2.52,0.43-3.71c0.29-1.19,0.69-2.3,1.21-3.33c0.52-1.03,1.15-1.96,1.88-2.81c0.73-0.85,1.53-1.57,2.42-2.17
			c0.89-0.6,1.84-1.06,2.85-1.39c1.02-0.33,2.07-0.49,3.15-0.49c1.13,0,2.13,0.15,2.99,0.45c0.86,0.3,1.58,0.71,2.16,1.23
			c0.58,0.52,1.02,1.12,1.32,1.81C1342.16,414.76,1342.31,415.49,1342.31,416.26z M1338.74,416.43c0-0.9-0.33-1.6-1-2.1
			s-1.55-0.75-2.65-0.75c-0.87,0-1.72,0.19-2.53,0.57c-0.81,0.38-1.57,0.9-2.25,1.56c-0.69,0.67-1.28,1.45-1.78,2.37
			c-0.5,0.92-0.86,1.91-1.09,2.98c2.05,0,3.78-0.1,5.21-0.31c1.43-0.2,2.59-0.51,3.49-0.91s1.56-0.89,1.97-1.46
			C1338.53,417.81,1338.74,417.16,1338.74,416.43z"/>
		<path class="st0" d="M1359.57,414.85h-0.09c-0.29-0.17-0.66-0.34-1.13-0.5c-0.46-0.17-0.92-0.25-1.38-0.25
			c-0.83,0-1.62,0.27-2.38,0.8c-0.76,0.53-1.45,1.24-2.07,2.12s-1.16,1.88-1.63,3c-0.46,1.13-0.83,2.28-1.08,3.47l-2.06,9.54h-3.52
			l3.09-14.54c0.13-0.6,0.26-1.23,0.39-1.88c0.13-0.66,0.24-1.31,0.35-1.97c0.11-0.66,0.2-1.28,0.29-1.88
			c0.09-0.6,0.15-1.14,0.19-1.63h3.47c-0.04,0.43-0.09,0.88-0.15,1.36c-0.06,0.48-0.11,0.94-0.17,1.39
			c-0.06,0.45-0.11,0.85-0.17,1.22c-0.06,0.36-0.1,0.65-0.13,0.85h0.08c0.46-0.81,0.92-1.55,1.39-2.2s0.97-1.22,1.49-1.68
			c0.52-0.46,1.07-0.82,1.66-1.08c0.59-0.26,1.22-0.39,1.91-0.39c0.4,0,0.79,0.04,1.19,0.12c0.39,0.08,0.75,0.16,1.06,0.25
			L1359.57,414.85z"/>
	</g>
	<g>
		<path class="st1" d="M676.95,362.23h-43.43V79.14h43.43V362.23z"/>
		<path class="st1" d="M817.87,366.71c-29.45,0-52.97-8.93-70.56-26.8c-17.58-17.86-26.38-41.55-26.38-71.05
			c0-32.12,9.17-57.2,27.5-75.25c18.33-18.05,43.03-27.08,74.1-27.08c29.82,0,53.06,8.78,69.71,26.33
			c16.65,17.55,24.98,41.89,24.98,73.01c0,30.5-8.98,54.93-26.93,73.29C872.33,357.53,848.19,366.71,817.87,366.71z M819.92,201.08
			c-16.9,0-30.26,5.91-40.08,17.74c-9.82,11.83-14.73,28.14-14.73,48.93c0,20.04,4.97,35.82,14.91,47.33
			c9.94,11.51,23.24,17.27,39.89,17.27c17.02,0,30.1-5.66,39.24-16.99c9.13-11.33,13.7-27.45,13.7-48.36
			c0-21.03-4.57-37.28-13.7-48.74C850.03,206.81,836.95,201.08,819.92,201.08z"/>
		<path class="st1" d="M1127.67,362.23h-43.24v-30.25h-0.75c-12.55,23.16-32.06,34.73-58.53,34.73c-45.11,0-67.66-27.14-67.66-81.42
			V171.01h43.24v109.8c0,34.36,13.24,51.54,39.71,51.54c12.8,0,23.33-4.73,31.6-14.19c8.26-9.46,12.4-21.85,12.4-37.16V171.02h43.24
			L1127.67,362.23L1127.67,362.23z"/>
		<path class="st1" d="M1357.51,362.23h-43.24v-32.49h-0.75c-13.92,24.65-35.36,36.97-64.31,36.97c-23.48,0-42.28-8.56-56.39-25.68
			s-21.16-40.43-21.16-69.93c0-31.62,7.8-56.95,23.4-76c15.59-19.05,36.38-28.57,62.35-28.57c25.72,0,44.43,10.33,56.11,31h0.75
			V79.14h43.24V362.23z M1314.82,274.84v-25.02c0-13.57-4.41-25.08-13.23-34.55c-8.83-9.46-20.07-14.19-33.74-14.19
			c-16.16,0-28.86,6.04-38.12,18.11c-9.26,12.08-13.89,28.82-13.89,50.23c0,19.42,4.44,34.77,13.33,46.03
			c8.88,11.27,20.85,16.9,35.88,16.9c14.79,0,26.78-5.44,35.97-16.34C1310.22,305.12,1314.82,291.4,1314.82,274.84z"/>
	</g>
	<path class="st2" d="M578.92,48.69c-5.83-3.99-11.81-7.58-18.14-10.54c-18.91-8.86-38.77-12.71-59.6-10.64
		c-40.15,3.98-70.34,23.58-90.51,58.47c-5.44,9.41-9.16,19.57-11.09,30.3c-0.45,2.49-1.67,3.51-4.04,4.05
		c-17.23,3.94-32.68,11.61-46.3,22.86c-17.66,14.58-29.91,32.8-36.44,54.82c-5.48,18.51-6.15,37.29-1.66,55.95
		c7.73,32.17,26.41,56.4,55.18,72.69c14.94,8.45,31.08,13.11,48.27,14.13c5.55,0.32,4.78-0.39,5.9,5.34
		c3.64,18.58,11.53,35.23,23.7,49.77c12.98,15.51,28.96,26.83,47.92,33.88c18.31,6.81,37.18,8.67,56.51,6.02
		c22.91-3.14,42.96-12.5,60.27-27.78c0.61-0.54,1.16-1.2,2.13-1.38c0.46,1.04-0.5,1.51-0.92,2.05
		c-15.89,20.44-35.92,35.28-60.86,42.45c-47.17,13.57-88.73,3.02-123.79-31.28c-16.79-16.42-27.23-36.68-32.12-59.71
		c-0.4-1.9-0.84-3.8-1.05-5.72c-0.21-1.86-1.12-2.35-2.91-2.48c-51.23-3.86-87.34-29.45-107.98-76.31
		c-8.67-19.69-11.06-40.71-7.76-61.99c7.45-48.11,34.46-80.8,79.43-98.84c4.69-1.88,9.71-2.97,14.61-4.29
		c1.36-0.36,1.89-0.93,2.2-2.34c9.04-41.88,33.09-71.83,72.16-89.28c19.71-8.81,40.59-11.53,62.12-8.96
		c27.5,3.28,51.09,14.7,71.06,33.77C576.69,45.13,578.1,46.66,578.92,48.69z"/>
	<g id="iF">
		<g>
			<path class="st3" d="M17.74,361.19H60.4V145.21L18,145.18L17.74,361.19z M38.06,78.93c-14.29,0-24.53,10.24-24.53,24.5
				c0,13.96,9.93,24.51,24.53,24.51c14.28,0,24.84-9.62,24.84-24.51C62.9,89.16,52.97,78.93,38.06,78.93z M234.71,112.47V79.41
				L103.28,79.2l-0.19,283.03l43.18-0.02V217.43h60.9v-32.05h-60.9v-72.92L234.71,112.47L234.71,112.47z"/>
		</g>
	</g>
</g>
</svg>
