<?xml version="1.0" encoding="utf-8"?>
<!-- Generator: Adobe Illustrator 23.0.3, SVG Export Plug-In . SVG Version: 6.00 Build 0)  -->
<svg version="1.1" id="Layer_1" xmlns="http://www.w3.org/2000/svg" xmlns:xlink="http://www.w3.org/1999/xlink" x="0px" y="0px"
	 viewBox="0 0 1700.8 311.8" style="enable-background:new 0 0 1700.8 311.8;" xml:space="preserve">
<style type="text/css">
	.st0{fill:#333333;}
</style>
<g id="current">
	<path class="st0" d="M710.4,265.6c0-13.7-1-22.6-3-35.7c-5.4-0.4-10.9-0.9-16.3-1.3c-3.5-0.3-6.3-1.2-7.2-5.5
		c-2.5-10.9-5.2-21.7-8.4-32.4c-1.5-4.9-0.1-7.5,3.9-10.2c4.1-2.7,8.1-5.5,12.2-8.4c-10.5-25.9-24.9-49.7-42.7-70.6
		c-4.3,2.1-8.5,4.1-12.8,6.3c-3.5,1.8-5.8,1.7-8.6-1.3c-7.4-7.8-14.9-15.6-22.9-22.9c-4.5-4.1-5.3-7.3-2.3-12.9c1.6-3,3.1-6,4.5-9
		c-22.1-16.7-46.9-30-73.7-39.1c-1.9,2.7-3.7,5.4-5.6,8c-2.4,3.5-5,4.2-9,3c-10.9-3.1-22-5.7-32.9-9c-2-0.6-4.4-3.2-4.8-5.3
		c-0.5-2.5-0.8-5-1-7.6c-6.1-0.5-12.4-0.8-18.6-0.9v52.2c106.5,8,190.9,95,194.8,202.5h52.7L710.4,265.6z"/>
	<path class="st0" d="M607.2,266.8h17.3c-5.5-90.4-74.8-163.5-163.4-175v17.4C540.2,120.6,601.8,186,607.2,266.8"/>
	<polygon class="st0" points="461.1,152.5 517.5,152.5 517.5,168.2 477.7,168.2 477.7,197.9 511.6,197.9 511.6,213.7 477.7,213.7 
		477.7,257.5 461.1,257.5 	"/>
	<polygon class="st0" points="657,264.3 625.4,264.3 608,264.3 461.1,264.3 461.1,301.4 607,301.4 624.4,301.4 655.5,301.4 
		710,301.4 710,264.3 	"/>
	<path class="st0" d="M447.8,20.6c0-5.2-0.1-8.6-1-10.7c-28.2,0.3-55.3,5.1-80.7,13.7c-0.1,0-0.2,0-0.3,0.1
		c-3.8,1.3-7.6,2.7-11.4,4.1c-0.2,0.1-0.4,0.2-0.6,0.3c-3.6,1.4-7.2,2.9-10.7,4.5c-0.4,0.2-0.7,0.3-1.1,0.5c-3.4,1.5-6.7,3.1-10,4.7
		c-0.5,0.3-1.1,0.6-1.6,0.9c-3.1,1.6-6.2,3.2-9.2,4.9c-0.7,0.4-1.4,0.8-2.1,1.3c-2.8,1.6-5.6,3.3-8.4,5c-0.9,0.6-1.8,1.2-2.8,1.8
		c-2.5,1.6-5,3.2-7.5,4.9c-1.1,0.8-2.3,1.7-3.4,2.5c-2.2,1.5-4.4,3.1-6.5,4.7c-1.4,1.1-2.7,2.2-4.1,3.3c-1.8,1.5-3.7,2.9-5.5,4.4
		c-1.8,1.5-3.4,3-5.2,4.6c-1.4,1.2-2.7,2.4-4,3.6c-3,2.8-6,5.7-8.8,8.6c-3,2.5-2.7,5.1-2.3,7.3c1.2,6.8,3,12.3-2.4,18.2
		c-33.1,36.2-54.7,78.5-64.9,126.4c-0.9,4.1-2.3,7.1-4.3,9.6c-2.5,3-5.9,5-10.7,6.5c-33.1,10.6-66,21.8-98.9,32.8
		c-3.4,1.2-8.3,1.6-7.7,6.9c0.3,2.6,1.7,4.3,3.5,5.3h114.7h10.7h35.6c-1.1-8.8-1.7-17.7-1.7-26.7c0-3.5,0.1-7,0.3-10.4H234
		c0-2.7,0.9-5.7,1.5-8.2c0.3-3.3,0.7-6.7,1.1-10c0.1-1.1,0.4-2.2,0.5-3.3c0.3-2.2,0.6-4.4,1.1-6.5c0.3-1.4,0.6-2.8,0.9-4.2
		c0.4-1.8,0.7-3.7,1.1-5.5c0.4-1.5,0.8-3,1.2-4.5c0.4-1.6,0.8-3.3,1.3-4.9c0.5-1.6,1-3.2,1.5-4.8c0.5-1.5,0.9-3,1.4-4.5
		c0.6-1.7,1.2-3.3,1.8-5c0.5-1.4,1-2.8,1.5-4.1c0.7-1.7,1.4-3.4,2.1-5.1c0.5-1.3,1-2.6,1.6-3.8c0.8-1.8,1.6-3.5,2.4-5.2
		c0.6-1.1,1.1-2.3,1.6-3.5c0.9-1.8,1.8-3.6,2.8-5.3c0.5-1.1,1.1-2.1,1.6-3.1c1-1.8,2.1-3.6,3.2-5.4c0.6-0.9,1.1-1.9,1.6-2.8
		c1.1-1.9,2.3-3.7,3.5-5.5c0.5-0.8,1.1-1.7,1.6-2.5c1.3-1.9,2.6-3.7,3.9-5.5c0.5-0.7,1-1.5,1.6-2.2c1.4-1.9,2.9-3.7,4.3-5.6
		c0.5-0.6,1-1.3,1.5-1.9c1.6-1.9,3.1-3.8,4.8-5.6c0.5-0.5,0.9-1.1,1.4-1.6c1.7-1.9,3.4-3.7,5.2-5.6c0.4-0.4,0.9-0.9,1.3-1.3
		c1.8-1.9,3.7-3.7,5.6-5.5c0.4-0.4,0.8-0.7,1.2-1.1c2-1.8,4-3.6,6-5.4c0.3-0.3,0.7-0.6,1-0.9c2.1-1.8,4.3-3.6,6.4-5.3
		c0.3-0.2,0.6-0.5,0.9-0.7c2.3-1.8,4.5-3.5,6.9-5.1c0.2-0.2,0.4-0.3,0.7-0.5c2.4-1.7,4.8-3.3,7.3-4.9c0.2-0.1,0.4-0.2,0.5-0.4
		c2.5-1.6,5.1-3.2,7.6-4.7c0.1-0.1,0.3-0.2,0.4-0.2c2.6-1.5,5.3-3,8-4.5c0.1-0.1,0.2-0.1,0.3-0.2c2.8-1.4,5.5-2.8,8.4-4.2
		c0,0,0.1-0.1,0.1-0.1c2.9-1.3,5.8-2.6,8.7-3.8c0,0,0,0,0,0c23.6-9.8,49.4-15.5,76.4-16.1c1.6,0,3.2-0.1,4.8-0.1c0.7,0,1.3,0,2,0
		c0.2-1.3,0.3-2.8,0.2-4.5C447.5,46.4,447.8,33.5,447.8,20.6"/>
	<path class="st0" d="M444.5,90.2c-104,0-188.3,84.3-188.3,188.2c0,7.8,0.5,15.4,1.4,23H448V90.3C446.8,90.3,445.6,90.2,444.5,90.2
		 M429.4,257.5h-19v-72.9h19L429.4,257.5L429.4,257.5z M429.4,170.7h-19v-18.2h19L429.4,170.7L429.4,170.7z"/>
	<path class="st0" d="M744.2,89.3h17.2v16.1h-17.2V89.3z M760.9,222.4h-16.2v-96.4h16.2L760.9,222.4L760.9,222.4z"/>
	<polygon class="st0" points="860.3,101.6 819.4,101.6 819.4,148.8 850.9,148.8 850.9,161.5 819.4,161.5 819.4,222.4 803.2,222.4 
		803.2,89 860.3,89 	"/>
	<rect x="894.7" y="89.3" class="st0" width="17.2" height="16.1"/>
	<rect x="895.2" y="126.1" class="st0" width="16.2" height="96.4"/>
	<path class="st0" d="M969.9,126.1h21.6c12.4,0,18.6,5.2,18.6,15.7v37.2h-42.5v25.6c0,2.6,0.5,4.3,1.4,5.1c0.9,0.7,2.9,1.1,5.9,1.1
		h11c3.1,0,5.1-0.4,6-1.1c0.9-0.7,1.3-2.4,1.3-5.1v-8.7h16.2v10.9c0,10.5-6.2,15.7-18.6,15.7h-20.9c-12.4,0-18.6-5.2-18.6-15.7v-65
		C951.3,131.3,957.5,126.1,969.9,126.1 M967.5,167.2h26.3v-23.3c0-2.5-0.5-4.2-1.4-5s-2.9-1.2-5.9-1.2h-11.8c-3,0-4.9,0.4-5.9,1.2
		s-1.4,2.4-1.4,5L967.5,167.2L967.5,167.2z"/>
	<rect x="1047.7" y="89.5" class="st0" width="16.2" height="132.9"/>
	<path class="st0" d="M1143.6,89.5h16.2v132.9h-16.2v-6.6c-1.7,4.4-6,6.6-12.9,6.6h-9.4c-12.4,0-18.6-5.2-18.6-15.7v-65.2
		c0-10.5,6.2-15.7,18.6-15.7h9.4c6.9,0,11.2,2.2,12.9,6.6V89.5z M1126.2,210.7h9.4c2.8,0,4.8-0.5,6.1-1.6s1.9-2.9,1.9-5.6v-58.8
		c0-2.6-0.6-4.5-1.9-5.6c-1.3-1.1-3.3-1.6-6.1-1.6h-9.4c-3.1,0-5.1,0.4-6,1.1c-0.9,0.7-1.3,2.4-1.3,5.1v60.8c0,2.6,0.4,4.3,1.3,5.1
		C1121,210.4,1123,210.7,1126.2,210.7"/>
	<path class="st0" d="M1240.4,204.6v-33.8c0-2.6-0.5-4.3-1.4-5.1c-0.9-0.7-2.9-1.1-5.9-1.1h-16c-12.4,0-18.6-5.2-18.6-15.7v-34.4
		c0-10.5,6.2-15.7,18.6-15.7h20.7c12.4,0,18.6,5.2,18.6,15.7v19.1h-16.2v-16.9c0-2.7-0.4-4.3-1.3-5.1s-2.9-1.1-6-1.1h-10.8
		c-3.1,0-5.1,0.4-6,1.1c-0.9,0.7-1.3,2.4-1.3,5.1v30c0,2.5,0.4,4.2,1.3,5c0.9,0.8,2.9,1.2,6,1.2h16c12.4,0,18.6,5.2,18.6,15.7v38.1
		c0,10.5-6.2,15.7-18.6,15.7h-20.4c-12.4,0-18.6-5.2-18.6-15.7v-19.1h16.2v16.9c0,2.6,0.4,4.3,1.3,5.1c0.9,0.7,2.9,1.1,6,1.1h10.6
		c3,0,4.9-0.4,5.9-1.1C1239.9,208.9,1240.4,207.2,1240.4,204.6"/>
	<path class="st0" d="M1365.4,126.1h9.4c12.4,0,18.6,5.2,18.6,15.7v80.7h-16.2v-78.5c0-2.5-0.4-4.2-1.3-5c-0.9-0.8-2.9-1.2-6-1.2
		h-9.4c-2.8,0-4.9,0.5-6.1,1.6c-1.3,1.1-1.9,2.9-1.9,5.6v77.5h-16.2v-78.5c0-2.5-0.4-4.2-1.3-5s-2.9-1.2-6-1.2h-9.4
		c-2.8,0-4.9,0.5-6.1,1.6c-1.3,1.1-1.9,2.9-1.9,5.6v77.5h-16.2v-96.4h16.2v6.6c1.7-4.4,6-6.6,12.9-6.6h9.4c8.9,0,14.7,2.6,17.2,7.9
		C1352.6,128.7,1357.4,126.1,1365.4,126.1"/>
	<path class="st0" d="M1471.9,126.1h16.2v96.4h-16.2v-6.6c-1.7,4.4-6,6.6-12.9,6.6h-9.4c-12.4,0-18.6-5.2-18.6-15.7v-65
		c0-10.5,6.2-15.7,18.6-15.7h9.4c6.9,0,11.2,2.2,12.9,6.6V126.1z M1454.5,210.7h9.4c2.8,0,4.8-0.5,6.1-1.6c1.3-1.1,1.9-2.9,1.9-5.6
		v-58.6c0-2.6-0.6-4.5-1.9-5.6c-1.3-1.1-3.3-1.6-6.1-1.6h-9.4c-3.1,0-5.1,0.4-6,1.2c-0.9,0.8-1.3,2.4-1.3,5v60.6
		c0,2.6,0.4,4.3,1.3,5.1C1449.3,210.4,1451.3,210.7,1454.5,210.7"/>
	<path class="st0" d="M1561.2,126.1h4.9V138h-7.1c-9.9,0-14.8,5-14.8,14.9v69.5H1528V126h16.2v11.1c1.3-3.1,3.3-5.7,6.2-7.9
		C1553.4,127.2,1556.9,126.1,1561.2,126.1"/>
	<path class="st0" d="M1630,137.8h-16.2v65.8c0,2.5,0.5,4.2,1.4,5c0.9,0.8,2.9,1.2,5.9,1.2h8.9v12.7h-13.9
		c-12.4,0-18.6-5.2-18.6-15.7v-68.9h-10.3v-11.7h10.3v-15.7h16.2v15.7h16.2L1630,137.8L1630,137.8z"/>
</g>
</svg>
