<?xml version="1.0" encoding="utf-8"?>
<!-- Generator: Adobe Illustrator 16.0.0, SVG Export Plug-In . SVG Version: 6.00 Build 0)  -->
<!DOCTYPE svg PUBLIC "-//W3C//DTD SVG 1.1//EN" "http://www.w3.org/Graphics/SVG/1.1/DTD/svg11.dtd">
<svg version="1.1" xmlns="http://www.w3.org/2000/svg" xmlns:xlink="http://www.w3.org/1999/xlink" x="0px" y="0px"
	 width="1899.91px" height="1024px" viewBox="0 0 1899.91 1024" enable-background="new 0 0 1899.91 1024" xml:space="preserve">
<g id="background" display="none">
	<rect y="1" display="inline" fill="#3D2622" width="1899.91" height="1024"/>
	<rect x="437.955" y="0.91" display="inline" fill="none" width="1024" height="1026.59"/>
	<rect x="437.955" y="0.91" display="inline" fill="none" width="1024" height="1026.59"/>
</g>
<g id="finle">
</g>
<g id="current">
	<path fill="#3D2622" d="M809.377,638.639c0-13.666-1.031-22.566-3.053-35.668c-5.431-0.432-10.878-0.852-16.309-1.305
		c-3.495-0.273-6.261-1.234-7.238-5.461c-2.518-10.865-5.208-21.719-8.403-32.404c-1.448-4.877-0.128-7.494,3.88-10.188
		c4.086-2.74,8.137-5.529,12.171-8.359c-10.467-25.857-24.942-49.652-42.665-70.625c-4.283,2.047-8.548,4.126-12.787,6.256
		c-3.539,1.788-5.773,1.669-8.609-1.346c-7.392-7.837-14.929-15.611-22.904-22.858c-4.514-4.086-5.285-7.312-2.347-12.929
		c1.568-2.974,3.058-6.007,4.548-9.048c-22.108-16.724-46.939-30.02-73.723-39.098c-1.885,2.682-3.743,5.348-5.593,8.041
		c-2.407,3.51-5.02,4.157-9.002,3.029c-10.922-3.123-21.997-5.722-32.866-8.982c-1.988-0.607-4.368-3.231-4.753-5.254
		c-0.489-2.489-0.772-5.021-0.994-7.552c-6.15-0.505-12.36-0.767-18.631-0.847v52.216c106.487,7.99,190.909,94.956,194.832,202.532
		h52.738L809.377,638.639z"/>
	<path fill="#3D2622" d="M706.245,639.842h17.268c-5.508-90.367-74.777-163.521-163.414-175.003v17.452
		C639.237,493.638,700.805,558.961,706.245,639.842"/>
	<polygon fill="#3D2622" points="560.099,525.49 616.504,525.49 616.504,541.211 576.656,541.211 576.656,570.951 610.645,570.951 
		610.645,586.676 576.656,586.676 576.656,630.523 560.099,630.523 	"/>
	<polygon fill="#3D2622" points="756.011,637.332 724.42,637.332 707.054,637.332 560.101,637.332 560.101,674.42 706.013,674.42 
		723.401,674.42 754.52,674.42 809.048,674.42 809.048,637.332 	"/>
	<path fill="#F9A71A" d="M546.763,393.638c-0.026-5.21-0.137-8.553-0.994-10.659c-28.197,0.306-55.299,5.133-80.687,13.702
		c-0.068,0.023-0.163,0.05-0.248,0.091c-3.828,1.28-7.615,2.66-11.349,4.127c-0.206,0.08-0.412,0.166-0.609,0.249
		c-3.622,1.432-7.194,2.916-10.723,4.494c-0.385,0.171-0.736,0.344-1.104,0.513c-3.376,1.527-6.69,3.079-9.978,4.743
		c-0.542,0.292-1.072,0.582-1.621,0.856c-3.1,1.592-6.166,3.217-9.199,4.92c-0.703,0.395-1.396,0.839-2.125,1.253
		c-2.809,1.636-5.627,3.286-8.367,5.021c-0.934,0.577-1.834,1.211-2.759,1.801c-2.509,1.623-5.01,3.231-7.452,4.938
		c-1.147,0.812-2.253,1.662-3.4,2.489c-2.186,1.55-4.359,3.12-6.493,4.745c-1.396,1.073-2.742,2.202-4.12,3.313
		c-1.824,1.458-3.657,2.894-5.446,4.39c-1.748,1.485-3.437,3.038-5.166,4.569c-1.345,1.208-2.723,2.362-4.043,3.598
		c-3.024,2.793-5.97,5.651-8.84,8.597c-2.964,2.542-2.689,5.091-2.296,7.29c1.225,6.793,3.033,12.322-2.363,18.209
		c-33.148,36.182-54.742,78.489-64.849,126.448c-0.875,4.076-2.271,7.135-4.292,9.559c-2.492,2.994-5.944,4.986-10.699,6.502
		c-33.087,10.559-66.005,21.764-98.948,32.826c-3.434,1.158-8.274,1.637-7.674,6.893c0.308,2.654,1.661,4.271,3.503,5.309h114.69
		h10.666h35.555c-1.096-8.762-1.67-17.674-1.67-26.729c0-3.49,0.094-6.955,0.257-10.393h-0.892
		c-0.024-2.668,0.892-5.668,1.457-8.197c0.291-3.342,0.667-6.682,1.114-9.973c0.146-1.121,0.351-2.213,0.522-3.324
		c0.343-2.174,0.65-4.348,1.045-6.494c0.256-1.4,0.581-2.779,0.865-4.168c0.376-1.824,0.728-3.668,1.147-5.49
		c0.351-1.506,0.77-3.006,1.164-4.523c0.42-1.652,0.814-3.309,1.276-4.949c0.462-1.609,0.977-3.203,1.465-4.789
		c0.463-1.508,0.9-3.004,1.406-4.506c0.547-1.678,1.181-3.318,1.772-4.977c0.497-1.379,0.977-2.766,1.499-4.129
		c0.668-1.717,1.371-3.4,2.1-5.088c0.514-1.281,1.028-2.559,1.575-3.822c0.771-1.752,1.61-3.479,2.417-5.213
		c0.548-1.141,1.061-2.32,1.636-3.465c0.89-1.803,1.832-3.561,2.784-5.322c0.548-1.047,1.079-2.092,1.645-3.137
		c1.019-1.832,2.089-3.631,3.16-5.439c0.556-0.916,1.071-1.85,1.628-2.775c1.147-1.852,2.329-3.67,3.528-5.496
		c0.549-0.809,1.062-1.655,1.628-2.479c1.25-1.868,2.578-3.699,3.889-5.527c0.539-0.716,1.053-1.459,1.575-2.178
		c1.405-1.881,2.862-3.722,4.326-5.563c0.496-0.637,0.975-1.256,1.481-1.871c1.559-1.898,3.143-3.758,4.754-5.584
		c0.455-0.538,0.9-1.073,1.354-1.581c1.688-1.885,3.418-3.729,5.156-5.548c0.437-0.438,0.857-0.906,1.293-1.344
		c1.817-1.868,3.684-3.683,5.559-5.489c0.394-0.359,0.763-0.726,1.157-1.1c1.961-1.843,3.974-3.631,5.996-5.389
		c0.334-0.304,0.659-0.589,0.994-0.881c2.107-1.804,4.257-3.559,6.425-5.279c0.29-0.226,0.565-0.469,0.847-0.695
		c2.252-1.753,4.548-3.461,6.871-5.127c0.222-0.163,0.436-0.326,0.667-0.492c2.391-1.705,4.806-3.342,7.256-4.952
		c0.18-0.111,0.368-0.23,0.539-0.373c2.51-1.608,5.062-3.187,7.632-4.712c0.146-0.069,0.275-0.154,0.402-0.237
		c2.63-1.539,5.303-3.027,7.992-4.46c0.103-0.05,0.188-0.107,0.283-0.147c2.758-1.444,5.542-2.844,8.359-4.18
		c0.042-0.013,0.078-0.046,0.12-0.052c2.861-1.349,5.764-2.643,8.703-3.854c0.009-0.012,0.009-0.012,0.017-0.012
		c23.598-9.848,49.363-15.528,76.387-16.133c1.593-0.03,3.187-0.113,4.798-0.113c0.667,0,1.336,0.028,1.996,0.028
		c0.214-1.291,0.3-2.776,0.24-4.479C546.445,419.368,546.823,406.498,546.763,393.638"/>
	<path fill="#F9A71A" d="M543.466,463.231c-103.96,0-188.253,84.275-188.253,188.234c0,7.773,0.479,15.426,1.396,22.955h190.335
		V463.281C545.778,463.256,544.622,463.231,543.466,463.231 M528.425,630.523h-19.021v-72.85h19.021V630.523z M528.425,543.686
		h-19.021V525.49h19.021V543.686z"/>
	<path fill="#F9A71A" d="M843.232,462.3h17.156v16.094h-17.156V462.3z M859.917,595.432h-16.213v-96.374h16.213V595.432z"/>
	<polygon fill="#F9A71A" points="959.332,474.628 918.44,474.628 918.44,521.836 949.932,521.836 949.932,534.494 918.44,534.494 
		918.44,595.432 902.224,595.432 902.224,461.968 959.332,461.968 	"/>
	<rect x="993.675" y="462.3" fill="#3D2622" width="17.157" height="16.094"/>
	<rect x="994.15" y="499.058" fill="#3D2622" width="16.211" height="96.374"/>
	<path fill="#3D2622" d="M1068.887,499.058h21.617c12.378,0,18.57,5.236,18.57,15.7v37.158h-42.541v25.633
		c0,2.652,0.471,4.342,1.415,5.066c0.938,0.73,2.894,1.094,5.871,1.094h11.045c3.13,0,5.13-0.363,5.996-1.094
		c0.859-0.725,1.289-2.414,1.289-5.066v-8.742h16.219v10.926c0,10.469-6.193,15.699-18.566,15.699h-20.915
		c-12.383,0-18.567-5.23-18.567-15.699v-64.975C1050.319,504.294,1056.504,499.058,1068.887,499.058 M1066.533,540.191h26.322
		v-23.248c0-2.516-0.471-4.173-1.409-4.97c-0.942-0.795-2.904-1.188-5.877-1.188h-11.75c-2.978,0-4.933,0.393-5.871,1.188
		c-0.944,0.797-1.415,2.454-1.415,4.97V540.191z"/>
	<rect x="1146.674" y="462.499" fill="#3D2622" width="16.215" height="132.933"/>
	<path fill="#3D2622" d="M1242.561,462.499h16.213v132.933h-16.213v-6.557c-1.731,4.371-6.034,6.557-12.927,6.557h-9.404
		c-12.378,0-18.562-5.23-18.562-15.699v-65.174c0-10.464,6.184-15.696,18.562-15.696h9.404c6.893,0,11.195,2.184,12.927,6.557
		V462.499z M1225.168,583.709h9.399c2.819,0,4.854-0.527,6.107-1.59c1.255-1.059,1.886-2.912,1.886-5.564v-58.816
		c0-2.648-0.631-4.5-1.886-5.565c-1.254-1.059-3.288-1.586-6.107-1.586h-9.399c-3.14,0-5.135,0.361-5.991,1.09
		c-0.866,0.73-1.294,2.421-1.294,5.067v60.805c0,2.652,0.428,4.342,1.294,5.066C1220.033,583.346,1222.028,583.709,1225.168,583.709
		"/>
	<path fill="#3D2622" d="M1339.39,577.549V543.77c0-2.65-0.478-4.336-1.413-5.068c-0.938-0.727-2.905-1.094-5.877-1.094h-15.982
		c-12.379,0-18.563-5.23-18.563-15.695v-34.378c0-10.463,6.184-15.699,18.563-15.699h20.68c12.378,0,18.57,5.236,18.57,15.699
		v19.076h-16.218V489.72c0-2.648-0.433-4.338-1.294-5.068c-0.861-0.725-2.856-1.09-5.991-1.09h-10.81
		c-3.139,0-5.136,0.365-5.996,1.09c-0.861,0.73-1.293,2.42-1.293,5.068v30.007c0,2.518,0.432,4.174,1.293,4.967
		c0.86,0.795,2.857,1.193,5.996,1.193h15.983c12.372,0,18.563,5.232,18.563,15.695v38.15c0,10.469-6.19,15.699-18.563,15.699
		h-20.452c-12.375,0-18.564-5.23-18.564-15.699v-19.074h16.215v16.891c0,2.652,0.428,4.342,1.292,5.066
		c0.861,0.73,2.861,1.094,5.996,1.094h10.575c2.972,0,4.938-0.363,5.877-1.094C1338.912,581.891,1339.39,580.201,1339.39,577.549"/>
	<path fill="#3D2622" d="M1464.415,499.058h9.399c12.379,0,18.566,5.236,18.566,15.7v80.674h-16.215v-78.488
		c0-2.516-0.432-4.173-1.292-4.97c-0.866-0.795-2.861-1.188-5.996-1.188h-9.396c-2.822,0-4.861,0.527-6.111,1.586
		c-1.256,1.065-1.88,2.917-1.88,5.563v77.496h-16.22v-78.488c0-2.516-0.433-4.173-1.292-4.97c-0.858-0.795-2.856-1.188-5.991-1.188
		h-9.401c-2.818,0-4.857,0.527-6.107,1.586c-1.26,1.065-1.886,2.917-1.886,5.563v77.496h-16.214v-96.374h16.214v6.561
		c1.728-4.373,6.031-6.561,12.931-6.561h9.4c8.93,0,14.646,2.654,17.153,7.949C1451.644,501.712,1456.424,499.058,1464.415,499.058"
		/>
	<path fill="#3D2622" d="M1570.881,499.058h16.214v96.374h-16.214v-6.557c-1.73,4.371-6.035,6.557-12.926,6.557h-9.406
		c-12.376,0-18.561-5.23-18.561-15.699v-64.975c0-10.464,6.185-15.7,18.561-15.7h9.406c6.891,0,11.195,2.188,12.926,6.561V499.058z
		 M1553.488,583.709h9.401c2.815,0,4.855-0.527,6.105-1.59c1.255-1.059,1.886-2.912,1.886-5.564v-58.619
		c0-2.646-0.631-4.498-1.886-5.563c-1.25-1.059-3.29-1.586-6.105-1.586h-9.401c-3.139,0-5.135,0.393-5.993,1.188
		c-0.864,0.797-1.292,2.454-1.292,4.97v60.605c0,2.652,0.428,4.342,1.292,5.066C1548.354,583.346,1550.35,583.709,1553.488,583.709"
		/>
	<path fill="#3D2622" d="M1660.184,499.058h4.935v11.924h-7.055c-9.867,0-14.805,4.968-14.805,14.905v69.545h-16.214v-96.374h16.214
		v11.131c1.255-3.047,3.327-5.666,6.227-7.85C1652.386,500.153,1655.949,499.058,1660.184,499.058"/>
	<path fill="#3D2622" d="M1729.043,510.786h-16.216v65.769c0,2.518,0.467,4.174,1.405,4.967c0.942,0.797,2.9,1.193,5.88,1.193h8.931
		v12.717h-13.868c-12.378,0-18.565-5.23-18.565-15.699v-68.946h-10.342v-11.729h10.342v-15.695h16.218v15.695h16.216V510.786z"/>
</g>
</svg>
