<?xml version="1.0" encoding="utf-8"?>
<!-- Generator: Adobe Illustrator 23.0.3, SVG Export Plug-In . SVG Version: 6.00 Build 0)  -->
<svg version="1.1" id="Layer_1" xmlns="http://www.w3.org/2000/svg" xmlns:xlink="http://www.w3.org/1999/xlink" x="0px" y="0px"
	 viewBox="0 0 1700.79 311.81" style="enable-background:new 0 0 1700.79 311.81;" xml:space="preserve">
<style type="text/css">
	.st0{fill:#FFFFFF;}
	.st1{fill:#3D2622;}
	.st2{fill:#F9A81A;}
</style>
<g id="current">
	<path class="st0" d="M710.38,265.64c0-13.67-1.03-22.57-3.05-35.67c-5.43-0.43-10.88-0.85-16.31-1.3
		c-3.49-0.27-6.26-1.23-7.24-5.46c-2.52-10.86-5.21-21.72-8.4-32.4c-1.45-4.88-0.13-7.49,3.88-10.19c4.09-2.74,8.14-5.53,12.17-8.36
		c-10.47-25.86-24.94-49.65-42.66-70.63c-4.28,2.05-8.55,4.13-12.79,6.26c-3.54,1.79-5.77,1.67-8.61-1.35
		c-7.39-7.84-14.93-15.61-22.9-22.86c-4.51-4.09-5.28-7.31-2.35-12.93c1.57-2.97,3.06-6.01,4.55-9.05
		c-22.11-16.72-46.94-30.02-73.72-39.1c-1.89,2.68-3.74,5.35-5.59,8.04c-2.41,3.51-5.02,4.16-9,3.03c-10.92-3.12-22-5.72-32.87-8.98
		c-1.99-0.61-4.37-3.23-4.75-5.25c-0.49-2.49-0.77-5.02-0.99-7.55c-6.15-0.51-12.36-0.77-18.63-0.85v52.22
		c106.49,7.99,190.91,94.96,194.83,202.53h52.74L710.38,265.64z"/>
	<path class="st0" d="M607.24,266.84h17.27c-5.51-90.37-74.78-163.52-163.41-175v17.45C540.24,120.64,601.8,185.96,607.24,266.84"/>
	<polygon class="st0" points="461.1,152.49 517.5,152.49 517.5,168.21 477.66,168.21 477.66,197.95 511.65,197.95 511.65,213.68 
		477.66,213.68 477.66,257.52 461.1,257.52 	"/>
	<polygon class="st0" points="657.01,264.33 625.42,264.33 608.05,264.33 461.1,264.33 461.1,301.42 607.01,301.42 624.4,301.42 
		655.52,301.42 710.05,301.42 710.05,264.33 	"/>
	<path class="st0" d="M447.76,20.64c-0.03-5.21-0.14-8.55-0.99-10.66c-28.2,0.31-55.3,5.13-80.69,13.7
		c-0.07,0.02-0.16,0.05-0.25,0.09c-3.83,1.28-7.61,2.66-11.35,4.13c-0.21,0.08-0.41,0.17-0.61,0.25c-3.62,1.43-7.19,2.92-10.72,4.49
		c-0.39,0.17-0.74,0.34-1.1,0.51c-3.38,1.53-6.69,3.08-9.98,4.74c-0.54,0.29-1.07,0.58-1.62,0.86c-3.1,1.59-6.17,3.22-9.2,4.92
		c-0.7,0.39-1.4,0.84-2.13,1.25c-2.81,1.64-5.63,3.29-8.37,5.02c-0.93,0.58-1.83,1.21-2.76,1.8c-2.51,1.62-5.01,3.23-7.45,4.94
		c-1.15,0.81-2.25,1.66-3.4,2.49c-2.19,1.55-4.36,3.12-6.49,4.74c-1.4,1.07-2.74,2.2-4.12,3.31c-1.82,1.46-3.66,2.89-5.45,4.39
		c-1.75,1.48-3.44,3.04-5.17,4.57c-1.35,1.21-2.72,2.36-4.04,3.6c-3.02,2.79-5.97,5.65-8.84,8.6c-2.96,2.54-2.69,5.09-2.3,7.29
		c1.23,6.79,3.03,12.32-2.36,18.21c-33.15,36.18-54.74,78.49-64.85,126.45c-0.88,4.08-2.27,7.14-4.29,9.56
		c-2.49,2.99-5.94,4.99-10.7,6.5c-33.09,10.56-66.01,21.76-98.95,32.83c-3.43,1.16-8.27,1.64-7.67,6.89
		c0.31,2.65,1.66,4.27,3.5,5.31h114.69h10.67h35.55c-1.1-8.76-1.67-17.67-1.67-26.73c0-3.49,0.09-6.96,0.26-10.39h-0.89
		c-0.02-2.67,0.89-5.67,1.46-8.2c0.29-3.34,0.67-6.68,1.11-9.97c0.15-1.12,0.35-2.21,0.52-3.32c0.34-2.17,0.65-4.35,1.05-6.49
		c0.26-1.4,0.58-2.78,0.86-4.17c0.38-1.82,0.73-3.67,1.15-5.49c0.35-1.51,0.77-3.01,1.16-4.52c0.42-1.65,0.81-3.31,1.28-4.95
		c0.46-1.61,0.98-3.2,1.46-4.79c0.46-1.51,0.9-3,1.41-4.51c0.55-1.68,1.18-3.32,1.77-4.98c0.5-1.38,0.98-2.77,1.5-4.13
		c0.67-1.72,1.37-3.4,2.1-5.09c0.51-1.28,1.03-2.56,1.58-3.82c0.77-1.75,1.61-3.48,2.42-5.21c0.55-1.14,1.06-2.32,1.64-3.47
		c0.89-1.8,1.83-3.56,2.78-5.32c0.55-1.05,1.08-2.09,1.64-3.14c1.02-1.83,2.09-3.63,3.16-5.44c0.56-0.92,1.07-1.85,1.63-2.78
		c1.15-1.85,2.33-3.67,3.53-5.5c0.55-0.81,1.06-1.66,1.63-2.48c1.25-1.87,2.58-3.7,3.89-5.53c0.54-0.72,1.05-1.46,1.58-2.18
		c1.4-1.88,2.86-3.72,4.33-5.56c0.5-0.64,0.98-1.26,1.48-1.87c1.56-1.9,3.14-3.76,4.75-5.58c0.45-0.54,0.9-1.07,1.35-1.58
		c1.69-1.89,3.42-3.73,5.16-5.55c0.44-0.44,0.86-0.91,1.29-1.34c1.82-1.87,3.68-3.68,5.56-5.49c0.39-0.36,0.76-0.73,1.16-1.1
		c1.96-1.84,3.97-3.63,6-5.39c0.33-0.3,0.66-0.59,0.99-0.88c2.11-1.8,4.26-3.56,6.42-5.28c0.29-0.23,0.57-0.47,0.85-0.7
		c2.25-1.75,4.55-3.46,6.87-5.13c0.22-0.16,0.44-0.33,0.67-0.49c2.39-1.7,4.81-3.34,7.26-4.95c0.18-0.11,0.37-0.23,0.54-0.37
		c2.51-1.61,5.06-3.19,7.63-4.71c0.15-0.07,0.27-0.15,0.4-0.24c2.63-1.54,5.3-3.03,7.99-4.46c0.1-0.05,0.19-0.11,0.28-0.15
		c2.76-1.44,5.54-2.84,8.36-4.18c0.04-0.01,0.08-0.05,0.12-0.05c2.86-1.35,5.76-2.64,8.7-3.85c0.01-0.01,0.01-0.01,0.02-0.01
		c23.6-9.85,49.36-15.53,76.39-16.13c1.59-0.03,3.19-0.11,4.8-0.11c0.67,0,1.34,0.03,2,0.03c0.21-1.29,0.3-2.78,0.24-4.48
		C447.45,46.37,447.82,33.5,447.76,20.64"/>
	<path class="st0" d="M444.47,90.23c-103.96,0-188.25,84.28-188.25,188.23c0,7.77,0.48,15.43,1.4,22.96h190.34V90.28
		C446.78,90.26,445.62,90.23,444.47,90.23 M429.42,257.52H410.4v-72.85h19.02V257.52z M429.42,170.69H410.4v-18.2h19.02V170.69z"/>
	<path class="st0" d="M744.23,89.3h17.16v16.09h-17.16V89.3z M760.92,222.43H744.7v-96.37h16.21V222.43z"/>
	<polygon class="st0" points="860.33,101.63 819.44,101.63 819.44,148.84 850.93,148.84 850.93,161.49 819.44,161.49 819.44,222.43 
		803.22,222.43 803.22,88.97 860.33,88.97 	"/>
	<rect x="894.67" y="89.3" class="st0" width="17.16" height="16.09"/>
	<rect x="895.15" y="126.06" class="st0" width="16.21" height="96.37"/>
	<path class="st0" d="M969.89,126.06h21.62c12.38,0,18.57,5.24,18.57,15.7v37.16h-42.54v25.63c0,2.65,0.47,4.34,1.42,5.07
		c0.94,0.73,2.89,1.09,5.87,1.09h11.05c3.13,0,5.13-0.36,6-1.09c0.86-0.72,1.29-2.41,1.29-5.07v-8.74h16.22v10.93
		c0,10.47-6.19,15.7-18.57,15.7h-20.92c-12.38,0-18.57-5.23-18.57-15.7v-64.97C951.32,131.29,957.5,126.06,969.89,126.06
		 M967.53,167.19h26.32v-23.25c0-2.52-0.47-4.17-1.41-4.97c-0.94-0.8-2.9-1.19-5.88-1.19h-11.75c-2.98,0-4.93,0.39-5.87,1.19
		c-0.94,0.8-1.42,2.45-1.42,4.97V167.19z"/>
	<rect x="1047.67" y="89.5" class="st0" width="16.21" height="132.93"/>
	<path class="st0" d="M1143.56,89.5h16.21v132.93h-16.21v-6.56c-1.73,4.37-6.03,6.56-12.93,6.56h-9.4
		c-12.38,0-18.56-5.23-18.56-15.7v-65.17c0-10.46,6.18-15.7,18.56-15.7h9.4c6.89,0,11.19,2.18,12.93,6.56V89.5z M1126.17,210.71h9.4
		c2.82,0,4.85-0.53,6.11-1.59c1.26-1.06,1.89-2.91,1.89-5.56v-58.82c0-2.65-0.63-4.5-1.89-5.57c-1.25-1.06-3.29-1.59-6.11-1.59h-9.4
		c-3.14,0-5.14,0.36-5.99,1.09c-0.87,0.73-1.29,2.42-1.29,5.07v60.8c0,2.65,0.43,4.34,1.29,5.07
		C1121.03,210.35,1123.03,210.71,1126.17,210.71"/>
	<path class="st0" d="M1240.39,204.55v-33.78c0-2.65-0.48-4.34-1.41-5.07c-0.94-0.73-2.91-1.09-5.88-1.09h-15.98
		c-12.38,0-18.56-5.23-18.56-15.7v-34.38c0-10.46,6.18-15.7,18.56-15.7h20.68c12.38,0,18.57,5.24,18.57,15.7v19.08h-16.22v-16.89
		c0-2.65-0.43-4.34-1.29-5.07c-0.86-0.73-2.86-1.09-5.99-1.09h-10.81c-3.14,0-5.14,0.36-6,1.09c-0.86,0.73-1.29,2.42-1.29,5.07
		v30.01c0,2.52,0.43,4.17,1.29,4.97c0.86,0.79,2.86,1.19,6,1.19h15.98c12.37,0,18.56,5.23,18.56,15.7v38.15
		c0,10.47-6.19,15.7-18.56,15.7h-20.45c-12.38,0-18.56-5.23-18.56-15.7v-19.07h16.21v16.89c0,2.65,0.43,4.34,1.29,5.07
		c0.86,0.73,2.86,1.09,6,1.09h10.57c2.97,0,4.94-0.36,5.88-1.09C1239.91,208.89,1240.39,207.2,1240.39,204.55"/>
	<path class="st0" d="M1365.42,126.06h9.4c12.38,0,18.57,5.24,18.57,15.7v80.67h-16.21v-78.49c0-2.52-0.43-4.17-1.29-4.97
		c-0.87-0.8-2.86-1.19-6-1.19h-9.4c-2.82,0-4.86,0.53-6.11,1.59c-1.26,1.07-1.88,2.92-1.88,5.56v77.5h-16.22v-78.49
		c0-2.52-0.43-4.17-1.29-4.97c-0.86-0.8-2.86-1.19-5.99-1.19h-9.4c-2.82,0-4.86,0.53-6.11,1.59c-1.26,1.07-1.89,2.92-1.89,5.56v77.5
		h-16.21v-96.37h16.21v6.56c1.73-4.37,6.03-6.56,12.93-6.56h9.4c8.93,0,14.65,2.65,17.15,7.95
		C1352.64,128.71,1357.42,126.06,1365.42,126.06"/>
	<path class="st0" d="M1471.88,126.06h16.21v96.37h-16.21v-6.56c-1.73,4.37-6.04,6.56-12.93,6.56h-9.41
		c-12.38,0-18.56-5.23-18.56-15.7v-64.97c0-10.46,6.19-15.7,18.56-15.7h9.41c6.89,0,11.19,2.19,12.93,6.56V126.06z M1454.49,210.71
		h9.4c2.81,0,4.85-0.53,6.1-1.59c1.26-1.06,1.89-2.91,1.89-5.56v-58.62c0-2.65-0.63-4.5-1.89-5.56c-1.25-1.06-3.29-1.59-6.1-1.59
		h-9.4c-3.14,0-5.14,0.39-5.99,1.19c-0.86,0.8-1.29,2.45-1.29,4.97v60.6c0,2.65,0.43,4.34,1.29,5.07
		C1449.35,210.35,1451.35,210.71,1454.49,210.71"/>
	<path class="st0" d="M1561.18,126.06h4.94v11.92h-7.06c-9.87,0-14.81,4.97-14.81,14.9v69.54h-16.21v-96.37h16.21v11.13
		c1.26-3.05,3.33-5.67,6.23-7.85C1553.39,127.15,1556.95,126.06,1561.18,126.06"/>
	<path class="st0" d="M1630.04,137.79h-16.22v65.77c0,2.52,0.47,4.17,1.41,4.97c0.94,0.8,2.9,1.19,5.88,1.19h8.93v12.72h-13.87
		c-12.38,0-18.56-5.23-18.56-15.7v-68.95h-10.34v-11.73h10.34v-15.7h16.22v15.7h16.22L1630.04,137.79L1630.04,137.79z"/>
</g>
<g id="current_1_">
	<path class="st1" d="M710.38,266.64c0-13.67-1.03-22.57-3.05-35.67c-5.43-0.43-10.88-0.85-16.31-1.3
		c-3.49-0.27-6.26-1.23-7.24-5.46c-2.52-10.86-5.21-21.72-8.4-32.4c-1.45-4.88-0.13-7.49,3.88-10.19c4.09-2.74,8.14-5.53,12.17-8.36
		c-10.47-25.86-24.94-49.65-42.66-70.63c-4.28,2.05-8.55,4.13-12.79,6.26c-3.54,1.79-5.77,1.67-8.61-1.35
		c-7.39-7.84-14.93-15.61-22.9-22.86c-4.51-4.09-5.28-7.31-2.35-12.93c1.57-2.97,3.06-6.01,4.55-9.05
		c-22.11-16.72-46.94-30.02-73.72-39.1c-1.89,2.68-3.74,5.35-5.59,8.04c-2.41,3.51-5.02,4.16-9,3.03c-10.92-3.12-22-5.72-32.87-8.98
		c-1.99-0.61-4.37-3.23-4.75-5.25c-0.49-2.49-0.77-5.02-0.99-7.55c-6.15-0.51-12.36-0.77-18.63-0.85v52.22
		c106.49,7.99,190.91,94.96,194.83,202.53h52.74L710.38,266.64z"/>
	<path class="st1" d="M607.24,267.84h17.27c-5.51-90.37-74.78-163.52-163.41-175v17.45C540.24,121.64,601.8,186.96,607.24,267.84"/>
	<polygon class="st1" points="461.1,153.49 517.5,153.49 517.5,169.21 477.66,169.21 477.66,198.95 511.65,198.95 511.65,214.68 
		477.66,214.68 477.66,258.52 461.1,258.52 	"/>
	<polygon class="st1" points="657.01,265.33 625.42,265.33 608.05,265.33 461.1,265.33 461.1,302.42 607.01,302.42 624.4,302.42 
		655.52,302.42 710.05,302.42 710.05,265.33 	"/>
	<path class="st2" d="M447.76,21.64c-0.03-5.21-0.14-8.55-0.99-10.66c-28.2,0.31-55.3,5.13-80.69,13.7
		c-0.07,0.02-0.16,0.05-0.25,0.09c-3.83,1.28-7.61,2.66-11.35,4.13c-0.21,0.08-0.41,0.17-0.61,0.25c-3.62,1.43-7.19,2.92-10.72,4.49
		c-0.39,0.17-0.74,0.34-1.1,0.51c-3.38,1.53-6.69,3.08-9.98,4.74c-0.54,0.29-1.07,0.58-1.62,0.86c-3.1,1.59-6.17,3.22-9.2,4.92
		c-0.7,0.39-1.4,0.84-2.13,1.25c-2.81,1.64-5.63,3.29-8.37,5.02c-0.93,0.58-1.83,1.21-2.76,1.8c-2.51,1.62-5.01,3.23-7.45,4.94
		c-1.15,0.81-2.25,1.66-3.4,2.49c-2.19,1.55-4.36,3.12-6.49,4.74c-1.4,1.07-2.74,2.2-4.12,3.31c-1.82,1.46-3.66,2.89-5.45,4.39
		c-1.75,1.48-3.44,3.04-5.17,4.57c-1.35,1.21-2.72,2.36-4.04,3.6c-3.02,2.79-5.97,5.65-8.84,8.6c-2.96,2.54-2.69,5.09-2.3,7.29
		c1.23,6.79,3.03,12.32-2.36,18.21c-33.15,36.18-54.74,78.49-64.85,126.45c-0.88,4.08-2.27,7.14-4.29,9.56
		c-2.49,2.99-5.94,4.99-10.7,6.5c-33.09,10.56-66.01,21.76-98.95,32.83c-3.43,1.16-8.27,1.64-7.67,6.89
		c0.31,2.65,1.66,4.27,3.5,5.31h114.69h10.67h35.55c-1.1-8.76-1.67-17.67-1.67-26.73c0-3.49,0.09-6.96,0.26-10.39h-0.89
		c-0.02-2.67,0.89-5.67,1.46-8.2c0.29-3.34,0.67-6.68,1.11-9.97c0.15-1.12,0.35-2.21,0.52-3.32c0.34-2.17,0.65-4.35,1.05-6.49
		c0.26-1.4,0.58-2.78,0.86-4.17c0.38-1.82,0.73-3.67,1.15-5.49c0.35-1.51,0.77-3.01,1.16-4.52c0.42-1.65,0.81-3.31,1.28-4.95
		c0.46-1.61,0.98-3.2,1.46-4.79c0.46-1.51,0.9-3,1.41-4.51c0.55-1.68,1.18-3.32,1.77-4.98c0.5-1.38,0.98-2.77,1.5-4.13
		c0.67-1.72,1.37-3.4,2.1-5.09c0.51-1.28,1.03-2.56,1.58-3.82c0.77-1.75,1.61-3.48,2.42-5.21c0.55-1.14,1.06-2.32,1.64-3.47
		c0.89-1.8,1.83-3.56,2.78-5.32c0.55-1.05,1.08-2.09,1.64-3.14c1.02-1.83,2.09-3.63,3.16-5.44c0.56-0.92,1.07-1.85,1.63-2.78
		c1.15-1.85,2.33-3.67,3.53-5.5c0.55-0.81,1.06-1.66,1.63-2.48c1.25-1.87,2.58-3.7,3.89-5.53c0.54-0.72,1.05-1.46,1.58-2.18
		c1.4-1.88,2.86-3.72,4.33-5.56c0.5-0.64,0.98-1.26,1.48-1.87c1.56-1.9,3.14-3.76,4.75-5.58c0.45-0.54,0.9-1.07,1.35-1.58
		c1.69-1.89,3.42-3.73,5.16-5.55c0.44-0.44,0.86-0.91,1.29-1.34c1.82-1.87,3.68-3.68,5.56-5.49c0.39-0.36,0.76-0.73,1.16-1.1
		c1.96-1.84,3.97-3.63,6-5.39c0.33-0.3,0.66-0.59,0.99-0.88c2.11-1.8,4.26-3.56,6.42-5.28c0.29-0.23,0.57-0.47,0.85-0.7
		c2.25-1.75,4.55-3.46,6.87-5.13c0.22-0.16,0.44-0.33,0.67-0.49c2.39-1.7,4.81-3.34,7.26-4.95c0.18-0.11,0.37-0.23,0.54-0.37
		c2.51-1.61,5.06-3.19,7.63-4.71c0.15-0.07,0.27-0.15,0.4-0.24c2.63-1.54,5.3-3.03,7.99-4.46c0.1-0.05,0.19-0.11,0.28-0.15
		c2.76-1.44,5.54-2.84,8.36-4.18c0.04-0.01,0.08-0.05,0.12-0.05c2.86-1.35,5.76-2.64,8.7-3.85c0.01-0.01,0.01-0.01,0.02-0.01
		c23.6-9.85,49.36-15.53,76.39-16.13c1.59-0.03,3.19-0.11,4.8-0.11c0.67,0,1.34,0.03,2,0.03c0.21-1.29,0.3-2.78,0.24-4.48
		C447.45,47.37,447.82,34.5,447.76,21.64"/>
	<path class="st2" d="M444.47,91.23c-103.96,0-188.25,84.27-188.25,188.23c0,7.77,0.48,15.43,1.4,22.96h190.34V91.28
		C446.78,91.26,445.62,91.23,444.47,91.23 M429.42,258.52H410.4v-72.85h19.02V258.52z M429.42,171.69H410.4v-18.2h19.02V171.69z"/>
	<path class="st2" d="M744.23,90.3h17.16v16.09h-17.16V90.3z M760.92,223.43H744.7v-96.37h16.21V223.43z"/>
	<polygon class="st2" points="860.33,102.63 819.44,102.63 819.44,149.84 850.93,149.84 850.93,162.49 819.44,162.49 819.44,223.43 
		803.22,223.43 803.22,89.97 860.33,89.97 	"/>
	<rect x="894.67" y="90.3" class="st1" width="17.16" height="16.09"/>
	<rect x="895.15" y="127.06" class="st1" width="16.21" height="96.37"/>
	<path class="st1" d="M969.89,127.06h21.62c12.38,0,18.57,5.24,18.57,15.7v37.16h-42.54v25.63c0,2.65,0.47,4.34,1.42,5.07
		c0.94,0.73,2.89,1.09,5.87,1.09h11.05c3.13,0,5.13-0.36,6-1.09c0.86-0.72,1.29-2.41,1.29-5.07v-8.74h16.22v10.93
		c0,10.47-6.19,15.7-18.57,15.7h-20.92c-12.38,0-18.57-5.23-18.57-15.7v-64.97C951.32,132.29,957.5,127.06,969.89,127.06
		 M967.53,168.19h26.32v-23.25c0-2.52-0.47-4.17-1.41-4.97c-0.94-0.8-2.9-1.19-5.88-1.19h-11.75c-2.98,0-4.93,0.39-5.87,1.19
		c-0.94,0.8-1.42,2.45-1.42,4.97V168.19z"/>
	<rect x="1047.67" y="90.5" class="st1" width="16.21" height="132.93"/>
	<path class="st1" d="M1143.56,90.5h16.21v132.93h-16.21v-6.56c-1.73,4.37-6.03,6.56-12.93,6.56h-9.4
		c-12.38,0-18.56-5.23-18.56-15.7v-65.17c0-10.46,6.18-15.7,18.56-15.7h9.4c6.89,0,11.19,2.18,12.93,6.56V90.5z M1126.17,211.71h9.4
		c2.82,0,4.85-0.53,6.11-1.59c1.26-1.06,1.89-2.91,1.89-5.56v-58.82c0-2.65-0.63-4.5-1.89-5.57c-1.25-1.06-3.29-1.59-6.11-1.59h-9.4
		c-3.14,0-5.14,0.36-5.99,1.09c-0.87,0.73-1.29,2.42-1.29,5.07v60.8c0,2.65,0.43,4.34,1.29,5.07
		C1121.03,211.35,1123.03,211.71,1126.17,211.71"/>
	<path class="st1" d="M1240.39,205.55v-33.78c0-2.65-0.48-4.34-1.41-5.07c-0.94-0.73-2.91-1.09-5.88-1.09h-15.98
		c-12.38,0-18.56-5.23-18.56-15.7v-34.38c0-10.46,6.18-15.7,18.56-15.7h20.68c12.38,0,18.57,5.24,18.57,15.7v19.08h-16.22v-16.89
		c0-2.65-0.43-4.34-1.29-5.07c-0.86-0.73-2.86-1.09-5.99-1.09h-10.81c-3.14,0-5.14,0.36-6,1.09c-0.86,0.73-1.29,2.42-1.29,5.07
		v30.01c0,2.52,0.43,4.17,1.29,4.97c0.86,0.79,2.86,1.19,6,1.19h15.98c12.37,0,18.56,5.23,18.56,15.7v38.15
		c0,10.47-6.19,15.7-18.56,15.7h-20.45c-12.38,0-18.56-5.23-18.56-15.7v-19.07h16.21v16.89c0,2.65,0.43,4.34,1.29,5.07
		c0.86,0.73,2.86,1.09,6,1.09h10.57c2.97,0,4.94-0.36,5.88-1.09C1239.91,209.89,1240.39,208.2,1240.39,205.55"/>
	<path class="st1" d="M1365.42,127.06h9.4c12.38,0,18.57,5.24,18.57,15.7v80.67h-16.21v-78.49c0-2.52-0.43-4.17-1.29-4.97
		c-0.87-0.8-2.86-1.19-6-1.19h-9.4c-2.82,0-4.86,0.53-6.11,1.59c-1.26,1.07-1.88,2.92-1.88,5.56v77.5h-16.22v-78.49
		c0-2.52-0.43-4.17-1.29-4.97c-0.86-0.8-2.86-1.19-5.99-1.19h-9.4c-2.82,0-4.86,0.53-6.11,1.59c-1.26,1.07-1.89,2.92-1.89,5.56v77.5
		h-16.21v-96.37h16.21v6.56c1.73-4.37,6.03-6.56,12.93-6.56h9.4c8.93,0,14.65,2.65,17.15,7.95
		C1352.64,129.71,1357.42,127.06,1365.42,127.06"/>
	<path class="st1" d="M1471.88,127.06h16.21v96.37h-16.21v-6.56c-1.73,4.37-6.04,6.56-12.93,6.56h-9.41
		c-12.38,0-18.56-5.23-18.56-15.7v-64.97c0-10.46,6.19-15.7,18.56-15.7h9.41c6.89,0,11.19,2.19,12.93,6.56V127.06z M1454.49,211.71
		h9.4c2.81,0,4.85-0.53,6.1-1.59c1.26-1.06,1.89-2.91,1.89-5.56v-58.62c0-2.65-0.63-4.5-1.89-5.56c-1.25-1.06-3.29-1.59-6.1-1.59
		h-9.4c-3.14,0-5.14,0.39-5.99,1.19c-0.86,0.8-1.29,2.45-1.29,4.97v60.6c0,2.65,0.43,4.34,1.29,5.07
		C1449.35,211.35,1451.35,211.71,1454.49,211.71"/>
	<path class="st1" d="M1561.18,127.06h4.94v11.92h-7.06c-9.87,0-14.81,4.97-14.81,14.9v69.54h-16.21v-96.37h16.21v11.13
		c1.26-3.05,3.33-5.67,6.23-7.85C1553.39,128.15,1556.95,127.06,1561.18,127.06"/>
	<path class="st1" d="M1630.04,138.79h-16.22v65.77c0,2.52,0.47,4.17,1.41,4.97c0.94,0.8,2.9,1.19,5.88,1.19h8.93v12.72h-13.87
		c-12.38,0-18.56-5.23-18.56-15.7v-68.95h-10.34v-11.73h10.34v-15.7h16.22v15.7h16.22L1630.04,138.79L1630.04,138.79z"/>
</g>
</svg>
