<?xml version="1.0" encoding="utf-8"?>
<!-- Generator: Adobe Illustrator 23.0.3, SVG Export Plug-In . SVG Version: 6.00 Build 0)  -->
<svg version="1.1" id="Layer_1" xmlns="http://www.w3.org/2000/svg" xmlns:xlink="http://www.w3.org/1999/xlink" x="0px" y="0px"
	 viewBox="0 0 882.1 408.5" style="enable-background:new 0 0 882.1 408.5;" xml:space="preserve">
<style type="text/css">
	.st0{fill:none;stroke:#000000;stroke-linecap:round;stroke-linejoin:round;}
</style>
<g>
	<path class="st0" d="M106.6,27.6h668.9v338.7H106.6L106.6,27.6z"/>
	<path class="st0" d="M87,0.5h709.4c8.4,0,15.2,6.8,15.2,15.2v362.6c0,8.4-6.8,15.2-15.2,15.2H87c-8.4,0-15.2-6.8-15.2-15.2V15.7
		C71.8,7.3,78.6,0.5,87,0.5z"/>
	<path class="st0" d="M3.4,399.7l48.8,8.3c2.1,0.3,4.1,0.5,6.2,0.5h762.3c2,0,4-0.2,5.9-0.5l52-8.3"/>
	<path class="st0" d="M3.6,393.5h874.9c1.7,0,3.1,1.4,3.1,3.1v0c0,1.7-1.4,3.1-3.1,3.1H3.6c-1.7,0-3.1-1.4-3.1-3.1v0
		C0.5,394.9,1.9,393.5,3.6,393.5z"/>
</g>
</svg>
