<?xml version="1.0" encoding="utf-8"?>
<!-- Generator: Adobe Illustrator 23.0.3, SVG Export Plug-In . SVG Version: 6.00 Build 0)  -->
<svg version="1.1" id="Layer_1" xmlns="http://www.w3.org/2000/svg" xmlns:xlink="http://www.w3.org/1999/xlink" x="0px" y="0px"
	 viewBox="0 0 192 189.7" style="enable-background:new 0 0 192 189.7;" xml:space="preserve">
<style type="text/css">
	.st0{fill:#F9F9F9;}
	.st1{fill-rule:evenodd;clip-rule:evenodd;fill:#E56369;}
	.st2{fill:url(#SVGID_1_);}
	.st3{fill:url(#SVGID_2_);}
	.st4{fill:url(#SVGID_3_);}
	.st5{opacity:0.2;}
	.st6{fill:none;stroke:#A5A3A4;stroke-width:0.2108;stroke-miterlimit:10;}
	.st7{fill:url(#SVGID_4_);}
	.st8{opacity:0.1;fill:none;stroke:url(#SVGID_5_);stroke-width:0.2777;stroke-miterlimit:10;enable-background:new    ;}
	.st9{opacity:0.4;fill:none;stroke:#606161;stroke-width:0.2777;stroke-miterlimit:10;enable-background:new    ;}
	.st10{fill:none;stroke:url(#SVGID_6_);stroke-width:0.2777;stroke-miterlimit:10;}
	.st11{fill:none;stroke:url(#SVGID_7_);stroke-width:0.2777;stroke-miterlimit:10;}
</style>
<g>
	
		<image style="overflow:visible;opacity:0.2;" width="234" height="234" xlink:href="394E3B6E.png"  transform="matrix(1 0 0 1 -20.8967 -21.9422)">
	</image>
	<g>
		<circle class="st0" cx="95.9" cy="95" r="85.8"/>
	</g>
</g>
<g>
	<path class="st1" d="M147.5,126.6c0,1.4-1.1,2.5-2.5,2.5c-1.4,0-2.5-1.1-2.5-2.5c0-1.4,1.1-2.5,2.5-2.5
		C146.4,124,147.5,125.2,147.5,126.6z"/>
	
		<linearGradient id="SVGID_1_" gradientUnits="userSpaceOnUse" x1="78.0486" y1="108.7259" x2="147.4555" y2="108.7259" gradientTransform="matrix(1 0 0 -1 0 188.9305)">
		<stop  offset="0" style="stop-color:#00AEEF"/>
		<stop  offset="1" style="stop-color:#229D69"/>
	</linearGradient>
	<path class="st2" d="M128.1,68.8c-8.2-2-16-1-23.3,3.3C97.6,76.4,93,82.8,90.4,90.8v1.8c4.8,0,9.6,0,14.4,0
		c0.1-0.2,0.1-0.3,0.2-0.4c3-6.6,8.1-10.3,15.4-10.3c7.2-0.1,12.3,3.5,15.4,10l11.7-10.1C145,77.2,141,72,128.1,68.8z"/>
	
		<linearGradient id="SVGID_2_" gradientUnits="userSpaceOnUse" x1="78.0605" y1="72.1289" x2="150.3856" y2="72.1289" gradientTransform="matrix(1 0 0 -1 0 188.9305)">
		<stop  offset="0" style="stop-color:#00AEEF"/>
		<stop  offset="1" style="stop-color:#229D69"/>
	</linearGradient>
	<path class="st3" d="M90.4,106c4.3,16.2,20.2,25.8,36.4,22.6c11.8-2.4,23.7-14.5,23.6-24.1c-4.8,0-9.5,0-14.2,0
		c-2.8,6.2-7.4,10.1-14.2,10.6c-8.2,0.6-13.8-3.4-17.2-10.6c-4.8,0-9.5,0-14.3,0"/>
	
		<linearGradient id="SVGID_3_" gradientUnits="userSpaceOnUse" x1="42.4964" y1="90.8007" x2="61.7807" y2="90.2163" gradientTransform="matrix(1 0 0 -1 0 188.9305)">
		<stop  offset="0" style="stop-color:#00AEEF"/>
		<stop  offset="1" style="stop-color:#229D69"/>
	</linearGradient>
	<path class="st4" d="M45.6,67.7c0,20.5,0,40.8,0,61.3c3,0,6,0,9.1,0V67.7C51.7,67.7,48.7,67.7,45.6,67.7z"/>
	<g class="st5">
		
			<image style="overflow:visible;enable-background:new    ;" width="308" height="454" xlink:href="394E3B61.png"  transform="matrix(9.980369e-02 0 0 9.980369e-02 76.7305 75.6765)">
		</image>
	</g>
	<g class="st5">
		<g>
			<line class="st6" x1="92.6" y1="90.9" x2="92.6" y2="106.1"/>
		</g>
	</g>
	<g class="st5">
		<g>
			<line class="st6" x1="93.7" y1="90.9" x2="93.7" y2="106.1"/>
		</g>
	</g>
	<g class="st5">
		<g>
			<line class="st6" x1="94.8" y1="90.9" x2="94.8" y2="106.1"/>
		</g>
	</g>
	<g class="st5">
		<g>
			<line class="st6" x1="90.4" y1="91" x2="90.4" y2="106.2"/>
		</g>
	</g>
	<g class="st5">
		<g>
			<line class="st6" x1="91" y1="90.9" x2="91" y2="106.1"/>
		</g>
	</g>
	<g class="st5">
		<g>
			<line class="st6" x1="91.5" y1="90.9" x2="91.5" y2="106.1"/>
		</g>
	</g>
	<g class="st5">
		<g>
			<line class="st6" x1="93.2" y1="90.9" x2="93.2" y2="106.1"/>
		</g>
	</g>
	<g class="st5">
		<g>
			<line class="st6" x1="94.3" y1="90.9" x2="94.3" y2="106.1"/>
		</g>
	</g>
	<g class="st5">
		<g>
			<line class="st6" x1="95.4" y1="90.9" x2="95.4" y2="106.1"/>
		</g>
	</g>
	<g class="st5">
		<g>
			<line class="st6" x1="95.9" y1="90.9" x2="95.9" y2="106.1"/>
		</g>
	</g>
	<g class="st5">
		<g>
			<line class="st6" x1="96.5" y1="90.9" x2="96.5" y2="106.1"/>
		</g>
	</g>
	<g class="st5">
		<g>
			<line class="st6" x1="97" y1="90.9" x2="97" y2="106.1"/>
		</g>
	</g>
	<g class="st5">
		<g>
			<line class="st6" x1="97.6" y1="90.9" x2="97.6" y2="106.1"/>
		</g>
	</g>
	<g class="st5">
		<g>
			<line class="st6" x1="98.1" y1="90.9" x2="98.1" y2="106.1"/>
		</g>
	</g>
	<g class="st5">
		<g>
			<line class="st6" x1="98.7" y1="90.9" x2="98.7" y2="106.1"/>
		</g>
	</g>
	<g class="st5">
		<g>
			<line class="st6" x1="99.2" y1="90.9" x2="99.2" y2="106.1"/>
		</g>
	</g>
	<g class="st5">
		<g>
			<line class="st6" x1="99.7" y1="90.9" x2="99.8" y2="106.1"/>
		</g>
	</g>
	<g class="st5">
		<g>
			<line class="st6" x1="100.3" y1="90.9" x2="100.3" y2="106.1"/>
		</g>
	</g>
	<g class="st5">
		<g>
			<line class="st6" x1="100.8" y1="90.9" x2="100.9" y2="106.1"/>
		</g>
	</g>
	<g class="st5">
		<g>
			<line class="st6" x1="101.4" y1="90.9" x2="101.4" y2="106.1"/>
		</g>
	</g>
	<g class="st5">
		<g>
			<line class="st6" x1="101.9" y1="90.9" x2="102" y2="106.1"/>
		</g>
	</g>
	<g class="st5">
		<g>
			<line class="st6" x1="102.5" y1="90.9" x2="102.5" y2="106.1"/>
		</g>
	</g>
	<g class="st5">
		<g>
			<line class="st6" x1="103" y1="90.9" x2="103" y2="106.1"/>
		</g>
	</g>
	<g class="st5">
		<g>
			<line class="st6" x1="103.6" y1="90.9" x2="103.6" y2="106.1"/>
		</g>
	</g>
	<g class="st5">
		<g>
			<line class="st6" x1="104.1" y1="90.9" x2="104.1" y2="106.1"/>
		</g>
	</g>
	<g class="st5">
		<g>
			<line class="st6" x1="104.7" y1="90.9" x2="104.7" y2="106.1"/>
		</g>
	</g>
	
		<linearGradient id="SVGID_4_" gradientUnits="userSpaceOnUse" x1="58.4874" y1="90.788" x2="86.9267" y2="90.788" gradientTransform="matrix(1 0 0 -1 0 188.9305)">
		<stop  offset="0" style="stop-color:#00AEEF"/>
		<stop  offset="1" style="stop-color:#229D69"/>
	</linearGradient>
	<path class="st7" d="M87.3,76.9c0-3.1,0-6.1,0-9.1c-8.1,0-16.2,0-24.2,0c0,0,0,0,0,0c-0.2,0-0.3,0-0.5,0c0,20.3,0,40.2,0,60.2
		c0.1,0.1,0.2,0.3,0.3,0.3c2.9,0,5.8,0,8.8,0v-4.5c0,0.1,0,0.1,0,0.2c0-6.7,0-13.4,0-20.1c4,0,7.9,0,11.9,0c0-3.1,0-6.1,0-9.1
		c-4,0-7.9,0-11.9,0c0-6,0-12,0-18.1C76.8,76.9,82.1,76.9,87.3,76.9z"/>
	<g>
		
			<linearGradient id="SVGID_5_" gradientUnits="userSpaceOnUse" x1="111.8258" y1="164.337" x2="129.4982" y2="164.337" gradientTransform="matrix(0.7071 -0.7071 -0.7071 -0.7071 151.8956 300.091)">
			<stop  offset="0" style="stop-color:#00AEEF"/>
			<stop  offset="1" style="stop-color:#229D69"/>
		</linearGradient>
		
			<rect x="114.9" y="92.5" transform="matrix(0.7071 -0.7071 0.7071 0.7071 -34.254 114.4393)" class="st8" width="12.2" height="12.2"/>
		<path class="st9" d="M123.9,98.6c0,1.6-1.3,2.9-2.9,2.9c-1.6,0-2.9-1.3-2.9-2.9c0-1.6,1.3-2.9,2.9-2.9S123.9,97,123.9,98.6z"/>
		
			<linearGradient id="SVGID_6_" gradientUnits="userSpaceOnUse" x1="115.9861" y1="90.3589" x2="125.9579" y2="90.3589" gradientTransform="matrix(1 0 0 -1 0 188.9305)">
			<stop  offset="0" style="stop-color:#00AEEF"/>
			<stop  offset="1" style="stop-color:#229D69"/>
		</linearGradient>
		<line class="st10" x1="116" y1="98.6" x2="126" y2="98.6"/>
		
			<linearGradient id="SVGID_7_" gradientUnits="userSpaceOnUse" x1="120.8314" y1="90.361" x2="121.1099" y2="90.361" gradientTransform="matrix(1 0 0 -1 0 188.9305)">
			<stop  offset="0" style="stop-color:#00AEEF"/>
			<stop  offset="1" style="stop-color:#229D69"/>
		</linearGradient>
		<line class="st11" x1="121" y1="93.6" x2="121" y2="103.6"/>
	</g>
</g>
</svg>
