<?xml version="1.0" encoding="utf-8"?>
<!-- Generator: Adobe Illustrator 23.0.3, SVG Export Plug-In . SVG Version: 6.00 Build 0)  -->
<svg version="1.1" id="Layer_1" xmlns="http://www.w3.org/2000/svg" xmlns:xlink="http://www.w3.org/1999/xlink" x="0px" y="0px"
	 viewBox="0 0 1489 283.5" style="enable-background:new 0 0 1489 283.5;" xml:space="preserve">
<style type="text/css">
	.st0{fill:#FAA324;}
	.st1{fill:#FAA324;stroke:#FFFFFF;stroke-width:1.9472;stroke-miterlimit:10;}
	.st2{fill:#676767;stroke:#FFFFFF;stroke-width:1.9472;stroke-miterlimit:10;}
	.st3{fill:#676767;}
	.st4{fill:#333333;}
	.st5{fill:#F29E23;}
	.st6{fill-rule:evenodd;clip-rule:evenodd;fill:#F29E23;}
	.st7{fill-rule:evenodd;clip-rule:evenodd;fill:#333333;}
	.st8{enable-background:new    ;}
</style>
<g id="Layer_3">
</g>
<g>
	<g>
		<rect x="236.5" y="45.7" class="st0" width="105.4" height="23.9"/>
		<polygon class="st0" points="317.3,74.4 377.5,125.9 375.3,139.2 343.3,113.8 343.3,195.9 316.9,195.9 316.9,116 		"/>
		<path class="st1" d="M351.9,50.6c4,9.8-0.8,21-10.7,24.9c-9.8,4-21-0.8-24.9-10.7c-4-9.8,0.8-21,10.6-24.9
			C336.8,36,347.9,40.7,351.9,50.6z"/>
		<path class="st2" d="M407.4,57.9c0,10.6,8.6,19.1,19.1,19.1s19.1-8.6,19.1-19.1s-8.6-19.1-19.1-19.1S407.4,47.3,407.4,57.9z"/>
		<polygon class="st3" points="441,74.4 380.7,125.9 383.2,139.2 415.3,113.8 415.3,195.9 441.5,195.9 441.5,116 		"/>
		<rect x="176.9" y="83" class="st0" width="25.6" height="112.1"/>
		<path class="st0" d="M206.7,50.6c4,9.8-0.8,21-10.6,24.9c-9.8,4-21-0.8-24.9-10.6c-4-9.8,0.8-21,10.6-24.9
			C191.5,36,202.7,40.7,206.7,50.6z"/>
		<rect x="221.2" y="45.7" class="st0" width="25" height="148.8"/>
		<rect x="224" y="104.4" class="st0" width="70.1" height="16.7"/>
	</g>
</g>
<g>
	<g>
		<path class="st4" d="M996.1,216.8c-0.1-0.1-0.4-0.3-0.7-0.4c-0.3-0.1-0.5-0.3-0.8-0.4c-0.3-0.1-0.7-0.1-0.9-0.3
			c-0.3-0.1-0.7-0.1-1.1-0.1c-0.9,0-1.9,0.1-2.7,0.5s-1.5,0.8-2,1.5s-0.9,1.4-1.4,2.2c-0.3,0.8-0.4,1.8-0.4,2.7c0,0.8,0.1,1.5,0.3,2
			s0.5,1.1,0.9,1.5s0.9,0.7,1.5,0.9c0.5,0.3,1.2,0.3,1.9,0.3c0.4,0,0.8,0,1.2-0.1c0.4,0,0.7-0.1,0.9-0.3c0.3-0.1,0.5-0.1,0.8-0.3
			c0.3-0.1,0.5-0.3,0.8-0.4l-0.4,1.8c-0.5,0.3-1.1,0.4-1.8,0.5s-1.4,0.1-2,0.1c-0.9,0-1.8-0.1-2.4-0.4s-1.4-0.7-1.9-1.2
			s-0.9-1.2-1.2-2s-0.4-1.6-0.4-2.6c0-1.2,0.1-2.4,0.5-3.4c0.4-1.1,0.9-1.9,1.6-2.7c0.7-0.8,1.6-1.4,2.6-1.8s2.2-0.7,3.4-0.7
			c0.8,0,1.6,0.1,2.3,0.3c0.7,0.1,1.2,0.4,1.6,0.7L996.1,216.8z"/>
		<path class="st4" d="M1000.1,228.6c-0.1,0-0.4,0.1-0.5,0.1c-0.3,0-0.4,0-0.7,0c-0.7,0-1.2-0.1-1.5-0.5c-0.3-0.3-0.5-0.8-0.5-1.4
			c0-0.1,0-0.4,0-0.5c0-0.3,0.1-0.5,0.1-0.8l2.6-11.9h1.6l-2.6,11.9c0,0.3-0.1,0.5-0.1,0.7s0,0.3,0,0.4c0,0.3,0.1,0.5,0.3,0.7
			c0.1,0.1,0.4,0.3,0.7,0.3c0.1,0,0.3,0,0.4,0s0.3,0,0.4-0.1L1000.1,228.6z"/>
		<path class="st4" d="M1011.3,222.2c0,0.9-0.1,1.8-0.4,2.6c-0.3,0.8-0.7,1.5-1.1,2.2c-0.5,0.5-1.1,1.1-1.8,1.5s-1.5,0.5-2.3,0.5
			c-0.5,0-1.1-0.1-1.6-0.3c-0.5-0.1-0.8-0.4-1.2-0.8c-0.3-0.4-0.5-0.8-0.8-1.2c-0.1-0.5-0.3-1.1-0.3-1.6c0-0.9,0.1-1.8,0.4-2.6
			c0.3-0.8,0.7-1.5,1.1-2.2c0.5-0.5,1.1-1.1,1.8-1.4c0.7-0.4,1.5-0.5,2.3-0.5c0.5,0,1.1,0.1,1.6,0.3c0.5,0.1,0.8,0.4,1.2,0.8
			c0.3,0.4,0.5,0.8,0.8,1.2S1011.3,221.7,1011.3,222.2z M1009.7,222.4c0-0.4,0-0.8-0.1-1.1s-0.3-0.7-0.4-0.8
			c-0.1-0.3-0.4-0.4-0.7-0.5s-0.5-0.1-0.9-0.1c-0.5,0-1.1,0.1-1.6,0.4s-0.8,0.7-1.2,1.2c-0.3,0.5-0.5,1.1-0.8,1.6s-0.3,1.2-0.3,1.9
			c0,0.4,0,0.8,0.1,1.1s0.3,0.7,0.4,0.8c0.1,0.3,0.4,0.4,0.7,0.5s0.5,0.1,0.9,0.1c0.5,0,1.1-0.1,1.6-0.4c0.5-0.3,0.8-0.7,1.2-1.2
			c0.3-0.5,0.5-1.1,0.8-1.6C1009.6,223.6,1009.7,223,1009.7,222.4z"/>
		<path class="st4" d="M1021.3,225.7c0,0.3-0.1,0.5-0.1,0.8s-0.1,0.5-0.1,0.8s-0.1,0.5-0.1,0.7s0,0.4-0.1,0.5h-1.6
			c0-0.3,0.1-0.5,0.1-0.8s0.1-0.5,0.1-0.8s0.1-0.5,0.1-0.8l0,0c-0.3,0.4-0.5,0.7-0.8,1.1c-0.3,0.3-0.5,0.5-0.9,0.8
			c-0.3,0.3-0.7,0.4-1.1,0.5c-0.4,0.1-0.8,0.3-1.1,0.3c-0.4,0-0.8-0.1-1.1-0.1c-0.3-0.1-0.5-0.3-0.8-0.5s-0.4-0.5-0.5-0.9
			s-0.1-0.7-0.1-1.2c0-0.1,0-0.3,0-0.4s0-0.4,0.1-0.5s0.1-0.4,0.1-0.5s0.1-0.4,0.1-0.5l1.2-5.5h1.6l-1.2,5.9c0,0.1,0,0.3-0.1,0.4
			s0,0.3-0.1,0.4c0,0.1,0,0.3,0,0.4c0,0.1,0,0.3,0,0.3c0,0.5,0.1,0.9,0.4,1.2c0.3,0.3,0.5,0.4,1.1,0.4c0.3,0,0.5,0,0.8-0.1
			s0.5-0.3,0.8-0.5c0.3-0.1,0.5-0.4,0.8-0.7s0.4-0.5,0.7-0.8c0.1-0.3,0.4-0.7,0.5-0.9s0.3-0.7,0.3-0.9l1.1-5h1.6L1021.3,225.7z"/>
		<path class="st4" d="M1032.4,225.6c0,0.3-0.1,0.4-0.1,0.8c0,0.3-0.1,0.5-0.1,0.9s0,0.5-0.1,0.8c0,0.3,0,0.4,0,0.7h-1.6
			c0-0.1,0-0.3,0-0.4s0-0.4,0-0.5c0-0.3,0-0.4,0.1-0.5c0-0.1,0-0.4,0.1-0.4l0,0c-0.3,0.4-0.5,0.7-0.7,1.1c-0.3,0.3-0.5,0.5-0.8,0.7
			c-0.3,0.1-0.5,0.4-0.8,0.4c-0.3,0.1-0.7,0.1-0.9,0.1c-0.4,0-0.9-0.1-1.2-0.3c-0.3-0.1-0.7-0.4-0.9-0.7s-0.4-0.7-0.5-1.2
			s-0.3-1.1-0.3-1.6s0-0.9,0.1-1.5c0.1-0.5,0.3-1.1,0.5-1.6s0.5-0.9,0.8-1.5c0.3-0.4,0.7-0.8,1.2-1.2s0.9-0.7,1.6-0.8
			c0.5-0.1,1.2-0.3,2-0.3c0.4,0,0.7,0,1.1,0.1c0.3,0,0.5,0.1,0.8,0.1l1.1-4.9h1.6L1032.4,225.6z M1032,219.9
			c-0.3-0.1-0.5-0.1-0.8-0.1s-0.5,0-0.8,0c-0.5,0-1.1,0.1-1.5,0.3c-0.4,0.1-0.8,0.4-1.2,0.7s-0.5,0.7-0.8,1.1
			c-0.3,0.4-0.4,0.8-0.5,1.2s-0.3,0.8-0.3,1.2s-0.1,0.7-0.1,1.1s0,0.7,0.1,0.9c0,0.3,0.1,0.5,0.3,0.8c0.1,0.3,0.3,0.4,0.5,0.5
			c0.3,0.1,0.5,0.1,0.8,0.1s0.7-0.1,0.9-0.3c0.3-0.1,0.5-0.3,0.8-0.5s0.5-0.5,0.7-0.8c0.3-0.3,0.4-0.7,0.5-0.9
			c0.1-0.4,0.3-0.7,0.4-1.1c0.1-0.4,0.3-0.7,0.3-1.1L1032,219.9z"/>
		<path class="st4" d="M1049.8,216.6c-0.1-0.1-0.4-0.3-0.5-0.3s-0.5-0.1-0.7-0.3c-0.1-0.1-0.5-0.1-0.8-0.1s-0.5-0.1-0.8-0.1
			c-0.5,0-0.9,0.1-1.4,0.3c-0.4,0.1-0.7,0.4-0.8,0.5c-0.3,0.3-0.4,0.5-0.4,0.8s-0.1,0.5-0.1,0.8s0,0.5,0.1,0.8s0.3,0.5,0.4,0.7
			c0.1,0.3,0.4,0.4,0.7,0.7s0.5,0.5,0.9,0.7c0.4,0.3,0.8,0.5,1.1,0.9c0.3,0.3,0.5,0.5,0.8,0.9c0.3,0.3,0.4,0.7,0.5,0.9
			c0.1,0.3,0.1,0.7,0.1,1.1c0,0.3,0,0.5-0.1,0.8c0,0.3-0.1,0.5-0.3,0.9c-0.1,0.3-0.3,0.5-0.5,0.8c-0.3,0.3-0.5,0.5-0.8,0.8
			s-0.8,0.4-1.2,0.5s-1.1,0.1-1.8,0.1c-0.4,0-0.7,0-1.1-0.1c-0.4,0-0.7-0.1-1.1-0.3c-0.4-0.1-0.7-0.1-0.9-0.3
			c-0.3-0.1-0.5-0.3-0.7-0.3l0.3-1.8c0.3,0.1,0.4,0.3,0.7,0.4s0.5,0.3,0.8,0.4c0.3,0.1,0.7,0.1,0.9,0.3c0.3,0.1,0.7,0.1,0.9,0.1
			c0.5,0,0.9,0,1.4-0.1c0.4-0.1,0.7-0.3,0.9-0.5s0.4-0.4,0.5-0.7s0.1-0.5,0.1-0.9c0-0.3,0-0.5-0.1-0.8s-0.3-0.4-0.4-0.7
			s-0.4-0.4-0.7-0.7s-0.7-0.5-1.1-0.8c-0.3-0.3-0.7-0.5-0.9-0.8c-0.3-0.3-0.5-0.5-0.8-0.8s-0.4-0.7-0.5-1.1s-0.1-0.8-0.1-1.2
			c0-0.5,0.1-1.1,0.3-1.5c0.1-0.5,0.5-0.9,0.9-1.2c0.4-0.4,0.9-0.7,1.5-0.8c0.5-0.3,1.2-0.3,2-0.3c0.3,0,0.5,0,0.9,0
			c0.3,0,0.5,0.1,0.8,0.1s0.5,0.1,0.8,0.3c0.3,0.1,0.4,0.1,0.7,0.3L1049.8,216.6z"/>
		<path class="st4" d="M1057,219.9h-2.6l-1.1,5.4c0,0.3-0.1,0.4-0.1,0.7s0,0.4,0,0.5c0,0.3,0.1,0.5,0.3,0.7s0.4,0.3,0.7,0.3
			c0.1,0,0.1,0,0.3,0s0.3,0,0.4-0.1c0.1,0,0.3-0.1,0.4-0.1s0.3-0.1,0.4-0.1l-0.3,1.5c-0.3,0.1-0.5,0.1-0.8,0.3
			c-0.3,0.1-0.5,0.1-0.8,0.1c-0.4,0-0.7,0-0.9-0.1c-0.3-0.1-0.5-0.3-0.7-0.4s-0.3-0.4-0.4-0.7s-0.1-0.5-0.1-0.8c0-0.1,0-0.4,0-0.7
			s0.1-0.5,0.1-0.7l1.2-5.5h-1.8l0.3-1.4h1.6l0.5-2.4c0,0,0.1,0,0.3-0.1c0.1,0,0.4-0.1,0.5-0.1c0.3,0,0.4-0.1,0.5-0.1
			s0.3-0.1,0.3-0.1l-0.7,3h2.6L1057,219.9z"/>
		<path class="st4" d="M1066.8,222.2c0,0.9-0.1,1.8-0.4,2.6s-0.7,1.5-1.1,2.2c-0.5,0.5-1.1,1.1-1.8,1.5s-1.5,0.5-2.3,0.5
			c-0.5,0-1.1-0.1-1.6-0.3s-0.8-0.4-1.2-0.8c-0.3-0.4-0.5-0.8-0.8-1.2c-0.1-0.5-0.3-1.1-0.3-1.6c0-0.9,0.1-1.8,0.4-2.6
			s0.7-1.5,1.1-2.2c0.5-0.5,1.1-1.1,1.8-1.4c0.7-0.4,1.5-0.5,2.3-0.5c0.5,0,1.1,0.1,1.6,0.3s0.8,0.4,1.2,0.8
			c0.3,0.4,0.5,0.8,0.8,1.2S1066.8,221.7,1066.8,222.2z M1065.2,222.4c0-0.4,0-0.8-0.1-1.1s-0.3-0.7-0.4-0.8
			c-0.1-0.3-0.4-0.4-0.7-0.5c-0.3-0.1-0.5-0.1-0.9-0.1c-0.5,0-1.1,0.1-1.6,0.4s-0.8,0.7-1.2,1.2c-0.3,0.5-0.5,1.1-0.8,1.6
			s-0.3,1.2-0.3,1.9c0,0.4,0,0.8,0.1,1.1s0.3,0.7,0.4,0.8c0.1,0.3,0.4,0.4,0.7,0.5s0.5,0.1,0.9,0.1c0.5,0,1.1-0.1,1.6-0.4
			c0.5-0.3,0.8-0.7,1.2-1.2c0.3-0.5,0.5-1.1,0.8-1.6C1065.1,223.6,1065.2,223,1065.2,222.4z"/>
		<path class="st4" d="M1075.2,220.2L1075.2,220.2c-0.1-0.1-0.4-0.1-0.5-0.3c-0.3-0.1-0.4-0.1-0.7-0.1c-0.4,0-0.8,0.1-1.1,0.4
			c-0.3,0.3-0.7,0.5-0.9,0.9s-0.5,0.8-0.8,1.4s-0.4,1.1-0.5,1.6l-0.9,4.5h-1.6l1.5-6.8c0-0.3,0.1-0.5,0.1-0.8s0.1-0.7,0.1-0.9
			s0.1-0.5,0.1-0.8s0.1-0.5,0.1-0.8h1.6c0,0.1,0,0.4-0.1,0.7s0,0.4-0.1,0.7c0,0.3,0,0.4-0.1,0.5c0,0.1,0,0.3,0,0.4l0,0
			c0.3-0.4,0.4-0.7,0.7-1.1c0.3-0.4,0.4-0.5,0.7-0.8c0.3-0.3,0.5-0.4,0.8-0.5s0.5-0.1,0.9-0.1c0.1,0,0.4,0,0.5,0s0.4,0.1,0.5,0.1
			L1075.2,220.2z"/>
		<path class="st4" d="M1083.7,225.5c0,0.3-0.1,0.5-0.1,0.8s-0.1,0.7-0.1,0.9s0,0.5-0.1,0.8c0,0.3,0,0.4,0,0.7h-1.6
			c0-0.1,0-0.3,0-0.5s0-0.4,0-0.5s0-0.4,0.1-0.5c0-0.1,0-0.4,0.1-0.5l0,0c-0.3,0.3-0.4,0.7-0.7,0.9s-0.4,0.5-0.7,0.8
			c-0.3,0.3-0.5,0.4-0.8,0.5s-0.7,0.1-1.1,0.1s-0.8-0.1-1.2-0.3c-0.4-0.1-0.7-0.4-0.9-0.7s-0.4-0.7-0.7-1.2
			c-0.1-0.5-0.3-1.1-0.3-1.6c0-0.4,0-0.8,0.1-1.4c0.1-0.5,0.3-0.9,0.4-1.5c0.1-0.5,0.4-0.9,0.8-1.5c0.3-0.5,0.7-0.9,1.2-1.4
			c0.4-0.4,1.1-0.7,1.6-0.9c0.7-0.3,1.4-0.4,2.2-0.4c0.5,0,1.1,0,1.6,0.1s1.1,0.1,1.6,0.3L1083.7,225.5z M1083.2,219.8
			c-0.3,0-0.5-0.1-0.8-0.1s-0.5,0-0.8,0c-0.5,0-1.1,0.1-1.5,0.3c-0.4,0.1-0.8,0.4-1.1,0.7c-0.3,0.3-0.5,0.7-0.8,1.1
			s-0.4,0.8-0.5,1.2s-0.3,0.8-0.3,1.2s-0.1,0.7-0.1,1.1s0,0.7,0.1,1.1c0,0.3,0.1,0.5,0.3,0.8s0.3,0.4,0.5,0.5
			c0.3,0.1,0.5,0.1,0.8,0.1s0.7,0,0.9-0.1s0.5-0.3,0.8-0.5s0.5-0.5,0.7-0.8c0.3-0.3,0.4-0.7,0.5-0.9c0.1-0.4,0.3-0.7,0.4-1.1
			s0.3-0.7,0.3-1.1L1083.2,219.8z"/>
		<path class="st4" d="M1094.1,227.9c-0.1,0.8-0.4,1.5-0.7,2.2c-0.3,0.7-0.7,1.2-1.1,1.8c-0.4,0.5-0.9,0.8-1.6,1.2s-1.5,0.4-2.4,0.4
			c-0.7,0-1.2-0.1-1.8-0.3c-0.5-0.1-0.9-0.3-1.3-0.5l0.3-1.5c0.4,0.3,0.8,0.4,1.3,0.7s0.9,0.3,1.5,0.3s1.1-0.1,1.5-0.3
			c0.4-0.1,0.8-0.4,1.1-0.8c0.3-0.3,0.5-0.7,0.8-1.2s0.4-1.1,0.5-1.6l0.4-1.6l0,0c-0.3,0.4-0.5,0.8-0.7,1.1
			c-0.3,0.3-0.5,0.5-0.8,0.7s-0.5,0.4-0.8,0.4c-0.3,0.1-0.7,0.1-0.9,0.1c-0.4,0-0.8-0.1-1.2-0.3c-0.4-0.1-0.7-0.4-0.9-0.7
			s-0.4-0.7-0.5-1.2s-0.3-1.1-0.3-1.6s0-1.2,0.1-1.8c0.1-0.5,0.3-1.1,0.5-1.6s0.5-0.9,0.9-1.4c0.4-0.4,0.8-0.8,1.2-1.1
			s0.9-0.5,1.5-0.7c0.5-0.1,1.1-0.3,1.8-0.3s1.2,0,1.9,0.1c0.7,0.1,1.2,0.1,1.8,0.3L1094.1,227.9z M1094.2,219.8
			c-0.3,0-0.5-0.1-0.8-0.1s-0.7,0-1.1,0c-0.7,0-1.2,0.1-1.8,0.4s-0.9,0.7-1.3,1.2s-0.7,1.1-0.8,1.8c-0.3,0.7-0.3,1.4-0.3,2
			c0,0.4,0,0.7,0.1,0.9c0,0.3,0.1,0.5,0.3,0.8s0.3,0.4,0.5,0.5c0.3,0.1,0.5,0.1,0.8,0.1c0.4,0,0.7-0.1,0.9-0.3
			c0.3-0.1,0.5-0.4,0.8-0.5c0.3-0.3,0.5-0.5,0.7-0.8c0.1-0.3,0.4-0.7,0.5-0.9c0.1-0.3,0.3-0.7,0.4-0.9c0.1-0.3,0.1-0.7,0.3-0.9
			L1094.2,219.8z"/>
		<path class="st4" d="M1106.2,220.9c0,0.5-0.1,1.1-0.4,1.5s-0.7,0.8-1.2,1.1s-1.2,0.5-2.2,0.7s-2,0.3-3.4,0.3c0,0.1,0,0.1,0,0.3
			c0,0.1,0,0.1,0,0.1c0,0.4,0,0.7,0.1,0.9s0.3,0.5,0.4,0.8s0.5,0.4,0.8,0.5s0.7,0.3,1.2,0.3c0.4,0,0.9-0.1,1.5-0.3
			c0.5-0.1,1.1-0.4,1.6-0.8l-0.3,1.6c-0.4,0.3-0.8,0.4-1.4,0.5c-0.5,0.1-1.1,0.3-1.6,0.3c-0.8,0-1.3-0.1-1.9-0.4s-0.9-0.5-1.2-0.9
			s-0.5-0.8-0.7-1.4c-0.1-0.5-0.3-1.1-0.3-1.6s0-1.2,0.1-1.8c0.1-0.5,0.3-1.1,0.5-1.5c0.3-0.5,0.5-0.9,0.8-1.4s0.7-0.7,1.1-0.9
			c0.4-0.3,0.8-0.5,1.3-0.7c0.4-0.1,0.9-0.3,1.5-0.3s0.9,0.1,1.3,0.3c0.4,0.1,0.7,0.3,0.9,0.5s0.4,0.5,0.7,0.8
			C1106.1,220.2,1106.2,220.6,1106.2,220.9z M1104.6,221c0-0.4-0.1-0.7-0.4-0.9s-0.7-0.4-1.2-0.4c-0.4,0-0.8,0.1-1.2,0.3
			c-0.4,0.1-0.7,0.4-1.1,0.7c-0.3,0.3-0.5,0.7-0.8,1.1s-0.4,0.9-0.5,1.4c0.9,0,1.8,0,2.4-0.1c0.7-0.1,1.2-0.3,1.6-0.4
			s0.7-0.4,0.9-0.7C1104.5,221.6,1104.6,221.3,1104.6,221z"/>
		<path class="st4" d="M1122,216.6c-0.1-0.1-0.4-0.3-0.5-0.3s-0.5-0.1-0.7-0.3c-0.1-0.1-0.5-0.1-0.8-0.1s-0.5-0.1-0.8-0.1
			c-0.5,0-0.9,0.1-1.4,0.3c-0.4,0.1-0.7,0.4-0.8,0.5c-0.3,0.3-0.4,0.5-0.4,0.8s-0.1,0.5-0.1,0.8s0,0.5,0.1,0.8s0.3,0.5,0.4,0.7
			c0.1,0.3,0.4,0.4,0.7,0.7s0.5,0.5,0.9,0.7c0.4,0.3,0.8,0.5,1.1,0.9c0.3,0.3,0.5,0.5,0.8,0.9c0.3,0.3,0.4,0.7,0.5,0.9
			c0.1,0.3,0.1,0.7,0.1,1.1c0,0.3,0,0.5-0.1,0.8c0,0.3-0.1,0.5-0.3,0.9c-0.1,0.3-0.3,0.5-0.5,0.8c-0.3,0.3-0.5,0.5-0.8,0.8
			s-0.8,0.4-1.2,0.5s-1.1,0.1-1.8,0.1c-0.4,0-0.7,0-1.1-0.1c-0.4,0-0.7-0.1-1.1-0.3c-0.4-0.1-0.7-0.1-0.9-0.3
			c-0.3-0.1-0.5-0.3-0.7-0.3l0.3-1.8c0.3,0.1,0.4,0.3,0.7,0.4s0.5,0.3,0.8,0.4c0.3,0.1,0.7,0.1,0.9,0.3c0.3,0.1,0.7,0.1,0.9,0.1
			c0.5,0,0.9,0,1.4-0.1c0.4-0.1,0.7-0.3,0.9-0.5s0.4-0.4,0.5-0.7s0.1-0.5,0.1-0.9c0-0.3,0-0.5-0.1-0.8s-0.3-0.4-0.4-0.7
			s-0.4-0.4-0.7-0.7s-0.7-0.5-1.1-0.8c-0.3-0.3-0.7-0.5-0.9-0.8c-0.3-0.3-0.5-0.5-0.8-0.8s-0.4-0.7-0.5-1.1s-0.1-0.8-0.1-1.2
			c0-0.5,0.1-1.1,0.3-1.5c0.1-0.5,0.5-0.9,0.9-1.2c0.4-0.4,0.9-0.7,1.5-0.8c0.5-0.3,1.2-0.3,2-0.3c0.3,0,0.5,0,0.9,0
			c0.3,0,0.5,0.1,0.8,0.1s0.5,0.1,0.8,0.3c0.3,0.1,0.4,0.1,0.7,0.3L1122,216.6z"/>
		<path class="st4" d="M1132.4,222.2c0,0.9-0.1,1.8-0.4,2.6s-0.7,1.5-1.1,2.2c-0.5,0.5-1.1,1.1-1.8,1.5s-1.5,0.5-2.3,0.5
			c-0.5,0-1.1-0.1-1.6-0.3s-0.8-0.4-1.2-0.8c-0.3-0.4-0.5-0.8-0.8-1.2c-0.1-0.5-0.3-1.1-0.3-1.6c0-0.9,0.1-1.8,0.4-2.6
			s0.7-1.5,1.1-2.2c0.5-0.5,1.1-1.1,1.8-1.4c0.7-0.4,1.5-0.5,2.3-0.5c0.5,0,1.1,0.1,1.6,0.3s0.8,0.4,1.2,0.8
			c0.3,0.4,0.5,0.8,0.8,1.2S1132.4,221.7,1132.4,222.2z M1130.7,222.4c0-0.4,0-0.8-0.1-1.1s-0.3-0.7-0.4-0.8
			c-0.1-0.3-0.4-0.4-0.7-0.5c-0.3-0.1-0.5-0.1-0.9-0.1c-0.5,0-1.1,0.1-1.6,0.4s-0.8,0.7-1.2,1.2c-0.3,0.5-0.5,1.1-0.8,1.6
			s-0.3,1.2-0.3,1.9c0,0.4,0,0.8,0.1,1.1s0.3,0.7,0.4,0.8c0.1,0.3,0.4,0.4,0.7,0.5s0.5,0.1,0.9,0.1c0.5,0,1.1-0.1,1.6-0.4
			s0.8-0.7,1.2-1.2c0.3-0.5,0.5-1.1,0.8-1.6C1130.7,223.6,1130.7,223,1130.7,222.4z"/>
		<path class="st4" d="M1137.3,228.6c-0.1,0-0.4,0.1-0.5,0.1c-0.3,0-0.4,0-0.7,0c-0.7,0-1.2-0.1-1.5-0.5c-0.3-0.3-0.5-0.8-0.5-1.4
			c0-0.1,0-0.4,0-0.5c0-0.3,0.1-0.5,0.1-0.8l2.6-11.9h1.6l-2.6,11.9c0,0.3-0.1,0.5-0.1,0.7s0,0.3,0,0.4c0,0.3,0.1,0.5,0.3,0.7
			c0.1,0.1,0.4,0.3,0.7,0.3c0.1,0,0.3,0,0.4,0s0.3,0,0.4-0.1L1137.3,228.6z"/>
		<path class="st4" d="M1147.7,225.7c0,0.3-0.1,0.5-0.1,0.8s-0.1,0.5-0.1,0.8s-0.1,0.5-0.1,0.7s0,0.4-0.1,0.5h-1.6
			c0-0.3,0.1-0.5,0.1-0.8s0.1-0.5,0.1-0.8s0.1-0.5,0.1-0.8l0,0c-0.3,0.4-0.5,0.7-0.8,1.1c-0.3,0.3-0.5,0.5-0.9,0.8
			c-0.3,0.3-0.7,0.4-1.1,0.5s-0.8,0.3-1.1,0.3c-0.4,0-0.8-0.1-1.1-0.1c-0.3-0.1-0.5-0.3-0.8-0.5s-0.4-0.5-0.5-0.9s-0.1-0.7-0.1-1.2
			c0-0.1,0-0.3,0-0.4s0-0.4,0.1-0.5s0.1-0.4,0.1-0.5s0.1-0.4,0.1-0.5l1.2-5.5h1.6l-1.2,5.9c0,0.1,0,0.3-0.1,0.4s0,0.3-0.1,0.4
			c0,0.1,0,0.3,0,0.4c0,0.1,0,0.3,0,0.3c0,0.5,0.1,0.9,0.4,1.2s0.5,0.4,1.1,0.4c0.3,0,0.5,0,0.8-0.1s0.5-0.3,0.8-0.5
			c0.3-0.1,0.5-0.4,0.8-0.7s0.4-0.5,0.7-0.8c0.1-0.3,0.4-0.7,0.5-0.9s0.3-0.7,0.3-0.9l1.1-5h1.6L1147.7,225.7z"/>
		<path class="st4" d="M1156.6,219.9h-2.6l-1.1,5.4c0,0.3-0.1,0.4-0.1,0.7s0,0.4,0,0.5c0,0.3,0.1,0.5,0.3,0.7s0.4,0.3,0.7,0.3
			c0.1,0,0.1,0,0.3,0s0.3,0,0.4-0.1c0.1,0,0.3-0.1,0.4-0.1s0.3-0.1,0.4-0.1l-0.3,1.5c-0.3,0.1-0.5,0.1-0.8,0.3
			c-0.3,0.1-0.5,0.1-0.8,0.1c-0.4,0-0.7,0-0.9-0.1s-0.5-0.3-0.7-0.4s-0.3-0.4-0.4-0.7s-0.1-0.5-0.1-0.8c0-0.1,0-0.4,0-0.7
			s0.1-0.5,0.1-0.7l1.2-5.5h-1.8l0.3-1.4h1.6l0.5-2.4c0,0,0.1,0,0.3-0.1c0.1,0,0.4-0.1,0.5-0.1c0.3,0,0.4-0.1,0.5-0.1
			s0.3-0.1,0.3-0.1l-0.7,3h2.6L1156.6,219.9z"/>
		<path class="st4" d="M1160.5,228.6c-0.1,0-0.4,0.1-0.5,0.1c-0.3,0-0.4,0-0.7,0c-0.7,0-1.2-0.1-1.5-0.5c-0.3-0.3-0.5-0.8-0.5-1.4
			c0-0.1,0-0.4,0-0.5c0-0.3,0.1-0.5,0.1-0.8l1.5-7h1.6l-1.5,7c0,0.3-0.1,0.5-0.1,0.7s0,0.3,0,0.4c0,0.3,0.1,0.5,0.3,0.7
			c0.1,0.1,0.4,0.3,0.7,0.3c0.1,0,0.3,0,0.4,0s0.3,0,0.4-0.1L1160.5,228.6z M1161.6,214.9c0,0.3-0.1,0.5-0.3,0.8
			c-0.1,0.3-0.4,0.3-0.8,0.3c-0.3,0-0.5-0.1-0.8-0.3c-0.3-0.3-0.3-0.4-0.3-0.8s0.1-0.5,0.3-0.7c0.3-0.1,0.4-0.3,0.8-0.3
			s0.5,0.1,0.8,0.3C1161.5,214.4,1161.6,214.7,1161.6,214.9z"/>
		<path class="st4" d="M1171.7,222.2c0,0.9-0.1,1.8-0.4,2.6s-0.7,1.5-1.1,2.2c-0.5,0.5-1.1,1.1-1.8,1.5c-0.7,0.4-1.5,0.5-2.3,0.5
			c-0.5,0-1.1-0.1-1.6-0.3s-0.8-0.4-1.2-0.8c-0.3-0.4-0.5-0.8-0.8-1.2c-0.1-0.5-0.3-1.1-0.3-1.6c0-0.9,0.1-1.8,0.4-2.6
			s0.7-1.5,1.1-2.2c0.5-0.5,1.1-1.1,1.8-1.4c0.7-0.4,1.5-0.5,2.3-0.5c0.5,0,1.1,0.1,1.6,0.3c0.5,0.1,0.8,0.4,1.2,0.8
			c0.3,0.4,0.5,0.8,0.8,1.2S1171.7,221.7,1171.7,222.2z M1170,222.4c0-0.4,0-0.8-0.1-1.1s-0.3-0.7-0.4-0.8c-0.1-0.3-0.4-0.4-0.7-0.5
			c-0.3-0.1-0.5-0.1-0.9-0.1c-0.5,0-1.1,0.1-1.6,0.4s-0.8,0.7-1.2,1.2c-0.3,0.5-0.5,1.1-0.8,1.6s-0.3,1.2-0.3,1.9
			c0,0.4,0,0.8,0.1,1.1s0.3,0.7,0.4,0.8c0.1,0.3,0.4,0.4,0.7,0.5s0.5,0.1,0.9,0.1c0.5,0,1.1-0.1,1.6-0.4s0.8-0.7,1.2-1.2
			c0.3-0.5,0.5-1.1,0.8-1.6C1170,223.6,1170,223,1170,222.4z"/>
		<path class="st4" d="M1182.8,221c0,0.1,0,0.3,0,0.4s0,0.4-0.1,0.5c0,0.1-0.1,0.4-0.1,0.5s-0.1,0.4-0.1,0.5l-1.2,5.5h-1.6l1.2-5.9
			c0-0.1,0-0.3,0.1-0.4s0-0.3,0.1-0.4c0-0.1,0-0.3,0-0.4c0-0.1,0-0.3,0-0.3c0-0.5-0.1-0.9-0.4-1.2s-0.5-0.4-1.1-0.4
			c-0.4,0-0.8,0.1-1.4,0.4c-0.4,0.3-0.8,0.5-1.2,0.9c-0.4,0.4-0.7,0.8-0.9,1.4s-0.4,0.9-0.5,1.4l-1.1,5h-1.6l1.6-7.3
			c0-0.3,0.1-0.5,0.1-0.8s0.1-0.5,0.1-0.8s0.1-0.5,0.1-0.7c0-0.1,0-0.4,0.1-0.5h1.6c0,0.3-0.1,0.5-0.1,0.8s-0.1,0.5-0.1,0.8
			s-0.1,0.5-0.1,0.8l0,0c0.3-0.4,0.5-0.7,0.8-1.1c0.3-0.3,0.5-0.5,0.9-0.8c0.3-0.3,0.7-0.4,1.1-0.5s0.8-0.3,1.2-0.3
			c0.4,0,0.8,0,1.2,0.1c0.3,0.1,0.5,0.3,0.8,0.5s0.4,0.5,0.5,0.9C1182.8,220.3,1182.8,220.6,1182.8,221z"/>
		<path class="st4" d="M1191,220.3c-0.3-0.1-0.7-0.4-0.9-0.4c-0.4-0.1-0.7-0.1-1.1-0.1c-0.7,0-1.1,0.1-1.5,0.4s-0.5,0.7-0.5,1.1
			c0,0.1,0,0.4,0.1,0.5c0,0.1,0.1,0.3,0.3,0.4s0.3,0.3,0.4,0.4s0.4,0.3,0.7,0.4c0.7,0.4,1.2,0.8,1.6,1.4c0.4,0.5,0.5,0.9,0.5,1.5
			c0,0.4-0.1,0.8-0.3,1.1c-0.1,0.4-0.4,0.7-0.7,0.9c-0.3,0.3-0.7,0.5-1.2,0.7s-1.1,0.3-1.8,0.3c-0.1,0-0.4,0-0.7,0s-0.5,0-0.7-0.1
			c-0.3,0-0.4-0.1-0.7-0.1c-0.3-0.1-0.4-0.1-0.5-0.3l0.3-1.5c0.1,0.1,0.3,0.1,0.5,0.3c0.3,0.1,0.4,0.1,0.7,0.3s0.4,0.1,0.7,0.1
			s0.5,0.1,0.7,0.1c0.7,0,1.2-0.1,1.5-0.4s0.5-0.7,0.5-1.1c0-0.1,0-0.3-0.1-0.5s-0.1-0.3-0.3-0.4s-0.3-0.3-0.5-0.4s-0.4-0.3-0.8-0.5
			c-0.7-0.4-1.2-0.8-1.5-1.2s-0.5-0.9-0.5-1.5c0-0.4,0.1-0.8,0.3-1.2s0.4-0.7,0.7-0.9s0.7-0.5,1.1-0.7c0.4-0.1,0.9-0.3,1.6-0.3
			c0.5,0,0.9,0,1.3,0.1s0.8,0.3,1.1,0.4L1191,220.3z"/>
		<path class="st4" d="M1205.6,215.1c0,0-0.1,0-0.3-0.1c-0.1,0-0.1,0-0.3-0.1s-0.3,0-0.3,0h-0.3c-0.5,0-0.9,0.1-1.2,0.5
			c-0.3,0.4-0.5,0.8-0.7,1.6l-0.4,1.6h2.4l-0.3,1.4h-2.4l-2.6,12.2h-1.6l2.6-12.2h-1.8l0.3-1.4h1.8l0.4-1.9c0.1-0.5,0.3-1.1,0.5-1.5
			s0.5-0.7,0.8-0.9c0.3-0.3,0.7-0.4,1.1-0.5s0.8-0.1,1.4-0.1c0.3,0,0.5,0,0.7,0s0.4,0.1,0.5,0.1L1205.6,215.1z"/>
		<path class="st4" d="M1213.6,222.2c0,0.9-0.1,1.8-0.4,2.6s-0.7,1.5-1.1,2.2c-0.5,0.5-1.1,1.1-1.8,1.5s-1.5,0.5-2.3,0.5
			c-0.5,0-1.1-0.1-1.6-0.3s-0.8-0.4-1.2-0.8c-0.3-0.4-0.5-0.8-0.8-1.2c-0.1-0.5-0.3-1.1-0.3-1.6c0-0.9,0.1-1.8,0.4-2.6
			s0.7-1.5,1.1-2.2c0.5-0.5,1.1-1.1,1.8-1.4c0.7-0.4,1.5-0.5,2.3-0.5c0.5,0,1.1,0.1,1.6,0.3s0.8,0.4,1.2,0.8
			c0.3,0.4,0.5,0.8,0.8,1.2C1213.6,221.2,1213.6,221.7,1213.6,222.2z M1211.9,222.4c0-0.4,0-0.8-0.1-1.1s-0.3-0.7-0.4-0.8
			c-0.1-0.3-0.4-0.4-0.7-0.5c-0.3-0.1-0.5-0.1-0.9-0.1c-0.5,0-1.1,0.1-1.6,0.4s-0.8,0.7-1.2,1.2c-0.3,0.5-0.5,1.1-0.8,1.6
			s-0.3,1.2-0.3,1.9c0,0.4,0,0.8,0.1,1.1s0.3,0.7,0.4,0.8c0.1,0.3,0.4,0.4,0.7,0.5s0.5,0.1,0.9,0.1c0.5,0,1.1-0.1,1.6-0.4
			s0.8-0.7,1.2-1.2c0.3-0.5,0.5-1.1,0.8-1.6C1211.8,223.6,1211.9,223,1211.9,222.4z"/>
		<path class="st4" d="M1221.9,220.2L1221.9,220.2c-0.1-0.1-0.4-0.1-0.5-0.3c-0.3-0.1-0.4-0.1-0.7-0.1c-0.4,0-0.8,0.1-1.1,0.4
			s-0.7,0.5-0.9,0.9s-0.5,0.8-0.8,1.4s-0.4,1.1-0.5,1.6l-0.9,4.5h-1.6l1.5-6.8c0-0.3,0.1-0.5,0.1-0.8s0.1-0.7,0.1-0.9
			s0.1-0.5,0.1-0.8s0.1-0.5,0.1-0.8h1.6c0,0.1,0,0.4-0.1,0.7s0,0.4-0.1,0.7c0,0.3,0,0.4-0.1,0.5c0,0.1,0,0.3,0,0.4l0,0
			c0.3-0.4,0.4-0.7,0.7-1.1c0.3-0.4,0.4-0.5,0.7-0.8c0.3-0.3,0.5-0.4,0.8-0.5s0.5-0.1,0.9-0.1c0.1,0,0.4,0,0.5,0s0.4,0.1,0.5,0.1
			L1221.9,220.2z"/>
		<path class="st4" d="M1237.7,216h-5.5l-1.1,4.9h5.1l-0.3,1.5h-5.1l-1.1,4.9h5.8l-0.3,1.5h-7.6l3-14.2h7.2L1237.7,216z"/>
		<path class="st4" d="M1241.6,228.7h-1.4l-1.6-10.1h1.6l0.9,6.3c0,0.1,0,0.3,0,0.4s0,0.3,0,0.5s0,0.3,0,0.5s0,0.3,0,0.4l0,0
			c0-0.1,0.1-0.3,0.1-0.4c0.1-0.1,0.1-0.3,0.3-0.4s0.1-0.3,0.3-0.5c0.1-0.1,0.1-0.3,0.3-0.4l3.6-6.3h1.9L1241.6,228.7z"/>
		<path class="st4" d="M1256.4,220.9c0,0.5-0.1,1.1-0.4,1.5s-0.7,0.8-1.2,1.1s-1.2,0.5-2.2,0.7c-0.9,0.1-2,0.3-3.4,0.3
			c0,0.1,0,0.1,0,0.3c0,0.1,0,0.1,0,0.1c0,0.4,0,0.7,0.1,0.9s0.3,0.5,0.4,0.8s0.5,0.4,0.8,0.5s0.7,0.3,1.2,0.3
			c0.4,0,0.9-0.1,1.5-0.3c0.5-0.1,1.1-0.4,1.6-0.8l-0.3,1.6c-0.4,0.3-0.8,0.4-1.4,0.5c-0.5,0.1-1.1,0.3-1.6,0.3
			c-0.8,0-1.4-0.1-1.9-0.4s-0.9-0.5-1.2-0.9c-0.3-0.4-0.5-0.8-0.7-1.4c-0.1-0.5-0.3-1.1-0.3-1.6s0-1.2,0.1-1.8
			c0.1-0.5,0.3-1.1,0.5-1.5c0.3-0.5,0.5-0.9,0.8-1.4s0.7-0.7,1.1-0.9s0.8-0.5,1.3-0.7c0.4-0.1,0.9-0.3,1.5-0.3s0.9,0.1,1.4,0.3
			c0.4,0.1,0.7,0.3,0.9,0.5c0.3,0.3,0.4,0.5,0.7,0.8C1256.2,220.2,1256.4,220.6,1256.4,220.9z M1254.7,221c0-0.4-0.1-0.7-0.4-0.9
			c-0.3-0.3-0.7-0.4-1.2-0.4c-0.4,0-0.8,0.1-1.2,0.3c-0.4,0.1-0.7,0.4-1.1,0.7c-0.3,0.3-0.5,0.7-0.8,1.1s-0.4,0.9-0.5,1.4
			c0.9,0,1.8,0,2.4-0.1c0.7-0.1,1.2-0.3,1.6-0.4s0.7-0.4,0.9-0.7C1254.6,221.6,1254.7,221.3,1254.7,221z"/>
		<path class="st4" d="M1264.3,220.2L1264.3,220.2c-0.1-0.1-0.4-0.1-0.5-0.3c-0.3-0.1-0.4-0.1-0.7-0.1c-0.4,0-0.8,0.1-1.1,0.4
			c-0.3,0.3-0.7,0.5-0.9,0.9c-0.3,0.4-0.5,0.8-0.8,1.4s-0.4,1.1-0.5,1.6l-0.9,4.5h-1.6l1.5-6.8c0-0.3,0.1-0.5,0.1-0.8
			s0.1-0.7,0.1-0.9s0.1-0.5,0.1-0.8s0.1-0.5,0.1-0.8h1.6c0,0.1,0,0.4-0.1,0.7s0,0.4-0.1,0.7c0,0.3,0,0.4-0.1,0.5c0,0.1,0,0.3,0,0.4
			l0,0c0.3-0.4,0.4-0.7,0.7-1.1c0.3-0.4,0.4-0.5,0.7-0.8c0.3-0.3,0.5-0.4,0.8-0.5s0.5-0.1,0.9-0.1c0.1,0,0.4,0,0.5,0
			s0.4,0.1,0.5,0.1L1264.3,220.2z"/>
		<path class="st4" d="M1268,230.3c-0.3,0.5-0.7,0.9-0.9,1.4c-0.3,0.4-0.7,0.7-0.9,0.9c-0.4,0.3-0.7,0.4-1.1,0.5s-0.8,0.1-1.2,0.1
			c-0.1,0-0.3,0-0.5,0c-0.1,0-0.4,0-0.4-0.1l0.3-1.5c0.1,0,0.3,0.1,0.4,0.1s0.3,0,0.4,0c0.4,0,0.8-0.1,1.2-0.4s0.7-0.7,1.1-1.2
			l1.2-1.9l-1.9-10.1h1.8l1.2,7.8c0,0.1,0,0.3,0,0.4s0,0.3,0,0.4l0,0c0-0.1,0.1-0.1,0.1-0.3s0.1-0.3,0.3-0.4l4.5-7.8h1.8L1268,230.3
			z"/>
		<path class="st4" d="M1292.1,223c-0.1,0.9-0.4,1.8-0.8,2.4c-0.3,0.7-0.7,1.4-1.2,1.9c-0.4,0.5-1.1,0.8-1.8,1.1s-1.5,0.4-2.4,0.4
			c-0.7,0-1.4-0.1-2-0.4c-0.7-0.3-1.1-0.5-1.5-0.9s-0.7-0.8-0.9-1.5c-0.3-0.5-0.3-1.1-0.3-1.8c0-0.3,0-0.5,0-0.9s0.1-0.7,0.1-0.9
			l1.8-8h1.8l-1.8,7.8c0,0.1,0,0.3-0.1,0.5s0,0.4-0.1,0.5c0,0.1,0,0.4,0,0.5s0,0.3,0,0.4c0,0.5,0.1,0.9,0.3,1.4
			c0.1,0.4,0.4,0.7,0.7,0.9s0.7,0.4,0.9,0.5c0.4,0.1,0.8,0.1,1.2,0.1c0.5,0,1.1-0.1,1.5-0.3s0.8-0.4,1.2-0.7
			c0.4-0.3,0.7-0.8,0.8-1.4c0.3-0.5,0.4-1.1,0.5-1.9l1.9-8.8h1.8L1292.1,223z"/>
		<path class="st4" d="M1300.9,220.3c-0.3-0.1-0.7-0.4-0.9-0.4c-0.4-0.1-0.7-0.1-1.1-0.1c-0.7,0-1.1,0.1-1.5,0.4s-0.5,0.7-0.5,1.1
			c0,0.1,0,0.4,0.1,0.5c0,0.1,0.1,0.3,0.3,0.4s0.3,0.3,0.4,0.4s0.4,0.3,0.7,0.4c0.7,0.4,1.2,0.8,1.6,1.4s0.5,0.9,0.5,1.5
			c0,0.4-0.1,0.8-0.3,1.1c-0.1,0.4-0.4,0.7-0.7,0.9c-0.3,0.3-0.7,0.5-1.2,0.7c-0.5,0.1-1.1,0.3-1.8,0.3c-0.1,0-0.4,0-0.7,0
			s-0.5,0-0.7-0.1c-0.3,0-0.4-0.1-0.7-0.1c-0.3-0.1-0.4-0.1-0.5-0.3l0.3-1.5c0.1,0.1,0.3,0.1,0.5,0.3s0.4,0.1,0.7,0.3
			s0.4,0.1,0.7,0.1s0.5,0.1,0.7,0.1c0.7,0,1.2-0.1,1.5-0.4s0.5-0.7,0.5-1.1c0-0.1,0-0.3-0.1-0.5s-0.1-0.3-0.3-0.4s-0.3-0.3-0.5-0.4
			s-0.4-0.3-0.8-0.5c-0.7-0.4-1.2-0.8-1.5-1.2s-0.5-0.9-0.5-1.5c0-0.4,0.1-0.8,0.3-1.2s0.4-0.7,0.7-0.9s0.7-0.5,1.1-0.7
			s0.9-0.3,1.6-0.3c0.5,0,0.9,0,1.3,0.1s0.8,0.3,1.1,0.4L1300.9,220.3z"/>
		<path class="st4" d="M1311,220.9c0,0.5-0.1,1.1-0.4,1.5s-0.7,0.8-1.2,1.1s-1.2,0.5-2.2,0.7s-2,0.3-3.4,0.3c0,0.1,0,0.1,0,0.3
			c0,0.1,0,0.1,0,0.1c0,0.4,0,0.7,0.1,0.9s0.3,0.5,0.4,0.8s0.5,0.4,0.8,0.5s0.7,0.3,1.2,0.3c0.4,0,0.9-0.1,1.5-0.3
			c0.5-0.1,1.1-0.4,1.6-0.8l-0.3,1.6c-0.4,0.3-0.8,0.4-1.3,0.5s-1.1,0.3-1.6,0.3c-0.8,0-1.4-0.1-1.9-0.4c-0.5-0.3-0.9-0.5-1.2-0.9
			s-0.5-0.8-0.7-1.4c-0.1-0.5-0.3-1.1-0.3-1.6s0-1.2,0.1-1.8c0.1-0.5,0.3-1.1,0.5-1.5c0.3-0.5,0.5-0.9,0.8-1.4s0.7-0.7,1.1-0.9
			c0.4-0.3,0.8-0.5,1.4-0.7c0.4-0.1,0.9-0.3,1.5-0.3c0.5,0,0.9,0.1,1.3,0.3c0.4,0.1,0.7,0.3,0.9,0.5s0.4,0.5,0.7,0.8
			C1311,220.2,1311,220.6,1311,220.9z M1309.4,221c0-0.4-0.1-0.7-0.4-0.9s-0.7-0.4-1.2-0.4c-0.4,0-0.8,0.1-1.2,0.3
			c-0.4,0.1-0.7,0.4-1.1,0.7c-0.3,0.3-0.5,0.7-0.8,1.1s-0.4,0.9-0.5,1.4c0.9,0,1.8,0,2.4-0.1s1.2-0.3,1.6-0.4s0.7-0.4,0.9-0.7
			C1309.3,221.6,1309.4,221.3,1309.4,221z"/>
		<path class="st4" d="M1319,220.2L1319,220.2c-0.1-0.1-0.4-0.1-0.5-0.3c-0.3-0.1-0.4-0.1-0.7-0.1c-0.4,0-0.8,0.1-1.1,0.4
			s-0.7,0.5-0.9,0.9s-0.5,0.8-0.8,1.4s-0.4,1.1-0.5,1.6l-0.9,4.5h-1.6l1.5-6.8c0-0.3,0.1-0.5,0.1-0.8s0.1-0.7,0.1-0.9
			s0.1-0.5,0.1-0.8s0.1-0.5,0.1-0.8h1.6c0,0.1,0,0.4-0.1,0.7s0,0.4-0.1,0.7c0,0.3,0,0.4-0.1,0.5c0,0.1,0,0.3,0,0.4l0,0
			c0.3-0.4,0.4-0.7,0.7-1.1c0.3-0.4,0.4-0.5,0.7-0.8c0.3-0.3,0.5-0.4,0.8-0.5s0.5-0.1,0.9-0.1c0.1,0,0.4,0,0.5,0s0.4,0.1,0.5,0.1
			L1319,220.2z"/>
	</g>
	<g>
		<path class="st5" d="M1003.2,195.9h-20.1V65h20.1V195.9z"/>
		<path class="st5" d="M1068.4,197.9c-13.6,0-24.6-4.2-32.7-12.4s-12.2-19.2-12.2-32.9c0-14.9,4.2-26.5,12.7-34.8
			s19.8-12.6,34.3-12.6c13.8,0,24.6,4.1,32.3,12.2c7.7,8.1,11.6,19.4,11.6,33.8c0,14.2-4.2,25.4-12.4,33.9
			C1093.5,193.8,1082.5,197.9,1068.4,197.9z M1069.4,121.4c-7.8,0-14,2.7-18.5,8.2c-4.6,5.5-6.8,13-6.8,22.7
			c0,9.3,2.3,16.6,6.9,21.9c4.6,5.3,10.8,8,18.5,8c7.8,0,13.9-2.6,18.1-7.8s6.3-12.7,6.3-22.4s-2.2-17.3-6.3-22.5
			C1083.3,124,1077.2,121.4,1069.4,121.4z"/>
		<path class="st5" d="M1211.8,195.9h-20v-14h-0.4c-5.8,10.7-14.9,16.1-27.1,16.1c-20.9,0-31.3-12.6-31.3-37.7v-52.8h20v50.8
			c0,15.9,6.1,23.9,18.4,23.9c5.9,0,10.8-2.2,14.6-6.6c3.8-4.3,5.7-10.1,5.7-17.1v-50.9h20.3v88.3H1211.8z"/>
		<path class="st5" d="M1318.1,195.9h-20v-15h-0.4c-6.5,11.3-16.3,17.1-29.7,17.1c-10.8,0-19.6-3.9-26.1-11.9s-9.9-18.8-9.9-32.4
			c0-14.6,3.6-26.3,10.8-35.2c7.2-8.8,16.9-13.2,28.9-13.2c11.9,0,20.5,4.7,25.9,14.3h0.4V65h20L1318.1,195.9L1318.1,195.9z
			 M1298.4,155.4v-11.6c0-6.3-2-11.6-6.1-15.9c-4.1-4.3-9.3-6.6-15.7-6.6c-7.4,0-13.4,2.8-17.7,8.4c-4.3,5.5-6.5,13.4-6.5,23.2
			c0,9,2,16.1,6.2,21.3c4.1,5.3,9.6,7.8,16.6,7.8c6.9,0,12.4-2.6,16.6-7.6C1296.2,169.4,1298.4,163.1,1298.4,155.4z"/>
	</g>
	<path class="st6" d="M957.9,50.8c-2.7-1.9-5.4-3.5-8.4-4.9c-8.8-4.1-18-5.9-27.5-4.9c-18.6,1.9-32.5,10.9-41.9,27
		c-2.6,4.3-4.2,9-5.1,14c-0.3,1.2-0.8,1.6-1.9,1.9c-8,1.9-15.1,5.4-21.5,10.5c-8.2,6.8-13.9,15.1-16.9,25.4
		c-2.6,8.5-2.8,17.3-0.8,25.9c3.5,14.9,12.3,26.1,25.5,33.6c6.9,3.9,14.4,6.1,22.3,6.5c2.6,0.1,2.2-0.1,2.7,2.4
		c1.6,8.6,5.4,16.3,10.9,23.1c5.9,7.2,13.4,12.4,22.1,15.7c8.5,3.1,17.1,4.1,26.2,2.8c10.7-1.5,19.8-5.8,27.9-12.8
		c0.3-0.3,0.5-0.5,0.9-0.7c0.3,0.5-0.3,0.7-0.4,0.9c-7.3,9.5-16.6,16.3-28.2,19.7c-21.9,6.2-41,1.4-57.2-14.4
		c-7.8-7.6-12.6-17-14.9-27.7c-0.1-0.8-0.4-1.8-0.5-2.7c-0.1-0.8-0.5-1.1-1.4-1.2c-23.8-1.8-40.4-13.6-50-35.4
		c-4.1-9-5.1-18.9-3.6-28.8c3.5-22.3,15.9-37.4,36.7-45.8c2.2-0.8,4.5-1.4,6.8-2c0.7-0.1,0.8-0.4,1.1-1.1
		c4.2-19.4,15.3-33.2,33.3-41.3c9.2-4.1,18.8-5.4,28.8-4.2c12.7,1.5,23.6,6.8,32.9,15.7C956.8,49.2,957.5,49.8,957.9,50.8z"/>
	<g id="iF">
		<g>
			<path class="st7" d="M698.1,195.4h19.7V95.5h-19.6L698.1,195.4z M707.6,64.8c-6.6,0-11.3,4.7-11.3,11.3c0,6.5,4.6,11.3,11.3,11.3
				c6.6,0,11.5-4.5,11.5-11.3C719,69.5,714.5,64.8,707.6,64.8z M798.6,80.3V65.1L737.8,65l-0.1,131h20v-67h28.2v-14.9h-28.2V80.3
				H798.6L798.6,80.3z"/>
		</g>
	</g>
</g>
<rect x="605.5" y="17.8" class="st3" width="4.9" height="247.8"/>
<g class="st8">
	<path class="st3" d="M216.6,221.1c-1.1,0-2-0.3-2.8-1c-0.8-0.7-1.1-1.6-1.1-2.6c0-1.1,0.4-2,1.1-2.7c0.8-0.7,1.7-1,2.8-1
		c1.1,0,2,0.3,2.8,1c0.8,0.7,1.1,1.6,1.1,2.7c0,1.1-0.4,1.9-1.1,2.6C218.7,220.8,217.7,221.1,216.6,221.1z M213.7,261.6V228h5.7
		v33.6H213.7z"/>
	<path class="st3" d="M231.3,261.6v-45.4h26.1v4.8H237v15.3h17.3v4.8H237v20.3H231.3z"/>
	<path class="st3" d="M265.4,261.6v-45.4h6.9l8.7,24.2c0.6,1.6,1.1,3.1,1.6,4.7c0.5,1.6,1.1,3.2,1.6,4.7h0.3
		c0.6-1.6,1.1-3.1,1.6-4.7c0.5-1.6,1-3.2,1.6-4.7l8.6-24.2h7v45.4h-5.4v-25c0-2,0.1-4.3,0.3-6.7c0.2-2.4,0.3-4.7,0.5-6.7h-0.3
		l-3.6,10.3l-8.6,23.5h-3.8l-8.6-23.5l-3.6-10.3h-0.3c0.1,2,0.3,4.3,0.4,6.7c0.2,2.4,0.2,4.7,0.2,6.7v25H265.4z"/>
	<path class="st3" d="M328.8,262.5c-2.3,0-4.4-0.4-6.3-1.2c-2-0.8-3.7-2-5.1-3.5c-1.5-1.5-2.6-3.3-3.4-5.5c-0.8-2.2-1.2-4.6-1.2-7.4
		c0-2.8,0.4-5.2,1.3-7.4c0.9-2.2,2-4,3.4-5.6c1.4-1.5,3-2.7,4.8-3.5c1.8-0.8,3.7-1.2,5.6-1.2c2.1,0,4,0.4,5.7,1.1
		c1.7,0.7,3.1,1.8,4.2,3.2c1.1,1.4,2,3,2.6,5c0.6,1.9,0.9,4.1,0.9,6.5c0,0.6,0,1.2,0,1.8c0,0.6-0.1,1.1-0.2,1.5h-22.7
		c0.2,3.6,1.3,6.4,3.4,8.5c2,2.1,4.6,3.1,7.8,3.1c1.6,0,3.1-0.2,4.5-0.7c1.4-0.5,2.7-1.1,3.9-1.9l2,3.7c-1.5,0.9-3.1,1.7-4.9,2.4
		C333.1,262.1,331.1,262.5,328.8,262.5z M318.2,242.1h18c0-3.4-0.7-6-2.2-7.8c-1.5-1.8-3.5-2.7-6.1-2.7c-1.2,0-2.3,0.2-3.4,0.7
		c-1.1,0.5-2.1,1.1-2.9,2c-0.9,0.9-1.6,2-2.2,3.3C318.7,239,318.4,240.5,318.2,242.1z"/>
	<path class="st3" d="M363,262.5c-2.3,0-4.4-0.4-6.3-1.2c-2-0.8-3.7-2-5.1-3.5c-1.5-1.5-2.6-3.3-3.4-5.5c-0.8-2.2-1.2-4.6-1.2-7.4
		c0-2.8,0.4-5.2,1.3-7.4c0.9-2.2,2-4,3.4-5.6c1.4-1.5,3-2.7,4.8-3.5c1.8-0.8,3.7-1.2,5.6-1.2c2.1,0,4,0.4,5.7,1.1
		c1.7,0.7,3.1,1.8,4.2,3.2c1.1,1.4,2,3,2.6,5c0.6,1.9,0.9,4.1,0.9,6.5c0,0.6,0,1.2,0,1.8c0,0.6-0.1,1.1-0.2,1.5h-22.7
		c0.2,3.6,1.3,6.4,3.4,8.5c2,2.1,4.6,3.1,7.8,3.1c1.6,0,3.1-0.2,4.5-0.7c1.4-0.5,2.7-1.1,3.9-1.9l2,3.7c-1.5,0.9-3.1,1.7-4.9,2.4
		C367.4,262.1,365.3,262.5,363,262.5z M352.5,242.1h18c0-3.4-0.7-6-2.2-7.8c-1.5-1.8-3.5-2.7-6.1-2.7c-1.2,0-2.3,0.2-3.4,0.7
		c-1.1,0.5-2.1,1.1-2.9,2c-0.9,0.9-1.6,2-2.2,3.3C353,239,352.6,240.5,352.5,242.1z"/>
	<path class="st3" d="M393.6,262.5c-1.8,0-3.3-0.3-4.5-0.8c-1.2-0.6-2.2-1.3-3-2.3c-0.8-1-1.3-2.1-1.6-3.5c-0.3-1.4-0.5-2.9-0.5-4.6
		v-18.6h-5v-4.3l5.3-0.3l0.7-9.4h4.8v9.4h9.1v4.6h-9.1v18.7c0,2.1,0.4,3.7,1.1,4.8c0.8,1.1,2.1,1.7,4,1.7c0.6,0,1.2-0.1,1.9-0.3
		c0.7-0.2,1.3-0.4,1.9-0.6l1.1,4.3c-0.9,0.3-1.9,0.6-3,0.9C395.7,262.3,394.7,262.5,393.6,262.5z"/>
	<path class="st3" d="M414.5,262.5c-2.4,0-4.7-0.4-6.8-1.3c-2.2-0.9-4.1-2-5.7-3.3l2.8-3.8c1.5,1.2,3,2.2,4.5,2.9
		c1.5,0.7,3.3,1.1,5.4,1.1c2.2,0,3.9-0.5,5-1.5c1.1-1,1.7-2.3,1.7-3.7c0-0.9-0.2-1.6-0.7-2.3c-0.5-0.6-1-1.2-1.8-1.7
		c-0.7-0.5-1.5-0.9-2.5-1.3c-0.9-0.4-1.8-0.7-2.8-1.1c-1.2-0.4-2.4-0.9-3.6-1.4c-1.2-0.5-2.3-1.2-3.2-1.9c-0.9-0.8-1.7-1.6-2.3-2.7
		c-0.6-1-0.9-2.2-0.9-3.7c0-1.3,0.3-2.6,0.8-3.8c0.5-1.2,1.3-2.2,2.3-3c1-0.9,2.2-1.5,3.6-2c1.4-0.5,3-0.7,4.8-0.7
		c2.1,0,4.1,0.4,5.8,1.1c1.8,0.7,3.3,1.6,4.6,2.7l-2.7,3.6c-1.2-0.9-2.4-1.6-3.6-2.1c-1.2-0.6-2.6-0.8-4.1-0.8
		c-2.1,0-3.7,0.5-4.7,1.5c-1,1-1.5,2.1-1.5,3.4c0,0.8,0.2,1.5,0.6,2c0.4,0.6,1,1.1,1.7,1.5c0.7,0.4,1.5,0.8,2.4,1.2
		c0.9,0.3,1.8,0.7,2.8,1.1c1.2,0.5,2.4,0.9,3.6,1.5c1.2,0.5,2.3,1.1,3.3,1.9c1,0.8,1.8,1.7,2.4,2.8s0.9,2.4,0.9,4
		c0,1.4-0.3,2.7-0.8,3.9c-0.5,1.2-1.3,2.3-2.4,3.2c-1,0.9-2.3,1.6-3.9,2.2C418.2,262.2,416.5,262.5,414.5,262.5z"/>
</g>
</svg>
