<?xml version="1.0" encoding="utf-8"?>
<!-- Generator: Adobe Illustrator 22.1.0, SVG Export Plug-In . SVG Version: 6.00 Build 0)  -->
<svg version="1.1" id="Layer_1" xmlns="http://www.w3.org/2000/svg" xmlns:xlink="http://www.w3.org/1999/xlink" x="0px" y="0px"
	 width="225px" height="225px" viewBox="0 0 225 225" style="enable-background:new 0 0 225 225;" xml:space="preserve">
<style type="text/css">
	.st0{fill:none;}
	.st1{fill:none;stroke:#000000;stroke-miterlimit:10;}
	.st2{opacity:0.5;fill:url(#Red_-_Shape_1_);}
</style>
<pattern  width="165.2" height="289.1" patternUnits="userSpaceOnUse" id="Diagonal_Line_2" viewBox="137.8 -448.3 165.2 289.1" style="overflow:visible;">
	<g>
		<rect x="137.8" y="-448.3" class="st0" width="165.2" height="289.1"/>
		<g>
			<line class="st1" x1="252.3" y1="-404.8" x2="417.6" y2="-115.7"/>
			<line class="st1" x1="245.1" y1="-395.1" x2="410.3" y2="-105.9"/>
			<line class="st1" x1="237.9" y1="-385.4" x2="403.1" y2="-96.2"/>
			<line class="st1" x1="230.6" y1="-375.6" x2="395.8" y2="-86.5"/>
			<line class="st1" x1="223.4" y1="-365.9" x2="388.6" y2="-76.8"/>
			<line class="st1" x1="216.1" y1="-356.2" x2="381.4" y2="-67.1"/>
			<line class="st1" x1="208.9" y1="-346.5" x2="374.1" y2="-57.3"/>
			<line class="st1" x1="201.7" y1="-336.8" x2="366.9" y2="-47.6"/>
			<line class="st1" x1="194.4" y1="-327" x2="359.6" y2="-37.9"/>
			<line class="st1" x1="187.2" y1="-317.3" x2="352.4" y2="-28.2"/>
			<line class="st1" x1="179.9" y1="-307.6" x2="345.1" y2="-18.5"/>
			<line class="st1" x1="172.7" y1="-297.9" x2="337.9" y2="-8.7"/>
			<line class="st1" x1="165.6" y1="-289.4" x2="330.9" y2="-0.2"/>
		</g>
		<g>
			<line class="st1" x1="87.1" y1="-404.8" x2="252.3" y2="-115.7"/>
			<line class="st1" x1="79.9" y1="-395.1" x2="245.1" y2="-105.9"/>
			<line class="st1" x1="72.6" y1="-385.4" x2="237.9" y2="-96.2"/>
			<line class="st1" x1="65.4" y1="-375.6" x2="230.6" y2="-86.5"/>
			<line class="st1" x1="58.2" y1="-365.9" x2="223.4" y2="-76.8"/>
			<line class="st1" x1="50.9" y1="-356.2" x2="216.1" y2="-67.1"/>
			<line class="st1" x1="43.7" y1="-346.5" x2="208.9" y2="-57.3"/>
			<line class="st1" x1="36.4" y1="-336.8" x2="201.7" y2="-47.6"/>
			<line class="st1" x1="29.2" y1="-327" x2="194.4" y2="-37.9"/>
			<line class="st1" x1="22" y1="-317.3" x2="187.2" y2="-28.2"/>
			<line class="st1" x1="14.7" y1="-307.6" x2="179.9" y2="-18.5"/>
			<line class="st1" x1="7.5" y1="-297.9" x2="172.7" y2="-8.7"/>
			<line class="st1" x1="0.4" y1="-289.4" x2="165.7" y2="-0.2"/>
		</g>
		<g>
			<line class="st1" x1="252.3" y1="-693.9" x2="417.6" y2="-404.8"/>
			<line class="st1" x1="245.1" y1="-684.2" x2="410.3" y2="-395.1"/>
			<line class="st1" x1="237.9" y1="-674.5" x2="403.1" y2="-385.4"/>
			<line class="st1" x1="230.6" y1="-664.8" x2="395.8" y2="-375.6"/>
			<line class="st1" x1="223.4" y1="-655.1" x2="388.6" y2="-365.9"/>
			<line class="st1" x1="216.1" y1="-645.3" x2="381.4" y2="-356.2"/>
			<line class="st1" x1="208.9" y1="-635.6" x2="374.1" y2="-346.5"/>
			<line class="st1" x1="201.7" y1="-625.9" x2="366.9" y2="-336.7"/>
			<line class="st1" x1="194.4" y1="-616.2" x2="359.6" y2="-327"/>
			<line class="st1" x1="187.2" y1="-606.4" x2="352.4" y2="-317.3"/>
			<line class="st1" x1="179.9" y1="-596.7" x2="345.1" y2="-307.6"/>
			<line class="st1" x1="172.7" y1="-587" x2="337.9" y2="-297.9"/>
			<line class="st1" x1="165.6" y1="-578.5" x2="330.9" y2="-289.4"/>
		</g>
		<g>
			<line class="st1" x1="87.1" y1="-693.9" x2="252.3" y2="-404.8"/>
			<line class="st1" x1="79.9" y1="-684.2" x2="245.1" y2="-395.1"/>
			<line class="st1" x1="72.6" y1="-674.5" x2="237.9" y2="-385.4"/>
			<line class="st1" x1="65.4" y1="-664.8" x2="230.6" y2="-375.6"/>
			<line class="st1" x1="58.2" y1="-655.1" x2="223.4" y2="-365.9"/>
			<line class="st1" x1="50.9" y1="-645.3" x2="216.1" y2="-356.2"/>
			<line class="st1" x1="43.7" y1="-635.6" x2="208.9" y2="-346.5"/>
			<line class="st1" x1="36.4" y1="-625.9" x2="201.7" y2="-336.7"/>
			<line class="st1" x1="29.2" y1="-616.2" x2="194.4" y2="-327"/>
			<line class="st1" x1="22" y1="-606.4" x2="187.2" y2="-317.3"/>
			<line class="st1" x1="14.7" y1="-596.7" x2="179.9" y2="-307.6"/>
			<line class="st1" x1="7.5" y1="-587" x2="172.7" y2="-297.9"/>
			<line class="st1" x1="0.4" y1="-578.5" x2="165.7" y2="-289.4"/>
		</g>
	</g>
</pattern>
<pattern  id="Red_-_Shape_1_" xlink:href="#Diagonal_Line_2" patternTransform="matrix(0.8756 -6.752495e-02 6.752495e-02 0.8756 2898.8403 -559.7265)">
</pattern>
<path id="Red_-_Shape_72_" class="st2" d="M144.7,174.9L102,197.7c-15.8,8.4-35.2,5.3-47.5-7.6l-5.5-5.8
	c-26.4-27.7-28.7-70.6-5.4-101l34.3-44.7C88.2,25,106.7,20.7,122,28.4l20.9,10.5C198.4,66.8,199.4,145.6,144.7,174.9z"/>
</svg>
