<?xml version="1.0" encoding="utf-8"?>
<!-- Generator: Adobe Illustrator 23.0.3, SVG Export Plug-In . SVG Version: 6.00 Build 0)  -->
<svg version="1.1" xmlns="http://www.w3.org/2000/svg" xmlns:xlink="http://www.w3.org/1999/xlink" x="0px" y="0px"
	 viewBox="0 0 500 223.1" style="enable-background:new 0 0 500 223.1;" xml:space="preserve">
<style type="text/css">
	.st0{opacity:0.58;clip-path:url(#XMLID_13_);fill:#5B5B5A;}
	.st1{clip-path:url(#XMLID_13_);}
	.st2{fill:#FCBEAE;}
	.st3{fill:#FFDBD4;}
	.st4{clip-path:url(#XMLID_13_);fill:#FFFFFF;}
	.st5{clip-path:url(#XMLID_13_);fill:#10ABBA;}
	.st6{clip-path:url(#XMLID_13_);fill:#302926;}
	.st7{clip-path:url(#XMLID_13_);fill:#FBB03B;}
	.st8{clip-path:url(#XMLID_13_);fill:#353535;}
	.st9{clip-path:url(#XMLID_13_);fill:#3F3C2A;}
	.st10{clip-path:url(#XMLID_13_);fill:#FCBEAE;}
</style>
<g id="OBJECTS">
	<g id="Hand_shake">
		<defs>
			<rect id="XMLID_2_" y="-150.6" width="500" height="500"/>
		</defs>
		<clipPath id="XMLID_13_">
			<use xlink:href="#XMLID_2_"  style="overflow:visible;"/>
		</clipPath>
		<path id="XMLID_183_" class="st0" d="M-57.8,102.3l22.4-81.6l200.3,55.1v0l8.1,2.2l-0.7,2.7l20,5.5l-1,3.7l13.3-1.4
			c1.9-0.2,3.8-0.1,5.6,0.4c1.4-0.7,2.9-1.2,4.4-1.5l0,0l0.3-0.1l-0.1-0.1l11.6-3.8l13-4.3l0,0.1l12.6-4.1l0,0.1l55.8,5.8l19.9-5.4
			l-0.7-2.7l8.1-2.2v0l200.5-54.1l22.1,81.7l-200.5,54.1l0,0l-8.1,2.2l0,0h0l0,0c-0.4-1.7-2.2-2.6-3.8-2.2l-17,4.6l-0.2-0.8
			l-12.2-1.1c-1.7-0.1-3.3,0.4-4.6,1.5l-0.4,0.4c-1.4,1.2-2.1,2.9-2.2,4.7c-0.1,2.1-0.9,4.1-2.3,5.8c-2.9,3.5-7.5,4.6-11.5,3.1
			l-2.3,1.9c0.9,3.1,0.3,6.6-1.9,9.3c-3.1,3.8-8.4,4.8-12.7,2.6l-1.7,1.4c1.3,3.4,0.9,7.3-1.6,10.3c-3.3,4-9.1,4.9-13.4,2.2
			l-1.3,1.1c1.9,3.6,1.6,8-1.1,11.4c-2.2,2.7-5.6,4-8.9,3.7c-3.8-0.3-7.5-0.2-11.3,0c-3.1,0.2-6.3-1.1-8.4-3.7
			c-2.5-3-3-7.1-1.6-10.5c0.3-0.8,0-1.6-0.8-1.9c0,0-0.1,0-0.1,0c-0.4-0.1-0.8-0.1-1.1,0c-4.1,1.8-9.1,0.7-12.1-3
			c-1.3-1.6-2.1-3.6-2.2-5.5c-0.1-1.7-0.9-3.3-2.2-4.4l-0.3-0.3c-0.9-0.8-2.1-1.3-3.3-1.4c-2.6-0.3-5.2-1.5-7-3.7
			c-1.2-1.5-1.9-3.3-2.2-5L180,160.5c-1.3-1-2.4-2.2-3.4-3.4c-0.5-0.7-1.4-0.9-2.2-0.8l0,0c-0.9,0.2-1.6,0.8-1.8,1.7l-0.5,1.7
			c-0.3,1.3-1.6,2-2.9,1.6l-8.4-2.3h0l-6.2-1.7c-1.7-0.5-3.4,0.5-3.8,2.2l0,0h0l-8.1-2.2v0L-57.8,102.3z"/>
		<g id="XMLID_169_" class="st1">
			<g>
				<g id="XMLID_46_">
					<path class="st2" d="M235.9,75c-10.4-8.5-25.8-7-34.4,3.5l-25.1,30.7c-8.5,10.4-7,25.8,3.5,34.4l41.2,33.8
						c10.4,8.5,25.8,7,34.4-3.5l25.1-30.7c8.5-10.4,7-25.8-3.5-34.4L235.9,75z"/>
				</g>
				<g id="XMLID_45_">
					<path class="st2" d="M160.7,142.2l50.1-9.9c9.3-0.9,16-9.2,15.1-18.5l-2.8-27.2c-0.9-9.3-9.2-16-18.5-15.1l-72.5,7.8
						L160.7,142.2z"/>
				</g>
			</g>
		</g>
		<g id="XMLID_114_" class="st1">
			<g>
				<g id="XMLID_135_">
					<g id="XMLID_144_">
						<path class="st3" d="M262.1,68c10.5-8.5,25.9-6.9,34.3,3.6l23.9,29.7c8.5,10.5,6.9,25.9-3.6,34.3l-34.5,29.2
							c-10.5,8.5-25.9,6.9-34.3-3.6l-23.9-29.7c-8.5-10.5-6.9-25.9,3.6-34.3L262.1,68z"/>
					</g>
					<g id="XMLID_143_">
						<path class="st3" d="M214.6,179.1c3.6,4.4,10.1,5.1,14.5,1.5l58.8-47.7c4.4-3.6,5.1-10,1.5-14.4l0,0
							c-3.6-4.4-10.1-5.1-14.5-1.5l-58.8,47.7C211.7,168.2,211,174.7,214.6,179.1L214.6,179.1z"/>
					</g>
					<g id="XMLID_141_">
						<path class="st3" d="M230.3,194.6c3.6,4.3,10.1,4.9,14.5,1.3l58-48.5c4.4-3.6,4.9-10.1,1.3-14.5l0,0
							c-3.6-4.4-10.1-4.9-14.5-1.3l-58,48.5C227.3,183.7,226.7,190.2,230.3,194.6L230.3,194.6z"/>
					</g>
					<g id="XMLID_140_">
						<path class="st3" d="M199.5,163.7c3.6,4.4,10,5.1,14.4,1.5l58.8-47.7c4.4-3.6,5.1-10.1,1.5-14.5l0,0c-3.6-4.4-10-5.1-14.5-1.5
							L201,149.2C196.6,152.8,196,159.3,199.5,163.7L199.5,163.7z"/>
					</g>
					<g id="XMLID_137_">
						<path class="st3" d="M184.8,147.8c3.6,4.4,10,5.1,14.4,1.5l58.7-47.7c4.4-3.6,5.1-10,1.5-14.5l0,0c-3.6-4.4-10-5.1-14.5-1.5
							l-58.8,47.7C181.9,136.9,181.2,143.4,184.8,147.8L184.8,147.8z"/>
					</g>
					<g id="XMLID_136_">
						<path class="st3" d="M328.3,139.9l-52.5-4.5c-9.9-1-17.2-9.9-16.1-19.9l3-29.3c1-9.9,9.9-17.2,19.9-16.1l52.5,4.5L328.3,139.9
							z"/>
					</g>
				</g>
				<g id="XMLID_130_">
					<g id="XMLID_133_">
						<g>
							<path id="XMLID_134_" class="st3" d="M239.4,62.7l-2,28.3c-0.9,9.8-9.5,17.1-19.3,16.2l-5.9-0.5c-0.3,0-0.5-0.1-0.7-0.1
								l3.2-35.6L239.4,62.7z"/>
						</g>
					</g>
					<g id="XMLID_132_">
						<polygon class="st3" points="224,90.1 257.4,82.7 252.1,58.8 214.8,70.8 						"/>
					</g>
					<g id="XMLID_131_">
						<path class="st3" d="M334.3,67.5l-82.5-8.6c-0.6,1.9-1.1,3.9-1.3,6c-2.1,20.2,17.7,38.7,44.2,41.5c13.8,1.4,26.8-1.7,36.3-7.9
							L334.3,67.5z"/>
					</g>
				</g>
			</g>
		</g>
		
			<rect id="XMLID_113_" x="317.4" y="58.5" transform="matrix(0.9654 -0.2607 0.2607 0.9654 -13.8867 91.005)" class="st4" width="37.5" height="78.7"/>
		
			<rect id="XMLID_110_" x="334.3" y="27" transform="matrix(0.9654 -0.2607 0.2607 0.9654 -2.7827 117.7132)" class="st5" width="216.1" height="84.6"/>
		
			<rect id="XMLID_107_" x="337.9" y="54.1" transform="matrix(0.9654 -0.2606 0.2606 0.9654 -13.3041 92.5111)" class="st6" width="8.4" height="84.6"/>
		<path id="XMLID_105_" class="st7" d="M337.2,133.6c2-0.5,3.2-2.6,2.7-4.6c-0.5-2-2.6-3.2-4.6-2.7c-2,0.5-3.2,2.6-2.7,4.6
			C333.1,132.9,335.1,134.1,337.2,133.6z"/>
		<g id="XMLID_69_" class="st1">
			<g>
				<g id="XMLID_43_">
					<g>
						<path id="XMLID_44_" class="st2" d="M257,67.7l3.7,28.7c1.4,9.9,10.7,16.8,20.6,15.4l6-0.9c0.3,0,0.5-0.1,0.8-0.2l-5.2-36
							L257,67.7z"/>
					</g>
				</g>
				<g id="XMLID_42_">
					<polygon class="st2" points="274.2,94.8 239.9,89.2 243.9,64.4 282.5,74.6 					"/>
				</g>
				<g id="XMLID_41_">
					<path class="st2" d="M160.7,78l83.5-13.5c0.8,1.9,1.3,3.9,1.7,6c3.3,20.4-15.8,40.5-42.7,44.8c-14,2.3-27.4-0.2-37.4-6
						L160.7,78z"/>
				</g>
			</g>
		</g>
		
			<rect id="XMLID_68_" x="124.4" y="83.4" transform="matrix(0.265 -0.9642 0.9642 0.265 21.8142 233.015)" class="st4" width="78.7" height="37.5"/>
		
			<rect id="XMLID_67_" x="15.3" y="-34.9" transform="matrix(0.265 -0.9642 0.9642 0.265 -28.2159 109.3895)" class="st8" width="84.6" height="216.1"/>
		
			<rect id="XMLID_66_" x="115.5" y="96.5" transform="matrix(0.265 -0.9642 0.9642 0.265 18.84 226.1751)" class="st9" width="84.6" height="8.4"/>
		<path id="XMLID_63_" class="st7" d="M162.8,137c-2-0.6-3.2-2.6-2.6-4.6c0.6-2,2.6-3.2,4.6-2.6c2,0.6,3.2,2.6,2.6,4.6
			C166.8,136.4,164.8,137.6,162.8,137z"/>
		<path id="XMLID_59_" class="st10" d="M258.9,196.1c-3.6,4.4-10.1,5-14.5,1.5l-12.2-10.1c-4.4-3.6-5-10.1-1.5-14.5l0,0
			c3.6-4.4,10.1-5,14.5-1.5l12.2,10.1C261.9,185.2,262.5,191.7,258.9,196.1L258.9,196.1z"/>
		<path id="XMLID_56_" class="st10" d="M274.7,181.4c-3.6,4.4-10.1,5-14.5,1.5L248,172.8c-4.4-3.6-5-10.1-1.5-14.5l0,0
			c3.6-4.4,10.1-5.1,14.5-1.5l12.2,10.1C277.6,170.5,278.3,177,274.7,181.4L274.7,181.4z"/>
		<path id="XMLID_7_" class="st10" d="M290.6,167.1c-3.6,4.4-10.1,5-14.5,1.5l-12.2-10.1c-4.4-3.6-5-10.1-1.5-14.5l0,0
			c3.6-4.4,10.1-5,14.5-1.5l12.2,10.1C293.5,156.2,294.2,162.7,290.6,167.1L290.6,167.1z"/>
		<path id="XMLID_4_" class="st10" d="M306.3,152.8c-3.6,4.4-10.1,5-14.5,1.5l-12.2-10.1c-4.4-3.6-5-10.1-1.5-14.5l0,0
			c3.6-4.4,10.1-5.1,14.5-1.5l12.2,10.1C309.3,141.9,309.9,148.4,306.3,152.8L306.3,152.8z"/>
	</g>
</g>
<g id="DESIGNED_BY_FREEPIK">
</g>
</svg>
