<?xml version="1.0" encoding="utf-8"?>
<!-- Generator: Adobe Illustrator 23.0.3, SVG Export Plug-In . SVG Version: 6.00 Build 0)  -->
<svg version="1.1" id="Layer_1" xmlns="http://www.w3.org/2000/svg" xmlns:xlink="http://www.w3.org/1999/xlink" x="0px" y="0px"
	 viewBox="0 0 482.5 253.8" style="enable-background:new 0 0 482.5 253.8;" xml:space="preserve">
<style type="text/css">
	.st0{fill:#FFFFFF;}
	.st1{fill-rule:evenodd;clip-rule:evenodd;fill:#E0656E;}
	.st2{opacity:0.2;}
	.st3{fill:none;stroke:#A5A3A4;stroke-width:0.4986;stroke-miterlimit:10;}
	.st4{opacity:0.1;fill:none;stroke:#FFFFFF;stroke-width:0.6569;stroke-miterlimit:10;enable-background:new    ;}
	.st5{opacity:0.4;fill:none;stroke:#FFFFFF;stroke-width:0.6569;stroke-miterlimit:10;enable-background:new    ;}
	.st6{fill:none;stroke:#FFFFFF;stroke-width:0.6569;stroke-miterlimit:10;}
</style>
<g>
	<path class="st0" d="M16.6,187.1c-1.3,0-2.3-0.1-3.1-0.3c-0.8-0.2-1.5-0.5-2-1s-0.9-1.1-1.1-1.9c-0.2-0.8-0.3-1.8-0.3-3.1
		s0.1-2.3,0.3-3.1s0.6-1.5,1.1-1.9c0.5-0.5,1.2-0.8,2-1s1.8-0.3,3.1-0.3s2.3,0.1,3.1,0.3c0.8,0.2,1.5,0.5,2,1c0.5,0.5,0.8,1.1,1,1.9
		s0.3,1.8,0.3,3.1s-0.1,2.3-0.3,3.1c-0.2,0.8-0.5,1.4-1,1.9s-1.1,0.8-2,1C18.9,187,17.9,187.1,16.6,187.1z M11.2,195.3h10.9v48.4
		H11.2V195.3z"/>
	<path class="st0" d="M38.8,178.2h39.3v10.2H49.8v19.7h24.8v10.2H49.8v25.3h-11C38.8,243.7,38.8,178.2,38.8,178.2z"/>
	<path class="st0" d="M112.1,244.8c-2.1,0-4.2-0.2-6.3-0.6c-2.1-0.4-4.1-1.1-6-2.1s-3.6-2.3-5.3-4s-3-3.8-4.2-6.3
		c-1.2-2.6-2.1-5.6-2.8-9.1c-0.7-3.5-1-7.6-1-12.3c0-4.5,0.4-8.5,1.2-11.9c0.8-3.4,1.8-6.4,3.1-8.8s2.8-4.5,4.5-6.1
		c1.7-1.6,3.5-2.9,5.4-3.8c1.9-0.9,3.8-1.6,5.8-2s3.8-0.6,5.6-0.6c3.1,0,5.7,0.1,8,0.5c2.3,0.3,4.2,0.6,5.7,1
		c1.8,0.4,3.3,0.9,4.5,1.5v7.9c-1.3-0.1-2.6-0.2-4-0.3c-1.2-0.1-2.6-0.1-4.2-0.2s-3.2-0.1-4.9-0.1c-1.6,0-3.1,0.1-4.7,0.2
		s-3,0.4-4.4,0.9s-2.7,1.2-4,2.2c-1.2,1-2.3,2.3-3.2,4s-1.6,3.8-2.1,6.3c-0.5,2.5-0.8,5.6-0.8,9.2c0,3.8,0.3,7,0.8,9.7
		s1.2,4.9,2.2,6.7s2,3.2,3.2,4.3s2.6,1.8,4,2.4c1.4,0.5,2.9,0.9,4.5,1s3.1,0.2,4.7,0.2c2,0,3.8,0,5.5-0.1s3.1-0.1,4.2-0.2
		c1.4-0.1,2.6-0.2,3.7-0.3v7.9c-1.4,0.6-2.9,1-4.8,1.4c-1.6,0.4-3.5,0.7-5.8,1C117.9,244.7,115.2,244.8,112.1,244.8z"/>
	<path class="st0" d="M141.2,229.9c0-2.8,0.4-5.1,1.2-7c0.8-1.9,1.9-3.4,3.3-4.6s3-2,4.9-2.5s3.9-0.8,6.1-0.8c2.2,0,4.2,0.1,6,0.4
		c1.8,0.2,3.3,0.5,4.6,0.8c1.5,0.3,2.9,0.7,4.1,1.1V213c0-1.1,0-2.1-0.1-2.9c-0.1-0.8-0.2-1.4-0.4-2s-0.4-1.1-0.8-1.5
		s-0.7-0.8-1.2-1.1c-1-0.7-2.3-1.2-4-1.5c-1.7-0.3-3.9-0.5-6.7-0.5c-1.7,0-3.4,0.1-5.1,0.2c-1.6,0.1-3.1,0.2-4.4,0.4
		c-1.5,0.1-2.9,0.3-4.3,0.5v-7.6c1.2-0.5,2.7-0.9,4.5-1.3c1.5-0.3,3.4-0.6,5.7-0.9c2.3-0.3,5-0.4,8.2-0.4c2.1,0,4,0.1,5.6,0.3
		c1.6,0.2,3.1,0.4,4.3,0.9c1.3,0.4,2.4,0.9,3.3,1.6s1.8,1.4,2.6,2.4c0.6,0.8,1.2,1.6,1.6,2.5c0.4,0.9,0.8,1.9,1.1,3.1
		s0.5,2.6,0.6,4.1c0.1,1.5,0.2,3.3,0.2,5.4v29.3H173l-0.8-3.6c-1.4,0.9-2.8,1.8-4.4,2.5c-1.4,0.6-3.1,1.2-4.9,1.7
		c-1.9,0.5-3.9,0.8-6.2,0.8c-2.8,0-5.1-0.3-7.1-0.8c-2-0.6-3.6-1.4-4.8-2.6c-1.2-1.2-2.1-2.8-2.7-4.7
		C141.5,235,141.2,232.7,141.2,229.9z M152.4,229.9c0,1.4,0.2,2.4,0.5,3.2c0.3,0.8,0.8,1.4,1.5,1.8s1.4,0.7,2.4,0.8
		c0.9,0.1,2,0.2,3.2,0.2c1.6,0,3-0.1,4.4-0.4c1.4-0.3,2.6-0.6,3.7-0.9c1.2-0.4,2.4-0.9,3.4-1.4v-8.4c-1-0.2-2-0.4-3.2-0.5
		c-1-0.1-2.1-0.3-3.3-0.4c-1.2-0.1-2.5-0.2-3.9-0.2c-1.5,0-2.8,0.1-3.9,0.2s-2,0.4-2.7,0.9s-1.2,1.1-1.6,1.9
		C152.5,227.5,152.4,228.6,152.4,229.9z"/>
	<path class="st0" d="M195.4,234.4c1.3,0.3,2.8,0.6,4.5,0.8c1.4,0.2,3.1,0.4,5,0.6c1.9,0.1,4,0.2,6.3,0.2c2.5,0,4.5-0.1,6-0.3
		c1.5-0.2,2.6-0.5,3.3-0.9s1.2-1.1,1.4-1.8s0.3-1.7,0.3-2.9c0-0.6,0-1.2-0.1-1.7c-0.1-0.5-0.3-1-0.6-1.4c-0.3-0.4-0.7-0.8-1.3-1.1
		c-0.6-0.3-1.3-0.5-2.3-0.7l-10.1-1.9c-2.3-0.4-4.3-0.9-5.9-1.6c-1.6-0.7-2.9-1.6-3.8-2.7c-1-1.1-1.6-2.5-2.1-4.1s-0.6-3.6-0.6-6
		c0-5.1,1.7-8.9,5.1-11.4c3.4-2.5,8.2-3.7,14.5-3.7c2.2,0,4.2,0.1,6.1,0.4s3.5,0.6,4.8,0.9c1.6,0.4,3,0.8,4.4,1.2v7.8
		c-1.5-0.2-3-0.5-4.6-0.6c-1.4-0.1-2.9-0.3-4.6-0.5c-1.7-0.1-3.4-0.2-5.2-0.2c-2,0-3.6,0.1-4.9,0.3s-2.4,0.4-3.1,0.9
		c-0.8,0.4-1.3,0.9-1.6,1.5c-0.3,0.6-0.5,1.4-0.5,2.4c0,0.7,0.1,1.4,0.2,2s0.4,1.1,0.8,1.6c0.4,0.5,0.9,0.9,1.6,1.2
		c0.7,0.3,1.6,0.6,2.8,0.8l10.5,2c2.1,0.4,3.8,0.9,5.2,1.6s2.6,1.5,3.5,2.6s1.5,2.5,1.9,4.2s0.6,3.8,0.6,6.3c0,2.4-0.2,4.5-0.7,6.3
		s-1.4,3.4-2.9,4.7c-1.4,1.3-3.5,2.3-6.1,3s-6.1,1-10.4,1c-2.4,0-4.6-0.2-6.7-0.5c-2.1-0.3-4-0.7-5.6-1.1c-1.9-0.5-3.6-1-5.2-1.6
		L195.4,234.4L195.4,234.4z"/>
	<path class="st0" d="M248.5,204.3h-7.1v-9h7.1v-10.2l10.9-2.4v12.6h12.2v9h-12.2v26c0,1.1,0.1,2.1,0.3,2.8c0.2,0.7,0.5,1.3,0.9,1.8
		c0.4,0.4,1.1,0.8,1.9,0.9s1.9,0.3,3.1,0.3c1.2,0,2.3,0,3.2-0.1s1.8-0.1,2.5-0.2c0.8-0.1,1.5-0.1,2.1-0.2v7.2
		c-1.1,0.4-2.2,0.8-3.4,1.1c-1.1,0.3-2.3,0.5-3.8,0.8s-3,0.3-4.7,0.3c-2.4,0-4.4-0.2-6-0.7s-3-1.1-4-2.1c-1-0.9-1.8-2.1-2.2-3.5
		c-0.5-1.4-0.7-3.1-0.7-5L248.5,204.3L248.5,204.3z"/>
	<path class="st0" d="M281.9,237.3c0-1.4,0.1-2.6,0.3-3.5c0.2-0.9,0.6-1.6,1.1-2.1c0.5-0.5,1.3-0.9,2.2-1.1c0.9-0.2,2-0.3,3.4-0.3
		c1.4,0,2.6,0.1,3.5,0.3c0.9,0.2,1.6,0.5,2.1,1.1c0.5,0.5,0.9,1.2,1.1,2.1c0.2,0.9,0.3,2.1,0.3,3.5c0,1.4-0.1,2.6-0.3,3.5
		s-0.6,1.6-1.1,2.1c-0.5,0.5-1.2,0.9-2.1,1.1c-0.9,0.2-2.1,0.3-3.5,0.3c-1.4,0-2.5-0.1-3.4-0.3c-0.9-0.2-1.6-0.6-2.2-1.1
		s-0.9-1.3-1.1-2.1C282,239.9,281.9,238.7,281.9,237.3z"/>
	<path class="st0" d="M304.9,219.5c0-4.6,0.6-8.5,1.7-11.7s2.6-5.8,4.5-7.8s4.1-3.5,6.7-4.4s5.3-1.4,8.2-1.4c2.2,0,4.2,0.1,6,0.4
		c1.8,0.3,3.3,0.6,4.5,0.9c1.5,0.4,2.7,0.8,3.8,1.3v7.5c-1-0.1-2.2-0.2-3.4-0.3c-1-0.1-2.2-0.1-3.5-0.2s-2.7-0.1-4.1-0.1
		c-2.3,0-4.3,0.2-5.9,0.6s-3,1.1-4,2.3c-1,1.1-1.8,2.7-2.3,4.7c-0.5,2-0.7,4.7-0.7,8c0,3.4,0.3,6.1,0.9,8.2c0.6,2.1,1.4,3.7,2.6,4.8
		s2.6,1.9,4.4,2.3c1.7,0.4,3.8,0.6,6.2,0.6c1.5,0,2.9,0,4.1-0.1c1.3-0.1,2.4-0.2,3.3-0.3c1.1-0.1,2.1-0.3,3-0.5v7.6
		c-1,0.6-2.2,1-3.6,1.5c-1.2,0.4-2.7,0.7-4.5,1s-3.9,0.5-6.3,0.5c-3,0-5.8-0.4-8.4-1.2c-2.6-0.8-4.9-2.2-6.8-4.1
		c-1.9-2-3.5-4.6-4.6-7.8C305.5,228.5,304.9,224.4,304.9,219.5z"/>
	<path class="st0" d="M349.2,219.5c0-4.1,0.4-7.7,1.3-10.9c0.9-3.2,2.3-5.8,4.1-8s4.3-3.8,7.1-4.9c2.9-1.1,6.3-1.7,10.3-1.7
		c4,0,7.5,0.6,10.3,1.7c2.9,1.1,5.3,2.8,7.1,4.9c1.9,2.2,3.2,4.8,4.1,8s1.3,6.8,1.3,10.9s-0.4,7.7-1.3,10.9
		c-0.9,3.2-2.3,5.9-4.1,8.1s-4.2,3.8-7.1,4.9c-2.9,1.1-6.3,1.7-10.3,1.7c-4,0-7.4-0.6-10.3-1.7c-2.9-1.1-5.3-2.8-7.1-4.9
		s-3.3-4.9-4.1-8.1C349.6,227.2,349.2,223.6,349.2,219.5z M372.1,235.9c2.4,0,4.4-0.4,5.9-1.1s2.7-1.8,3.5-3.2s1.4-3.1,1.7-5.1
		c0.3-2,0.4-4.4,0.4-7.1c0-2.6-0.1-5-0.4-7s-0.9-3.8-1.7-5.1s-2-2.4-3.5-3.2c-1.5-0.7-3.5-1.1-5.9-1.1c-2.4,0-4.3,0.4-5.8,1.1
		c-1.5,0.7-2.7,1.8-3.5,3.2s-1.4,3.1-1.7,5.1c-0.3,2-0.4,4.4-0.4,7c0,2.7,0.1,5,0.4,7.1c0.3,2,0.9,3.8,1.7,5.1s2,2.4,3.5,3.2
		C367.8,235.5,369.7,235.9,372.1,235.9z"/>
	<path class="st0" d="M406.9,195.3h8l1.3,3.6c1.7-0.9,3.5-1.7,5.5-2.5c1.6-0.6,3.5-1.2,5.6-1.7c2.1-0.5,4.3-0.8,6.5-0.8
		c2.7,0,4.9,0.4,6.7,1.3s3.1,2.1,4.1,3.9c0.8-0.4,1.8-0.9,3-1.5s2.6-1.1,4.1-1.7s3.2-1,5-1.4c1.8-0.4,3.8-0.6,5.8-0.6
		c4.5,0,7.7,1.3,9.8,3.8c2.1,2.5,3.1,6.4,3.1,11.7v34.3h-10.9v-32.2c0-1.5-0.1-2.7-0.3-3.7s-0.5-1.8-1-2.4c-0.5-0.6-1.2-1.1-2.1-1.4
		s-2.1-0.4-3.5-0.4c-1.2,0-2.3,0.1-3.4,0.2s-2.1,0.3-3.1,0.5c-1,0.2-1.8,0.4-2.6,0.7s-1.4,0.5-2,0.6c0.1,0.8,0.1,1.6,0.2,2.5
		c0,0.9,0,1.6,0,2.2v33.3h-10.9v-32.2c0-1.5-0.1-2.7-0.3-3.7c-0.2-1-0.6-1.8-1.1-2.4c-0.5-0.6-1.2-1.1-2.1-1.4s-2-0.4-3.3-0.4
		c-1.5,0-3,0.1-4.3,0.3s-2.5,0.5-3.5,0.7c-1.2,0.3-2.3,0.6-3.3,1v38H407L406.9,195.3L406.9,195.3z"/>
</g>
<path class="st1" d="M348.9,146.3c0,3.3-2.7,6-6,6s-6-2.7-6-6c0-3.3,2.7-6,6-6C346.2,140.3,348.9,143,348.9,146.3z"/>
<path class="st0" d="M303,9.7c-19.3-4.8-37.9-2.4-55.1,7.9c-17.1,10.2-28,25.2-34,44.1V66c11.3,0,22.6,0,34,0c0.2-0.4,0.4-0.7,0.5-1
	c7.1-15.5,19.2-24.3,36.3-24.5c17-0.1,29.2,8.4,36.5,23.7l27.7-23.9C343,29.4,333.5,17.3,303,9.7z"/>
<path class="st0" d="M213.9,97.6c10.2,38.2,47.8,61,86,53.3c27.9-5.6,56-34.3,55.8-57.1c-11.3,0-22.5,0-33.7,0
	c-6.6,14.7-17.5,24-33.6,25.2c-19.3,1.5-32.6-8-40.6-25.1c-11.3,0-22.6,0-33.9,0"/>
<path class="st0" d="M107.9,7.1c0,48.5,0,96.6,0,145c7.2,0,14.2,0,21.4,0V7.1C122.2,7.1,115.1,7.1,107.9,7.1z"/>
<g class="st2">
	
		<image style="overflow:visible;enable-background:new    ;" width="308" height="454" xlink:href="2299B307.png"  transform="matrix(0.2361 0 0 0.2361 181.4536 25.9176)">
	</image>
</g>
<g class="st2">
	<g>
		<line class="st3" x1="219.1" y1="61.9" x2="219.1" y2="97.9"/>
	</g>
</g>
<g class="st2">
	<g>
		<line class="st3" x1="221.6" y1="61.9" x2="221.7" y2="97.9"/>
	</g>
</g>
<g class="st2">
	<g>
		<line class="st3" x1="224.2" y1="61.9" x2="224.3" y2="97.9"/>
	</g>
</g>
<g class="st2">
	<g>
		<line class="st3" x1="213.9" y1="62.2" x2="213.9" y2="98.2"/>
	</g>
</g>
<g class="st2">
	<g>
		<line class="st3" x1="215.2" y1="61.9" x2="215.2" y2="97.9"/>
	</g>
</g>
<g class="st2">
	<g>
		<line class="st3" x1="216.5" y1="61.9" x2="216.5" y2="97.9"/>
	</g>
</g>
<g class="st2">
	<g>
		<line class="st3" x1="220.4" y1="61.9" x2="220.4" y2="97.9"/>
	</g>
</g>
<g class="st2">
	<g>
		<line class="st3" x1="222.9" y1="61.9" x2="223" y2="97.9"/>
	</g>
</g>
<g class="st2">
	<g>
		<line class="st3" x1="225.5" y1="61.9" x2="225.6" y2="97.9"/>
	</g>
</g>
<g class="st2">
	<g>
		<line class="st3" x1="226.8" y1="61.9" x2="226.9" y2="97.9"/>
	</g>
</g>
<g class="st2">
	<g>
		<line class="st3" x1="228.1" y1="61.9" x2="228.1" y2="97.9"/>
	</g>
</g>
<g class="st2">
	<g>
		<line class="st3" x1="229.4" y1="61.9" x2="229.4" y2="97.9"/>
	</g>
</g>
<g class="st2">
	<g>
		<line class="st3" x1="230.7" y1="61.9" x2="230.8" y2="97.9"/>
	</g>
</g>
<g class="st2">
	<g>
		<line class="st3" x1="232" y1="61.9" x2="232" y2="97.9"/>
	</g>
</g>
<g class="st2">
	<g>
		<line class="st3" x1="233.3" y1="61.9" x2="233.3" y2="97.9"/>
	</g>
</g>
<g class="st2">
	<g>
		<line class="st3" x1="234.6" y1="61.9" x2="234.6" y2="97.9"/>
	</g>
</g>
<g class="st2">
	<g>
		<line class="st3" x1="235.9" y1="61.9" x2="235.9" y2="97.9"/>
	</g>
</g>
<g class="st2">
	<g>
		<line class="st3" x1="237.2" y1="61.9" x2="237.2" y2="97.9"/>
	</g>
</g>
<g class="st2">
	<g>
		<line class="st3" x1="238.5" y1="61.9" x2="238.5" y2="97.9"/>
	</g>
</g>
<g class="st2">
	<g>
		<line class="st3" x1="239.8" y1="61.9" x2="239.8" y2="97.9"/>
	</g>
</g>
<g class="st2">
	<g>
		<line class="st3" x1="241.1" y1="61.9" x2="241.1" y2="97.9"/>
	</g>
</g>
<g class="st2">
	<g>
		<line class="st3" x1="242.4" y1="61.9" x2="242.4" y2="97.9"/>
	</g>
</g>
<g class="st2">
	<g>
		<line class="st3" x1="243.7" y1="61.9" x2="243.7" y2="97.9"/>
	</g>
</g>
<g class="st2">
	<g>
		<line class="st3" x1="245" y1="61.9" x2="245" y2="97.9"/>
	</g>
</g>
<g class="st2">
	<g>
		<line class="st3" x1="246.3" y1="61.9" x2="246.3" y2="97.9"/>
	</g>
</g>
<g class="st2">
	<g>
		<line class="st3" x1="247.6" y1="61.9" x2="247.6" y2="97.9"/>
	</g>
</g>
<path class="st0" d="M206.5,28.9c0-7.3,0-14.3,0-21.4c-19.3,0-38.3,0-57.3,0c0,0,0,0,0,0.1c-0.4,0-0.8,0-1.1,0
	c0,47.9,0,95.2,0,142.5c0.3,0.3,0.5,0.6,0.7,0.6c6.9,0,13.8,0,20.8,0V140c0,0.1,0,0.3-0.1,0.5c0-15.8,0-31.7,0-47.5
	c9.4,0,18.7,0,28.1,0c0-7.3,0-14.3,0-21.4c-9.4,0-18.8,0-28.1,0c0-14.2,0-28.5,0-42.7C181.7,28.9,194.1,28.9,206.5,28.9z"/>
<g>
	
		<rect x="271.8" y="65.6" transform="matrix(0.7071 -0.7071 0.7071 0.7071 27.211 225.8356)" class="st4" width="28.9" height="28.9"/>
	<path class="st5" d="M293.1,80.1c0,3.8-3.1,6.9-6.9,6.9c-3.8,0-6.9-3.1-6.9-6.9c0-3.8,3.1-6.9,6.9-6.9S293.1,76.3,293.1,80.1z"/>
	<line class="st6" x1="274.3" y1="80.1" x2="297.9" y2="80.1"/>
	<line class="st6" x1="286.1" y1="68.3" x2="286.1" y2="91.9"/>
</g>
</svg>
