<?xml version="1.0" encoding="utf-8"?>
<!-- Generator: Adobe Illustrator 23.0.3, SVG Export Plug-In . SVG Version: 6.00 Build 0)  -->
<svg version="1.1" id="Layer_1" xmlns="http://www.w3.org/2000/svg" xmlns:xlink="http://www.w3.org/1999/xlink" x="0px" y="0px"
	 viewBox="0 0 842.6 258.9" style="enable-background:new 0 0 842.6 258.9;" xml:space="preserve">
<style type="text/css">
	.st0{fill:#F8A71A;}
	.st1{fill:#3D2622;}
	.st2{fill:#FFFFFF;}
</style>
<path class="st0" d="M295,31.4c0-3.9,0.1-5.7,0.1-7.9c-21,0.2-42,3.8-60.9,10.2c-0.1,0-0.1,0-0.2,0.1c-2.8,1-5.7,2-8.4,3.1
	c-0.2,0.1-0.3,0.1-0.5,0.2c-2.7,1.1-5.3,2.2-8,3.3c-0.3,0.1-0.5,0.3-0.8,0.4c-2.5,1.1-5,2.3-7.4,3.5c-0.4,0.2-0.8,0.4-1.2,0.6
	c-2.3,1.2-4.6,2.4-6.8,3.7c-0.5,0.3-1,0.6-1.6,0.9c-2.1,1.2-4.2,2.4-6.2,3.7c-0.7,0.4-1.4,0.9-2.1,1.3c-1.9,1.2-3.7,2.4-5.5,3.7
	c-0.9,0.6-1.7,1.2-2.5,1.8c-1.6,1.2-3.2,2.3-4.8,3.5c-1,0.8-2,1.6-3.1,2.5c-1.4,1.1-2.7,2.2-4,3.3c-1.3,1.1-2.6,2.3-3.8,3.4
	c-1,0.9-2,1.8-3,2.7c-2.2,2.1-4.4,4.2-6.6,6.4c-2.2,1.9-2,3.8-1.7,5.4c0.9,5.1,2.3,9.2-1.8,13.5c-24.6,26.9-40.7,58.3-48.2,94
	c-0.6,3-1.7,5.3-3.2,7.1c-1.9,2.2-4.4,3.7-8,4.8c-24.6,7.9-49.1,16.2-73.6,24.4c-2.6,0.9-6.2,1.2-5.7,5.1c0.2,2,1.2,3.9,2.6,4.7
	h85.3h7.9h25.3c-0.8-6.5,0.1-28.3,0.1-28.3s0.9-11.1,1.2-13.5c0.1-0.8,0.3-1.6,0.4-2.5c0.3-1.6,0.5-3.2,0.8-4.8
	c0.2-1,0.4-2.1,0.6-3.1c0.3-1.4,0.5-2.7,0.9-4.1c0.3-1.1,0.6-2.2,0.9-3.4c0.3-1.2,0.6-2.5,0.9-3.7c0.3-1.2,0.7-2.4,1.1-3.6
	c0.3-1.1,0.7-2.2,1-3.3c0.4-1.2,0.9-2.5,1.3-3.7c0.4-1,0.7-2.1,1.1-3.1c0.5-1.3,1-2.5,1.6-3.8c0.4-1,0.8-1.9,1.2-2.8
	c0.6-1.3,1.2-2.6,1.8-3.9c0.4-0.8,0.8-1.7,1.2-2.6c0.7-1.3,1.4-2.6,2.1-4c0.4-0.8,0.8-1.6,1.2-2.3c0.8-1.4,1.6-2.7,2.3-4
	c0.4-0.7,0.8-1.4,1.2-2.1c0.9-1.4,1.7-2.7,2.6-4.1c0.4-0.6,0.8-1.2,1.2-1.8c0.9-1.4,1.9-2.8,2.9-4.1c0.4-0.5,0.8-1.1,1.2-1.6
	c1-1.4,2.1-2.8,3.2-4.1c0.4-0.5,0.7-0.9,1.1-1.4c1.2-1.4,2.3-2.8,3.5-4.2c0.3-0.4,0.7-0.8,1-1.2c1.3-1.4,2.5-2.8,3.8-4.1
	c0.3-0.3,0.6-0.7,1-1c1.4-1.4,2.7-2.7,4.1-4.1c0.3-0.3,0.6-0.5,0.9-0.8c1.5-1.4,3-2.7,4.5-4c0.8-0.7,1.6-1.3,2.7-2.4
	c0.8-0.8,1.7-1.4,2.6-2c0.3-0.2,0.6-0.4,0.8-0.7c1.7-1.3,3.4-2.6,5.1-3.8c0.2-0.1,0.3-0.2,0.5-0.4c1.8-1.3,3.6-2.5,5.4-3.7
	c0.1-0.1,0.3-0.2,0.4-0.3c1.9-1.2,3.8-2.4,5.7-3.5c0.1-0.1,0.2-0.1,0.3-0.2c2-1.1,3.9-2.3,5.9-3.3c0.1,0,0.1-0.1,0.2-0.1
	c2.1-1.1,4.1-2.1,6.2-3.1h0.1c2.1-1,4.3-2,6.5-2.9l0,0c17.5-7.3,36.7-11.5,56.8-12c1.2,0,2.4-0.1,3.6-0.1c0.5,0,1,0,1.5,0
	c0.2-1,0.2-2.1,0.2-3.3C294.8,50.6,295.1,41,295,31.4"/>
<path class="st0" d="M292,83.9c-77.3,0-139.9,62.6-139.9,139.9c0,5.8,0.4,11.5,1,17.1h141.5v-157C293.7,83.9,292.9,83.9,292,83.9z"
	/>
<g>
	<path class="st1" d="M225.4,142.8c0,4.1-3,7.4-7.9,7.4c-4.6,0-7.6-3.3-7.6-7.4c0-4.2,3.1-7.5,7.8-7.5
		C222.3,135.4,225.3,138.6,225.4,142.8z M210.6,222.6v-64.5h13.9v64.5H210.6z"/>
	<path class="st1" d="M240,137.1h44.1v11.3H254v20.8h28v11.2h-28v42.1h-14V137.1z"/>
</g>
<path class="st1" d="M399.9,241.3V23.4h64.5c10.5,0,20.1,0.9,28.9,2.8c8.7,1.9,16.4,4.9,22.8,9c6.5,4.1,11.5,9.6,15.1,16.5
	s5.4,15.3,5.4,25.3c0,10.4-2.5,20.1-7.4,29s-11.8,15-20.7,18.3v1.3c11.1,2.7,20.3,8.3,27.6,16.8c7.3,8.6,11,20.2,11,34.8
	c0,10.9-2,20.3-5.9,28.3s-9.3,14.7-16.2,20s-15.1,9.3-24.5,11.8c-9.5,2.6-19.8,3.8-30.9,3.8h-69.7V241.3z M435.7,113.4h25.6
	c14.2,0,24.4-2.8,30.7-8.3s9.4-13,9.4-22.3c0-10.7-3.3-18.2-9.9-22.7c-6.6-4.4-16.5-6.7-29.6-6.7h-26.2V113.4z M435.7,211.4H466
	c14.8,0,26.2-2.9,34.3-8.8c8-5.9,12-14.9,12-27.2c0-11.5-3.9-19.9-11.7-25.2c-7.8-5.2-19.3-7.8-34.6-7.8h-30.3V211.4z"/>
<path class="st1" d="M555.3,241.3V24.8h47.3v216.6L555.3,241.3L555.3,241.3z"/>
<path class="st1" d="M623.3,241.3V24.8h56.8l30.3,88.6c1.9,6,3.6,12.2,5.2,18.7c1.6,6.4,3.4,12.9,5.2,19.3h1.2
	c1.9-6.4,3.6-12.9,5.2-19.3c1.6-6.4,3.4-12.7,5.2-18.7l29-88.6h56.8v216.6H770v-64c0-5.5,0.3-11.7,0.8-18.3
	c0.5-6.7,1.1-13.5,1.7-20.5s1.3-13.8,2.2-20.5c0.8-6.7,1.5-12.7,2.2-18h-1.2l-16.7,52l-24.7,71.6H706l-24.7-71.6l-16.1-52H664
	c0.6,5.3,1.3,11.3,2.2,18c0.8,6.7,1.5,13.5,2.2,20.5c0.6,7,1.2,13.8,1.7,20.5s0.8,12.8,0.8,18.3v64h-47.6V241.3z"/>
<path class="st0" d="M314,83.8l0.1,157.1h76.1l-0.2-128C369,90.8,340.9,84.8,314,83.8z"/>
<rect x="312" y="128.9" class="st2" width="25" height="11"/>
<rect x="312" y="149.5" class="st2" width="25" height="11"/>
<rect x="312" y="170.2" class="st2" width="25" height="11"/>
<rect x="312" y="190.8" class="st2" width="25" height="11"/>
<rect x="339.7" y="128.9" class="st2" width="31.5" height="11"/>
<rect x="339.7" y="149.5" class="st2" width="31.5" height="11"/>
<rect x="339.7" y="170.2" class="st2" width="31.5" height="11"/>
<rect x="339.7" y="190.8" class="st2" width="31.5" height="11"/>
<rect x="312" y="211.5" class="st2" width="25" height="11"/>
<rect x="339.7" y="211.5" class="st2" width="31.5" height="11"/>
<path class="st1" d="M390,92.7V23.8l-75.6-0.5v40.8C350,65.8,371,73.8,390,92.7z"/>
</svg>
