<?xml version="1.0" encoding="utf-8"?>
<!-- Generator: Adobe Illustrator 23.0.3, SVG Export Plug-In . SVG Version: 6.00 Build 0)  -->
<svg version="1.1" id="Layer_1" xmlns="http://www.w3.org/2000/svg" xmlns:xlink="http://www.w3.org/1999/xlink" x="0px" y="0px"
	 viewBox="0 0 478 172" style="enable-background:new 0 0 478 172;" xml:space="preserve">
<style type="text/css">
	.st0{fill:#333333;}
	.st1{fill:#F29D1F;}
	.st2{fill-rule:evenodd;clip-rule:evenodd;fill:#F29D1F;}
	.st3{fill-rule:evenodd;clip-rule:evenodd;fill:#333333;}
</style>
<g>
	<path class="st0" d="M230.2,144.6c-0.1-0.1-0.3-0.2-0.5-0.3s-0.4-0.2-0.6-0.3c-0.2-0.1-0.5-0.1-0.7-0.2s-0.5-0.1-0.8-0.1
		c-0.7,0-1.4,0.1-2,0.4c-0.6,0.3-1.1,0.6-1.5,1.1c-0.4,0.5-0.7,1-1,1.6c-0.2,0.6-0.3,1.3-0.3,2c0,0.6,0.1,1.1,0.2,1.5
		s0.4,0.8,0.7,1.1c0.3,0.3,0.7,0.5,1.1,0.7c0.4,0.2,0.9,0.2,1.4,0.2c0.3,0,0.6,0,0.9-0.1c0.3,0,0.5-0.1,0.7-0.2
		c0.2-0.1,0.4-0.1,0.6-0.2c0.2-0.1,0.4-0.2,0.6-0.3l-0.3,1.3c-0.4,0.2-0.8,0.3-1.3,0.4c-0.5,0.1-1,0.1-1.5,0.1
		c-0.7,0-1.3-0.1-1.8-0.3c-0.5-0.2-1-0.5-1.4-0.9s-0.7-0.9-0.9-1.5c-0.2-0.6-0.3-1.2-0.3-1.9c0-0.9,0.1-1.8,0.4-2.5
		c0.3-0.8,0.7-1.4,1.2-2c0.5-0.6,1.2-1,1.9-1.3s1.6-0.5,2.5-0.5c0.6,0,1.2,0.1,1.7,0.2c0.5,0.1,0.9,0.3,1.2,0.5L230.2,144.6z"/>
	<path class="st0" d="M233.2,153.3c-0.1,0-0.3,0.1-0.4,0.1c-0.2,0-0.3,0-0.5,0c-0.5,0-0.9-0.1-1.1-0.4c-0.2-0.2-0.4-0.6-0.4-1
		c0-0.1,0-0.3,0-0.4c0-0.2,0.1-0.4,0.1-0.6l1.9-8.8h1.2l-1.9,8.8c0,0.2-0.1,0.4-0.1,0.5c0,0.1,0,0.2,0,0.3c0,0.2,0.1,0.4,0.2,0.5
		c0.1,0.1,0.3,0.2,0.5,0.2c0.1,0,0.2,0,0.3,0s0.2,0,0.3-0.1L233.2,153.3z"/>
	<path class="st0" d="M241.5,148.6c0,0.7-0.1,1.3-0.3,1.9c-0.2,0.6-0.5,1.1-0.8,1.6c-0.4,0.4-0.8,0.8-1.3,1.1
		c-0.5,0.3-1.1,0.4-1.7,0.4c-0.4,0-0.8-0.1-1.2-0.2s-0.6-0.3-0.9-0.6c-0.2-0.3-0.4-0.6-0.6-0.9c-0.1-0.4-0.2-0.8-0.2-1.2
		c0-0.7,0.1-1.3,0.3-1.9c0.2-0.6,0.5-1.1,0.8-1.6c0.4-0.4,0.8-0.8,1.3-1c0.5-0.3,1.1-0.4,1.7-0.4c0.4,0,0.8,0.1,1.2,0.2
		s0.6,0.3,0.9,0.6c0.2,0.3,0.4,0.6,0.6,0.9S241.5,148.2,241.5,148.6z M240.3,148.7c0-0.3,0-0.6-0.1-0.8s-0.2-0.5-0.3-0.6
		c-0.1-0.2-0.3-0.3-0.5-0.4c-0.2-0.1-0.4-0.1-0.7-0.1c-0.4,0-0.8,0.1-1.2,0.3s-0.6,0.5-0.9,0.9c-0.2,0.4-0.4,0.8-0.6,1.2
		s-0.2,0.9-0.2,1.4c0,0.3,0,0.6,0.1,0.8c0.1,0.2,0.2,0.5,0.3,0.6c0.1,0.2,0.3,0.3,0.5,0.4s0.4,0.1,0.7,0.1c0.4,0,0.8-0.1,1.2-0.3
		s0.6-0.5,0.9-0.9c0.2-0.4,0.4-0.8,0.6-1.2C240.2,149.6,240.3,149.2,240.3,148.7z"/>
	<path class="st0" d="M248.9,151.2c0,0.2-0.1,0.4-0.1,0.6c0,0.2-0.1,0.4-0.1,0.6s-0.1,0.4-0.1,0.5s0,0.3-0.1,0.4h-1.2
		c0-0.2,0.1-0.4,0.1-0.6c0-0.2,0.1-0.4,0.1-0.6c0-0.2,0.1-0.4,0.1-0.6h0c-0.2,0.3-0.4,0.5-0.6,0.8c-0.2,0.2-0.4,0.4-0.7,0.6
		c-0.2,0.2-0.5,0.3-0.8,0.4c-0.3,0.1-0.6,0.2-0.8,0.2c-0.3,0-0.6-0.1-0.8-0.1c-0.2-0.1-0.4-0.2-0.6-0.4s-0.3-0.4-0.4-0.7
		c-0.1-0.3-0.1-0.5-0.1-0.9c0-0.1,0-0.2,0-0.3s0-0.3,0.1-0.4s0.1-0.3,0.1-0.4c0-0.1,0.1-0.3,0.1-0.4l0.9-4.1h1.2l-0.9,4.4
		c0,0.1,0,0.2-0.1,0.3s0,0.2-0.1,0.3c0,0.1,0,0.2,0,0.3c0,0.1,0,0.2,0,0.2c0,0.4,0.1,0.7,0.3,0.9s0.4,0.3,0.8,0.3
		c0.2,0,0.4,0,0.6-0.1s0.4-0.2,0.6-0.4c0.2-0.1,0.4-0.3,0.6-0.5c0.2-0.2,0.3-0.4,0.5-0.6c0.1-0.2,0.3-0.5,0.4-0.7s0.2-0.5,0.2-0.7
		l0.8-3.7h1.2L248.9,151.2z"/>
	<path class="st0" d="M257.1,151.1c0,0.2-0.1,0.3-0.1,0.6c0,0.2-0.1,0.4-0.1,0.7s0,0.4-0.1,0.6c0,0.2,0,0.3,0,0.5h-1.2
		c0-0.1,0-0.2,0-0.3c0-0.1,0-0.3,0-0.4c0-0.2,0-0.3,0.1-0.4c0-0.1,0-0.3,0.1-0.3h0c-0.2,0.3-0.4,0.5-0.5,0.8
		c-0.2,0.2-0.4,0.4-0.6,0.5c-0.2,0.1-0.4,0.3-0.6,0.3c-0.2,0.1-0.5,0.1-0.7,0.1c-0.3,0-0.7-0.1-0.9-0.2s-0.5-0.3-0.7-0.5
		c-0.2-0.2-0.3-0.5-0.4-0.9s-0.2-0.8-0.2-1.2c0-0.4,0-0.7,0.1-1.1c0.1-0.4,0.2-0.8,0.4-1.2c0.2-0.4,0.4-0.7,0.6-1.1
		c0.2-0.3,0.5-0.6,0.9-0.9s0.7-0.5,1.2-0.6c0.4-0.1,0.9-0.2,1.5-0.2c0.3,0,0.5,0,0.8,0.1c0.2,0,0.4,0.1,0.6,0.1l0.8-3.6h1.2
		L257.1,151.1z M256.8,146.9c-0.2-0.1-0.4-0.1-0.6-0.1c-0.2,0-0.4,0-0.6,0c-0.4,0-0.8,0.1-1.1,0.2c-0.3,0.1-0.6,0.3-0.9,0.5
		s-0.4,0.5-0.6,0.8c-0.2,0.3-0.3,0.6-0.4,0.9s-0.2,0.6-0.2,0.9c0,0.3-0.1,0.5-0.1,0.8c0,0.3,0,0.5,0.1,0.7c0,0.2,0.1,0.4,0.2,0.6
		s0.2,0.3,0.4,0.4c0.2,0.1,0.4,0.1,0.6,0.1c0.2,0,0.5-0.1,0.7-0.2s0.4-0.2,0.6-0.4s0.4-0.4,0.5-0.6c0.2-0.2,0.3-0.5,0.4-0.7
		c0.1-0.3,0.2-0.5,0.3-0.8c0.1-0.3,0.2-0.5,0.2-0.8L256.8,146.9z"/>
	<path class="st0" d="M270,144.4c-0.1-0.1-0.3-0.2-0.4-0.2s-0.4-0.1-0.5-0.2s-0.4-0.1-0.6-0.1c-0.2,0-0.4-0.1-0.6-0.1
		c-0.4,0-0.7,0.1-1,0.2c-0.3,0.1-0.5,0.3-0.6,0.4c-0.2,0.2-0.3,0.4-0.3,0.6s-0.1,0.4-0.1,0.6c0,0.2,0,0.4,0.1,0.6
		c0.1,0.2,0.2,0.4,0.3,0.5c0.1,0.2,0.3,0.3,0.5,0.5c0.2,0.2,0.4,0.4,0.7,0.5c0.3,0.2,0.6,0.4,0.8,0.7c0.2,0.2,0.4,0.4,0.6,0.7
		c0.2,0.2,0.3,0.5,0.4,0.7s0.1,0.5,0.1,0.8c0,0.2,0,0.4-0.1,0.6c0,0.2-0.1,0.4-0.2,0.7c-0.1,0.2-0.2,0.4-0.4,0.6
		c-0.2,0.2-0.4,0.4-0.6,0.6s-0.6,0.3-0.9,0.4s-0.8,0.1-1.3,0.1c-0.3,0-0.5,0-0.8-0.1c-0.3,0-0.5-0.1-0.8-0.2s-0.5-0.1-0.7-0.2
		c-0.2-0.1-0.4-0.2-0.5-0.2l0.2-1.3c0.2,0.1,0.3,0.2,0.5,0.3c0.2,0.1,0.4,0.2,0.6,0.3c0.2,0.1,0.5,0.1,0.7,0.2s0.5,0.1,0.7,0.1
		c0.4,0,0.7,0,1-0.1s0.5-0.2,0.7-0.4c0.2-0.2,0.3-0.3,0.4-0.5c0.1-0.2,0.1-0.4,0.1-0.7c0-0.2,0-0.4-0.1-0.6
		c-0.1-0.2-0.2-0.3-0.3-0.5c-0.1-0.2-0.3-0.3-0.5-0.5c-0.2-0.2-0.5-0.4-0.8-0.6c-0.2-0.2-0.5-0.4-0.7-0.6c-0.2-0.2-0.4-0.4-0.6-0.6
		c-0.2-0.2-0.3-0.5-0.4-0.8s-0.1-0.6-0.1-0.9c0-0.4,0.1-0.8,0.2-1.1c0.1-0.4,0.4-0.7,0.7-0.9c0.3-0.3,0.7-0.5,1.1-0.6
		c0.4-0.2,0.9-0.2,1.5-0.2c0.2,0,0.4,0,0.7,0c0.2,0,0.4,0.1,0.6,0.1c0.2,0,0.4,0.1,0.6,0.2c0.2,0.1,0.3,0.1,0.5,0.2L270,144.4z"/>
	<path class="st0" d="M275.3,146.9h-1.9l-0.8,4c0,0.2-0.1,0.3-0.1,0.5s0,0.3,0,0.4c0,0.2,0.1,0.4,0.2,0.5c0.1,0.1,0.3,0.2,0.5,0.2
		c0.1,0,0.1,0,0.2,0c0.1,0,0.2,0,0.3-0.1c0.1,0,0.2-0.1,0.3-0.1c0.1,0,0.2-0.1,0.3-0.1l-0.2,1.1c-0.2,0.1-0.4,0.1-0.6,0.2
		c-0.2,0.1-0.4,0.1-0.6,0.1c-0.3,0-0.5,0-0.7-0.1c-0.2-0.1-0.4-0.2-0.5-0.3s-0.2-0.3-0.3-0.5c-0.1-0.2-0.1-0.4-0.1-0.6
		c0-0.1,0-0.3,0-0.5c0-0.2,0.1-0.4,0.1-0.5l0.9-4.1H271l0.2-1h1.2l0.4-1.8c0,0,0.1,0,0.2-0.1c0.1,0,0.3-0.1,0.4-0.1
		c0.2,0,0.3-0.1,0.4-0.1s0.2-0.1,0.2-0.1l-0.5,2.2h1.9L275.3,146.9z"/>
	<path class="st0" d="M282.6,148.6c0,0.7-0.1,1.3-0.3,1.9c-0.2,0.6-0.5,1.1-0.8,1.6c-0.4,0.4-0.8,0.8-1.3,1.1
		c-0.5,0.3-1.1,0.4-1.7,0.4c-0.4,0-0.8-0.1-1.2-0.2s-0.6-0.3-0.9-0.6c-0.2-0.3-0.4-0.6-0.6-0.9c-0.1-0.4-0.2-0.8-0.2-1.2
		c0-0.7,0.1-1.3,0.3-1.9c0.2-0.6,0.5-1.1,0.8-1.6c0.4-0.4,0.8-0.8,1.3-1c0.5-0.3,1.1-0.4,1.7-0.4c0.4,0,0.8,0.1,1.2,0.2
		s0.6,0.3,0.9,0.6c0.2,0.3,0.4,0.6,0.6,0.9S282.6,148.2,282.6,148.6z M281.4,148.7c0-0.3,0-0.6-0.1-0.8s-0.2-0.5-0.3-0.6
		c-0.1-0.2-0.3-0.3-0.5-0.4c-0.2-0.1-0.4-0.1-0.7-0.1c-0.4,0-0.8,0.1-1.2,0.3s-0.6,0.5-0.9,0.9c-0.2,0.4-0.4,0.8-0.6,1.2
		s-0.2,0.9-0.2,1.4c0,0.3,0,0.6,0.1,0.8c0.1,0.2,0.2,0.5,0.3,0.6c0.1,0.2,0.3,0.3,0.5,0.4s0.4,0.1,0.7,0.1c0.4,0,0.8-0.1,1.2-0.3
		s0.6-0.5,0.9-0.9c0.2-0.4,0.4-0.8,0.6-1.2C281.3,149.6,281.4,149.2,281.4,148.7z"/>
	<path class="st0" d="M288.8,147.1L288.8,147.1c-0.1-0.1-0.3-0.1-0.4-0.2c-0.2-0.1-0.3-0.1-0.5-0.1c-0.3,0-0.6,0.1-0.8,0.3
		s-0.5,0.4-0.7,0.7s-0.4,0.6-0.6,1c-0.2,0.4-0.3,0.8-0.4,1.2l-0.7,3.3h-1.2l1.1-5c0-0.2,0.1-0.4,0.1-0.6c0-0.2,0.1-0.5,0.1-0.7
		c0-0.2,0.1-0.4,0.1-0.6s0.1-0.4,0.1-0.6h1.2c0,0.1,0,0.3-0.1,0.5s0,0.3-0.1,0.5c0,0.2,0,0.3-0.1,0.4c0,0.1,0,0.2,0,0.3h0
		c0.2-0.3,0.3-0.5,0.5-0.8s0.3-0.4,0.5-0.6c0.2-0.2,0.4-0.3,0.6-0.4s0.4-0.1,0.7-0.1c0.1,0,0.3,0,0.4,0c0.1,0,0.3,0.1,0.4,0.1
		L288.8,147.1z"/>
	<path class="st0" d="M295.1,151c0,0.2-0.1,0.4-0.1,0.6c0,0.2-0.1,0.5-0.1,0.7c0,0.2,0,0.4-0.1,0.6c0,0.2,0,0.3,0,0.5h-1.2
		c0-0.1,0-0.2,0-0.4s0-0.3,0-0.4c0-0.1,0-0.3,0.1-0.4c0-0.1,0-0.3,0.1-0.4h0c-0.2,0.2-0.3,0.5-0.5,0.7c-0.2,0.2-0.3,0.4-0.5,0.6
		c-0.2,0.2-0.4,0.3-0.6,0.4s-0.5,0.1-0.8,0.1c-0.3,0-0.6-0.1-0.9-0.2c-0.3-0.1-0.5-0.3-0.7-0.5c-0.2-0.2-0.3-0.5-0.5-0.9
		c-0.1-0.4-0.2-0.8-0.2-1.2c0-0.3,0-0.6,0.1-1s0.2-0.7,0.3-1.1c0.1-0.4,0.3-0.7,0.6-1.1c0.2-0.4,0.5-0.7,0.9-1
		c0.3-0.3,0.8-0.5,1.2-0.7c0.5-0.2,1-0.3,1.6-0.3c0.4,0,0.8,0,1.2,0.1c0.4,0.1,0.8,0.1,1.2,0.2L295.1,151z M294.7,146.8
		c-0.2,0-0.4-0.1-0.6-0.1s-0.4,0-0.6,0c-0.4,0-0.8,0.1-1.1,0.2c-0.3,0.1-0.6,0.3-0.8,0.5c-0.2,0.2-0.4,0.5-0.6,0.8
		c-0.2,0.3-0.3,0.6-0.4,0.9c-0.1,0.3-0.2,0.6-0.2,0.9c0,0.3-0.1,0.5-0.1,0.8c0,0.3,0,0.5,0.1,0.8c0,0.2,0.1,0.4,0.2,0.6
		s0.2,0.3,0.4,0.4c0.2,0.1,0.4,0.1,0.6,0.1c0.2,0,0.5,0,0.7-0.1c0.2-0.1,0.4-0.2,0.6-0.4s0.4-0.4,0.5-0.6c0.2-0.2,0.3-0.5,0.4-0.7
		c0.1-0.3,0.2-0.5,0.3-0.8c0.1-0.3,0.2-0.5,0.2-0.8L294.7,146.8z"/>
	<path class="st0" d="M302.8,152.8c-0.1,0.6-0.3,1.1-0.5,1.6s-0.5,0.9-0.8,1.3c-0.3,0.4-0.7,0.6-1.2,0.9s-1.1,0.3-1.8,0.3
		c-0.5,0-0.9-0.1-1.3-0.2c-0.4-0.1-0.7-0.2-1-0.4l0.2-1.1c0.3,0.2,0.6,0.3,1,0.5s0.7,0.2,1.1,0.2c0.4,0,0.8-0.1,1.1-0.2
		c0.3-0.1,0.6-0.3,0.8-0.6c0.2-0.2,0.4-0.5,0.6-0.9c0.2-0.4,0.3-0.8,0.4-1.2l0.3-1.2h0c-0.2,0.3-0.4,0.6-0.5,0.8
		c-0.2,0.2-0.4,0.4-0.6,0.5c-0.2,0.1-0.4,0.3-0.6,0.3c-0.2,0.1-0.5,0.1-0.7,0.1c-0.3,0-0.6-0.1-0.9-0.2c-0.3-0.1-0.5-0.3-0.7-0.5
		c-0.2-0.2-0.3-0.5-0.4-0.9c-0.1-0.4-0.2-0.8-0.2-1.2c0-0.4,0-0.9,0.1-1.3c0.1-0.4,0.2-0.8,0.4-1.2c0.2-0.4,0.4-0.7,0.7-1
		c0.3-0.3,0.6-0.6,0.9-0.8s0.7-0.4,1.1-0.5c0.4-0.1,0.8-0.2,1.3-0.2c0.5,0,0.9,0,1.4,0.1c0.5,0.1,0.9,0.1,1.3,0.2L302.8,152.8z
		 M302.9,146.8c-0.2,0-0.4-0.1-0.6-0.1s-0.5,0-0.8,0c-0.5,0-0.9,0.1-1.3,0.3c-0.4,0.2-0.7,0.5-1,0.9c-0.3,0.4-0.5,0.8-0.6,1.3
		c-0.2,0.5-0.2,1-0.2,1.5c0,0.3,0,0.5,0.1,0.7c0,0.2,0.1,0.4,0.2,0.6s0.2,0.3,0.4,0.4s0.4,0.1,0.6,0.1c0.3,0,0.5-0.1,0.7-0.2
		c0.2-0.1,0.4-0.3,0.6-0.4c0.2-0.2,0.4-0.4,0.5-0.6c0.1-0.2,0.3-0.5,0.4-0.7c0.1-0.2,0.2-0.5,0.3-0.7c0.1-0.2,0.1-0.5,0.2-0.7
		L302.9,146.8z"/>
	<path class="st0" d="M311.8,147.6c0,0.4-0.1,0.8-0.3,1.1c-0.2,0.3-0.5,0.6-0.9,0.8s-0.9,0.4-1.6,0.5c-0.7,0.1-1.5,0.2-2.5,0.2
		c0,0.1,0,0.1,0,0.2c0,0.1,0,0.1,0,0.1c0,0.3,0,0.5,0.1,0.7s0.2,0.4,0.3,0.6s0.4,0.3,0.6,0.4s0.5,0.2,0.9,0.2c0.3,0,0.7-0.1,1.1-0.2
		c0.4-0.1,0.8-0.3,1.2-0.6l-0.2,1.2c-0.3,0.2-0.6,0.3-1,0.4c-0.4,0.1-0.8,0.2-1.2,0.2c-0.6,0-1-0.1-1.4-0.3s-0.7-0.4-0.9-0.7
		c-0.2-0.3-0.4-0.6-0.5-1s-0.2-0.8-0.2-1.2c0-0.4,0-0.9,0.1-1.3c0.1-0.4,0.2-0.8,0.4-1.1c0.2-0.4,0.4-0.7,0.6-1s0.5-0.5,0.8-0.7
		s0.6-0.4,1-0.5c0.3-0.1,0.7-0.2,1.1-0.2c0.4,0,0.7,0.1,1,0.2c0.3,0.1,0.5,0.2,0.7,0.4c0.2,0.2,0.3,0.4,0.5,0.6
		C311.7,147.1,311.8,147.4,311.8,147.6z M310.6,147.7c0-0.3-0.1-0.5-0.3-0.7s-0.5-0.3-0.9-0.3c-0.3,0-0.6,0.1-0.9,0.2
		c-0.3,0.1-0.5,0.3-0.8,0.5c-0.2,0.2-0.4,0.5-0.6,0.8c-0.2,0.3-0.3,0.7-0.4,1c0.7,0,1.3,0,1.8-0.1c0.5-0.1,0.9-0.2,1.2-0.3
		s0.5-0.3,0.7-0.5C310.5,148.1,310.6,147.9,310.6,147.7z"/>
	<path class="st0" d="M323.5,144.4c-0.1-0.1-0.3-0.2-0.4-0.2s-0.4-0.1-0.5-0.2s-0.4-0.1-0.6-0.1c-0.2,0-0.4-0.1-0.6-0.1
		c-0.4,0-0.7,0.1-1,0.2c-0.3,0.1-0.5,0.3-0.6,0.4c-0.2,0.2-0.3,0.4-0.3,0.6s-0.1,0.4-0.1,0.6c0,0.2,0,0.4,0.1,0.6
		c0.1,0.2,0.2,0.4,0.3,0.5c0.1,0.2,0.3,0.3,0.5,0.5c0.2,0.2,0.4,0.4,0.7,0.5c0.3,0.2,0.6,0.4,0.8,0.7c0.2,0.2,0.4,0.4,0.6,0.7
		c0.2,0.2,0.3,0.5,0.4,0.7s0.1,0.5,0.1,0.8c0,0.2,0,0.4-0.1,0.6c0,0.2-0.1,0.4-0.2,0.7c-0.1,0.2-0.2,0.4-0.4,0.6
		c-0.2,0.2-0.4,0.4-0.6,0.6s-0.6,0.3-0.9,0.4s-0.8,0.1-1.3,0.1c-0.3,0-0.5,0-0.8-0.1c-0.3,0-0.5-0.1-0.8-0.2s-0.5-0.1-0.7-0.2
		c-0.2-0.1-0.4-0.2-0.5-0.2l0.2-1.3c0.2,0.1,0.3,0.2,0.5,0.3c0.2,0.1,0.4,0.2,0.6,0.3c0.2,0.1,0.5,0.1,0.7,0.2s0.5,0.1,0.7,0.1
		c0.4,0,0.7,0,1-0.1s0.5-0.2,0.7-0.4c0.2-0.2,0.3-0.3,0.4-0.5c0.1-0.2,0.1-0.4,0.1-0.7c0-0.2,0-0.4-0.1-0.6
		c-0.1-0.2-0.2-0.3-0.3-0.5c-0.1-0.2-0.3-0.3-0.5-0.5c-0.2-0.2-0.5-0.4-0.8-0.6c-0.2-0.2-0.5-0.4-0.7-0.6c-0.2-0.2-0.4-0.4-0.6-0.6
		c-0.2-0.2-0.3-0.5-0.4-0.8s-0.1-0.6-0.1-0.9c0-0.4,0.1-0.8,0.2-1.1c0.1-0.4,0.4-0.7,0.7-0.9c0.3-0.3,0.7-0.5,1.1-0.6
		c0.4-0.2,0.9-0.2,1.5-0.2c0.2,0,0.4,0,0.7,0c0.2,0,0.4,0.1,0.6,0.1c0.2,0,0.4,0.1,0.6,0.2c0.2,0.1,0.3,0.1,0.5,0.2L323.5,144.4z"/>
	<path class="st0" d="M331.2,148.6c0,0.7-0.1,1.3-0.3,1.9c-0.2,0.6-0.5,1.1-0.8,1.6c-0.4,0.4-0.8,0.8-1.3,1.1
		c-0.5,0.3-1.1,0.4-1.7,0.4c-0.4,0-0.8-0.1-1.2-0.2s-0.6-0.3-0.9-0.6c-0.2-0.3-0.4-0.6-0.6-0.9c-0.1-0.4-0.2-0.8-0.2-1.2
		c0-0.7,0.1-1.3,0.3-1.9c0.2-0.6,0.5-1.1,0.8-1.6c0.4-0.4,0.8-0.8,1.3-1c0.5-0.3,1.1-0.4,1.7-0.4c0.4,0,0.8,0.1,1.2,0.2
		s0.6,0.3,0.9,0.6c0.2,0.3,0.4,0.6,0.6,0.9S331.2,148.2,331.2,148.6z M329.9,148.7c0-0.3,0-0.6-0.1-0.8s-0.2-0.5-0.3-0.6
		c-0.1-0.2-0.3-0.3-0.5-0.4c-0.2-0.1-0.4-0.1-0.7-0.1c-0.4,0-0.8,0.1-1.2,0.3s-0.6,0.5-0.9,0.9c-0.2,0.4-0.4,0.8-0.6,1.2
		s-0.2,0.9-0.2,1.4c0,0.3,0,0.6,0.1,0.8c0.1,0.2,0.2,0.5,0.3,0.6c0.1,0.2,0.3,0.3,0.5,0.4s0.4,0.1,0.7,0.1c0.4,0,0.8-0.1,1.2-0.3
		s0.6-0.5,0.9-0.9c0.2-0.4,0.4-0.8,0.6-1.2C329.9,149.6,329.9,149.2,329.9,148.7z"/>
	<path class="st0" d="M334.8,153.3c-0.1,0-0.3,0.1-0.4,0.1c-0.2,0-0.3,0-0.5,0c-0.5,0-0.9-0.1-1.1-0.4c-0.2-0.2-0.4-0.6-0.4-1
		c0-0.1,0-0.3,0-0.4c0-0.2,0.1-0.4,0.1-0.6l1.9-8.8h1.2l-1.9,8.8c0,0.2-0.1,0.4-0.1,0.5c0,0.1,0,0.2,0,0.3c0,0.2,0.1,0.4,0.2,0.5
		c0.1,0.1,0.3,0.2,0.5,0.2c0.1,0,0.2,0,0.3,0s0.2,0,0.3-0.1L334.8,153.3z"/>
	<path class="st0" d="M342.5,151.2c0,0.2-0.1,0.4-0.1,0.6c0,0.2-0.1,0.4-0.1,0.6s-0.1,0.4-0.1,0.5s0,0.3-0.1,0.4h-1.2
		c0-0.2,0.1-0.4,0.1-0.6c0-0.2,0.1-0.4,0.1-0.6c0-0.2,0.1-0.4,0.1-0.6h0c-0.2,0.3-0.4,0.5-0.6,0.8c-0.2,0.2-0.4,0.4-0.7,0.6
		c-0.2,0.2-0.5,0.3-0.8,0.4c-0.3,0.1-0.6,0.2-0.8,0.2c-0.3,0-0.6-0.1-0.8-0.1c-0.2-0.1-0.4-0.2-0.6-0.4s-0.3-0.4-0.4-0.7
		c-0.1-0.3-0.1-0.5-0.1-0.9c0-0.1,0-0.2,0-0.3s0-0.3,0.1-0.4s0.1-0.3,0.1-0.4c0-0.1,0.1-0.3,0.1-0.4l0.9-4.1h1.2l-0.9,4.4
		c0,0.1,0,0.2-0.1,0.3s0,0.2-0.1,0.3c0,0.1,0,0.2,0,0.3c0,0.1,0,0.2,0,0.2c0,0.4,0.1,0.7,0.3,0.9s0.4,0.3,0.8,0.3
		c0.2,0,0.4,0,0.6-0.1s0.4-0.2,0.6-0.4c0.2-0.1,0.4-0.3,0.6-0.5c0.2-0.2,0.3-0.4,0.5-0.6c0.1-0.2,0.3-0.5,0.4-0.7s0.2-0.5,0.2-0.7
		l0.8-3.7h1.2L342.5,151.2z"/>
	<path class="st0" d="M349.1,146.9h-1.9l-0.8,4c0,0.2-0.1,0.3-0.1,0.5s0,0.3,0,0.4c0,0.2,0.1,0.4,0.2,0.5c0.1,0.1,0.3,0.2,0.5,0.2
		c0.1,0,0.1,0,0.2,0c0.1,0,0.2,0,0.3-0.1c0.1,0,0.2-0.1,0.3-0.1c0.1,0,0.2-0.1,0.3-0.1l-0.2,1.1c-0.2,0.1-0.4,0.1-0.6,0.2
		c-0.2,0.1-0.4,0.1-0.6,0.1c-0.3,0-0.5,0-0.7-0.1c-0.2-0.1-0.4-0.2-0.5-0.3s-0.2-0.3-0.3-0.5c-0.1-0.2-0.1-0.4-0.1-0.6
		c0-0.1,0-0.3,0-0.5c0-0.2,0.1-0.4,0.1-0.5l0.9-4.1h-1.3l0.2-1h1.2l0.4-1.8c0,0,0.1,0,0.2-0.1c0.1,0,0.3-0.1,0.4-0.1
		c0.2,0,0.3-0.1,0.4-0.1s0.2-0.1,0.2-0.1l-0.5,2.2h1.9L349.1,146.9z"/>
	<path class="st0" d="M352,153.3c-0.1,0-0.3,0.1-0.4,0.1c-0.2,0-0.3,0-0.5,0c-0.5,0-0.9-0.1-1.1-0.4c-0.2-0.2-0.4-0.6-0.4-1
		c0-0.1,0-0.3,0-0.4c0-0.2,0.1-0.4,0.1-0.6l1.1-5.2h1.2l-1.1,5.2c0,0.2-0.1,0.4-0.1,0.5c0,0.1,0,0.2,0,0.3c0,0.2,0.1,0.4,0.2,0.5
		c0.1,0.1,0.3,0.2,0.5,0.2c0.1,0,0.2,0,0.3,0s0.2,0,0.3-0.1L352,153.3z M352.8,143.2c0,0.2-0.1,0.4-0.2,0.6s-0.3,0.2-0.6,0.2
		c-0.2,0-0.4-0.1-0.6-0.2c-0.2-0.2-0.2-0.3-0.2-0.6s0.1-0.4,0.2-0.5c0.2-0.1,0.3-0.2,0.6-0.2s0.4,0.1,0.6,0.2
		C352.7,142.8,352.8,143,352.8,143.2z"/>
	<path class="st0" d="M360.3,148.6c0,0.7-0.1,1.3-0.3,1.9c-0.2,0.6-0.5,1.1-0.8,1.6c-0.4,0.4-0.8,0.8-1.3,1.1
		c-0.5,0.3-1.1,0.4-1.7,0.4c-0.4,0-0.8-0.1-1.2-0.2s-0.6-0.3-0.9-0.6c-0.2-0.3-0.4-0.6-0.6-0.9c-0.1-0.4-0.2-0.8-0.2-1.2
		c0-0.7,0.1-1.3,0.3-1.9c0.2-0.6,0.5-1.1,0.8-1.6c0.4-0.4,0.8-0.8,1.3-1c0.5-0.3,1.1-0.4,1.7-0.4c0.4,0,0.8,0.1,1.2,0.2
		s0.6,0.3,0.9,0.6c0.2,0.3,0.4,0.6,0.6,0.9S360.3,148.2,360.3,148.6z M359,148.7c0-0.3,0-0.6-0.1-0.8s-0.2-0.5-0.3-0.6
		c-0.1-0.2-0.3-0.3-0.5-0.4c-0.2-0.1-0.4-0.1-0.7-0.1c-0.4,0-0.8,0.1-1.2,0.3s-0.6,0.5-0.9,0.9c-0.2,0.4-0.4,0.8-0.6,1.2
		s-0.2,0.9-0.2,1.4c0,0.3,0,0.6,0.1,0.8c0.1,0.2,0.2,0.5,0.3,0.6c0.1,0.2,0.3,0.3,0.5,0.4s0.4,0.1,0.7,0.1c0.4,0,0.8-0.1,1.2-0.3
		s0.6-0.5,0.9-0.9c0.2-0.4,0.4-0.8,0.6-1.2C359,149.6,359,149.2,359,148.7z"/>
	<path class="st0" d="M368.5,147.7c0,0.1,0,0.2,0,0.3s0,0.3-0.1,0.4c0,0.1-0.1,0.3-0.1,0.4c0,0.1-0.1,0.3-0.1,0.4l-0.9,4.1h-1.2
		l0.9-4.4c0-0.1,0-0.2,0.1-0.3s0-0.2,0.1-0.3c0-0.1,0-0.2,0-0.3c0-0.1,0-0.2,0-0.2c0-0.4-0.1-0.7-0.3-0.9c-0.2-0.2-0.4-0.3-0.8-0.3
		c-0.3,0-0.6,0.1-1,0.3c-0.3,0.2-0.6,0.4-0.9,0.7c-0.3,0.3-0.5,0.6-0.7,1c-0.2,0.4-0.3,0.7-0.4,1l-0.8,3.7h-1.2l1.2-5.4
		c0-0.2,0.1-0.4,0.1-0.6c0-0.2,0.1-0.4,0.1-0.6c0-0.2,0.1-0.4,0.1-0.5s0-0.3,0.1-0.4h1.2c0,0.2-0.1,0.4-0.1,0.6s-0.1,0.4-0.1,0.6
		c0,0.2-0.1,0.4-0.1,0.6h0c0.2-0.3,0.4-0.5,0.6-0.8c0.2-0.2,0.4-0.4,0.7-0.6c0.2-0.2,0.5-0.3,0.8-0.4c0.3-0.1,0.6-0.2,0.9-0.2
		c0.3,0,0.6,0,0.9,0.1c0.2,0.1,0.4,0.2,0.6,0.4s0.3,0.4,0.4,0.7C368.5,147.2,368.5,147.4,368.5,147.7z"/>
	<path class="st0" d="M374.6,147.2c-0.2-0.1-0.5-0.3-0.7-0.3c-0.3-0.1-0.5-0.1-0.8-0.1c-0.5,0-0.8,0.1-1.1,0.3
		c-0.3,0.2-0.4,0.5-0.4,0.8c0,0.1,0,0.3,0.1,0.4c0,0.1,0.1,0.2,0.2,0.3c0.1,0.1,0.2,0.2,0.3,0.3s0.3,0.2,0.5,0.3
		c0.5,0.3,0.9,0.6,1.2,1s0.4,0.7,0.4,1.1c0,0.3-0.1,0.6-0.2,0.8c-0.1,0.3-0.3,0.5-0.5,0.7c-0.2,0.2-0.5,0.4-0.9,0.5
		c-0.4,0.1-0.8,0.2-1.3,0.2c-0.1,0-0.3,0-0.5,0c-0.2,0-0.4,0-0.5-0.1c-0.2,0-0.3-0.1-0.5-0.1c-0.2-0.1-0.3-0.1-0.4-0.2l0.2-1.1
		c0.1,0.1,0.2,0.1,0.4,0.2s0.3,0.1,0.5,0.2s0.3,0.1,0.5,0.1c0.2,0,0.4,0.1,0.5,0.1c0.5,0,0.9-0.1,1.1-0.3s0.4-0.5,0.4-0.8
		c0-0.1,0-0.2-0.1-0.4s-0.1-0.2-0.2-0.3c-0.1-0.1-0.2-0.2-0.4-0.3c-0.2-0.1-0.3-0.2-0.6-0.4c-0.5-0.3-0.9-0.6-1.1-0.9
		c-0.2-0.3-0.4-0.7-0.4-1.1c0-0.3,0.1-0.6,0.2-0.9s0.3-0.5,0.5-0.7c0.2-0.2,0.5-0.4,0.8-0.5s0.7-0.2,1.2-0.2c0.4,0,0.7,0,1,0.1
		c0.3,0.1,0.6,0.2,0.8,0.3L374.6,147.2z"/>
	<path class="st0" d="M385.4,143.3c0,0-0.1,0-0.2-0.1c-0.1,0-0.1,0-0.2-0.1s-0.2,0-0.2,0s-0.2,0-0.2,0c-0.4,0-0.7,0.1-0.9,0.4
		c-0.2,0.3-0.4,0.6-0.5,1.2l-0.3,1.2h1.8l-0.2,1h-1.8l-1.9,9h-1.2l1.9-9h-1.3l0.2-1h1.3l0.3-1.4c0.1-0.4,0.2-0.8,0.4-1.1
		c0.2-0.3,0.4-0.5,0.6-0.7c0.2-0.2,0.5-0.3,0.8-0.4c0.3-0.1,0.6-0.1,1-0.1c0.2,0,0.4,0,0.5,0s0.3,0.1,0.4,0.1L385.4,143.3z"/>
	<path class="st0" d="M391.3,148.6c0,0.7-0.1,1.3-0.3,1.9c-0.2,0.6-0.5,1.1-0.8,1.6c-0.4,0.4-0.8,0.8-1.3,1.1
		c-0.5,0.3-1.1,0.4-1.7,0.4c-0.4,0-0.8-0.1-1.2-0.2s-0.6-0.3-0.9-0.6c-0.2-0.3-0.4-0.6-0.6-0.9c-0.1-0.4-0.2-0.8-0.2-1.2
		c0-0.7,0.1-1.3,0.3-1.9c0.2-0.6,0.5-1.1,0.8-1.6c0.4-0.4,0.8-0.8,1.3-1c0.5-0.3,1.1-0.4,1.7-0.4c0.4,0,0.8,0.1,1.2,0.2
		s0.6,0.3,0.9,0.6c0.2,0.3,0.4,0.6,0.6,0.9S391.3,148.2,391.3,148.6z M390.1,148.7c0-0.3,0-0.6-0.1-0.8s-0.2-0.5-0.3-0.6
		c-0.1-0.2-0.3-0.3-0.5-0.4c-0.2-0.1-0.4-0.1-0.7-0.1c-0.4,0-0.8,0.1-1.2,0.3s-0.6,0.5-0.9,0.9c-0.2,0.4-0.4,0.8-0.6,1.2
		s-0.2,0.9-0.2,1.4c0,0.3,0,0.6,0.1,0.8c0.1,0.2,0.2,0.5,0.3,0.6c0.1,0.2,0.3,0.3,0.5,0.4s0.4,0.1,0.7,0.1c0.4,0,0.8-0.1,1.2-0.3
		s0.6-0.5,0.9-0.9c0.2-0.4,0.4-0.8,0.6-1.2C390,149.6,390.1,149.2,390.1,148.7z"/>
	<path class="st0" d="M397.5,147.1L397.5,147.1c-0.1-0.1-0.3-0.1-0.4-0.2c-0.2-0.1-0.3-0.1-0.5-0.1c-0.3,0-0.6,0.1-0.8,0.3
		s-0.5,0.4-0.7,0.7s-0.4,0.6-0.6,1c-0.2,0.4-0.3,0.8-0.4,1.2l-0.7,3.3h-1.2l1.1-5c0-0.2,0.1-0.4,0.1-0.6c0-0.2,0.1-0.5,0.1-0.7
		c0-0.2,0.1-0.4,0.1-0.6s0.1-0.4,0.1-0.6h1.2c0,0.1,0,0.3-0.1,0.5s0,0.3-0.1,0.5c0,0.2,0,0.3-0.1,0.4c0,0.1,0,0.2,0,0.3h0
		c0.2-0.3,0.3-0.5,0.5-0.8s0.3-0.4,0.5-0.6c0.2-0.2,0.4-0.3,0.6-0.4s0.4-0.1,0.7-0.1c0.1,0,0.3,0,0.4,0c0.1,0,0.3,0.1,0.4,0.1
		L397.5,147.1z"/>
	<path class="st0" d="M409.2,144h-4.1l-0.8,3.6h3.8l-0.2,1.1h-3.8l-0.8,3.6h4.3l-0.2,1.1h-5.6l2.2-10.5h5.3L409.2,144z"/>
	<path class="st0" d="M412.1,153.4h-1l-1.2-7.5h1.2l0.7,4.7c0,0.1,0,0.2,0,0.3c0,0.1,0,0.2,0,0.4s0,0.2,0,0.4s0,0.2,0,0.3h0
		c0-0.1,0.1-0.2,0.1-0.3c0.1-0.1,0.1-0.2,0.2-0.3c0.1-0.1,0.1-0.2,0.2-0.4c0.1-0.1,0.1-0.2,0.2-0.3l2.7-4.7h1.4L412.1,153.4z"/>
	<path class="st0" d="M423,147.6c0,0.4-0.1,0.8-0.3,1.1c-0.2,0.3-0.5,0.6-0.9,0.8s-0.9,0.4-1.6,0.5c-0.7,0.1-1.5,0.2-2.5,0.2
		c0,0.1,0,0.1,0,0.2c0,0.1,0,0.1,0,0.1c0,0.3,0,0.5,0.1,0.7s0.2,0.4,0.3,0.6s0.4,0.3,0.6,0.4s0.5,0.2,0.9,0.2c0.3,0,0.7-0.1,1.1-0.2
		c0.4-0.1,0.8-0.3,1.2-0.6l-0.2,1.2c-0.3,0.2-0.6,0.3-1,0.4c-0.4,0.1-0.8,0.2-1.2,0.2c-0.6,0-1-0.1-1.4-0.3s-0.7-0.4-0.9-0.7
		c-0.2-0.3-0.4-0.6-0.5-1s-0.2-0.8-0.2-1.2c0-0.4,0-0.9,0.1-1.3c0.1-0.4,0.2-0.8,0.4-1.1c0.2-0.4,0.4-0.7,0.6-1s0.5-0.5,0.8-0.7
		s0.6-0.4,1-0.5c0.3-0.1,0.7-0.2,1.1-0.2c0.4,0,0.7,0.1,1,0.2c0.3,0.1,0.5,0.2,0.7,0.4c0.2,0.2,0.3,0.4,0.5,0.6
		C422.9,147.1,423,147.4,423,147.6z M421.8,147.7c0-0.3-0.1-0.5-0.3-0.7s-0.5-0.3-0.9-0.3c-0.3,0-0.6,0.1-0.9,0.2
		c-0.3,0.1-0.5,0.3-0.8,0.5c-0.2,0.2-0.4,0.5-0.6,0.8c-0.2,0.3-0.3,0.7-0.4,1c0.7,0,1.3,0,1.8-0.1c0.5-0.1,0.9-0.2,1.2-0.3
		s0.5-0.3,0.7-0.5C421.7,148.1,421.8,147.9,421.8,147.7z"/>
	<path class="st0" d="M428.9,147.1L428.9,147.1c-0.1-0.1-0.3-0.1-0.4-0.2c-0.2-0.1-0.3-0.1-0.5-0.1c-0.3,0-0.6,0.1-0.8,0.3
		s-0.5,0.4-0.7,0.7s-0.4,0.6-0.6,1c-0.2,0.4-0.3,0.8-0.4,1.2l-0.7,3.3h-1.2l1.1-5c0-0.2,0.1-0.4,0.1-0.6c0-0.2,0.1-0.5,0.1-0.7
		c0-0.2,0.1-0.4,0.1-0.6s0.1-0.4,0.1-0.6h1.2c0,0.1,0,0.3-0.1,0.5s0,0.3-0.1,0.5c0,0.2,0,0.3-0.1,0.4c0,0.1,0,0.2,0,0.3h0
		c0.2-0.3,0.3-0.5,0.5-0.8s0.3-0.4,0.5-0.6c0.2-0.2,0.4-0.3,0.6-0.4s0.4-0.1,0.7-0.1c0.1,0,0.3,0,0.4,0c0.1,0,0.3,0.1,0.4,0.1
		L428.9,147.1z"/>
	<path class="st0" d="M431.6,154.6c-0.2,0.4-0.5,0.7-0.7,1c-0.2,0.3-0.5,0.5-0.7,0.7c-0.3,0.2-0.5,0.3-0.8,0.4
		c-0.3,0.1-0.6,0.1-0.9,0.1c-0.1,0-0.2,0-0.4,0c-0.1,0-0.3,0-0.3-0.1l0.2-1.1c0.1,0,0.2,0.1,0.3,0.1c0.1,0,0.2,0,0.3,0
		c0.3,0,0.6-0.1,0.9-0.3c0.3-0.2,0.5-0.5,0.8-0.9l0.9-1.4l-1.4-7.5h1.3l0.9,5.8c0,0.1,0,0.2,0,0.3c0,0.1,0,0.2,0,0.3h0
		c0-0.1,0.1-0.1,0.1-0.2s0.1-0.2,0.2-0.3l3.3-5.8h1.3L431.6,154.6z"/>
	<path class="st0" d="M449.5,149.2c-0.1,0.7-0.3,1.3-0.6,1.8c-0.2,0.5-0.5,1-0.9,1.4c-0.3,0.4-0.8,0.6-1.3,0.8
		c-0.5,0.2-1.1,0.3-1.8,0.3c-0.5,0-1-0.1-1.5-0.3s-0.8-0.4-1.1-0.7c-0.3-0.3-0.5-0.6-0.7-1.1c-0.2-0.4-0.2-0.8-0.2-1.3
		c0-0.2,0-0.4,0-0.7c0-0.3,0.1-0.5,0.1-0.7l1.3-5.9h1.3l-1.3,5.8c0,0.1,0,0.2-0.1,0.4s0,0.3-0.1,0.4c0,0.1,0,0.3,0,0.4s0,0.2,0,0.3
		c0,0.4,0.1,0.7,0.2,1c0.1,0.3,0.3,0.5,0.5,0.7c0.2,0.2,0.5,0.3,0.7,0.4c0.3,0.1,0.6,0.1,0.9,0.1c0.4,0,0.8-0.1,1.1-0.2
		s0.6-0.3,0.9-0.5s0.5-0.6,0.6-1c0.2-0.4,0.3-0.8,0.4-1.4l1.4-6.5h1.3L449.5,149.2z"/>
	<path class="st0" d="M456,147.2c-0.2-0.1-0.5-0.3-0.7-0.3c-0.3-0.1-0.5-0.1-0.8-0.1c-0.5,0-0.8,0.1-1.1,0.3
		c-0.3,0.2-0.4,0.5-0.4,0.8c0,0.1,0,0.3,0.1,0.4c0,0.1,0.1,0.2,0.2,0.3c0.1,0.1,0.2,0.2,0.3,0.3s0.3,0.2,0.5,0.3
		c0.5,0.3,0.9,0.6,1.2,1s0.4,0.7,0.4,1.1c0,0.3-0.1,0.6-0.2,0.8c-0.1,0.3-0.3,0.5-0.5,0.7c-0.2,0.2-0.5,0.4-0.9,0.5
		c-0.4,0.1-0.8,0.2-1.3,0.2c-0.1,0-0.3,0-0.5,0c-0.2,0-0.4,0-0.5-0.1c-0.2,0-0.3-0.1-0.5-0.1c-0.2-0.1-0.3-0.1-0.4-0.2l0.2-1.1
		c0.1,0.1,0.2,0.1,0.4,0.2s0.3,0.1,0.5,0.2s0.3,0.1,0.5,0.1c0.2,0,0.4,0.1,0.5,0.1c0.5,0,0.9-0.1,1.1-0.3s0.4-0.5,0.4-0.8
		c0-0.1,0-0.2-0.1-0.4s-0.1-0.2-0.2-0.3c-0.1-0.1-0.2-0.2-0.4-0.3c-0.2-0.1-0.3-0.2-0.6-0.4c-0.5-0.3-0.9-0.6-1.1-0.9
		c-0.2-0.3-0.4-0.7-0.4-1.1c0-0.3,0.1-0.6,0.2-0.9s0.3-0.5,0.5-0.7c0.2-0.2,0.5-0.4,0.8-0.5s0.7-0.2,1.2-0.2c0.4,0,0.7,0,1,0.1
		c0.3,0.1,0.6,0.2,0.8,0.3L456,147.2z"/>
	<path class="st0" d="M463.5,147.6c0,0.4-0.1,0.8-0.3,1.1c-0.2,0.3-0.5,0.6-0.9,0.8s-0.9,0.4-1.6,0.5c-0.7,0.1-1.5,0.2-2.5,0.2
		c0,0.1,0,0.1,0,0.2c0,0.1,0,0.1,0,0.1c0,0.3,0,0.5,0.1,0.7s0.2,0.4,0.3,0.6s0.4,0.3,0.6,0.4s0.5,0.2,0.9,0.2c0.3,0,0.7-0.1,1.1-0.2
		c0.4-0.1,0.8-0.3,1.2-0.6l-0.2,1.2c-0.3,0.2-0.6,0.3-1,0.4c-0.4,0.1-0.8,0.2-1.2,0.2c-0.6,0-1-0.1-1.4-0.3s-0.7-0.4-0.9-0.7
		c-0.2-0.3-0.4-0.6-0.5-1s-0.2-0.8-0.2-1.2c0-0.4,0-0.9,0.1-1.3c0.1-0.4,0.2-0.8,0.4-1.1c0.2-0.4,0.4-0.7,0.6-1s0.5-0.5,0.8-0.7
		s0.6-0.4,1-0.5c0.3-0.1,0.7-0.2,1.1-0.2c0.4,0,0.7,0.1,1,0.2c0.3,0.1,0.5,0.2,0.7,0.4c0.2,0.2,0.3,0.4,0.5,0.6
		C463.5,147.1,463.5,147.4,463.5,147.6z M462.3,147.7c0-0.3-0.1-0.5-0.3-0.7s-0.5-0.3-0.9-0.3c-0.3,0-0.6,0.1-0.9,0.2
		c-0.3,0.1-0.5,0.3-0.8,0.5c-0.2,0.2-0.4,0.5-0.6,0.8c-0.2,0.3-0.3,0.7-0.4,1c0.7,0,1.3,0,1.8-0.1c0.5-0.1,0.9-0.2,1.2-0.3
		s0.5-0.3,0.7-0.5C462.2,148.1,462.3,147.9,462.3,147.7z"/>
	<path class="st0" d="M469.4,147.1L469.4,147.1c-0.1-0.1-0.3-0.1-0.4-0.2c-0.2-0.1-0.3-0.1-0.5-0.1c-0.3,0-0.6,0.1-0.8,0.3
		s-0.5,0.4-0.7,0.7s-0.4,0.6-0.6,1c-0.2,0.4-0.3,0.8-0.4,1.2l-0.7,3.3h-1.2l1.1-5c0-0.2,0.1-0.4,0.1-0.6c0-0.2,0.1-0.5,0.1-0.7
		c0-0.2,0.1-0.4,0.1-0.6s0.1-0.4,0.1-0.6h1.2c0,0.1,0,0.3-0.1,0.5s0,0.3-0.1,0.5c0,0.2,0,0.3-0.1,0.4c0,0.1,0,0.2,0,0.3h0
		c0.2-0.3,0.3-0.5,0.5-0.8s0.3-0.4,0.5-0.6c0.2-0.2,0.4-0.3,0.6-0.4s0.4-0.1,0.7-0.1c0.1,0,0.3,0,0.4,0c0.1,0,0.3,0.1,0.4,0.1
		L469.4,147.1z"/>
</g>
<g>
	<path class="st1" d="M235.5,129.1h-14.9v-97h14.9V129.1z"/>
	<path class="st1" d="M283.8,130.6c-10.1,0-18.2-3.1-24.2-9.2c-6-6.1-9-14.2-9-24.4c0-11,3.1-19.6,9.4-25.8
		c6.3-6.2,14.7-9.3,25.4-9.3c10.2,0,18.2,3,23.9,9c5.7,6,8.6,14.4,8.6,25c0,10.5-3.1,18.8-9.2,25.1
		C302.4,127.5,294.2,130.6,283.8,130.6z M284.5,73.9c-5.8,0-10.4,2-13.7,6.1c-3.4,4.1-5,9.6-5,16.8c0,6.9,1.7,12.3,5.1,16.2
		c3.4,3.9,8,5.9,13.7,5.9c5.8,0,10.3-1.9,13.4-5.8c3.1-3.9,4.7-9.4,4.7-16.6c0-7.2-1.6-12.8-4.7-16.7
		C294.8,75.8,290.3,73.9,284.5,73.9z"/>
	<path class="st1" d="M390,129.1h-14.8v-10.4h-0.3c-4.3,7.9-11,11.9-20.1,11.9c-15.5,0-23.2-9.3-23.2-27.9V63.6h14.8v37.6
		c0,11.8,4.5,17.7,13.6,17.7c4.4,0,8-1.6,10.8-4.9c2.8-3.2,4.2-7.5,4.2-12.7V63.6H390L390,129.1L390,129.1z"/>
	<path class="st1" d="M468.7,129.1h-14.8V118h-0.3c-4.8,8.4-12.1,12.7-22,12.7c-8,0-14.5-2.9-19.3-8.8s-7.3-13.9-7.3-24
		c0-10.8,2.7-19.5,8-26.1c5.3-6.5,12.5-9.8,21.4-9.8c8.8,0,15.2,3.5,19.2,10.6h0.3V32.1h14.8V129.1z M454.1,99.1v-8.6
		c0-4.7-1.5-8.6-4.5-11.8c-3-3.2-6.9-4.9-11.6-4.9c-5.5,0-9.9,2.1-13.1,6.2c-3.2,4.1-4.8,9.9-4.8,17.2c0,6.7,1.5,11.9,4.6,15.8
		c3,3.9,7.1,5.8,12.3,5.8c5.1,0,9.2-1.9,12.3-5.6C452.5,109.5,454.1,104.8,454.1,99.1z"/>
</g>
<path class="st2" d="M201.9,21.6c-2-1.4-4-2.6-6.2-3.6c-6.5-3-13.3-4.4-20.4-3.6c-13.8,1.4-24.1,8.1-31,20
	c-1.9,3.2-3.1,6.7-3.8,10.4c-0.2,0.9-0.6,1.2-1.4,1.4c-5.9,1.4-11.2,4-15.9,7.8c-6.1,5-10.3,11.2-12.5,18.8
	c-1.9,6.3-2.1,12.8-0.6,19.2c2.6,11,9.1,19.3,18.9,24.9c5.1,2.9,10.7,4.5,16.5,4.8c1.9,0.1,1.6-0.1,2,1.8c1.2,6.4,4,12.1,8.1,17.1
	c4.4,5.3,9.9,9.2,16.4,11.6c6.3,2.3,12.7,3,19.4,2.1c7.9-1.1,14.7-4.3,20.7-9.5c0.2-0.2,0.4-0.4,0.7-0.5c0.2,0.4-0.2,0.5-0.3,0.7
	c-5.4,7-12.3,12.1-20.9,14.6c-16.2,4.6-30.4,1-42.4-10.7c-5.8-5.6-9.3-12.6-11-20.5c-0.1-0.6-0.3-1.3-0.4-2c-0.1-0.6-0.4-0.8-1-0.9
	c-17.6-1.3-29.9-10.1-37-26.2c-3-6.7-3.8-14-2.7-21.3c2.6-16.5,11.8-27.7,27.2-33.9c1.6-0.6,3.3-1,5-1.5c0.5-0.1,0.6-0.3,0.8-0.8
	c3.1-14.4,11.3-24.6,24.7-30.6c6.8-3,13.9-4,21.3-3.1c9.4,1.1,17.5,5,24.4,11.6C201.1,20.4,201.6,20.9,201.9,21.6z"/>
<g id="iF">
	<g>
		<path class="st3" d="M9.5,128.7h14.6v-74l-14.5,0L9.5,128.7z M16.5,32c-4.9,0-8.4,3.5-8.4,8.4c0,4.8,3.4,8.4,8.4,8.4
			c4.9,0,8.5-3.3,8.5-8.4C25,35.5,21.6,32,16.5,32z M83.9,43.5V32.2l-45-0.1l-0.1,97l14.8,0V79.5h20.9v-11H53.6v-25L83.9,43.5
			L83.9,43.5z"/>
	</g>
</g>
</svg>
