<?xml version="1.0" encoding="utf-8"?>
<!-- Generator: Adobe Illustrator 23.0.3, SVG Export Plug-In . SVG Version: 6.00 Build 0)  -->
<svg version="1.1" xmlns="http://www.w3.org/2000/svg" xmlns:xlink="http://www.w3.org/1999/xlink" x="0px" y="0px"
	 viewBox="0 0 1000 590" style="enable-background:new 0 0 1000 590;" xml:space="preserve">
<style type="text/css">
	.st0{fill:#FFA41F;}
	.st1{fill:#FFA41F;stroke:#FFFFFF;stroke-width:7;stroke-miterlimit:10;}
	.st2{fill:#666666;stroke:#FFFFFF;stroke-width:7;stroke-miterlimit:10;}
	.st3{fill:#666666;}
</style>
<g id="Layer_1">
</g>
<g id="Layer_2">
	<g>
		<rect x="244" y="40" class="st0" width="379" height="86"/>
		<polygon class="st0" points="534.4,143.1 751.1,328.4 743,376 628,284.9 628,580 533,580 533,292.6 		"/>
		<path class="st1" d="M658.9,57.5c14.2,35.3-3,75.4-38.3,89.5c-35.3,14.2-75.4-3-89.5-38.3c-14.2-35.3,3-75.4,38.2-89.5
			C604.6,5.1,644.7,22.2,658.9,57.5z"/>
		<path class="st2" d="M858.3,83.8c0,38,30.8,68.8,68.8,68.8c38,0,68.8-30.8,68.8-68.8c0-38-30.8-68.8-68.8-68.8
			C889.1,15,858.3,45.8,858.3,83.8z"/>
		<polygon class="st3" points="979.3,143.1 762.6,328.4 771.3,376 887,284.9 887,580 981,580 981,292.6 		"/>
		<rect x="30" y="174" class="st0" width="92" height="403"/>
		<path class="st0" d="M136.8,57.5c14.2,35.3-3,75.4-38.2,89.5c-35.3,14.2-75.4-3-89.5-38.2c-14.2-35.3,3-75.4,38.2-89.5
			C82.5,5.1,122.6,22.2,136.8,57.5z"/>
		<rect x="189" y="40" class="st0" width="90" height="535"/>
		<rect x="199" y="251" class="st0" width="252" height="60"/>
	</g>
</g>
<g id="Layer_3">
</g>
</svg>
